<svg xmlns="http://www.w3.org/2000/svg" width="24" height="24" viewBox="0 0 24 24">
    <g fill="none" fill-rule="evenodd">
        <path fill="#EDEDED" stroke="#8E7966" stroke-width=".677" d="M23.553 8.13a3.465 3.465 0 0 1-3.465 3.463A3.465 3.465 0 0 1 16.62 8.13a3.465 3.465 0 0 1 3.467-3.463 3.464 3.464 0 0 1 3.465 3.463zM7.379 8.13a3.465 3.465 0 0 1-3.466 3.463A3.465 3.465 0 0 1 .447 8.13a3.465 3.465 0 0 1 3.466-3.463A3.464 3.464 0 0 1 7.379 8.13z"/>
        <path fill="#D3D3D3" stroke="#8E7966" stroke-width=".677" d="M13.155 1.204h-2.31a7.314 7.314 0 0 0-7.317 7.31v5.003c0 4.675 3.793 8.465 8.472 8.465 4.68 0 8.473-3.79 8.473-8.465V8.514a7.314 7.314 0 0 0-7.318-7.31z"/>
        <path fill="#BABABA" stroke="#8E7966" stroke-width=".677" d="M16.276 12.922a2.5 2.5 0 0 0-1.002-4.792c-1.211 0-2.221.859-2.454 2a4.632 4.632 0 0 0-.82-.077c-.28 0-.554.03-.82.078a2.504 2.504 0 0 0-4.957.5 2.5 2.5 0 0 0 1.501 2.29c-.041.1-.075.204-.11.308a5.742 5.742 0 0 0-1.39 3.75A5.774 5.774 0 0 0 12 22.751a5.774 5.774 0 0 0 5.777-5.772 5.742 5.742 0 0 0-1.392-3.75c-.034-.104-.068-.207-.11-.307z"/>
        <path fill="#8E7966" d="M9.304 10.63a.577.577 0 1 1-1.154 0 .577.577 0 0 1 1.154 0zM15.851 10.63a.577.577 0 1 1-1.154 0 .577.577 0 0 1 1.154 0zM11.615 14.286c0-.425-.259-.77-.578-.77-.319 0-.577.345-.577.77 0 .425.258.77.577.77.32 0 .578-.345.578-.77zM13.54 14.286c0-.425-.258-.77-.577-.77-.32 0-.578.345-.578.77 0 .425.259.77.578.77.319 0 .577-.345.577-.77z"/>
        <path fill="#8E7966" d="M9.69 14.286a1.157 1.157 0 0 1 1.155-1.154h2.31a1.157 1.157 0 0 1 1.156 1.154.385.385 0 0 0 .77 0 1.925 1.925 0 0 0-1.926-1.924h-2.31a1.925 1.925 0 0 0-1.926 1.924.385.385 0 0 0 .77 0zM14.28 21.212H9.72a.801.801 0 0 1-.8-.8v-2.785c0-.995.807-1.802 1.803-1.802h2.554c.997 0 1.804.807 1.804 1.802v2.784a.8.8 0 0 1-.801.801z"/>
        <path fill="#D3D3D3" d="M10.46 17.223V16.21h1.155l-.84 1.118a.175.175 0 0 1-.315-.105zM13.54 17.223V16.21h-1.155l.84 1.118a.175.175 0 0 0 .315-.105z"/>
    </g>
</svg>
