<svg xmlns="http://www.w3.org/2000/svg" xmlns:xlink="http://www.w3.org/1999/xlink" width="24" height="24" viewBox="0 0 24 24">
    <defs>
        <path id="a" d="M.047 0h16.806v5.282H.047z"/>
        <path id="c" d="M.042.02h7.075v3.167H.042z"/>
    </defs>
    <g fill="none" fill-rule="evenodd">
        <g transform="translate(3.546 .4)">
            <mask id="b" fill="#fff">
                <use xlink:href="#a"/>
            </mask>
            <path fill="#EDEDED" stroke="#8E7966" stroke-linecap="round" stroke-linejoin="round" stroke-width=".685" d="M.528.711a3.392 3.392 0 0 0 1.195 3.427 3.495 3.495 0 0 0 3.643.434A3.391 3.391 0 0 0 4.17 1.146 3.495 3.495 0 0 0 .528.71zM16.371.711a3.392 3.392 0 0 1-1.195 3.427 3.495 3.495 0 0 1-3.642.434 3.392 3.392 0 0 1 1.194-3.426A3.495 3.495 0 0 1 16.371.71z" mask="url(#b)"/>
        </g>
        <path fill="#D3D3D3" stroke="#8E7966" stroke-linecap="round" stroke-linejoin="round" stroke-width=".685" d="M13.822 21.402h-3.467c-2.226 0-4.09-2.509-4.312-5.803l-.626-9.311c-.155-2.314 1.402-4.292 3.38-4.292l3.284.511 3.3-.51c1.977 0 3.535 1.977 3.379 4.291l-.626 9.311c-.222 3.294-2.086 5.803-4.312 5.803z"/>
        <g transform="translate(8.509 19.83)">
            <mask id="d" fill="#fff">
                <use xlink:href="#c"/>
            </mask>
            <path fill="#D3D3D3" d="M6.724.408V1.62c0 .785-.728 1.351-1.46 1.136L3.58 2.26l-1.685.497c-.731.215-1.46-.351-1.46-1.136V.408" mask="url(#d)"/>
            <path fill="#8E7966" d="M6.331.408V1.62c0 .233-.09.429-.23.571a.735.735 0 0 1-.52.223.743.743 0 0 1-.205-.03l-1.684-.496a.395.395 0 0 0-.225 0l-1.684.496a.729.729 0 0 1-.205.03.734.734 0 0 1-.52-.223.804.804 0 0 1-.23-.57V.407A.39.39 0 0 0 .435.02a.39.39 0 0 0-.393.388V1.62c0 .878.699 1.568 1.536 1.57.142 0 .287-.02.43-.063l1.572-.463 1.572.463c.143.042.287.063.429.063a1.555 1.555 0 0 0 1.536-1.57V.408A.39.39 0 0 0 6.724.02a.39.39 0 0 0-.393.388z" mask="url(#d)"/>
        </g>
        <path fill="#BABABA" d="M8.158 15.688c0 1.562 1.76 1.442 3.93 1.442 2.171 0 3.931.12 3.931-1.442 0-1.561-1.76-2.827-3.93-2.827-2.171 0-3.931 1.266-3.931 2.827z"/>
        <path fill="#8E7966" d="M12.089 16.724l1.655-1.62a.402.402 0 0 0-.286-.688h-2.739a.402.402 0 0 0-.286.688l1.656 1.62zM10.123 7.624a.586.586 0 0 1-.59.582.586.586 0 0 1-.59-.582c0-.322.265-.582.59-.582.326 0 .59.26.59.582zM15.233 7.624a.586.586 0 0 1-.59.582.586.586 0 0 1-.59-.582c0-.322.265-.582.59-.582.326 0 .59.26.59.582z"/>
        <path fill="#54596E" d="M12.089 17.132h.393v-.776a.39.39 0 0 0-.393-.388.388.388 0 0 0-.393.388v1.94a.388.388 0 0 0 .393.389.39.39 0 0 0 .393-.388v-1.165h-.787v1.165a.388.388 0 0 0 .394.388.39.39 0 0 0 .393-.388v-1.165-.776a.39.39 0 0 0-.393-.388.388.388 0 0 0-.393.388v.776h.393z"/>
        <path fill="#8E7966" d="M10.123 20.625c1.303 0 2.358-1.042 2.359-2.328a.39.39 0 0 0-.393-.388.39.39 0 0 0-.394.388c0 .43-.175.815-.46 1.097a1.576 1.576 0 0 1-1.112.455.39.39 0 0 0-.393.388.39.39 0 0 0 .393.388z"/>
        <path fill="#8E7966" d="M14.054 19.85c-.435-.001-.826-.174-1.112-.456a1.537 1.537 0 0 1-.46-1.097.39.39 0 0 0-.393-.388.39.39 0 0 0-.394.388c0 1.286 1.056 2.328 2.359 2.328a.39.39 0 0 0 .393-.388.39.39 0 0 0-.393-.388zM7.904 14.278c-.006-.005-.418-.413-1.024-.824-.607-.41-1.405-.833-2.216-.836-.162 0-.324.017-.485.057a.193.193 0 0 0-.142.235.197.197 0 0 0 .238.142 1.6 1.6 0 0 1 .39-.046c.665-.004 1.418.375 1.992.768a8.073 8.073 0 0 1 .9.714l.052.049.017.016a.199.199 0 0 0 .278 0 .192.192 0 0 0 0-.275zM7.838 15.4c-.016-.006-.68-.268-1.705-.268-.768 0-1.739.148-2.78.662a.193.193 0 0 0-.088.26.198.198 0 0 0 .264.088 5.847 5.847 0 0 1 2.604-.622c.478 0 .872.062 1.144.122.136.03.242.061.313.083l.079.027.019.007.004.001c.1.04.215-.009.255-.108a.193.193 0 0 0-.11-.252zM8.7 15.974c-.006.001-.798.196-1.649.542a6.915 6.915 0 0 0-1.233.632c-.366.25-.67.534-.794.893a.197.197 0 0 0 .373.123c.072-.223.308-.472.642-.696.5-.337 1.193-.622 1.758-.816a13.856 13.856 0 0 1 .998-.302.194.194 0 0 0 .143-.235.197.197 0 0 0-.238-.141zM16.355 14.553l.016-.016a7.79 7.79 0 0 1 1.062-.837c.558-.365 1.26-.697 1.883-.694.134 0 .264.014.39.045a.197.197 0 0 0 .238-.14.194.194 0 0 0-.143-.236 1.992 1.992 0 0 0-.484-.057c-.811.003-1.609.426-2.216.836-.606.411-1.019.82-1.024.824a.192.192 0 0 0 0 .275.199.199 0 0 0 .278 0zM16.289 15.76l.004-.002c.058-.022.658-.238 1.554-.238a5.85 5.85 0 0 1 2.604.621c.097.048.215.01.264-.086a.193.193 0 0 0-.088-.26 6.246 6.246 0 0 0-2.78-.663c-1.024 0-1.688.261-1.704.268-.1.04-.15.152-.11.252.04.1.155.148.256.108zM15.185 16.35l.132.035c.298.08 1.055.3 1.77.621.358.16.704.347.974.547.272.2.46.416.523.61a.197.197 0 0 0 .249.124.194.194 0 0 0 .124-.246c-.124-.359-.428-.644-.794-.893-.552-.372-1.267-.66-1.85-.862-.581-.2-1.028-.311-1.032-.312a.194.194 0 1 0-.095.377z"/>
    </g>
</svg>
