<svg xmlns="http://www.w3.org/2000/svg" xmlns:xlink="http://www.w3.org/1999/xlink" width="24" height="24" viewBox="0 0 24 24">
    <defs>
        <path id="a" d="M.034 0h18.32v23.2H.033z"/>
    </defs>
    <g fill="none" fill-rule="evenodd">
        <g transform="translate(2.8 .4)">
            <mask id="b" fill="#fff">
                <use xlink:href="#a"/>
            </mask>
            <path fill="#D3D3D3" stroke="#8E7966" stroke-linecap="round" stroke-linejoin="round" stroke-width=".649" d="M2.824 12.658C1.628 15.398.77 18.907.394 22.83h17.599c-.374-3.924-1.234-7.433-2.43-10.173a1.791 1.791 0 0 0 .63-2.484l-5.436-8.918a1.821 1.821 0 0 0-3.128 0l-5.435 8.918a1.792 1.792 0 0 0 .63 2.484z" mask="url(#b)"/>
        </g>
        <path fill="#8E7966" d="M11.994 15.123c1.925 0 3.615 1.718 4.572 4.302.145.392.706.312.75-.105a15.6 15.6 0 0 0 .083-1.617c0-5.09-2.42-9.214-5.405-9.214-2.985 0-5.406 4.125-5.406 9.214 0 .552.029 1.092.084 1.617.044.417.604.497.75.105.957-2.584 2.646-4.302 4.572-4.302z"/>
        <path fill="#BABABA" d="M11.994 15.123v.184c.908 0 1.767.404 2.525 1.132.758.728 1.408 1.78 1.878 3.051a.555.555 0 0 0 .525.374.576.576 0 0 0 .371-.135.582.582 0 0 0 .201-.39 15.75 15.75 0 0 0 .085-1.636c0-2.574-.61-4.907-1.609-6.61-.5-.852-1.097-1.546-1.769-2.03-.671-.485-1.42-.759-2.207-.759-.788 0-1.537.274-2.208.758-1.008.728-1.849 1.925-2.442 3.42-.592 1.495-.936 3.29-.936 5.22 0 .56.03 1.106.085 1.637.016.163.094.3.2.39.108.09.24.134.372.135a.555.555 0 0 0 .525-.374c.47-1.271 1.12-2.324 1.878-3.051.758-.728 1.617-1.132 2.526-1.132v-.368c-1.017 0-1.966.455-2.773 1.231-.808.778-1.482 1.877-1.968 3.19-.04.1-.105.132-.188.135a.221.221 0 0 1-.142-.05.207.207 0 0 1-.072-.145 15.405 15.405 0 0 1-.082-1.597c0-2.515.599-4.789 1.557-6.42.479-.817 1.046-1.472 1.668-1.92.622-.447 1.295-.69 2-.69.705 0 1.378.243 2 .69.932.672 1.742 1.811 2.315 3.257.573 1.446.91 3.197.91 5.083 0 .545-.029 1.08-.083 1.597a.21.21 0 0 1-.213.195c-.084-.003-.15-.035-.189-.135-.486-1.313-1.16-2.412-1.968-3.19-.807-.776-1.756-1.232-2.772-1.231v.184z"/>
        <path fill="#8E7966" d="M6.788 11.253c0-.509-.202-.921-.45-.921-.25 0-.45.412-.45.921 0 .509.2.922.45.922.248 0 .45-.413.45-.922zM18.122 11.253c0-.509-.202-.921-.45-.921-.25 0-.451.412-.451.921 0 .509.201.922.45.922s.45-.413.45-.922zM11.273 3.698a.364.364 0 0 1-.36.368c-.2 0-.36-.165-.36-.368 0-.204.16-.37.36-.37.199 0 .36.166.36.37zM13.435 3.698a.365.365 0 0 1-.36.368.364.364 0 0 1-.36-.368c0-.204.16-.37.36-.37.199 0 .36.166.36.37z"/>
        <path fill="#BABABA" d="M10.552 8.82L9.055 9.97 7.939 11.61l-.779 1.965-.45 2.174-.12 2.185.9-.784-.885-.161 1.065-.76-.848-1.21 1.388-.08-.942-1.711 1.483 1.158-.958-2.482.958.64-.492-1.501 1.573 1.132-.54-2.396 1.26 1.658v-2.58l.721 1.843.72-2.211M13.437 8.82l1.497 1.149 1.116 1.641.78 1.965.449 2.174.12 2.185-.9-.784.886-.161-1.065-.76.848-1.21-1.389-.08.942-1.711-1.482 1.158.957-2.482-.957.64.491-1.501-1.572 1.132.54-2.396-1.261 1.658v-2.58l-.72 1.843-.721-2.211"/>
    </g>
</svg>
