<svg xmlns="http://www.w3.org/2000/svg" xmlns:xlink="http://www.w3.org/1999/xlink" width="24" height="24" viewBox="0 0 24 24">
    <defs>
        <path id="a" d="M.034.002h13.625v23.145H.034z"/>
    </defs>
    <g fill="none" fill-rule="evenodd">
        <g transform="translate(5.358 .4)">
            <mask id="b" fill="#fff">
                <use xlink:href="#a"/>
            </mask>
            <path fill="#D3D3D3" d="M7.564.362H6.129C2.961.362.392 2.952.392 6.148v10.127c0 3.596 2.89 6.51 6.454 6.51 3.565 0 6.454-2.914 6.454-6.51V6.148c0-3.196-2.568-5.786-5.736-5.786" mask="url(#b)"/>
            <path fill="#8E7966" d="M7.564.362V0H6.129C2.762 0 .034 2.753.034 6.148v10.127c0 3.795 3.05 6.872 6.812 6.872 3.763 0 6.813-3.077 6.813-6.872V6.148C13.659 2.753 10.93 0 7.564 0v.723c1.486 0 2.828.607 3.803 1.59a5.43 5.43 0 0 1 1.575 3.835v10.127c0 1.7-.682 3.234-1.786 4.348a6.047 6.047 0 0 1-4.31 1.8 6.048 6.048 0 0 1-4.31-1.8 6.153 6.153 0 0 1-1.785-4.348V6.148c0-1.499.601-2.853 1.575-3.836A5.337 5.337 0 0 1 6.13.723h1.435V.362z" mask="url(#b)"/>
        </g>
        <path fill="#BABABA" d="M18.3 16.675c0 2.198-2.73 3.979-6.096 3.979S6.11 18.873 6.11 16.675c0 .173.007.343.02.513.243 2.969 2.578 5.34 5.514 5.61a6.118 6.118 0 0 0 1.088.003 6.03 6.03 0 0 0 3.783-1.778 6.155 6.155 0 0 0 1.786-4.348"/>
        <path fill="#EDEDED" stroke="#8E7966" stroke-width=".637" d="M10.053 7.453a2.341 2.341 0 0 1-2.33 2.35 2.34 2.34 0 0 1-2.331-2.35 2.34 2.34 0 0 1 2.33-2.351 2.34 2.34 0 0 1 2.331 2.35zM19.017 7.453a2.34 2.34 0 0 1-2.33 2.35 2.341 2.341 0 0 1-2.332-2.35 2.34 2.34 0 0 1 2.331-2.351 2.34 2.34 0 0 1 2.33 2.35z"/>
        <path fill="#8E7966" d="M8.26 7.453a.54.54 0 0 1-.538.542.54.54 0 0 1-.537-.542c0-.3.24-.543.537-.543a.54.54 0 0 1 .538.543zM17.224 7.453c0 .3-.24.542-.538.542a.54.54 0 0 1-.538-.542c0-.3.241-.543.538-.543a.54.54 0 0 1 .538.543z"/>
        <path fill="#EDEDED" stroke="#8E7966" stroke-linecap="round" stroke-linejoin="round" stroke-width=".637" d="M12.204 8.598l-2.028 2.29h4.056z"/>
        <path fill="#FFF" stroke="#8E7966" stroke-linecap="round" stroke-linejoin="round" stroke-width=".637" d="M8.619 23.185H5.392v-1.627a1.62 1.62 0 0 1 1.613-1.628 1.62 1.62 0 0 1 1.614 1.628v1.627z"/>
        <path fill="#8E7966" d="M6.109 21.632v1.447c0 .2.16.362.358.362a.36.36 0 0 0 .359-.362v-1.447a.36.36 0 0 0-.359-.361.36.36 0 0 0-.358.361M7.185 21.632v1.447c0 .2.16.362.358.362a.36.36 0 0 0 .358-.362v-1.447a.36.36 0 0 0-.358-.361.36.36 0 0 0-.358.361"/>
        <path fill="#FFF" stroke="#8E7966" stroke-linecap="round" stroke-linejoin="round" stroke-width=".637" d="M19.017 23.185H15.79v-1.627a1.62 1.62 0 0 1 1.613-1.628 1.62 1.62 0 0 1 1.614 1.628v1.627z"/>
        <path fill="#8E7966" d="M16.507 21.632v1.447c0 .2.16.362.359.362a.36.36 0 0 0 .358-.362v-1.447a.36.36 0 0 0-.358-.361.36.36 0 0 0-.36.361M17.583 21.632v1.447c0 .2.16.362.358.362a.36.36 0 0 0 .359-.362v-1.447a.36.36 0 0 0-.359-.361.36.36 0 0 0-.358.361M5.392 9.08c0 3.795 3.05 6.872 6.812 6.872 3.763 0 6.812-3.077 6.813-6.872a.36.36 0 0 0-.359-.362.36.36 0 0 0-.358.362c0 1.7-.682 3.234-1.786 4.348a6.048 6.048 0 0 1-4.31 1.8 6.048 6.048 0 0 1-4.31-1.8A6.154 6.154 0 0 1 6.11 9.08a.36.36 0 0 0-.359-.362.36.36 0 0 0-.358.362z"/>
        <path fill="#EDEDED" stroke="#8E7966" stroke-linecap="round" stroke-linejoin="round" stroke-width=".637" d="M5.75 17.399V9.803H1.448v3.255c0 2.397 1.926 4.34 4.302 4.34zM18.658 17.399V9.803h4.303v3.255c0 2.397-1.927 4.34-4.303 4.34zM12.204 8.718l8.964-5.786-8.964 1.29-8.963-1.29z"/>
        <path fill="#8E7966" d="M1.606 11.973h2.15a.36.36 0 0 0 .36-.361.36.36 0 0 0-.36-.362h-2.15a.36.36 0 0 0-.36.362c0 .2.162.361.36.361M1.606 13.42h2.15a.36.36 0 0 0 .36-.362.36.36 0 0 0-.36-.361h-2.15a.36.36 0 0 0-.36.361c0 .2.162.362.36.362M20.652 11.973h2.15a.36.36 0 0 0 .36-.361.36.36 0 0 0-.36-.362h-2.15a.36.36 0 0 0-.359.362c0 .2.16.361.359.361M20.652 13.42h2.15a.36.36 0 0 0 .36-.362.36.36 0 0 0-.36-.361h-2.15a.36.36 0 0 0-.359.361c0 .2.16.362.359.362"/>
    </g>
</svg>
