<svg xmlns="http://www.w3.org/2000/svg" xmlns:xlink="http://www.w3.org/1999/xlink" width="24" height="24" viewBox="0 0 24 24">
    <defs>
        <path id="a" d="M.035 0h22.743v23.197H.035z"/>
    </defs>
    <g fill="none" fill-rule="evenodd">
        <g transform="translate(.8 .4)">
            <mask id="b" fill="#fff">
                <use xlink:href="#a"/>
            </mask>
            <path fill="#D3D3D3" stroke="#8E7966" stroke-linecap="round" stroke-linejoin="round" stroke-width=".662" d="M.414 8.184v3.798c0 .995.316 1.965.902 2.772l2.602 3.58a4.773 4.773 0 0 0 1.76 1.478l3.605 2.52a4.823 4.823 0 0 0 4.247 0l3.605-2.52c.7-.344 1.304-.85 1.76-1.478l2.602-3.58a4.714 4.714 0 0 0 .902-2.772V8.184A4.719 4.719 0 0 0 21.18 5.02L19.237 2.87a4.794 4.794 0 0 0-2.555-1.473L12.418.483a4.828 4.828 0 0 0-2.022 0l-4.264.913a4.795 4.795 0 0 0-2.555 1.473L1.633 5.021a4.718 4.718 0 0 0-1.22 3.163" mask="url(#b)"/>
        </g>
        <path fill="#DFDFDF" stroke="#8E7966" stroke-width=".662" d="M5.37 3.58a2.125 2.125 0 0 0 .745 2.143c.663.53 1.546.606 2.27.271a2.125 2.125 0 0 0-.745-2.142 2.171 2.171 0 0 0-2.27-.272zM18.999 3.58a2.126 2.126 0 0 1-.745 2.143 2.172 2.172 0 0 1-2.27.271 2.125 2.125 0 0 1 .744-2.142 2.172 2.172 0 0 1 2.27-.272z"/>
        <path fill="#D3D3D3" stroke="#8E7966" stroke-width=".662" d="M13.717 18.89h-3.021c-1.94 0-3.564-1.844-3.757-4.267l-.546-6.849c-.136-1.702 1.222-3.157 2.944-3.157l2.863.376 2.876-.376c1.722 0 3.08 1.455 2.944 3.157l-.546 6.849c-.193 2.423-1.817 4.268-3.757 4.268z"/>
        <path fill="#D3D3D3" d="M15.239 17.764v1.174c0 .76-.703 1.308-1.408 1.099l-1.624-.48-1.625.48c-.706.209-1.408-.34-1.408-1.099v-1.174"/>
        <path fill="#8E7966" d="M14.86 17.764v1.174a.78.78 0 0 1-.222.553.706.706 0 0 1-.502.215.698.698 0 0 1-.198-.029h.001l-1.624-.48a.382.382 0 0 0-.217 0l-1.624.48a.689.689 0 0 1-.699-.186.78.78 0 0 1-.222-.553v-1.174a.377.377 0 0 0-.38-.376.377.377 0 0 0-.378.376v1.174c0 .85.674 1.518 1.481 1.52.137 0 .276-.02.414-.06l1.516-.45 1.516.45c.138.04.277.06.414.06.808-.002 1.482-.67 1.482-1.52v-1.174a.377.377 0 0 0-.38-.376c-.208 0-.378.169-.378.376z"/>
        <path fill="#BABABA" d="M15.997 14.652c0-1.511-1.697-1.396-3.79-1.396-2.094 0-3.791-.115-3.791 1.396s1.697 2.736 3.79 2.736c2.094 0 3.79-1.225 3.79-2.736z"/>
        <path fill="#BABABA" d="M14.492 10.536l-.758 3.005a.38.38 0 0 0 .735.182l.759-3.005a.38.38 0 0 0-.735-.182M9.185 10.718l.758 3.005a.38.38 0 0 0 .736-.182l-.758-3.005a.38.38 0 0 0-.736.182"/>
        <path fill="#8E7966" d="M12.207 16.367l2.364-2.453a.389.389 0 0 0-.284-.658h-4.161a.389.389 0 0 0-.284.658l2.365 2.453zM10.311 8.185a.566.566 0 0 1-.568.564.566.566 0 0 1-.569-.564c0-.31.254-.563.569-.563.314 0 .568.252.568.563zM15.239 8.185a.566.566 0 0 1-.569.564.566.566 0 0 1-.568-.564c0-.31.254-.563.568-.563.314 0 .569.252.569.563z"/>
        <path fill="#54596E" d="M12.207 16.637h.378v-.751a.377.377 0 0 0-.378-.376.377.377 0 0 0-.38.376v1.502a.376.376 0 0 0 .38.376.376.376 0 0 0 .379-.375v-.752h-.759v.751a.376.376 0 0 0 .38.376.376.376 0 0 0 .379-.375v-.752-.751a.377.377 0 0 0-.38-.376.377.377 0 0 0-.38.376l.001.751h.38z"/>
        <path fill="#8E7966" d="M10.311 19.266a2.264 2.264 0 0 0 2.274-2.253.377.377 0 0 0-.378-.376c-.21 0-.38.168-.38.376 0 .416-.169.789-.444 1.062-.275.272-.652.44-1.072.44a.377.377 0 0 0-.379.376c0 .207.17.376.38.375z"/>
        <path fill="#8E7966" d="M14.102 18.515c-.42 0-.797-.167-1.072-.44a1.489 1.489 0 0 1-.445-1.062.377.377 0 0 0-.378-.376c-.21 0-.38.168-.38.376a2.264 2.264 0 0 0 2.275 2.253c.209 0 .379-.168.379-.375a.377.377 0 0 0-.38-.376z"/>
    </g>
</svg>
