<svg xmlns="http://www.w3.org/2000/svg" width="24" height="24" viewBox="0 0 24 24">
    <g fill="none" fill-rule="evenodd">
        <g stroke="#8E7966" stroke-linecap="round" stroke-linejoin="round" stroke-width=".681">
            <path fill="#FFC25F" d="M21.7.787c1.16 2.706-1.933 7.733-1.933 7.733l-2.32-3.48L21.701.787zM1.854.787C.694 3.493 3.788 8.52 3.788 8.52l2.32-3.48L1.854.787z"/>
            <path fill="#E5AE55" d="M18.911 5.794c1.144-.96 2.79-2.737 2.79-5.007l-5.43 2.375c-1.307-.982-2.737-1.602-4.237-1.602-1.554 0-3.035.663-4.381 1.709L1.98.787c0 2.432 1.888 4.296 3.025 5.2C2.455 9.28.82 13.531.82 15.48c0 1.16 5.02 4.64 11.213 4.64s11.213-3.48 11.213-4.64c0-1.986-1.699-6.366-4.336-9.686"/>
        </g>
        <path fill="#CC9B4C" d="M1.477 13.784c-.18.682-.27 1.272-.27 1.696-.005.004.027.136.155.306.124.171.325.385.593.616.535.462 1.333.993 2.323 1.487 1.98.992 4.73 1.844 7.751 1.844h.018c3.962 0 7.46-1.475 9.357-2.788.632-.435 1.085-.857 1.302-1.16.128-.17.16-.3.155-.305 0-.425-.09-1.014-.27-1.696-1.554 1.483-5.694 3.63-10.557 3.63-4.864 0-9.003-2.147-10.557-3.63"/>
        <path fill="#8E7966" d="M22.9 13.458a4.18 4.18 0 0 1-.31.326c.18.682.271 1.272.27 1.696.006.004-.026.136-.154.305-.217.303-.67.725-1.302 1.16-1.897 1.313-5.395 2.788-9.357 2.788h-.018c-3.021 0-5.77-.852-7.751-1.844-.99-.495-1.788-1.025-2.323-1.487a3.844 3.844 0 0 1-.593-.617c-.128-.17-.16-.3-.155-.305 0-.425.09-1.014.27-1.696a4.173 4.173 0 0 1-.309-.326c-.224.798-.347 1.496-.347 2.022 0 1.16 5.02 4.64 11.213 4.64s11.213-3.48 11.213-4.64c0-.526-.122-1.224-.347-2.022"/>
        <path fill="#FFC25F" d="M9.35 10.474a3.682 3.682 0 0 0-1.628 2.997c-.07 2.636.75 4.945 1.977 6.262h4.67c1.227-1.317 2.048-3.626 1.978-6.262-.035-1.316-.693-2.39-1.712-3.054"/>
        <path fill="#8E7966" d="M9.13 10.155a4.073 4.073 0 0 0-1.795 3.306c-.003.108-.004.215-.004.322.003 2.588.82 4.85 2.085 6.214a.386.386 0 0 0 .283.123h4.67c.107 0 .21-.044.283-.123 1.265-1.365 2.083-3.626 2.086-6.214 0-.107-.002-.214-.004-.322a4.08 4.08 0 0 0-1.888-3.368.386.386 0 1 0-.422.648c.922.604 1.502 1.55 1.536 2.74.003.101.004.202.004.302.004 2.422-.787 4.522-1.878 5.687l.283.263v-.386h-4.67v.386l.283-.263c-1.091-1.165-1.881-3.265-1.878-5.687 0-.1.001-.2.004-.302.033-1.157.583-2.083 1.46-2.689a.387.387 0 1 0-.438-.637z"/>
        <path fill="#8E7966" d="M15.127 21.667H8.941v-3.093l3.093-1.934 3.093 1.934z"/>
        <path fill="#F99" d="M12.697 21.667a.884.884 0 0 0 0-1.768c-.266 0-.5.12-.663.305a.878.878 0 0 0-.662-.305.884.884 0 1 0 0 1.768h1.325z"/>
        <path fill="#FFC25F" d="M9.714 20.507v-2.32h1.547zM14.354 20.507v-2.32h-1.547zM8.94 18.574a3.094 3.094 0 0 0 3.094-3.094"/>
        <path fill="#8E7966" d="M8.94 18.96a3.48 3.48 0 0 0 3.48-3.48.387.387 0 0 0-.773 0c0 .749-.302 1.423-.792 1.914a2.696 2.696 0 0 1-1.914.792.387.387 0 0 0 0 .774z"/>
        <path fill="#FFC25F" d="M15.127 18.574a3.094 3.094 0 0 1-3.093-3.094"/>
        <path fill="#8E7966" d="M15.127 18.187a2.698 2.698 0 0 1-1.913-.793 2.697 2.697 0 0 1-.793-1.914.387.387 0 0 0-.774 0 3.48 3.48 0 0 0 3.48 3.48.387.387 0 1 0 0-.773z"/>
        <path fill="#8E7966" d="M14.74 13.547c0-.854-1.21-1.16-2.706-1.16-1.495 0-2.706.306-2.706 1.16 0 .854 1.211 1.933 2.706 1.933 1.495 0 2.707-1.079 2.707-1.933zM8.554 9.1a.58.58 0 1 1-1.16 0 .58.58 0 0 1 1.16 0zM16.674 9.1a.58.58 0 1 1-1.16 0 .58.58 0 0 1 1.16 0z"/>
        <path fill="#8E7966" d="M6.834 8.093l2.32 1.16a.38.38 0 0 0 .174.04h.773a.387.387 0 0 0 0-.773h-.682L7.18 7.4a.387.387 0 0 0-.346.693zM16.888 7.401l-2.239 1.12h-.682a.387.387 0 0 0 0 .772h.774a.38.38 0 0 0 .173-.04l2.32-1.16a.387.387 0 0 0-.346-.692z"/>
        <path fill="#CC9B4C" stroke="#8E7966" stroke-linecap="round" stroke-linejoin="round" stroke-width=".692" d="M14.808 21.671H9.306a1.58 1.58 0 0 0 1.572 1.589h2.358a1.58 1.58 0 0 0 1.572-1.589z"/>
    </g>
</svg>
