<svg xmlns="http://www.w3.org/2000/svg" width="24" height="24" viewBox="0 0 24 24">
    <g fill="none" fill-rule="evenodd">
        <path fill="#FFF" stroke="#8E7966" stroke-width=".655" d="M5.4 9.37a4.635 4.635 0 0 0-2.566 4.164 4.634 4.634 0 0 0 2.567 4.163L5.4 9.371zM18.594 9.37a4.635 4.635 0 0 1 2.566 4.164 4.634 4.634 0 0 1-2.567 4.163l.001-8.326z"/>
        <path fill="#FFF" stroke="#8E7966" stroke-width=".655" d="M12.73 2.304h-1.466c-3.239 0-5.864 2.664-5.864 5.95v8.553c0 3.697 2.954 6.694 6.597 6.694 3.643 0 6.597-2.997 6.597-6.694V8.254c0-3.286-2.625-5.95-5.864-5.95"/>
        <path fill="#DFDFDF" d="M18.228 16.807c0 2.26-2.79 4.09-6.231 4.09s-6.23-1.83-6.23-4.09a6.342 6.342 0 0 0 3.016 5.417 6.133 6.133 0 0 0 3.806.877 6.141 6.141 0 0 0 2.984-1.116 6.318 6.318 0 0 0 1.683-1.786 6.347 6.347 0 0 0 .972-3.392"/>
        <path fill="#8E7966" d="M9.065 7.324a.554.554 0 0 1-.55.558.554.554 0 0 1-.55-.558c0-.308.246-.558.55-.558.304 0 .55.25.55.558zM16.029 7.324a.554.554 0 0 1-.55.558.554.554 0 0 1-.55-.558c0-.308.246-.558.55-.558.304 0 .55.25.55.558z"/>
        <path fill="#DFDFDF" stroke="#8E7966" stroke-linecap="round" stroke-linejoin="round" stroke-width=".655" d="M11.997 7.51L9.43 9.37h5.132z"/>
        <path fill="#FFF" stroke="#8E7966" stroke-linecap="round" stroke-linejoin="round" stroke-width=".655" d="M9.431 23.501H6.133v-1.673c0-.925.738-1.674 1.65-1.674.91 0 1.648.75 1.648 1.674V23.5z"/>
        <path fill="#8E7966" d="M6.866 21.74v1.488a.37.37 0 0 0 .366.372.37.37 0 0 0 .367-.372v-1.487a.37.37 0 0 0-.367-.372.37.37 0 0 0-.366.372M7.965 21.74v1.488a.37.37 0 0 0 .367.372.37.37 0 0 0 .366-.372v-1.487a.37.37 0 0 0-.366-.372.37.37 0 0 0-.367.372"/>
        <path fill="#FFF" stroke="#8E7966" stroke-linecap="round" stroke-linejoin="round" stroke-width=".655" d="M17.861 23.501h-3.298v-1.673c0-.925.738-1.674 1.649-1.674.91 0 1.65.75 1.65 1.674V23.5z"/>
        <path fill="#8E7966" d="M15.296 21.74v1.488c0 .206.164.372.366.372a.37.37 0 0 0 .367-.372v-1.487a.37.37 0 0 0-.367-.372.37.37 0 0 0-.366.372M16.395 21.74v1.488c0 .206.164.372.367.372a.37.37 0 0 0 .366-.372v-1.487a.37.37 0 0 0-.366-.372.37.37 0 0 0-.367.372"/>
        <path fill="#DFDFDF" stroke="#8E7966" stroke-linecap="round" stroke-linejoin="round" stroke-width=".655" d="M12.845 10.485H11.15a.991.991 0 0 1-.985-.998V9.37h3.665v.117c0 .551-.44.998-.984.998zM12.73 3.791l.367-2.231c0-.616-.493-1.116-1.1-1.116-.607 0-1.1.5-1.1 1.116l.367 2.231"/>
    </g>
</svg>
