<svg xmlns="http://www.w3.org/2000/svg" width="24" height="24" viewBox="0 0 24 24">
    <g fill="none" fill-rule="evenodd">
        <path fill="#DDB9A0" stroke="#8E7966" stroke-width=".701" d="M12.2 22.343a8.964 8.964 0 0 1-8.964-8.965V3.218h17.926v10.16a8.964 8.964 0 0 1-8.963 8.965"/>
        <path fill="#C4A48E" d="M3.668 14.144a8.538 8.538 0 0 0 2.475 5.292 8.537 8.537 0 0 0 6.056 2.509 8.538 8.538 0 0 0 6.056-2.51 8.54 8.54 0 0 0 2.475-5.291 8.967 8.967 0 0 1-17.062 0"/>
        <path fill="#8E7966" d="M12.398 16.757l2.188-2.495a.413.413 0 0 0-.31-.685H10.52a.413.413 0 0 0-.31.685l2.187 2.495z"/>
        <path fill="#DDB9A0" stroke="#8E7966" stroke-linecap="round" stroke-linejoin="round" stroke-width=".701" d="M17.179 5.21V4.27a2.249 2.249 0 0 1 2.248-2.249h4.125v6.375L20.365 5.21M6.821 5.21V4.27a2.249 2.249 0 0 0-2.248-2.249H.448v6.375L3.635 5.21"/>
        <path fill="#8E7966" d="M12.398 20.35c-.88 0-1.593-.713-1.593-1.593v-1.195h3.187v1.195c0 .88-.714 1.594-1.594 1.594z"/>
        <path fill="#C4A48E" d="M7.618 16.367a2.39 2.39 0 1 0 4.78 0"/>
        <path fill="#8E7966" d="M7.22 16.367a2.79 2.79 0 0 0 5.577 0 .398.398 0 1 0-.797 0c0 .55-.222 1.046-.583 1.408a1.984 1.984 0 0 1-1.409.584 1.985 1.985 0 0 1-1.408-.584 1.985 1.985 0 0 1-.583-1.408.399.399 0 1 0-.797 0z"/>
        <path fill="#C4A48E" d="M12.398 16.367a2.39 2.39 0 1 0 4.78 0"/>
        <path fill="#8E7966" d="M12 16.367a2.789 2.789 0 1 0 5.577 0 .398.398 0 1 0-.797 0c0 .55-.222 1.046-.583 1.408a1.984 1.984 0 0 1-1.409.584 1.985 1.985 0 0 1-1.408-.584 1.986 1.986 0 0 1-.583-1.408.398.398 0 1 0-.797 0z"/>
        <path fill="#C4A48E" d="M11.203 10.39a2.39 2.39 0 1 1-4.78 0 2.39 2.39 0 0 1 4.78 0z"/>
        <path fill="#8E7966" d="M9.258 9.729a.796.796 0 1 0-.891 1.32.796.796 0 0 0 .891-1.32zM16.429 9.729a.797.797 0 1 0-.892 1.32.797.797 0 0 0 .892-1.32z"/>
    </g>
</svg>
