<svg xmlns="http://www.w3.org/2000/svg" xmlns:xlink="http://www.w3.org/1999/xlink" width="24" height="24" viewBox="0 0 24 24">
    <defs>
        <path id="a" d="M.057 0h17.54v23.196H.057z"/>
    </defs>
    <g fill="none" fill-rule="evenodd">
        <g transform="translate(3.19 .4)">
            <mask id="b" fill="#fff">
                <use xlink:href="#a"/>
            </mask>
            <path fill="#DDB9A0" stroke="#8E7966" stroke-linecap="round" stroke-linejoin="round" stroke-width=".706" d="M16.268.594l-3.282 5.02H4.669L1.386.594C1.072.21.456.434.456.931v13.414c0 4.67 3.747 8.455 8.371 8.455 4.624 0 8.372-3.785 8.372-8.455V.931c0-.497-.618-.72-.93-.337z" mask="url(#b)"/>
        </g>
        <path fill="#8E7966" d="M9.625 11a.599.599 0 1 1-1.197.002A.599.599 0 0 1 9.625 11zM15.605 11a.599.599 0 1 1-1.196 0 .6.6 0 1 1 1.196 0z"/>
        <path fill="#C4A48E" d="M13.893 18h-3.752c-.725 0-1.313-.59-1.313-1.318v-2.564c0-.728.588-1.318 1.313-1.318h3.752c.725 0 1.313.59 1.313 1.318v2.564c0 .728-.588 1.318-1.313 1.318z"/>
        <path fill="#8E7966" d="M12.22 14.617l1.508-1.252a.32.32 0 0 0-.202-.565h-3.017a.32.32 0 0 0-.203.565l1.509 1.252a.317.317 0 0 0 .405 0z"/>
        <path fill="#8E7966" d="M12.416 16.4v-1.6a.4.4 0 1 0-.797 0v1.6a.4.4 0 1 0 .797 0"/>
        <path fill="#8E7966" d="M11.619 16.6c0 .994.803 1.8 1.793 1.8.991 0 1.794-.806 1.794-1.8a.4.4 0 1 0-.797 0 1 1 0 0 1-.997 1 1 1 0 0 1-.996-1 .4.4 0 1 0-.797 0z"/>
        <path fill="#8E7966" d="M8.828 16.6c0 .994.803 1.8 1.794 1.8.99 0 1.794-.806 1.794-1.8a.4.4 0 1 0-.797 0 1 1 0 0 1-.997 1 1 1 0 0 1-.997-1 .4.4 0 1 0-.797 0zM14.773 15.6l7.829-.801a.2.2 0 0 0-.04-.398l-7.83.8a.2.2 0 0 0 .04.398M15.076 14.388l6.511-2.4a.2.2 0 0 0-.137-.376l-6.512 2.4a.2.2 0 0 0 .138.376M9.302 15.201l-7.829-.8a.2.2 0 0 0-.04.398l7.829.8a.2.2 0 1 0 .04-.398M9.096 14.012l-6.511-2.4a.2.2 0 0 0-.137.375l6.51 2.4a.2.2 0 0 0 .138-.376"/>
    </g>
</svg>
