<svg xmlns="http://www.w3.org/2000/svg" xmlns:xlink="http://www.w3.org/1999/xlink" width="60" height="60" viewBox="0 0 60 60">
    <defs>
        <path id="a" d="M.04 0h38.59v33.444H.04z"/>
    </defs>
    <g fill="none" fill-rule="evenodd">
        <circle cx="30" cy="30" r="29.5" fill="#EEE4DA" stroke="#E3D8CD"/>
        <g transform="translate(10.667 10.667)">
            <mask id="b" fill="#fff">
                <use xlink:href="#a"/>
            </mask>
            <path fill="#EDEDED" stroke="#8E7966" stroke-linecap="round" stroke-linejoin="round" stroke-width="1.132" d="M35.414.644c1.93 4.502-3.216 12.862-3.216 12.862l-3.859-5.788L35.414.644zM2.402.644C.473 5.146 5.618 13.506 5.618 13.506l3.86-5.788L2.401.644z" mask="url(#b)"/>
            <path fill="#D3D3D3" d="M30.773 8.972c1.904-1.598 4.64-4.552 4.64-8.328l-9.03 3.95C24.208 2.962 21.83 1.93 19.335 1.93c-2.586 0-5.049 1.102-7.288 2.841L2.613.644c0 4.045 3.14 7.146 5.032 8.648C3.4 14.773.683 21.843.683 25.084c0 1.929 8.35 7.717 18.652 7.717 10.3 0 18.651-5.788 18.651-7.717 0-3.305-2.825-10.59-7.213-16.112" mask="url(#b)"/>
            <path stroke="#8E7966" stroke-linecap="round" stroke-linejoin="round" stroke-width="1.132" d="M30.773 8.972c1.904-1.598 4.64-4.552 4.64-8.328l-9.03 3.95C24.208 2.962 21.83 1.93 19.335 1.93c-2.586 0-5.049 1.102-7.288 2.841L2.613.644c0 4.045 3.14 7.146 5.032 8.648C3.4 14.773.683 21.843.683 25.084c0 1.929 8.35 7.717 18.652 7.717 10.3 0 18.651-5.788 18.651-7.717 0-3.305-2.825-10.59-7.213-16.112" mask="url(#b)"/>
        </g>
        <path fill="#BABABA" d="M12.442 33.023c-.299 1.135-.45 2.115-.449 2.821-.01.008.045.226.257.509.206.285.54.641.986 1.024.89.769 2.218 1.652 3.865 2.475 3.294 1.649 7.866 3.067 12.892 3.067h.03c6.59 0 12.408-2.453 15.564-4.638 1.051-.723 1.805-1.426 2.166-1.929.212-.282.267-.5.257-.508.001-.706-.15-1.686-.449-2.82-2.584 2.467-9.47 6.036-17.56 6.036-8.09 0-14.975-3.57-17.56-6.037"/>
        <path fill="#D3D3D3" stroke="#8E7966" stroke-linecap="round" stroke-linejoin="round" stroke-width="1.132" d="M25.535 33.854c-1.615 1.11-2.65 2.857-2.707 4.986-.116 4.384 1.25 8.225 3.29 10.416h7.767c2.04-2.19 3.407-6.032 3.29-10.416-.058-2.19-1.152-3.976-2.846-5.08"/>
        <path fill="#8E7966" d="M24.856 47.97a5.79 5.79 0 0 0 5.789-5.789.643.643 0 0 0-1.286 0 4.486 4.486 0 0 1-1.32 3.184 4.485 4.485 0 0 1-3.183 1.318.643.643 0 1 0 0 1.287z"/>
        <path fill="#8E7966" d="M35.147 46.683a4.485 4.485 0 0 1-3.183-1.318 4.484 4.484 0 0 1-1.32-3.183.643.643 0 0 0-1.285 0 5.788 5.788 0 0 0 5.788 5.788.643.643 0 0 0 0-1.287z"/>
        <path fill="#8E7966" d="M34.504 38.966c0-1.42-2.016-1.93-4.502-1.93-2.487 0-4.502.51-4.502 1.93s2.015 3.216 4.502 3.216c2.486 0 4.502-1.795 4.502-3.216zM24.213 28.997a.965.965 0 1 1-1.93 0 .965.965 0 0 1 1.93 0zM37.076 28.997a.965.965 0 1 1-1.93 0 .965.965 0 0 1 1.93 0z"/>
    </g>
</svg>
