<svg xmlns="http://www.w3.org/2000/svg" width="60" height="60" viewBox="0 0 60 60">
    <g fill="none" fill-rule="evenodd">
        <circle cx="30" cy="30" r="29.5" fill="#EEE4DA" stroke="#E3D8CD"/>
        <g stroke="#8E7966" stroke-linecap="round" stroke-linejoin="round" stroke-width="1.134">
            <path fill="#FFC25F" d="M46.168 11.311c1.933 4.511-3.222 12.89-3.222 12.89l-3.867-5.8 7.089-7.09zM13.09 11.311c-1.933 4.511 3.223 12.89 3.223 12.89l3.866-5.8-7.088-7.09z"/>
            <path fill="#E5AE55" d="M41.518 19.657c1.907-1.602 4.65-4.561 4.65-8.346l-9.049 3.96c-2.18-1.638-4.562-2.67-7.062-2.67-2.591 0-5.059 1.104-7.302 2.847l-9.453-4.137c0 4.054 3.146 7.161 5.041 8.666-4.251 5.492-6.975 12.576-6.975 15.823 0 1.933 8.367 7.734 18.689 7.734 10.321 0 18.688-5.8 18.688-7.734 0-3.31-2.831-10.61-7.227-16.143"/>
        </g>
        <path fill="#CC9B4C" d="M12.462 32.973c-.3 1.137-.45 2.12-.45 2.827-.009.007.045.226.258.51.206.285.542.642.988 1.026.892.77 2.222 1.655 3.872 2.48 3.301 1.652 7.883 3.073 12.919 3.073h.03c6.602 0 12.432-2.458 15.595-4.647 1.053-.725 1.808-1.429 2.17-1.933.213-.283.267-.502.257-.51.002-.707-.15-1.689-.45-2.825-2.589 2.472-9.489 6.048-17.594 6.048-8.106 0-15.006-3.577-17.595-6.049"/>
        <path fill="#8E7966" d="M48.167 32.43a6.968 6.968 0 0 1-.516.544c.3 1.137.451 2.119.45 2.826.01.007-.044.226-.257.509-.362.504-1.117 1.208-2.17 1.933-3.163 2.189-8.993 4.647-15.595 4.647h-.03c-5.036 0-9.618-1.421-12.92-3.074-1.649-.824-2.98-1.709-3.871-2.479-.446-.384-.782-.74-.988-1.027-.213-.283-.267-.502-.258-.51 0-.707.15-1.69.45-2.826a6.956 6.956 0 0 1-.515-.544c-.373 1.331-.579 2.494-.579 3.37 0 1.934 8.367 7.735 18.689 7.735 10.321 0 18.688-5.8 18.688-7.734 0-.877-.203-2.04-.578-3.37"/>
        <path fill="#FFC25F" d="M25.582 27.456c-1.619 1.111-2.657 2.863-2.713 4.996-.116 4.392 1.252 8.242 3.297 10.437h7.782c2.045-2.195 3.414-6.045 3.297-10.437-.058-2.194-1.155-3.984-2.853-5.09"/>
        <path fill="#8E7966" d="M25.216 26.925a6.788 6.788 0 0 0-2.991 5.51c-.005.18-.007.358-.007.536.005 4.314 1.367 8.083 3.476 10.357a.643.643 0 0 0 .472.206h7.782c.18 0 .35-.075.472-.206 2.108-2.274 3.471-6.044 3.476-10.357 0-.178-.002-.357-.007-.536-.059-2.403-1.285-4.409-3.145-5.613a.644.644 0 1 0-.703 1.08c1.535 1.007 2.502 2.583 2.56 4.567.004.168.006.335.006.502.006 4.038-1.312 7.537-3.13 9.479l.47.439v-.644h-7.781v.644l.47-.44c-1.818-1.941-3.134-5.44-3.13-9.478 0-.167.003-.334.007-.502.056-1.93.972-3.472 2.434-4.482a.645.645 0 1 0-.73-1.062z"/>
        <path fill="#8E7966" d="M35.212 46.111h-10.31v-5.155l5.155-3.223 5.155 3.223z"/>
        <path fill="#F99" d="M31.161 46.111a1.473 1.473 0 0 0 0-2.946c-.442 0-.834.199-1.104.508a1.464 1.464 0 0 0-1.104-.508 1.473 1.473 0 1 0 0 2.946h2.208z"/>
        <path fill="#FFC25F" d="M26.19 44.178v-3.867h2.578zM33.923 44.178v-3.867h-2.577zM24.901 40.956a5.156 5.156 0 0 0 5.156-5.156"/>
        <path fill="#8E7966" d="M24.901 41.6a5.8 5.8 0 0 0 5.8-5.8.645.645 0 0 0-1.289 0 4.493 4.493 0 0 1-1.32 3.19 4.494 4.494 0 0 1-3.19 1.32.645.645 0 0 0 0 1.29z"/>
        <path fill="#FFC25F" d="M35.212 40.956a5.156 5.156 0 0 1-5.155-5.156"/>
        <path fill="#8E7966" d="M35.212 40.311a4.496 4.496 0 0 1-3.19-1.32 4.495 4.495 0 0 1-1.32-3.191.644.644 0 0 0-1.29 0 5.8 5.8 0 0 0 5.8 5.8.645.645 0 1 0 0-1.289z"/>
        <path fill="#8E7966" d="M34.568 32.578c0-1.424-2.02-1.934-4.511-1.934-2.492 0-4.511.51-4.511 1.934s2.02 3.222 4.51 3.222c2.493 0 4.512-1.798 4.512-3.222zM24.257 25.167a.966.966 0 1 1-1.933 0 .966.966 0 0 1 1.933 0zM37.79 25.167a.967.967 0 1 1-1.933 0 .967.967 0 0 1 1.933 0z"/>
        <path fill="#8E7966" d="M21.39 23.488l3.868 1.933a.634.634 0 0 0 .288.068h1.289a.645.645 0 0 0 0-1.289h-1.137l-3.73-1.865a.644.644 0 0 0-.577 1.153zM38.146 22.335l-3.73 1.865h-1.137a.645.645 0 0 0 0 1.289h1.29a.635.635 0 0 0 .287-.068l3.867-1.933a.645.645 0 0 0-.577-1.153z"/>
        <path fill="#CC9B4C" stroke="#8E7966" stroke-linecap="round" stroke-linejoin="round" stroke-width="1.153" d="M34.68 46.119h-9.17c0 1.462 1.172 2.647 2.62 2.647h3.93c1.446 0 2.62-1.185 2.62-2.647z"/>
    </g>
</svg>
