<svg xmlns="http://www.w3.org/2000/svg" xmlns:xlink="http://www.w3.org/1999/xlink" width="60" height="60" viewBox="0 0 60 60">
    <defs>
        <path id="a" d="M.065.004h4.902v6.673H.065z"/>
    </defs>
    <g fill="none" fill-rule="evenodd">
        <circle cx="30" cy="30" r="29.5" fill="#EEE4DA" stroke="#E3D8CD"/>
        <path fill="#8E7966" d="M43.037 27.054h1.93c1.643 0 2.974-1.319 2.974-2.946V19.77a.61.61 0 0 0-.612-.607.61.61 0 0 0-.613.607v4.336a1.744 1.744 0 0 1-1.75 1.733h-1.929a.61.61 0 0 0-.613.607.61.61 0 0 0 .613.607z"/>
        <path fill="#DDB9A0" stroke="#8E7966" stroke-linecap="round" stroke-linejoin="round" stroke-width="1.069" d="M40.409 31.91h-22.06v6.07c0 6.033 4.938 10.925 11.03 10.925 6.09 0 11.03-4.892 11.03-10.926v-6.07z"/>
        <path fill="#DDB9A0" stroke="#8E7966" stroke-linecap="round" stroke-linejoin="round" stroke-width="1.069" d="M30.604 14.308h-2.451c-5.415 0-9.804 4.348-9.804 9.712v9.104h22.06V24.02c0-5.364-4.39-9.712-9.805-9.712z"/>
        <path fill="#C4A48E" d="M39.795 37.98c0 3.687-4.663 6.676-10.416 6.676-5.754 0-10.417-2.989-10.417-6.677a10.198 10.198 0 0 0 1.728 5.693 10.4 10.4 0 0 0 3.314 3.148 10.419 10.419 0 0 0 5.375 1.478 10.42 10.42 0 0 0 8.792-4.782 10.195 10.195 0 0 0 1.624-5.537"/>
        <path fill="#8E7966" d="M25.09 22.199a1.22 1.22 0 0 1-1.226 1.214 1.22 1.22 0 0 1-1.226-1.214c0-.67.549-1.214 1.226-1.214a1.22 1.22 0 0 1 1.225 1.214zM36.119 22.199a1.22 1.22 0 0 1-1.226 1.214 1.22 1.22 0 0 1-1.225-1.214c0-.67.549-1.214 1.225-1.214a1.22 1.22 0 0 1 1.226 1.214z"/>
        <path fill="#F7CFB3" stroke="#8E7966" stroke-linecap="round" stroke-linejoin="round" stroke-width="1.069" d="M29.379 22.806l-4.29 3.034h8.58z"/>
        <path fill="#DDB9A0" stroke="#8E7966" stroke-linecap="round" stroke-linejoin="round" stroke-width="1.069" d="M25.09 48.905h-5.516v-2.732c0-1.508 1.235-2.731 2.758-2.731s2.757 1.223 2.757 2.731v2.732z"/>
        <path fill="#8E7966" d="M20.8 46.299v2.427a.61.61 0 0 0 .613.607.61.61 0 0 0 .612-.607V46.3a.61.61 0 0 0-.612-.607.61.61 0 0 0-.613.607M22.638 46.299v2.427a.61.61 0 0 0 .613.607.61.61 0 0 0 .613-.607V46.3a.61.61 0 0 0-.613-.607.61.61 0 0 0-.613.607"/>
        <path fill="#DDB9A0" stroke="#8E7966" stroke-linecap="round" stroke-linejoin="round" stroke-width="1.069" d="M39.183 48.905h-5.515v-2.732c0-1.508 1.235-2.731 2.757-2.731 1.523 0 2.758 1.223 2.758 2.731v2.732z"/>
        <path fill="#8E7966" d="M34.893 46.299v2.427a.61.61 0 0 0 .614.607.61.61 0 0 0 .612-.607V46.3a.61.61 0 0 0-.612-.607.61.61 0 0 0-.614.607M36.732 46.299v2.427a.61.61 0 0 0 .612.607.61.61 0 0 0 .613-.607V46.3a.61.61 0 0 0-.613-.607.61.61 0 0 0-.612.607"/>
        <path fill="#F7CFB3" stroke="#8E7966" stroke-linecap="round" stroke-linejoin="round" stroke-width="1.069" d="M30.797 27.661H27.96c-.908 0-1.645-.73-1.645-1.63v-.19h6.127v.19c0 .9-.736 1.63-1.645 1.63z"/>
        <path fill="#C4A48E" stroke="#8E7966" stroke-linecap="round" stroke-linejoin="round" stroke-width="1.069" d="M18.35 26.45c-2.54 1.225-4.29 3.807-4.29 6.794 0 2.987 1.75 5.57 4.29 6.795v-13.59zM40.408 26.45c2.54 1.225 4.29 3.807 4.29 6.794 0 2.987-1.75 5.57-4.292 6.795l.002-13.59z"/>
        <g transform="translate(26.862 10.667)">
            <mask id="b" fill="#fff">
                <use xlink:href="#a"/>
            </mask>
            <path fill="#F7CFB3" stroke="#8E7966" stroke-linecap="round" stroke-linejoin="round" stroke-width="1.069" d="M3.742 6.07l.612-3.642A1.83 1.83 0 0 0 2.516.607a1.83 1.83 0 0 0-1.838 1.82L1.29 6.07" mask="url(#b)"/>
        </g>
        <path fill="#C4A48E" stroke="#8E7966" stroke-width="1.069" d="M22.025 33.124H18.35v1.82a1.83 1.83 0 0 0 1.838 1.822 1.83 1.83 0 0 0 1.838-1.821v-1.821z"/>
        <path fill="#C4A48E" stroke="#8E7966" stroke-width="1.069" d="M25.702 33.124h-3.677v1.82a1.83 1.83 0 0 0 1.839 1.822 1.83 1.83 0 0 0 1.838-1.821v-1.821zM29.379 33.124h-3.677v1.82a1.83 1.83 0 0 0 1.838 1.822 1.83 1.83 0 0 0 1.839-1.821v-1.821zM33.055 33.124H29.38v1.82a1.83 1.83 0 0 0 1.838 1.822 1.83 1.83 0 0 0 1.838-1.821v-1.821z"/>
        <path fill="#C4A48E" stroke="#8E7966" stroke-width="1.069" d="M36.732 33.124h-3.677v1.82a1.83 1.83 0 0 0 1.838 1.822 1.83 1.83 0 0 0 1.839-1.821v-1.821zM40.409 33.124h-3.677v1.82a1.83 1.83 0 0 0 1.838 1.822 1.83 1.83 0 0 0 1.839-1.821v-1.821z"/>
        <path fill="#8E7966" d="M40.586 27.054h1.929c1.644 0 2.975-1.319 2.976-2.946v-7.372a.61.61 0 0 0-.614-.607.61.61 0 0 0-.612.607v7.371a1.744 1.744 0 0 1-1.75 1.733h-1.929a.61.61 0 0 0-.613.607.61.61 0 0 0 .613.607z"/>
    </g>
</svg>
