<svg xmlns="http://www.w3.org/2000/svg" xmlns:xlink="http://www.w3.org/1999/xlink" width="60" height="60" viewBox="0 0 60 60">
    <defs>
        <path id="a" d="M.072.004h9.665v29.4H.072z"/>
    </defs>
    <g fill="none" fill-rule="evenodd">
        <circle cx="30" cy="30" r="29.5" fill="#EEE4DA" stroke="#E3D8CD"/>
        <path fill="#DDB9A0" stroke="#8E7966" stroke-linecap="round" stroke-linejoin="round" stroke-width="1.079" d="M44.945 14.868a3.435 3.435 0 0 0-4.623-1.594c-1.712.85-4.484 3.971-3.644 5.703.842 1.733 4.978 1.42 6.69.568 1.712-.85 2.418-2.944 1.577-4.677zM15.078 14.868a3.435 3.435 0 0 1 4.623-1.594c1.712.85 4.485 3.971 3.644 5.703-.842 1.733-4.978 1.42-6.69.568-1.712-.85-2.418-2.944-1.577-4.677z"/>
        <path fill="#DDB9A0" stroke="#8E7966" stroke-linecap="round" stroke-linejoin="round" stroke-width="1.079" d="M35.373 49.26h-10.52c-2.78 0-5.034-2.28-5.034-5.093V25.982c0-5.752 4.609-10.415 10.294-10.415 5.686 0 10.295 4.663 10.295 10.415v18.185c0 2.813-2.254 5.093-5.035 5.093z"/>
        <path fill="#C4A48E" d="M34.655 47.422h-9.083c-2.174 0-3.936-1.783-3.936-3.981v-1.838c0-2.2 1.762-3.982 3.936-3.982h9.083c2.174 0 3.936 1.783 3.936 3.982v1.838c0 2.199-1.762 3.981-3.936 3.981z"/>
        <g transform="translate(25.244 10.667)">
            <mask id="b" fill="#fff">
                <use xlink:href="#a"/>
            </mask>
            <path fill="#F7CFB3" stroke="#8E7966" stroke-linecap="round" stroke-linejoin="round" stroke-width="1.079" d="M4.905.612l-4.181 24.5c-.329 1.923 1.135 3.68 3.063 3.68h2.235c1.929 0 3.392-1.757 3.063-3.68L4.905.612z" mask="url(#b)"/>
        </g>
        <path fill="#8E7966" d="M25.269 28.738a.914.914 0 0 1-.909.92.914.914 0 0 1-.908-.92c0-.507.407-.919.908-.919.502 0 .909.412.909.92zM36.774 28.738a.914.914 0 0 1-.908.92.914.914 0 0 1-.908-.92c0-.507.407-.919.908-.919.502 0 .908.412.908.92zM36.17 44.36c-.67 0-1.212-.55-1.212-1.226v-.612c0-.677.542-1.225 1.211-1.225s1.211.548 1.211 1.225v.612c0 .677-.542 1.226-1.21 1.226zM24.058 44.36a1.218 1.218 0 0 1-1.212-1.226v-.612c0-.677.543-1.225 1.212-1.225.668 0 1.21.548 1.21 1.225v.612c0 .677-.542 1.226-1.21 1.226z"/>
        <path fill="#DFDFDF" d="M28.902 35.17s-1.817 0-2.422-1.225"/>
        <path fill="#8E7966" d="M28.902 34.558v.115l.001-.115h-.001v.115l.001-.115c-.018 0-.43-.01-.86-.142a2.21 2.21 0 0 1-.61-.284 1.212 1.212 0 0 1-.411-.46.602.602 0 0 0-.813-.275c-.3.152-.42.52-.27.822.205.418.515.727.839.944.488.327 1.007.47 1.41.545.4.074.688.075.714.075a.61.61 0 0 0 .605-.612.609.609 0 0 0-.605-.613z"/>
        <path fill="#DFDFDF" d="M29.508 26.594s-1.362 0-1.817-.92"/>
        <path fill="#8E7966" d="M29.508 25.982v.238l.002-.238h-.002v.238l.002-.238c-.005 0-.302-.007-.603-.1-.15-.046-.3-.112-.416-.193a.755.755 0 0 1-.258-.288.602.602 0 0 0-.813-.274.616.616 0 0 0-.27.822c.168.341.42.592.68.767.393.262.8.373 1.114.432.314.058.538.058.564.058a.609.609 0 0 0 .605-.612.61.61 0 0 0-.605-.612z"/>
        <path fill="#DFDFDF" d="M30.719 31.495s1.817 0 2.422-1.225"/>
        <path fill="#8E7966" d="M30.719 32.107c.034 0 .533 0 1.15-.176a3.46 3.46 0 0 0 .974-.443c.324-.218.634-.527.84-.944a.616.616 0 0 0-.272-.822.602.602 0 0 0-.812.274c-.097.195-.24.345-.428.472-.279.19-.653.306-.954.36-.15.027-.281.041-.371.048l-.103.006h-.026l.002.24v-.24h-.002l.002.24v-.24a.609.609 0 0 0-.606.613c0 .338.271.612.606.612zM34.352 45.585v-3.676a1.83 1.83 0 0 1 1.817-1.838.609.609 0 0 0 .605-.612.61.61 0 0 0-.605-.613c-1.672 0-3.027 1.371-3.028 3.063v3.676c0 .338.271.612.605.612a.61.61 0 0 0 .606-.612zM27.085 45.585v-3.676c0-1.692-1.355-3.063-3.027-3.063a.609.609 0 0 0-.606.613c0 .338.271.612.606.612a1.83 1.83 0 0 1 1.816 1.838v3.676a.61.61 0 0 0 .606.612.609.609 0 0 0 .605-.612z"/>
    </g>
</svg>
