<svg xmlns="http://www.w3.org/2000/svg" width="60" height="60" viewBox="0 0 60 60">
    <g fill="none" fill-rule="evenodd">
        <circle cx="30" cy="30" r="29.5" fill="#EEE4DA" stroke="#E3D8CD"/>
        <path fill="#8E7966" stroke="#8E7966" stroke-linecap="round" stroke-linejoin="round" stroke-width="1.079" d="M13.442 15.357l2.502 6.857 5.524-5.475-6.918-2.48c-.69-.247-1.357.415-1.108 1.098zM46.978 15.24l-2.625 6.974-5.524-5.475 7.037-2.602c.694-.257 1.371.415 1.112 1.103z"/>
        <path fill="#DDB9A0" stroke="#8E7966" stroke-linecap="round" stroke-linejoin="round" stroke-width="1.079" d="M34.458 15.462h-8.916c-5.725 0-10.52 3.974-11.089 9.192l-1.61 10.17c-.4 3.666 3.605 6.799 8.69 6.799l8.447-.809 8.488.809c5.085 0 9.09-3.134 8.69-6.798l-1.61-10.171c-.57-5.218-5.364-9.192-11.09-9.192z"/>
        <path fill="#DDB9A0" stroke="#8E7966" stroke-linecap="round" stroke-linejoin="round" stroke-width="1.079" d="M38.593 38.581v2.827c0 1.606-1.538 4.646-3.268 4.575-.265-.01-2.798-1.318-5.325-1.318-2.533 0-5.058 1.307-5.324 1.318-1.73.07-3.268-2.969-3.268-4.575V38.58"/>
        <path fill="#C4A48E" d="M37.365 35.795c0-4.227-3.297-3.904-7.365-3.904s-7.365-.323-7.365 3.904 3.297 7.653 7.365 7.653 7.365-3.426 7.365-7.653z"/>
        <path fill="#8E7966" d="M30 36.116l3.759-2.462c.526-.345.28-1.157-.35-1.157h-6.817c-.631 0-.877.812-.351 1.157L30 36.116zM30.25 19.332l1.135-3.003a.894.894 0 0 0-.844-1.207H29.46a.894.894 0 0 0-.843 1.207l1.136 3.003c.086.228.41.228.497 0zM25.704 26.718a.917.917 0 0 1-.92.912.916.916 0 0 1-.921-.912c0-.504.412-.913.92-.913.509 0 .921.409.921.913zM36.138 26.718a.917.917 0 0 1-.921.912.917.917 0 0 1-.92-.912c0-.504.412-.913.92-.913.509 0 .92.409.92.913z"/>
        <path fill="#54596E" d="M30 37.365h.614V34.93a.61.61 0 0 0-.614-.608.61.61 0 0 0-.614.608v4.867a.61.61 0 0 0 .614.608.61.61 0 0 0 .614-.608v-2.433h-1.228v2.433a.61.61 0 0 0 .614.608.61.61 0 0 0 .614-.608v-2.433-2.434a.611.611 0 0 0-.614-.608.61.61 0 0 0-.614.608v2.434H30z"/>
        <path fill="#8E7966" d="M19.568 35.25c-.021-.007-1.312-.412-3.301-.413-1.492 0-3.377.228-5.406 1.028a.303.303 0 0 0-.173.395.308.308 0 0 0 .4.17 14.126 14.126 0 0 1 5.179-.984c.952 0 1.736.097 2.28.194.271.048.483.096.625.132l.16.042.05.015a.304.304 0 1 0 .186-.58zM19.506 36.762c-.006.001-1.56.307-3.223.846-.832.27-1.691.597-2.406.981-.711.39-1.296.82-1.55 1.395a.303.303 0 0 0 .165.399.308.308 0 0 0 .402-.163c.133-.336.611-.743 1.276-1.096.993-.536 2.366-.983 3.481-1.29a32.338 32.338 0 0 1 1.408-.353c.355-.08.567-.122.567-.122a.305.305 0 1 0-.12-.597zM40.618 35.83l.05-.016c.247-.07 1.399-.368 3.065-.368 1.43 0 3.235.218 5.18.984a.308.308 0 0 0 .399-.17.303.303 0 0 0-.173-.395 14.74 14.74 0 0 0-5.406-1.028c-1.988 0-3.28.405-3.301.412a.304.304 0 0 0-.2.382c.052.16.224.25.386.198zM40.374 37.359s.093.018.262.054c.59.127 2.083.473 3.5.98.707.253 1.395.547 1.934.866.541.317.919.668 1.037.96a.308.308 0 0 0 .401.163.303.303 0 0 0 .165-.398c-.253-.576-.838-1.006-1.55-1.395-1.071-.576-2.47-1.027-3.61-1.34-1.139-.314-2.014-.486-2.02-.488a.304.304 0 1 0-.12.597zM29.386 39.646c0 1.848 1.512 3.346 3.376 3.346.697 0 1.35-.211 1.888-.572a.606.606 0 0 0 .164-.845.617.617 0 0 0-.852-.163 2.15 2.15 0 0 1-1.2.363 2.142 2.142 0 0 1-2.148-2.13.611.611 0 0 0-.614-.607.61.61 0 0 0-.614.608z"/>
        <path fill="#8E7966" d="M29.396 39.646a2.141 2.141 0 0 1-2.148 2.13c-.447-.001-.857-.135-1.2-.364a.617.617 0 0 0-.853.163.606.606 0 0 0 .165.845c.538.361 1.191.572 1.888.572 1.865 0 3.375-1.498 3.376-3.346a.61.61 0 0 0-.614-.608.611.611 0 0 0-.614.608zM22.635 15.893h2.455v5.4c0 .254-.357.317-.445.078l-2.01-5.478zM37.365 15.804H34.91v5.4c0 .254.358.317.445.077l2.01-5.477zM46.571 27.629l-1.247-2.096-4.01 2.345c-.19.11-.055.443.168.415l5.09-.664zM13.513 27.629l1.248-2.096 3.95 2.31c.187.109.05.441-.169.414l-5.029-.628z"/>
    </g>
</svg>
