<svg xmlns="http://www.w3.org/2000/svg" xmlns:xlink="http://www.w3.org/1999/xlink" width="60" height="60" viewBox="0 0 60 60">
    <defs>
        <path id="a" d="M.057 0H30.59v38.667H.057z"/>
    </defs>
    <g fill="none" fill-rule="evenodd">
        <circle cx="30" cy="30" r="29.5" fill="#EEE4DA" stroke="#E3D8CD"/>
        <g transform="translate(14.667 10.667)">
            <mask id="b" fill="#fff">
                <use xlink:href="#a"/>
            </mask>
            <path fill="#D3D3D3" stroke="#8E7966" stroke-linecap="round" stroke-linejoin="round" stroke-width="1.082" d="M4.707 21.096C2.714 25.663 1.281 31.511.657 38.052h29.331c-.623-6.541-2.056-12.389-4.05-16.956 1.362-.773 1.972-2.626 1.05-4.14L17.929 2.095a3.036 3.036 0 0 0-5.213 0L3.657 16.957c-.921 1.513-.311 3.366 1.05 4.14z" mask="url(#b)"/>
        </g>
        <path fill="#8E7966" d="M29.99 35.205c3.209 0 6.025 2.863 7.62 7.17.242.653 1.176.52 1.249-.175a26 26 0 0 0 .14-2.695c0-8.482-4.034-15.357-9.01-15.357-4.975 0-9.008 6.875-9.008 15.357 0 .92.047 1.82.139 2.695.073.694 1.007.828 1.25.175 1.594-4.307 4.41-7.17 7.62-7.17z"/>
        <path fill="#BABABA" d="M29.99 35.205v.307c1.514 0 2.945.673 4.209 1.886 1.262 1.213 2.346 2.966 3.13 5.086a.925.925 0 0 0 .875.622.96.96 0 0 0 .618-.225.97.97 0 0 0 .335-.648 26.25 26.25 0 0 0 .141-2.728c0-4.29-1.017-8.179-2.681-11.017-.833-1.42-1.828-2.576-2.948-3.384-1.12-.808-2.367-1.264-3.68-1.263-1.312-.001-2.56.455-3.68 1.263-1.679 1.212-3.08 3.208-4.068 5.7-.988 2.491-1.56 5.483-1.56 8.7 0 .932.048 1.842.14 2.728.027.27.157.501.335.65a.96.96 0 0 0 .619.224.925.925 0 0 0 .875-.622c.784-2.12 1.867-3.873 3.13-5.086 1.264-1.213 2.694-1.886 4.21-1.886v-.614c-1.695 0-3.277.758-4.622 2.053-1.347 1.295-2.47 3.127-3.28 5.315-.066.167-.175.22-.313.226a.369.369 0 0 1-.236-.084.346.346 0 0 1-.12-.24 25.674 25.674 0 0 1-.138-2.663c0-4.191.999-7.981 2.596-10.701.798-1.36 1.743-2.452 2.779-3.198 1.037-.747 2.158-1.15 3.333-1.15 1.176 0 2.297.403 3.334 1.15 1.554 1.119 2.904 3.017 3.858 5.428.956 2.41 1.517 5.328 1.517 8.471 0 .909-.048 1.798-.138 2.662a.349.349 0 0 1-.356.325c-.139-.006-.247-.06-.314-.226-.81-2.188-1.933-4.02-3.28-5.315-1.344-1.294-2.926-2.054-4.62-2.053v.307z"/>
        <path fill="#8E7966" d="M21.314 28.755c0-.848-.337-1.536-.751-1.536-.415 0-.751.688-.751 1.536 0 .848.336 1.536.751 1.536.414 0 .75-.688.75-1.536zM40.203 28.755c0-.848-.336-1.536-.75-1.536-.416 0-.752.688-.752 1.536 0 .848.336 1.536.751 1.536s.75-.688.75-1.536zM28.788 16.163a.607.607 0 0 1-.6.614.607.607 0 0 1-.601-.614c0-.34.269-.615.6-.615.332 0 .601.275.601.615zM32.392 16.163c0 .339-.27.614-.601.614a.607.607 0 0 1-.6-.614c0-.34.268-.615.6-.615.332 0 .6.275.6.615z"/>
        <path fill="#BABABA" d="M27.587 24.7l-2.496 1.914-1.859 2.737-1.298 3.274-.75 3.624-.2 3.64 1.498-1.305-1.474-.27 1.775-1.266-1.414-2.015 2.314-.135-1.57-2.851 2.471 1.93-1.595-4.137 1.595 1.065-.819-2.5 2.62 1.886-.9-3.993 2.102 2.764v-4.3l1.201 3.072 1.201-3.686M32.395 24.7l2.496 1.914 1.859 2.737 1.299 3.274.749 3.624.2 3.64-1.498-1.305 1.474-.27-1.774-1.266 1.413-2.015-2.314-.135 1.57-2.851-2.47 1.93 1.594-4.137-1.595 1.065.82-2.5-2.622 1.886.901-3.993-2.102 2.764v-4.3l-1.201 3.072-1.201-3.686"/>
    </g>
</svg>
