<svg xmlns="http://www.w3.org/2000/svg" width="60" height="60" viewBox="0 0 60 60">
    <g fill="none" fill-rule="evenodd">
        <circle cx="30" cy="30" r="29.5" fill="#EEE4DA" stroke="#E3D8CD"/>
        <path fill="#FFF" stroke="#8E7966" stroke-width="1.092" d="M19 25.618a7.725 7.725 0 0 0-4.277 6.938 7.724 7.724 0 0 0 4.279 6.939L19 25.618zM40.99 25.618a7.724 7.724 0 0 1 4.277 6.938 7.724 7.724 0 0 1-4.278 6.939l.001-13.877z"/>
        <path fill="#FFF" stroke="#8E7966" stroke-width="1.092" d="M31.217 13.84h-2.444c-5.398 0-9.773 4.44-9.773 9.916v14.256c0 6.161 4.923 11.156 10.995 11.156 6.072 0 10.996-4.995 10.996-11.156V23.756c0-5.476-4.377-9.916-9.774-9.916"/>
        <path fill="#DFDFDF" d="M40.38 38.012c0 3.766-4.65 6.818-10.385 6.818-5.735 0-10.385-3.053-10.385-6.818a10.57 10.57 0 0 0 3.042 7.45 10.45 10.45 0 0 0 1.985 1.578 10.222 10.222 0 0 0 6.344 1.461c1.84-.176 3.54-.838 4.974-1.86a10.53 10.53 0 0 0 2.805-2.976 10.578 10.578 0 0 0 1.62-5.653"/>
        <path fill="#8E7966" d="M25.108 22.207c0 .513-.41.93-.916.93a.923.923 0 0 1-.917-.93c0-.514.41-.93.917-.93.506 0 .916.416.916.93zM36.715 22.207c0 .513-.41.93-.917.93a.923.923 0 0 1-.916-.93c0-.514.41-.93.916-.93.507 0 .917.416.917.93z"/>
        <path fill="#DFDFDF" stroke="#8E7966" stroke-linecap="round" stroke-linejoin="round" stroke-width="1.092" d="M29.995 22.517l-4.276 3.099h8.552z"/>
        <path fill="#FFF" stroke="#8E7966" stroke-linecap="round" stroke-linejoin="round" stroke-width="1.092" d="M25.719 49.168h-5.498V46.38c0-1.54 1.23-2.789 2.75-2.789 1.517 0 2.748 1.25 2.748 2.79v2.788z"/>
        <path fill="#8E7966" d="M21.443 46.234v2.48c0 .342.274.62.61.62.338 0 .612-.278.612-.62v-2.48a.615.615 0 0 0-.611-.62.616.616 0 0 0-.611.62M23.275 46.234v2.48c0 .342.274.62.611.62.338 0 .611-.278.611-.62v-2.48a.616.616 0 0 0-.61-.62.616.616 0 0 0-.612.62"/>
        <path fill="#FFF" stroke="#8E7966" stroke-linecap="round" stroke-linejoin="round" stroke-width="1.092" d="M39.769 49.168H34.27V46.38c0-1.54 1.231-2.789 2.75-2.789 1.517 0 2.748 1.25 2.748 2.79v2.788z"/>
        <path fill="#8E7966" d="M35.493 46.234v2.48c0 .342.273.62.61.62.338 0 .612-.278.612-.62v-2.48a.616.616 0 0 0-.611-.62.615.615 0 0 0-.611.62M37.325 46.234v2.48c0 .342.274.62.611.62a.615.615 0 0 0 .611-.62v-2.48a.616.616 0 0 0-.611-.62.615.615 0 0 0-.61.62"/>
        <path fill="#DFDFDF" stroke="#8E7966" stroke-linecap="round" stroke-linejoin="round" stroke-width="1.092" d="M31.41 27.475H28.58c-.906 0-1.64-.745-1.64-1.664v-.195h6.108v.195c0 .92-.734 1.664-1.64 1.664zM31.217 16.319l.61-3.719c0-1.027-.82-1.86-1.832-1.86s-1.833.833-1.833 1.86l.611 3.719"/>
    </g>
</svg>
