<svg xmlns="http://www.w3.org/2000/svg" width="60" height="60" viewBox="0 0 60 60">
    <g fill="none" fill-rule="evenodd">
        <circle cx="30" cy="30" r="29.5" fill="#EEE4DA" stroke="#E3D8CD"/>
        <path fill="#EDEDED" stroke="#8E7966" stroke-width="1.129" d="M49.256 23.55a5.774 5.774 0 0 1-5.777 5.771 5.774 5.774 0 0 1-5.777-5.772 5.774 5.774 0 0 1 5.777-5.77 5.774 5.774 0 0 1 5.777 5.77zM22.298 23.55a5.774 5.774 0 0 1-5.777 5.771 5.774 5.774 0 0 1-5.777-5.772 5.774 5.774 0 0 1 5.777-5.77 5.774 5.774 0 0 1 5.777 5.77z"/>
        <path fill="#D3D3D3" stroke="#8E7966" stroke-width="1.129" d="M31.925 12.006h-3.85c-6.736 0-12.196 5.455-12.196 12.185v8.337c0 7.792 6.322 14.108 14.121 14.108s14.121-6.316 14.121-14.108V24.19c0-6.73-5.46-12.185-12.196-12.185z"/>
        <path fill="#BABABA" stroke="#8E7966" stroke-width="1.129" d="M37.126 31.536a4.167 4.167 0 0 0-1.67-7.987 4.174 4.174 0 0 0-4.089 3.335A7.72 7.72 0 0 0 30 26.756c-.468 0-.923.049-1.367.128a4.174 4.174 0 0 0-8.261.834 4.167 4.167 0 0 0 2.501 3.818c-.068.167-.125.34-.182.512a9.57 9.57 0 0 0-2.32 6.251c0 5.313 4.312 9.62 9.629 9.62 5.317 0 9.628-4.307 9.628-9.62a9.57 9.57 0 0 0-2.32-6.251c-.056-.173-.113-.345-.182-.512z"/>
        <path fill="#8E7966" d="M25.507 27.718a.962.962 0 1 1-1.924 0 .962.962 0 0 1 1.924 0zM36.419 27.718a.962.962 0 1 1-1.924 0 .962.962 0 0 1 1.924 0zM29.358 33.81c0-.708-.431-1.282-.963-1.282-.531 0-.962.574-.962 1.282 0 .708.43 1.283.962 1.283s.963-.575.963-1.283zM32.567 33.81c0-.708-.43-1.282-.962-1.282s-.963.574-.963 1.282c0 .708.431 1.283.963 1.283.531 0 .962-.575.962-1.283z"/>
        <path fill="#8E7966" d="M26.149 33.81a1.928 1.928 0 0 1 1.926-1.924h3.85a1.928 1.928 0 0 1 1.926 1.924.642.642 0 0 0 1.284 0 3.208 3.208 0 0 0-3.21-3.206h-3.85a3.209 3.209 0 0 0-3.21 3.206.642.642 0 0 0 1.284 0zM33.8 45.353h-7.6a1.335 1.335 0 0 1-1.335-1.334v-4.64a3.005 3.005 0 0 1 3.006-3.004h4.258a3.005 3.005 0 0 1 3.006 3.004v4.64c0 .737-.598 1.334-1.335 1.334z"/>
        <path fill="#D3D3D3" d="M27.433 38.705v-1.689h1.925l-1.4 1.864a.292.292 0 0 1-.525-.175zM32.567 38.705v-1.689h-1.925l1.4 1.864a.292.292 0 0 0 .525-.175z"/>
    </g>
</svg>
