<svg xmlns="http://www.w3.org/2000/svg" width="60" height="60" viewBox="0 0 60 60">
    <g fill="none" fill-rule="evenodd">
        <circle cx="30" cy="30" r="29.5" fill="#EEE4DA" stroke="#E3D8CD"/>
        <path fill="#DDB9A0" stroke="#8E7966" stroke-width="1.169" d="M30.332 47.239c-8.25 0-14.938-6.69-14.938-14.942V15.362H45.27v16.935c0 8.252-6.688 14.942-14.938 14.942"/>
        <path fill="#C4A48E" d="M16.114 33.573a14.23 14.23 0 0 0 4.125 8.82 14.229 14.229 0 0 0 10.093 4.182 14.23 14.23 0 0 0 10.094-4.182 14.233 14.233 0 0 0 4.124-8.82c-1.938 6.003-7.571 10.345-14.218 10.345s-12.28-4.342-14.218-10.345"/>
        <path fill="#8E7966" d="M30.664 37.928l3.646-4.158a.688.688 0 0 0-.517-1.14h-6.258a.688.688 0 0 0-.517 1.14l3.646 4.158z"/>
        <path fill="#DDB9A0" stroke="#8E7966" stroke-linecap="round" stroke-linejoin="round" stroke-width="1.169" d="M38.631 18.683V17.12a3.748 3.748 0 0 1 3.747-3.749h6.876v10.626l-5.312-5.313M21.369 18.683V17.12a3.748 3.748 0 0 0-3.747-3.749h-6.876v10.626l5.312-5.313"/>
        <path fill="#8E7966" d="M30.664 43.918a2.656 2.656 0 0 1-2.656-2.656V39.27h5.311v1.992a2.656 2.656 0 0 1-2.655 2.656z"/>
        <path fill="#C4A48E" d="M22.697 37.278a3.984 3.984 0 1 0 7.967 0"/>
        <path fill="#8E7966" d="M22.033 37.278a4.648 4.648 0 0 0 9.295 0 .664.664 0 1 0-1.328 0 3.31 3.31 0 0 1-.972 2.348 3.307 3.307 0 0 1-2.347.972c-.92 0-1.745-.37-2.348-.972a3.308 3.308 0 0 1-.972-2.348.664.664 0 1 0-1.328 0z"/>
        <path fill="#C4A48E" d="M30.664 37.278a3.984 3.984 0 1 0 7.967 0"/>
        <path fill="#8E7966" d="M30 37.278a4.648 4.648 0 1 0 9.295 0 .664.664 0 1 0-1.328 0c0 .918-.37 1.744-.972 2.348a3.307 3.307 0 0 1-2.348.972c-.918 0-1.744-.37-2.347-.972a3.31 3.31 0 0 1-.972-2.348.664.664 0 1 0-1.328 0z"/>
        <path fill="#C4A48E" d="M28.672 27.316a3.984 3.984 0 1 1-7.967.001 3.984 3.984 0 0 1 7.967 0z"/>
        <path fill="#8E7966" d="M25.43 26.215a1.327 1.327 0 1 0-1.485 2.2 1.327 1.327 0 0 0 1.486-2.2zM37.38 26.215a1.328 1.328 0 1 0-1.485 2.2 1.328 1.328 0 0 0 1.486-2.2z"/>
    </g>
</svg>
