<svg xmlns="http://www.w3.org/2000/svg" xmlns:xlink="http://www.w3.org/1999/xlink" width="60" height="60" viewBox="0 0 60 60">
    <defs>
        <path id="a" d="M.058 0h37.906v38.661H.058z"/>
    </defs>
    <g fill="none" fill-rule="evenodd">
        <circle cx="30" cy="30" r="29.5" fill="#EEE4DA" stroke="#E3D8CD"/>
        <g transform="translate(11.333 10.667)">
            <mask id="b" fill="#fff">
                <use xlink:href="#a"/>
            </mask>
            <path fill="#D3D3D3" stroke="#8E7966" stroke-linecap="round" stroke-linejoin="round" stroke-width="1.104" d="M.69 13.64v6.33a7.86 7.86 0 0 0 1.504 4.62l4.336 5.966a7.954 7.954 0 0 0 2.933 2.464l6.009 4.2a8.038 8.038 0 0 0 7.078 0l6.009-4.2a7.954 7.954 0 0 0 2.933-2.464l4.336-5.966a7.856 7.856 0 0 0 1.504-4.62v-6.33A7.865 7.865 0 0 0 35.3 8.368l-3.239-3.587a7.99 7.99 0 0 0-4.258-2.455L20.696.804a8.047 8.047 0 0 0-3.37 0l-7.107 1.523a7.992 7.992 0 0 0-4.258 2.455l-3.24 3.587a7.863 7.863 0 0 0-2.031 5.27" mask="url(#b)"/>
        </g>
        <path fill="#DFDFDF" stroke="#8E7966" stroke-width="1.104" d="M18.95 15.967a3.542 3.542 0 0 0 1.241 3.57 3.62 3.62 0 0 0 3.783.453 3.542 3.542 0 0 0-1.24-3.57 3.619 3.619 0 0 0-3.783-.453zM41.664 15.967a3.543 3.543 0 0 1-1.24 3.57 3.62 3.62 0 0 1-3.784.453 3.541 3.541 0 0 1 1.24-3.57 3.62 3.62 0 0 1 3.784-.453z"/>
        <path fill="#D3D3D3" stroke="#8E7966" stroke-width="1.104" d="M32.861 41.485h-5.034c-3.234 0-5.94-3.076-6.263-7.114l-.909-11.414c-.226-2.837 2.036-5.262 4.907-5.262l4.77.626 4.794-.626c2.871 0 5.133 2.425 4.907 5.262l-.91 11.414c-.321 4.038-3.028 7.114-6.262 7.114z"/>
        <path fill="#D3D3D3" d="M35.398 39.606v1.957c0 1.266-1.17 2.18-2.347 1.832l-2.707-.8-2.707.8c-1.176.348-2.347-.566-2.347-1.832v-1.957"/>
        <path fill="#8E7966" d="M34.766 39.606v1.957a1.3 1.3 0 0 1-.37.921c-.226.229-.524.36-.835.36-.106 0-.217-.015-.33-.049l-2.707-.8a.637.637 0 0 0-.36 0l-2.708.8a1.148 1.148 0 0 1-.329.049c-.31 0-.61-.131-.835-.36a1.3 1.3 0 0 1-.37-.92v-1.958a.629.629 0 0 0-.632-.625.629.629 0 0 0-.632.625v1.957c0 1.416 1.123 2.53 2.47 2.532.226 0 .46-.032.69-.1l2.526-.747 2.526.747h.001c.229.068.461.1.69.1 1.346-.002 2.468-1.115 2.469-2.532v-1.957a.629.629 0 0 0-.632-.625.629.629 0 0 0-.632.625z"/>
        <path fill="#BABABA" d="M36.661 34.42c0-2.519-2.828-2.326-6.317-2.326-3.49 0-6.318-.193-6.318 2.326s2.829 4.56 6.318 4.56c3.49 0 6.317-2.041 6.317-4.56z"/>
        <path fill="#BABABA" d="M34.154 27.56l-1.264 5.008a.632.632 0 0 0 1.226.304l1.263-5.008a.632.632 0 0 0-1.226-.304M25.309 27.864l1.263 5.008c.085.335.428.54.767.456a.626.626 0 0 0 .459-.76l-1.263-5.008a.632.632 0 0 0-1.226.304"/>
        <path fill="#8E7966" d="M30.344 37.278l3.94-4.087c.398-.413.103-1.097-.473-1.097h-6.934c-.576 0-.871.684-.474 1.097l3.941 4.087zM27.185 23.642a.943.943 0 0 1-.947.94.943.943 0 0 1-.948-.94c0-.518.424-.939.948-.939.523 0 .947.42.947.94zM35.398 23.642a.943.943 0 0 1-.948.94.943.943 0 0 1-.947-.94c0-.518.424-.939.947-.939.524 0 .948.42.948.94z"/>
        <path fill="#54596E" d="M30.344 37.728h.632v-1.252a.629.629 0 0 0-.632-.626.629.629 0 0 0-.632.626v2.505a.627.627 0 0 0 .632.625.627.627 0 0 0 .631-.626v-1.252h-1.263v1.253a.627.627 0 0 0 .632.625.627.627 0 0 0 .631-.626v-1.252-1.252a.629.629 0 0 0-.63-.626.629.629 0 0 0-.632.626v1.252h.631z"/>
        <path fill="#8E7966" d="M27.185 42.11c2.094 0 3.79-1.68 3.79-3.755a.629.629 0 0 0-.63-.627.63.63 0 0 0-.633.627 2.48 2.48 0 0 1-.74 1.77 2.527 2.527 0 0 1-1.787.734c-.349 0-.631.28-.631.626 0 .345.282.626.631.626z"/>
        <path fill="#8E7966" d="M33.503 40.859c-.7 0-1.328-.28-1.787-.734a2.481 2.481 0 0 1-.74-1.77.629.629 0 0 0-.632-.627.63.63 0 0 0-.632.627c0 2.074 1.697 3.755 3.791 3.756.349 0 .631-.28.631-.626a.63.63 0 0 0-.631-.626z"/>
    </g>
</svg>
