<svg xmlns="http://www.w3.org/2000/svg" xmlns:xlink="http://www.w3.org/1999/xlink" width="60" height="60" viewBox="0 0 60 60">
    <defs>
        <path id="a" d="M.006.065h8.85v8.889H.007z"/>
    </defs>
    <g fill="none" fill-rule="evenodd">
        <circle cx="30" cy="30" r="29.5" fill="#EEE4DA" stroke="#E3D8CD"/>
        <path fill="#DDB9A0" stroke="#8E7966" stroke-linecap="round" stroke-linejoin="round" stroke-width="1.115" d="M31.543 12.007h-2.53c-5.59 0-10.122 4.548-10.122 10.159v14.602c0 6.313 5.098 11.43 11.387 11.43 6.29 0 11.388-5.117 11.388-11.43V22.166c0-5.611-4.532-10.16-10.123-10.16"/>
        <path fill="#C4A48E" d="M41.033 36.768c0 3.858-4.815 6.985-10.755 6.985s-10.755-3.127-10.755-6.985a10.761 10.761 0 0 0 2.805 7.27c.235.258.483.506.741.74l.002.002a10.683 10.683 0 0 0 7.207 2.782 10.66 10.66 0 0 0 5.548-1.545 10.815 10.815 0 0 0 5.207-9.249"/>
        <path fill="#F7CFB3" stroke="#8E7966" stroke-linecap="round" stroke-linejoin="round" stroke-width="1.115" d="M26.483 20.578a4.12 4.12 0 0 1-4.113 4.127 4.12 4.12 0 0 1-4.112-4.127 4.12 4.12 0 0 1 4.112-4.127 4.12 4.12 0 0 1 4.113 4.127zM42.298 20.578a4.12 4.12 0 0 1-4.112 4.127 4.12 4.12 0 0 1-4.112-4.127 4.12 4.12 0 0 1 4.112-4.127 4.12 4.12 0 0 1 4.112 4.127z"/>
        <path fill="#8E7966" d="M23.32 20.578a.95.95 0 0 1-.95.952.95.95 0 0 1-.949-.952.95.95 0 0 1 .95-.952.95.95 0 0 1 .948.952zM39.135 20.578a.95.95 0 1 1-1.898 0 .95.95 0 0 1 .949-.952.95.95 0 0 1 .949.952z"/>
        <path fill="#F7CFB3" stroke="#8E7966" stroke-linecap="round" stroke-linejoin="round" stroke-width="1.115" d="M30.278 22.588l-2.313 4.022h4.627z"/>
        <path fill="#8E7966" d="M22.687 15.816h-3.164a2.533 2.533 0 0 1-2.53-2.54.633.633 0 1 0-1.265 0c0 2.104 1.699 3.81 3.795 3.81h3.164a.634.634 0 0 0 0-1.27zM37.87 17.086h3.163a3.803 3.803 0 0 0 3.796-3.81.634.634 0 1 0-1.265 0 2.533 2.533 0 0 1-2.531 2.54H37.87a.634.634 0 0 0 0 1.27z"/>
        <path fill="#DDB9A0" stroke="#8E7966" stroke-linecap="round" stroke-linejoin="round" stroke-width="1.115" d="M23.952 48.197h-5.694V45.34a2.852 2.852 0 0 1 2.847-2.857 2.852 2.852 0 0 1 2.847 2.857v2.857z"/>
        <path fill="#8E7966" d="M19.523 45.471v2.54a.633.633 0 1 0 1.266 0v-2.54a.634.634 0 1 0-1.266 0M21.421 45.471v2.54a.633.633 0 1 0 1.266 0v-2.54a.634.634 0 1 0-1.266 0"/>
        <path fill="#DDB9A0" stroke="#8E7966" stroke-linecap="round" stroke-linejoin="round" stroke-width="1.115" d="M42.298 48.197h-5.693V45.34a2.852 2.852 0 0 1 2.846-2.857 2.852 2.852 0 0 1 2.847 2.857v2.857z"/>
        <path fill="#8E7966" d="M37.87 45.471v2.54a.634.634 0 1 0 1.265 0v-2.54a.634.634 0 1 0-1.265 0M39.768 45.471v2.54a.633.633 0 1 0 1.265 0v-2.54a.634.634 0 1 0-1.265 0M18.258 25.975c0 6.663 5.382 12.063 12.02 12.064 6.639 0 12.02-5.401 12.02-12.064a.634.634 0 1 0-1.265 0c0 2.982-1.203 5.676-3.15 7.632a10.697 10.697 0 0 1-7.605 3.161 10.696 10.696 0 0 1-7.604-3.16 10.776 10.776 0 0 1-3.15-7.633.634.634 0 1 0-1.266 0z"/>
        <g transform="translate(10.667 24.005)">
            <mask id="b" fill="#fff">
                <use xlink:href="#a"/>
            </mask>
            <path fill="#C4A48E" stroke="#8E7966" stroke-linecap="round" stroke-linejoin="round" stroke-width="1.115" d="M8.224 8.319V.7H.633c0 4.208 3.398 7.619 7.59 7.619z" mask="url(#b)"/>
        </g>
        <path fill="#C4A48E" stroke="#8E7966" stroke-linecap="round" stroke-linejoin="round" stroke-width="1.115" d="M41.666 32.324v-7.619h7.59c0 4.208-3.398 7.619-7.59 7.619z"/>
    </g>
</svg>
