<svg xmlns="http://www.w3.org/2000/svg" width="60" height="60" viewBox="0 0 60 60">
    <g fill="none" fill-rule="evenodd">
        <circle cx="30" cy="30" r="29.5" fill="#EEE4DA" stroke="#E3D8CD"/>
        <path fill="#FFF" stroke="#8E7966" stroke-linecap="round" stroke-linejoin="round" stroke-width="1.091" d="M42.18 37.076c0-6.812-5.491-12.334-12.266-12.334-6.774 0-12.265 5.522-12.265 12.334 0 6.812 5.491 8.223 12.265 8.223 6.775 0 12.266-1.411 12.266-8.223z"/>
        <path fill="#FFF" stroke="#8E7966" stroke-linecap="round" stroke-linejoin="round" stroke-width="1.091" d="M29.295 33.463c0 2.064-1.664 3.737-3.717 3.737s-3.717-1.673-3.717-3.737c0-2.065 1.664-3.738 3.717-3.738s3.717 1.673 3.717 3.738zM37.967 33.463c0 2.064-1.663 3.737-3.717 3.737-2.052 0-3.716-1.673-3.716-3.737 0-2.065 1.664-3.738 3.716-3.738 2.054 0 3.717 1.673 3.717 3.738z"/>
        <g fill="#8E7966">
            <path d="M11.167 37.622c.036-.04.572-.6 1.509-1.14a7.828 7.828 0 0 1 4.834-1.011.62.62 0 0 0 .684-.55.622.622 0 0 0-.547-.688 9.073 9.073 0 0 0-5.692 1.23c-1.081.643-1.671 1.284-1.7 1.316a.625.625 0 0 0 .036.88.617.617 0 0 0 .876-.037zM11.664 42.056l-.2-.107.2.109v-.002l-.2-.107.2.109c.005-.01.438-.805 1.354-1.652a7.82 7.82 0 0 1 4.254-2.027.622.622 0 0 0-.175-1.233 9.067 9.067 0 0 0-4.968 2.39c-1.052.99-1.535 1.892-1.557 1.933a.625.625 0 0 0 .254.843.618.618 0 0 0 .838-.256zM13.708 45.81l-.23-.043.23.046v-.002l-.23-.044.23.046c.001-.012.18-.9.8-1.983a7.86 7.86 0 0 1 3.455-3.216.624.624 0 0 0 .292-.83.618.618 0 0 0-.826-.294 9.107 9.107 0 0 0-4.028 3.777c-.71 1.26-.901 2.267-.91 2.313a.62.62 0 1 0 1.217.231zM49.746 36.779c-.03-.032-.62-.673-1.702-1.317a9.071 9.071 0 0 0-5.691-1.23.622.622 0 0 0 .137 1.239 7.835 7.835 0 0 1 4.924 1.064c.47.279.832.558 1.073.764.121.103.211.188.27.245l.062.063.013.014h.001c.232.254.624.27.876.037a.625.625 0 0 0 .037-.88zM49.428 41.47c-.022-.042-.505-.944-1.557-1.933a9.064 9.064 0 0 0-4.968-2.391.623.623 0 0 0-.175 1.234 7.828 7.828 0 0 1 4.298 2.067c.457.43.79.841 1.006 1.141.108.15.187.273.237.355l.054.091.012.02.001.004.2-.11-.2.108v.002l.2-.11-.2.108a.618.618 0 0 0 .838.256.625.625 0 0 0 .254-.843zM47.509 45.58c-.01-.047-.2-1.052-.91-2.313a9.112 9.112 0 0 0-4.028-3.777.618.618 0 0 0-.826.294.624.624 0 0 0 .292.83 7.857 7.857 0 0 1 3.484 3.267 7.99 7.99 0 0 1 .62 1.392c.059.176.097.316.121.41l.024.103.005.023v.003l.227-.044-.227.043v.001l.227-.044-.227.043a.62.62 0 1 0 1.218-.231z"/>
        </g>
        <path fill="#8E7966" d="M26.817 33.463c0 .688-.555 1.246-1.239 1.246-.685 0-1.24-.558-1.24-1.246s.555-1.246 1.24-1.246c.684 0 1.239.558 1.239 1.246zM35.49 33.463c0 .688-.555 1.246-1.24 1.246a1.243 1.243 0 0 1-1.238-1.246c0-.688.554-1.246 1.238-1.246.685 0 1.24.558 1.24 1.246z"/>
        <path fill="#FFF" stroke="#8E7966" stroke-linecap="round" stroke-linejoin="round" stroke-width="1.091" d="M18.764 20.382l3.069-6.687c-2.072-1.018-5.08.533-6.824 3.572-1.797 3.128-1.572 6.64.502 7.844 2.075 1.205 5.212-.355 7.008-3.483a9.141 9.141 0 0 0 1.12-3.132l-4.875 1.886z"/>
        <path fill="#8E7966" d="M15.383 25.063c-.021.02-.275.258-.54.645-.261.388-.557.93-.563 1.605a2 2 0 0 0 .32 1.089c.339.526.919.945 1.775 1.266.86.321 2.017.555 3.6.678a.62.62 0 0 0 .665-.573.622.622 0 0 0-.57-.669c-2.009-.153-3.216-.507-3.847-.872-.317-.183-.488-.358-.581-.504a.74.74 0 0 1-.123-.415c-.006-.267.152-.624.344-.898.094-.137.19-.253.26-.331l.084-.089.02-.02.003-.003-.149-.157.148.159.001-.002-.149-.157.148.159a.626.626 0 0 0 .03-.88.617.617 0 0 0-.876-.03z"/>
        <path fill="#FFF" stroke="#8E7966" stroke-linecap="round" stroke-linejoin="round" stroke-width="1.091" d="M40.973 20.382l-3.07-6.687c2.072-1.018 5.08.533 6.825 3.572 1.797 3.128 1.571 6.64-.503 7.844-2.074 1.205-5.212-.355-7.008-3.483a9.14 9.14 0 0 1-1.12-3.132l4.876 1.886z"/>
        <path fill="#8E7966" d="M44.128 25.974l.147-.159-.149.157.002.002.147-.159-.149.157c.006.005.204.198.385.47.185.27.331.612.326.871a.742.742 0 0 1-.123.415c-.137.217-.462.51-1.166.772-.7.263-1.756.488-3.262.604a.622.622 0 0 0 .095 1.242c2.11-.166 3.465-.52 4.365-1.033.449-.256.786-.562 1.01-.911a2 2 0 0 0 .32-1.089c-.006-.676-.301-1.217-.563-1.605-.265-.386-.519-.625-.54-.645a.617.617 0 0 0-.875.03.625.625 0 0 0 .03.88zM22.954 39.423a8.807 8.807 0 0 0 14.274.034.625.625 0 0 0-.133-.87.617.617 0 0 0-.866.133 7.57 7.57 0 0 1-12.272-.03.618.618 0 0 0-.866-.137.625.625 0 0 0-.137.87z"/>
    </g>
</svg>
