<svg xmlns="http://www.w3.org/2000/svg" xmlns:xlink="http://www.w3.org/1999/xlink" width="60" height="60" viewBox="0 0 60 60">
    <defs>
        <path id="a" d="M.095 0h29.234v38.66H.095z"/>
    </defs>
    <g fill="none" fill-rule="evenodd">
        <circle cx="30" cy="30" r="29.5" fill="#EEE4DA" stroke="#E3D8CD"/>
        <g transform="translate(15.317 10.667)">
            <mask id="b" fill="#fff">
                <use xlink:href="#a"/>
            </mask>
            <path fill="#DDB9A0" stroke="#8E7966" stroke-linecap="round" stroke-linejoin="round" stroke-width="1.177" d="M27.114.99l-5.471 8.366H7.78L2.31.991C1.787.35.76.723.76 1.552V23.91C.759 31.69 7.005 38 14.712 38c7.706 0 13.953-6.309 13.953-14.091V1.552c0-.829-1.03-1.201-1.551-.561z" mask="url(#b)"/>
        </g>
        <path fill="#8E7966" d="M26.042 28.334c0 .552-.446 1-.997 1a.998.998 0 0 1-.996-1c0-.553.446-1 .996-1 .551 0 .997.447.997 1zM36.008 28.334a.998.998 0 1 1-1.993 0c0-.553.446-1 .997-1 .55 0 .996.447.996 1z"/>
        <path fill="#C4A48E" d="M33.155 40h-6.253c-1.209 0-2.189-.983-2.189-2.196v-4.275c0-1.212.98-2.196 2.19-2.196h6.252c1.209 0 2.19.983 2.19 2.196v4.275c0 1.213-.981 2.196-2.19 2.196z"/>
        <path fill="#8E7966" d="M30.367 34.362l2.514-2.087c.382-.318.159-.942-.338-.942h-5.028a.532.532 0 0 0-.338.942l2.514 2.087c.196.162.48.162.676 0z"/>
        <path fill="#8E7966" d="M30.693 37.333v-2.666a.665.665 0 1 0-1.329 0v2.666a.665.665 0 1 0 1.33 0"/>
        <path fill="#8E7966" d="M29.364 37.667c0 1.657 1.339 3 2.99 3a2.995 2.995 0 0 0 2.99-3 .665.665 0 1 0-1.329 0 1.666 1.666 0 0 1-1.661 1.667 1.667 1.667 0 0 1-1.66-1.667.665.665 0 1 0-1.33 0z"/>
        <path fill="#8E7966" d="M24.713 37.667c0 1.657 1.339 3 2.99 3a2.995 2.995 0 0 0 2.99-3 .665.665 0 1 0-1.329 0 1.666 1.666 0 0 1-1.66 1.667 1.666 1.666 0 0 1-1.662-1.667.666.666 0 1 0-1.329 0zM34.621 35.998l13.049-1.333a.333.333 0 0 0-.068-.663l-13.048 1.333a.333.333 0 0 0 .067.663M35.127 33.98l10.852-4a.333.333 0 0 0-.229-.626l-10.853 4a.334.334 0 0 0 .23.626M25.503 35.335l-13.048-1.333a.333.333 0 0 0-.067.663l13.048 1.333a.333.333 0 1 0 .067-.663M25.16 33.354l-10.852-4a.333.333 0 0 0-.229.626l10.852 4a.334.334 0 0 0 .23-.626"/>
    </g>
</svg>
