<svg xmlns="http://www.w3.org/2000/svg" xmlns:xlink="http://www.w3.org/1999/xlink" width="60" height="60" viewBox="0 0 60 60">
    <defs>
        <path id="a" d="M.048.003h27.93V35.93H.047z"/>
        <path id="c" d="M.006.008h11.638v13.567H.006z"/>
    </defs>
    <g fill="none" fill-rule="evenodd">
        <circle cx="30" cy="30" r="29.5" fill="#EEE4DA" stroke="#E3D8CD"/>
        <path fill="#EDEDED" d="M20.424 26.028c0-2.28-1.302-4.129-2.909-4.129-1.607 0-2.91 1.849-2.91 4.13 0 2.28 1.303 4.128 2.91 4.128 1.607 0 2.91-1.848 2.91-4.129z"/>
        <path fill="#8E7966" d="M20.424 26.028h.582c-.001-1.254-.354-2.4-.96-3.263a3.687 3.687 0 0 0-1.102-1.05 2.76 2.76 0 0 0-1.429-.406 2.76 2.76 0 0 0-1.429.407c-.642.387-1.152 1.003-1.508 1.747a6 6 0 0 0-.554 2.565c.001 1.255.354 2.4.96 3.263a3.68 3.68 0 0 0 1.102 1.05 2.76 2.76 0 0 0 1.429.406 2.76 2.76 0 0 0 1.429-.407c.642-.386 1.153-1.003 1.507-1.747a5.99 5.99 0 0 0 .555-2.565h-1.164c.002 1.027-.297 1.946-.744 2.577-.222.316-.48.56-.747.72-.269.161-.545.242-.836.243-.29-.001-.567-.082-.836-.243-.402-.24-.78-.67-1.053-1.244a4.81 4.81 0 0 1-.439-2.053c0-1.026.297-1.945.744-2.577.223-.316.48-.56.748-.72.269-.16.545-.242.836-.242.29 0 .567.081.836.242.402.24.78.67 1.052 1.245.274.573.44 1.282.44 2.052h.581z"/>
        <path fill="#EDEDED" d="M46.026 26.028c0-2.28-1.303-4.129-2.91-4.129-1.606 0-2.908 1.849-2.908 4.13 0 2.28 1.302 4.128 2.909 4.128 1.606 0 2.909-1.848 2.909-4.129z"/>
        <path fill="#8E7966" d="M46.026 26.028h.582c-.002-1.254-.354-2.4-.96-3.263a3.678 3.678 0 0 0-1.102-1.05 2.76 2.76 0 0 0-1.429-.406 2.76 2.76 0 0 0-1.429.407c-.643.387-1.153 1.003-1.508 1.747a5.99 5.99 0 0 0-.554 2.565c0 1.255.354 2.4.96 3.263a3.68 3.68 0 0 0 1.102 1.05c.427.257.916.407 1.429.406a2.76 2.76 0 0 0 1.429-.407c.642-.386 1.152-1.003 1.507-1.747a6 6 0 0 0 .555-2.565h-1.164c.001 1.027-.297 1.946-.744 2.577-.222.316-.48.56-.747.72-.27.161-.545.242-.836.243-.291-.001-.567-.082-.837-.243-.401-.24-.78-.67-1.052-1.244a4.81 4.81 0 0 1-.44-2.053c0-1.026.298-1.945.745-2.577.222-.316.48-.56.747-.72.27-.16.546-.242.837-.242.29 0 .566.081.836.242.401.24.78.67 1.052 1.245.273.573.44 1.282.44 2.052h.581z"/>
        <g transform="translate(16.303 11.333)">
            <mask id="b" fill="#fff">
                <use xlink:href="#a"/>
            </mask>
            <path fill="#D3D3D3" stroke="#8E7966" stroke-linecap="round" stroke-linejoin="round" stroke-width="1.03" d="M16.844.699l-2.83.429-2.832-.43c-1.13-.17-2.29-.155-3.387.162C4.159 1.91 1.794 5.412 1.794 9.568L.63 25.313c0 7.167 6.313 10.028 13.383 10.028 7.07 0 13.383-2.86 13.383-10.028L26.232 9.568c0-4.156-2.365-7.657-6.001-8.708-1.097-.317-2.258-.332-3.387-.161" mask="url(#b)"/>
        </g>
        <path fill="#BABABA" d="M17.522 36.661l-.007.094c.004 1.694.375 3.102 1.023 4.28.651 1.183 1.587 2.142 2.751 2.903 2.32 1.523 5.558 2.233 9.011 2.233h.016c2.593 0 5.07-.396 7.123-1.24 2.056-.846 3.679-2.123 4.655-3.895.647-1.179 1.019-2.586 1.023-4.28l-.007-.094c-1.72 4.637-7.001 6.56-12.794 6.56s-11.075-1.924-12.794-6.56"/>
        <path fill="#8E7966" d="M37.02 31.337H23.612c-.922 0-1.606-.94-1.406-1.933l.667-3.312c.147-.727.731-1.243 1.406-1.243h12.075c.675 0 1.26.516 1.407 1.243l.667 3.312c.2.992-.485 1.933-1.406 1.933z"/>
        <path fill="#EEE4DA" d="M26.825 27.503c0 .489-.391.885-.873.885a.879.879 0 0 1-.873-.885c0-.489.39-.885.873-.885.482 0 .873.396.873.885zM35.552 27.503c0 .489-.39.885-.872.885a.879.879 0 0 1-.873-.885c0-.489.39-.885.873-.885.482 0 .872.396.872.885z"/>
        <path fill="#EDEDED" d="M32.292 28.978H28.34c-1.801 0-3.26 1.48-3.26 3.305v3.773h10.472v-3.773c0-1.826-1.46-3.305-3.26-3.305z"/>
        <path fill="#8E7966" d="M32.292 28.978v-.59H28.34c-2.123 0-3.842 1.743-3.843 3.895v3.773a.59.59 0 0 0 .582.59h10.473a.59.59 0 0 0 .582-.59v-3.773c0-2.152-1.72-3.895-3.842-3.895v1.18c.741 0 1.408.303 1.894.795.486.493.784 1.168.784 1.92v3.183h-9.309v-3.183c0-.752.299-1.427.785-1.92a2.652 2.652 0 0 1 1.894-.796h3.952v-.59z"/>
        <g transform="translate(24.49 35.458)">
            <mask id="d" fill="#fff">
                <use xlink:href="#c"/>
            </mask>
            <path fill="#BABABA" stroke="#8E7966" stroke-linecap="round" stroke-linejoin="round" stroke-width="1.03" d="M.588.599l1.164 7.286c0 2.817 1.824 5.101 4.073 5.101 2.25 0 4.073-2.284 4.073-5.1L11.062.598" mask="url(#d)"/>
        </g>
        <path fill="#A9A9A9" d="M35.552 36.236c-1.349-.536-3.197-.866-5.236-.866-2.04 0-3.89.33-5.24.867"/>
        <path fill="#8E7966" d="M35.765 35.687c-1.441-.57-3.347-.906-5.449-.907-2.103.001-4.01.337-5.452.908a.592.592 0 0 0-.329.765.58.58 0 0 0 .754.334c1.26-.502 3.05-.829 5.027-.827 1.976-.002 3.766.324 5.025.826a.579.579 0 0 0 .753-.334.592.592 0 0 0-.33-.765zM33.39 30.912c-.487-.285-1.224.084-1.646.825-.422.74-.369 1.572.118 1.857.487.285 1.224-.084 1.645-.825.423-.74.37-1.572-.117-1.857zM28.853 31.734c-.422-.74-1.159-1.11-1.646-.825-.487.286-.54 1.117-.117 1.857.421.741 1.158 1.11 1.645.825.487-.285.54-1.116.118-1.857zM30.898 16.676v-4.128c0-.327-.26-.59-.582-.59a.586.586 0 0 0-.582.59v4.128c0 .326.26.59.582.59a.586.586 0 0 0 .582-.59"/>
    </g>
</svg>
