<svg xmlns="http://www.w3.org/2000/svg" xmlns:xlink="http://www.w3.org/1999/xlink" width="60" height="60" viewBox="0 0 60 60">
    <defs>
        <path id="a" d="M.078 0h28.01v8.804H.078z"/>
        <path id="c" d="M.07.033h11.792v5.28H.07z"/>
    </defs>
    <g fill="none" fill-rule="evenodd">
        <circle cx="30" cy="30" r="29.5" fill="#EEE4DA" stroke="#E3D8CD"/>
        <g transform="translate(15.91 10.667)">
            <mask id="b" fill="#fff">
                <use xlink:href="#a"/>
            </mask>
            <path fill="#EDEDED" stroke="#8E7966" stroke-linecap="round" stroke-linejoin="round" stroke-width="1.141" d="M.88 1.186a5.653 5.653 0 0 0 1.991 5.71c1.774 1.415 4.136 1.617 6.072.723a5.652 5.652 0 0 0-1.991-5.71A5.825 5.825 0 0 0 .88 1.187zM27.285 1.186a5.653 5.653 0 0 1-1.991 5.71c-1.773 1.415-4.136 1.617-6.071.723a5.653 5.653 0 0 1 1.99-5.71 5.825 5.825 0 0 1 6.072-.723z" mask="url(#b)"/>
        </g>
        <path fill="#D3D3D3" stroke="#8E7966" stroke-linecap="round" stroke-linejoin="round" stroke-width="1.141" d="M33.037 45.67h-5.778c-3.71 0-6.817-4.181-7.187-9.671L19.03 20.48c-.26-3.856 2.336-7.153 5.631-7.153l5.475.851 5.5-.85c3.295 0 5.891 3.296 5.632 7.152L40.223 36c-.37 5.49-3.476 9.67-7.186 9.67z"/>
        <g transform="translate(24.181 43.049)">
            <mask id="d" fill="#fff">
                <use xlink:href="#c"/>
            </mask>
            <path fill="#D3D3D3" d="M11.207.68v2.022c0 1.307-1.214 2.252-2.434 1.893l-2.807-.828-2.807.827C1.939 4.954.725 4.01.725 2.702V.68" mask="url(#d)"/>
            <path fill="#8E7966" d="M10.552.68v2.022c0 .388-.152.715-.384.951-.235.236-.544.371-.866.371-.11 0-.225-.016-.342-.05l-2.807-.826a.658.658 0 0 0-.374 0l-2.808.827c-.116.034-.23.049-.34.05-.323 0-.632-.136-.867-.372a1.34 1.34 0 0 1-.384-.951V.68A.65.65 0 0 0 .725.033.651.651 0 0 0 .07.68v2.022c0 1.463 1.165 2.613 2.56 2.616.236 0 .478-.034.716-.104l2.62-.772 2.62.772h.001c.237.07.478.104.715.104 1.396-.003 2.56-1.153 2.56-2.616V.68a.651.651 0 0 0-.655-.647.651.651 0 0 0-.655.647z" mask="url(#d)"/>
        </g>
        <path fill="#BABABA" d="M23.596 36.147c0 2.603 2.933 2.403 6.552 2.403 3.617 0 6.55.2 6.55-2.403 0-2.602-2.933-4.712-6.55-4.712-3.619 0-6.552 2.11-6.552 4.712z"/>
        <path fill="#8E7966" d="M30.148 37.873l2.76-2.7c.43-.422.127-1.147-.479-1.147h-4.563c-.606 0-.909.725-.478 1.147l2.76 2.7zM26.872 22.706c0 .536-.44.97-.982.97a.977.977 0 0 1-.984-.97c0-.536.44-.97.984-.97.542 0 .982.434.982.97zM35.388 22.706c0 .536-.44.97-.982.97a.977.977 0 0 1-.983-.97c0-.536.44-.97.983-.97.542 0 .982.434.982.97z"/>
        <path fill="#54596E" d="M30.148 38.554h.655V37.26a.649.649 0 0 0-.655-.646.663.663 0 0 0-.464.189.647.647 0 0 0-.192.457v3.234c0 .17.07.337.192.458a.665.665 0 0 0 .927 0 .649.649 0 0 0 .192-.458v-1.94h-1.31v1.94c0 .17.07.337.191.458a.665.665 0 0 0 .927 0 .649.649 0 0 0 .192-.458v-1.94-1.294a.649.649 0 0 0-.655-.646.663.663 0 0 0-.464.189.647.647 0 0 0-.192.457v1.294h.656z"/>
        <path fill="#8E7966" d="M26.872 44.375c2.171 0 3.93-1.737 3.93-3.88a.651.651 0 0 0-.654-.647.65.65 0 0 0-.656.646 2.56 2.56 0 0 1-.767 1.83 2.626 2.626 0 0 1-1.853.758.65.65 0 0 0-.655.646c0 .358.293.647.655.647z"/>
        <path fill="#8E7966" d="M33.423 43.082a2.626 2.626 0 0 1-1.853-.758 2.561 2.561 0 0 1-.767-1.83.651.651 0 0 0-.655-.646.65.65 0 0 0-.656.646c0 2.144 1.76 3.88 3.93 3.881a.65.65 0 0 0 .656-.647.65.65 0 0 0-.655-.646zM23.173 33.797c-.009-.009-.697-.688-1.707-1.374-1.012-.683-2.34-1.388-3.692-1.393-.27 0-.541.029-.808.095a.322.322 0 0 0-.238.392.328.328 0 0 0 .397.236c.21-.053.426-.077.649-.077 1.11-.005 2.364.626 3.32 1.28a13.455 13.455 0 0 1 1.502 1.19l.086.082.027.027a.331.331 0 0 0 .464 0 .32.32 0 0 0 0-.458zM23.063 35.666c-.027-.01-1.134-.445-2.841-.446-1.28 0-2.898.247-4.633 1.104a.322.322 0 0 0-.147.434.33.33 0 0 0 .44.145 9.745 9.745 0 0 1 4.34-1.036c.797 0 1.453.103 1.906.204.228.05.404.1.521.138l.132.044.032.011.007.003a.33.33 0 0 0 .426-.18.322.322 0 0 0-.183-.42zM24.5 36.623c-.01.002-1.33.328-2.748.904-.71.289-1.443.64-2.056 1.053-.61.416-1.116.89-1.323 1.489a.328.328 0 0 0 .621.205c.12-.373.515-.787 1.072-1.16.83-.563 1.988-1.037 2.929-1.36a23.094 23.094 0 0 1 1.664-.504.324.324 0 0 0 .238-.392.328.328 0 0 0-.397-.235zM37.258 34.255l.027-.027c.144-.138.84-.787 1.77-1.394.93-.61 2.1-1.162 3.139-1.158.222 0 .439.024.649.076a.328.328 0 0 0 .397-.235.323.323 0 0 0-.238-.392 3.32 3.32 0 0 0-.808-.095c-1.351.005-2.68.71-3.692 1.393-1.01.686-1.698 1.365-1.707 1.374a.32.32 0 0 0 0 .458.331.331 0 0 0 .463 0zM37.148 36.267l.007-.003c.097-.037 1.097-.397 2.59-.397 1.196 0 2.707.229 4.34 1.035a.33.33 0 0 0 .44-.144.322.322 0 0 0-.146-.434 10.41 10.41 0 0 0-4.633-1.104c-1.707 0-2.815.436-2.841.446a.322.322 0 0 0-.183.42.329.329 0 0 0 .426.18zM35.309 37.25l.22.058c.495.134 1.757.5 2.95 1.036.595.267 1.173.577 1.623.912.452.333.765.692.872 1.017.056.17.242.26.414.205a.323.323 0 0 0 .207-.41c-.207-.598-.713-1.072-1.323-1.488-.92-.62-2.113-1.101-3.083-1.437-.97-.334-1.715-.518-1.721-.52a.323.323 0 1 0-.159.628z"/>
    </g>
</svg>
