<svg xmlns="http://www.w3.org/2000/svg" xmlns:xlink="http://www.w3.org/1999/xlink" width="60" height="60" viewBox="0 0 60 60">
    <defs>
        <path id="a" d="M.022 0h33.946v38.667H.022z"/>
    </defs>
    <g fill="none" fill-rule="evenodd">
        <circle cx="30" cy="30" r="29.5" fill="#EEE4DA" stroke="#E3D8CD"/>
        <g transform="translate(13.333 10.667)">
            <mask id="b" fill="#fff">
                <use xlink:href="#a"/>
            </mask>
            <path fill="#DDB9A0" stroke="#8E7966" stroke-linecap="round" stroke-linejoin="round" stroke-width="1.093" d="M33.34 23.075L16.995 38.043.651 23.075V10.098c0-1.1.898-1.99 2.005-1.99h28.678c1.108 0 2.006.89 2.006 1.99v12.977z" mask="url(#b)"/>
            <path fill="#DDB9A0" d="M4.422 9.979H.652V.624l7.542 9.355" mask="url(#b)"/>
            <path fill="#8E7966" d="M4.422 9.355H1.28V2.402l6.424 7.966a.632.632 0 0 0 .883.098.62.62 0 0 0 .098-.877L1.142.235a.631.631 0 0 0-1.12.389v9.355a.626.626 0 0 0 .63.623h3.77c.348 0 .63-.279.63-.623a.627.627 0 0 0-.63-.624z" mask="url(#b)"/>
            <path fill="#DDB9A0" d="M29.568 9.979h3.772V.624l-7.544 9.355" mask="url(#b)"/>
            <path fill="#8E7966" d="M29.568 10.602h3.772a.627.627 0 0 0 .629-.623V.624a.631.631 0 0 0-1.12-.39L25.305 9.59a.62.62 0 0 0 .099.877.632.632 0 0 0 .883-.098l6.424-7.966v6.953h-3.143a.626.626 0 0 0-.629.624c0 .344.282.623.629.623z" mask="url(#b)"/>
        </g>
        <path fill="#8E7966" d="M22.157 41.226l-5.658-5.613a.44.44 0 0 1 0-.624l5.658-5.613a4.47 4.47 0 0 1 6.286 0 4.385 4.385 0 0 1 0 6.237l-5.658 5.613a.446.446 0 0 1-.628 0zM39.044 41.226l5.658-5.613a.439.439 0 0 0 0-.624l-5.658-5.613a4.47 4.47 0 0 0-6.286 0 4.385 4.385 0 0 0 0 6.237l5.657 5.613a.447.447 0 0 0 .629 0z"/>
        <path fill="#EEE4DA" d="M39.044 33.118a2.504 2.504 0 0 1-2.514 2.495 2.505 2.505 0 0 1-2.515-2.495 2.505 2.505 0 0 1 2.515-2.494 2.504 2.504 0 0 1 2.514 2.494zM27.185 33.118a2.505 2.505 0 0 1-2.514 2.495 2.505 2.505 0 0 1-2.514-2.495 2.504 2.504 0 0 1 2.514-2.494 2.504 2.504 0 0 1 2.514 2.494z"/>
        <path fill="#8E7966" d="M25.928 33.118c0 .69-.563 1.248-1.257 1.248a1.252 1.252 0 0 1-1.257-1.248c0-.688.563-1.247 1.257-1.247s1.257.559 1.257 1.247zM37.872 33.118c0 .69-.563 1.248-1.257 1.248a1.252 1.252 0 0 1-1.257-1.248c0-.688.563-1.247 1.257-1.247s1.257.559 1.257 1.247zM26.557 44.967H34.1l-3.772 3.119zM26.557 39.978v2.495c0 .344.281.624.628.624.348 0 .629-.28.629-.624v-2.495a.626.626 0 0 0-.629-.623.627.627 0 0 0-.628.623M32.843 39.978v2.495c0 .344.282.624.629.624.347 0 .629-.28.629-.624v-2.495a.627.627 0 0 0-.63-.623.627.627 0 0 0-.628.623"/>
    </g>
</svg>
