<svg xmlns="http://www.w3.org/2000/svg" xmlns:xlink="http://www.w3.org/1999/xlink" width="60" height="60" viewBox="0 0 60 60">
    <defs>
        <path id="a" d="M.057.004h22.708v38.574H.057z"/>
    </defs>
    <g fill="none" fill-rule="evenodd">
        <circle cx="30" cy="30" r="29.5" fill="#EEE4DA" stroke="#E3D8CD"/>
        <g transform="translate(18.93 10.667)">
            <mask id="b" fill="#fff">
                <use xlink:href="#a"/>
            </mask>
            <path fill="#D3D3D3" d="M12.606.603h-2.39C4.933.603.653 4.92.653 10.247v16.878c0 5.993 4.816 10.85 10.756 10.85 5.941 0 10.757-4.857 10.757-10.85V10.247c0-5.326-4.28-9.644-9.561-9.644" mask="url(#b)"/>
            <path fill="#8E7966" d="M12.606.603V0h-2.39C4.603 0 .055 4.588.055 10.247v16.878c0 6.326 5.083 11.453 11.354 11.453 6.272 0 11.355-5.127 11.355-11.453V10.247c0-5.66-4.548-10.246-10.16-10.247v1.206a8.895 8.895 0 0 1 6.34 2.648 9.05 9.05 0 0 1 2.624 6.393v16.878c0 2.832-1.136 5.39-2.975 7.246a10.08 10.08 0 0 1-7.184 3.002 10.08 10.08 0 0 1-7.183-3.002 10.255 10.255 0 0 1-2.975-7.246V10.247a9.05 9.05 0 0 1 2.625-6.393 8.895 8.895 0 0 1 6.338-2.648h2.39V.603z" mask="url(#b)"/>
        </g>
        <path fill="#BABABA" d="M40.5 37.792c0 3.662-4.55 6.63-10.16 6.63s-10.158-2.968-10.158-6.63c0 .287.011.572.034.854.405 4.949 4.296 8.9 9.19 9.35a10.197 10.197 0 0 0 1.813.006 10.05 10.05 0 0 0 5.058-1.893 10.252 10.252 0 0 0 2.382-2.434 10.249 10.249 0 0 0 1.84-5.883"/>
        <path fill="#EDEDED" stroke="#8E7966" stroke-width="1.062" d="M26.755 22.421c0 2.164-1.74 3.918-3.885 3.918-2.145 0-3.884-1.754-3.884-3.918s1.739-3.918 3.884-3.918c2.146 0 3.885 1.754 3.885 3.918zM41.694 22.421c0 2.164-1.738 3.918-3.884 3.918-2.145 0-3.884-1.754-3.884-3.918s1.739-3.918 3.884-3.918c2.146 0 3.884 1.754 3.884 3.918z"/>
        <path fill="#8E7966" d="M23.767 22.421a.9.9 0 0 1-.897.904.9.9 0 0 1-.896-.904c0-.5.401-.904.896-.904a.9.9 0 0 1 .897.904zM38.706 22.421a.9.9 0 0 1-.896.904.9.9 0 0 1-.896-.904.9.9 0 0 1 .896-.904.9.9 0 0 1 .896.904z"/>
        <path fill="#EDEDED" stroke="#8E7966" stroke-linecap="round" stroke-linejoin="round" stroke-width="1.062" d="M30.34 24.33l-3.38 3.817h6.76z"/>
        <path fill="#FFF" stroke="#8E7966" stroke-linecap="round" stroke-linejoin="round" stroke-width="1.062" d="M24.364 48.642h-5.378V45.93c0-1.498 1.204-2.713 2.69-2.713 1.485 0 2.688 1.215 2.688 2.713v2.712z"/>
        <path fill="#8E7966" d="M20.182 46.054v2.411a.6.6 0 0 0 .597.603.6.6 0 0 0 .597-.603v-2.411a.6.6 0 0 0-.597-.603.6.6 0 0 0-.597.603M21.974 46.054v2.411a.6.6 0 0 0 .598.603.6.6 0 0 0 .597-.603v-2.411a.6.6 0 0 0-.597-.603.6.6 0 0 0-.598.603"/>
        <path fill="#FFF" stroke="#8E7966" stroke-linecap="round" stroke-linejoin="round" stroke-width="1.062" d="M41.694 48.642h-5.378V45.93c0-1.498 1.204-2.713 2.69-2.713 1.484 0 2.688 1.215 2.688 2.713v2.712z"/>
        <path fill="#8E7966" d="M37.511 46.054v2.411a.6.6 0 0 0 .598.603.6.6 0 0 0 .597-.603v-2.411a.6.6 0 0 0-.597-.603.6.6 0 0 0-.598.603M39.304 46.054v2.411a.6.6 0 0 0 .598.603.6.6 0 0 0 .597-.603v-2.411a.6.6 0 0 0-.597-.603.6.6 0 0 0-.598.603M18.986 25.133c0 6.326 5.083 11.453 11.354 11.453 6.271 0 11.354-5.127 11.354-11.453a.6.6 0 0 0-.597-.602.6.6 0 0 0-.598.602c0 2.832-1.136 5.39-2.975 7.246a10.08 10.08 0 0 1-7.184 3.002 10.08 10.08 0 0 1-7.183-3.002 10.256 10.256 0 0 1-2.975-7.246.6.6 0 0 0-.598-.602.6.6 0 0 0-.598.602z"/>
        <path fill="#EDEDED" stroke="#8E7966" stroke-linecap="round" stroke-linejoin="round" stroke-width="1.062" d="M19.584 38.998V26.339h-7.171v5.425c0 3.995 3.21 7.234 7.17 7.234zM41.097 38.998V26.339h7.17v5.425c0 3.995-3.21 7.234-7.17 7.234zM30.34 24.53l14.94-9.644-14.94 2.152-14.94-2.152z"/>
        <path fill="#8E7966" d="M12.676 29.956h3.585a.6.6 0 0 0 .598-.603.6.6 0 0 0-.598-.603h-3.585a.6.6 0 0 0-.598.603.6.6 0 0 0 .598.603M12.676 32.367h3.585a.6.6 0 0 0 .598-.603.6.6 0 0 0-.598-.603h-3.585a.6.6 0 0 0-.598.603.6.6 0 0 0 .598.603M44.42 29.956h3.585a.6.6 0 0 0 .598-.603.6.6 0 0 0-.598-.603h-3.586a.6.6 0 0 0-.597.603.6.6 0 0 0 .597.603M44.42 32.367h3.585a.6.6 0 0 0 .598-.603.6.6 0 0 0-.598-.603h-3.586a.6.6 0 0 0-.597.603.6.6 0 0 0 .597.603"/>
    </g>
</svg>
