<svg xmlns="http://www.w3.org/2000/svg" xmlns:xlink="http://www.w3.org/1999/xlink" width="60" height="60" viewBox="0 0 60 60">
    <defs>
        <path id="a" d="M.005.022h11.22v11.164H.006z"/>
    </defs>
    <g fill="none" fill-rule="evenodd">
        <circle cx="30" cy="30" r="29.5" fill="#EEE4DA" stroke="#E3D8CD"/>
        <g transform="translate(10.667 12)">
            <mask id="b" fill="#fff">
                <use xlink:href="#a"/>
            </mask>
            <path fill="#8E7966" d="M10.602 5.604c0 2.741-2.234 4.962-4.989 4.962-2.756 0-4.99-2.22-4.99-4.962 0-2.74 2.234-4.961 4.99-4.961 2.755 0 4.99 2.221 4.99 4.961z" mask="url(#b)"/>
        </g>
        <path fill="#8E7966" d="M48.71 17.604c0 2.741-2.234 4.962-4.99 4.962-2.755 0-4.989-2.22-4.989-4.962 0-2.74 2.234-4.961 4.99-4.961 2.755 0 4.989 2.221 4.989 4.961z"/>
        <path fill="#DDB9A0" stroke="#8E7966" stroke-linecap="round" stroke-linejoin="round" stroke-width="1.097" d="M45.398 23.179c-.376-3.862-3.75-6.815-7.788-6.815H22.39c-4.038 0-7.411 2.953-7.788 6.815l-1.44 14.788c0 1.939 1.433 3.604 3.415 3.967l5.644.661c.238 5.857 3.63 5.392 7.779 5.392 4.15 0 7.54.465 7.779-5.392l5.644-.661c1.982-.363 3.415-2.028 3.415-3.967l-1.44-14.788z"/>
        <path fill="#C4A48E" d="M23.763 40.684c0 5.895 2.792 5.443 6.237 5.443 3.445 0 6.237.452 6.237-5.443 0-5.896-2.792-10.674-6.237-10.674-3.445 0-6.237 4.778-6.237 10.674z"/>
        <path fill="#8E7966" d="M32.495 26.598c0-3.411 1.535-3.411 3.43-3.411a3.42 3.42 0 0 1 3.43 3.411 3.421 3.421 0 0 1-3.43 3.412 3.421 3.421 0 0 1-3.43-3.412zM27.505 26.598c0-3.411-1.536-3.411-3.43-3.411a3.42 3.42 0 0 0-3.43 3.411 3.421 3.421 0 0 0 3.43 3.412 3.421 3.421 0 0 0 3.43-3.412z"/>
        <path fill="#EEE4DA" d="M26.258 26.908c0 .685-.558 1.24-1.247 1.24a1.244 1.244 0 0 1-1.248-1.24c0-.685.559-1.24 1.248-1.24s1.247.555 1.247 1.24zM36.237 26.908c0 .685-.559 1.24-1.248 1.24a1.244 1.244 0 0 1-1.247-1.24c0-.685.558-1.24 1.247-1.24.69 0 1.248.555 1.248 1.24z"/>
        <path fill="#8E7966" d="M25.01 43.034c3.101 0 5.613-2.498 5.614-5.582 0-.342-.28-.62-.624-.62a.622.622 0 0 0-.623.62 4.315 4.315 0 0 1-1.28 3.07 4.364 4.364 0 0 1-3.086 1.272.622.622 0 0 0-.624.62c0 .342.28.62.624.62z"/>
        <path fill="#8E7966" d="M34.989 41.794a4.363 4.363 0 0 1-3.087-1.272 4.315 4.315 0 0 1-1.278-3.07c0-.342-.28-.62-.624-.62a.622.622 0 0 0-.623.62c0 3.084 2.512 5.582 5.612 5.582a.622.622 0 0 0 .624-.62.621.621 0 0 0-.624-.62z"/>
        <path fill="#8E7966" d="M34.366 34.35c0-1.37-1.955-1.86-4.366-1.86-2.411 0-4.366.49-4.366 1.86S27.59 37.453 30 37.453c2.411 0 4.366-1.731 4.366-3.101z"/>
    </g>
</svg>
