<svg xmlns="http://www.w3.org/2000/svg" xmlns:xlink="http://www.w3.org/1999/xlink" width="60" height="60" viewBox="0 0 60 60">
    <defs>
        <path id="a" d="M.065.004h23.232v38.574H.065z"/>
    </defs>
    <g fill="none" fill-rule="evenodd">
        <circle cx="30" cy="30" r="29.5" fill="#EEE4DA" stroke="#E3D8CD"/>
        <g transform="translate(18.667 10.667)">
            <mask id="b" fill="#fff">
                <use xlink:href="#a"/>
            </mask>
            <path fill="#BABABA" stroke="#8E7966" stroke-linecap="round" stroke-linejoin="round" stroke-width="1.062" d="M.676 20.495v17.48h3.67l5.515-1.808 3.729 1.808 4.816-3.616 4.28 3.616v-17.48z" mask="url(#b)"/>
            <path fill="#D3D3D3" stroke="#8E7966" stroke-linecap="round" stroke-linejoin="round" stroke-width="1.062" d="M17.762 4.824l.033-.001V1.206l-4.8 1.892c-.431-.05-.868-.084-1.314-.084-1.062 0-2.085.157-3.057.433V.603L4.657 5.512h.002C2.226 7.502.676 10.504.676 13.864v6.63l11.005 4.22 11.005-4.22v-6.63c0-3.775-1.957-7.096-4.924-9.04z" mask="url(#b)"/>
        </g>
        <path fill="#8E7966" d="M29.737 24.23c0-2.997-2.464-5.425-5.503-5.426-3.04 0-5.502 2.429-5.502 5.425 0 .333.273.603.61.603.339 0 .613-.27.613-.603 0-1.167.477-2.218 1.253-2.983a4.294 4.294 0 0 1 3.026-1.236c1.184 0 2.25.471 3.026 1.236a4.173 4.173 0 0 1 1.254 2.983c0 .333.273.603.61.603.339 0 .613-.27.613-.603z"/>
        <path fill="#8E7966" d="M25.457 22.12c-.001.499-.411.903-.917.904a.912.912 0 0 1-.917-.904.607.607 0 0 0-.611-.603.607.607 0 0 0-.612.603c0 1.165.958 2.109 2.14 2.11 1.182-.001 2.14-.945 2.14-2.11a.607.607 0 0 0-.612-.603.607.607 0 0 0-.611.603zM41.964 24.23c0-2.997-2.464-5.425-5.502-5.426-3.04 0-5.503 2.429-5.503 5.425 0 .333.274.603.612.603.337 0 .61-.27.61-.603.001-1.167.479-2.218 1.254-2.983a4.295 4.295 0 0 1 3.027-1.236c1.183 0 2.25.471 3.026 1.236a4.175 4.175 0 0 1 1.253 2.983c0 .333.274.603.612.603.337 0 .61-.27.61-.603z"/>
        <path fill="#8E7966" d="M37.684 22.12a.912.912 0 0 1-.917.904.912.912 0 0 1-.917-.904.607.607 0 0 0-.611-.603.607.607 0 0 0-.612.603c0 1.165.958 2.109 2.14 2.11 1.182-.001 2.14-.945 2.14-2.11a.607.607 0 0 0-.611-.603.607.607 0 0 0-.612.603z"/>
        <path fill="#A9A9A9" d="M30.348 28.148l-4.891-3.014h9.782z"/>
        <path fill="#8E7966" d="M30.348 28.148l.324-.511-3.084-1.9h5.52l-3.084 1.9.324.51.324-.51-.324.51.324.512 4.891-3.014a.598.598 0 0 0 .263-.677.609.609 0 0 0-.587-.437h-9.782a.61.61 0 0 0-.588.437.599.599 0 0 0 .264.677l4.89 3.014c.2.122.45.122.649 0l-.324-.511z"/>
        <path fill="#EDEDED" stroke="#8E7966" stroke-linecap="round" stroke-linejoin="round" stroke-width="1.062" d="M30.348 22.53c-1.71.803-2.894 1.803-2.894 3.794 0 1.99 1.184 5.843 2.894 6.646 1.71-.803 2.894-4.656 2.894-6.646 0-1.99-1.185-2.99-2.894-3.793z"/>
        <path fill="#8E7966" d="M23.623 47.774v-5.425a.607.607 0 0 0-.611-.603.607.607 0 0 0-.612.603v5.425c0 .333.274.603.612.603.337 0 .61-.27.61-.603M29.125 46.568V44.76a.607.607 0 0 0-.611-.603.607.607 0 0 0-.612.603v1.808c0 .333.274.603.612.603.337 0 .61-.27.61-.603M37.684 44.76v-9.042a.607.607 0 0 0-.611-.603.607.607 0 0 0-.611.603v9.042c0 .333.273.603.61.603.338 0 .612-.27.612-.603"/>
    </g>
</svg>
