<svg xmlns="http://www.w3.org/2000/svg" xmlns:xlink="http://www.w3.org/1999/xlink" width="24" height="24" viewBox="0 0 24 24">
    <defs>
        <path id="a" d="M.039.002h13.94v23.145H.038z"/>
    </defs>
    <g fill="none" fill-rule="evenodd">
        <g transform="translate(5.2 .4)">
            <mask id="b" fill="#fff">
                <use xlink:href="#a"/>
            </mask>
            <path fill="#BFBFBF" stroke="#32364A" stroke-linecap="round" stroke-linejoin="round" stroke-width=".637" d="M.406 12.297v10.488h2.201l3.31-1.085 2.237 1.085 2.89-2.17 2.567 2.17V12.297z" mask="url(#b)"/>
            <path fill="#D8D8D8" stroke="#32364A" stroke-linecap="round" stroke-linejoin="round" stroke-width=".637" d="M10.657 2.894h.02V.724l-2.88 1.135a6.812 6.812 0 0 0-.788-.05c-.637 0-1.252.094-1.834.26V.361l-2.38 2.945a6.46 6.46 0 0 0-2.39 5.011v3.979l6.604 2.531 6.602-2.531V8.318c0-2.264-1.174-4.257-2.954-5.424z" mask="url(#b)"/>
        </g>
        <path fill="#32364A" d="M11.842 8.538c0-1.798-1.478-3.255-3.302-3.255-1.823 0-3.3 1.457-3.301 3.255 0 .2.164.361.367.361a.365.365 0 0 0 .367-.361c0-.7.286-1.331.752-1.79a2.577 2.577 0 0 1 1.815-.742c.71 0 1.35.283 1.816.741.465.46.752 1.09.752 1.79 0 .2.164.362.367.362a.365.365 0 0 0 .367-.361z"/>
        <path fill="#32364A" d="M9.274 7.272c0 .3-.247.542-.55.542a.547.547 0 0 1-.55-.542c0-.2-.165-.362-.367-.362a.364.364 0 0 0-.367.362c0 .699.575 1.265 1.284 1.266.709 0 1.284-.567 1.284-1.266 0-.2-.165-.362-.367-.362a.364.364 0 0 0-.367.362zM19.178 8.538c0-1.798-1.478-3.255-3.3-3.255-1.825 0-3.302 1.457-3.303 3.255 0 .2.165.361.367.361a.364.364 0 0 0 .367-.361c0-.7.287-1.331.752-1.79a2.577 2.577 0 0 1 1.816-.742c.71 0 1.35.283 1.816.741.465.46.751 1.09.752 1.79 0 .2.164.362.366.362a.365.365 0 0 0 .367-.361z"/>
        <path fill="#32364A" d="M16.61 7.272c0 .3-.246.542-.55.542a.547.547 0 0 1-.55-.542c0-.2-.164-.362-.367-.362a.364.364 0 0 0-.367.362c0 .699.575 1.265 1.284 1.266.71 0 1.284-.567 1.284-1.266 0-.2-.164-.362-.367-.362a.364.364 0 0 0-.366.362z"/>
        <path fill="#A9A9A9" d="M12.209 10.889L9.274 9.08h5.87z"/>
        <path fill="#32364A" d="M12.209 10.889l.194-.307-1.85-1.14h3.311l-1.85 1.14.195.307.194-.307-.194.307.194.306 2.935-1.808a.359.359 0 0 0 .158-.406.365.365 0 0 0-.353-.263H9.274a.366.366 0 0 0-.353.263.36.36 0 0 0 .159.406l2.934 1.808a.37.37 0 0 0 .389 0l-.194-.306z"/>
        <path fill="#F2F2F2" stroke="#32364A" stroke-linecap="round" stroke-linejoin="round" stroke-width=".637" d="M12.209 7.519c-1.026.48-1.737 1.081-1.737 2.275 0 1.195.711 3.506 1.737 3.988 1.025-.482 1.736-2.793 1.736-3.988 0-1.194-.71-1.794-1.736-2.275z"/>
        <path fill="#32364A" d="M8.174 22.664V19.41c0-.2-.165-.361-.367-.361a.364.364 0 0 0-.367.361v3.255c0 .2.164.362.367.362a.364.364 0 0 0 .367-.362M11.475 21.941v-1.085c0-.2-.164-.362-.367-.362a.364.364 0 0 0-.367.362v1.085c0 .2.165.362.367.362a.364.364 0 0 0 .367-.362M16.61 20.856V15.43c0-.2-.164-.362-.366-.362a.364.364 0 0 0-.367.362v5.425c0 .2.164.362.367.362a.364.364 0 0 0 .367-.362"/>
    </g>
</svg>
