<svg xmlns="http://www.w3.org/2000/svg" xmlns:xlink="http://www.w3.org/1999/xlink" width="24" height="24" viewBox="0 0 24 24">
    <defs>
        <path id="a" d="M.043.002h5.8v17.64h-5.8z"/>
    </defs>
    <g fill="none" fill-rule="evenodd">
        <path fill="#FFA269" stroke="#32364A" stroke-linecap="round" stroke-linejoin="round" stroke-width=".647" d="M20.967 2.921a2.061 2.061 0 0 0-2.774-.957c-1.027.51-2.69 2.383-2.186 3.422.505 1.04 2.987.852 4.014.341a2.108 2.108 0 0 0 .946-2.806zM3.047 2.921a2.061 2.061 0 0 1 2.773-.957c1.028.51 2.691 2.383 2.187 3.422-.505 1.04-2.987.852-4.014.341a2.107 2.107 0 0 1-.946-2.806z"/>
        <path fill="#E6925F" stroke="#32364A" stroke-linecap="round" stroke-linejoin="round" stroke-width=".647" d="M15.224 23.556H8.912c-1.668 0-3.02-1.368-3.02-3.056V9.589c0-3.451 2.765-6.249 6.176-6.249s6.177 2.798 6.177 6.249V20.5c0 1.688-1.353 3.056-3.021 3.056z"/>
        <path fill="#FFA269" d="M14.793 22.453h-5.45c-1.304 0-2.362-1.07-2.362-2.389v-1.102c0-1.32 1.058-2.39 2.362-2.39h5.45c1.304 0 2.362 1.07 2.362 2.39v1.102c0 1.32-1.058 2.39-2.362 2.39z"/>
        <g transform="translate(9.147 .4)">
            <mask id="b" fill="#fff">
                <use xlink:href="#a"/>
            </mask>
            <path fill="#FFA269" stroke="#32364A" stroke-linecap="round" stroke-linejoin="round" stroke-width=".647" d="M2.943.367l-2.509 14.7c-.197 1.154.681 2.208 1.838 2.208h1.341c1.157 0 2.035-1.054 1.838-2.208L2.943.367z" mask="url(#b)"/>
        </g>
        <path fill="#32364A" d="M9.161 11.243a.548.548 0 0 1-.545.551.548.548 0 0 1-.545-.551c0-.305.244-.551.545-.551.301 0 .545.246.545.551zM16.065 11.243a.548.548 0 0 1-.545.551.549.549 0 0 1-.545-.551c0-.305.244-.551.545-.551.3 0 .545.246.545.551zM15.701 20.616a.731.731 0 0 1-.726-.735v-.368c0-.406.325-.735.726-.735.402 0 .727.33.727.735v.368a.731.731 0 0 1-.727.735zM8.435 20.616a.731.731 0 0 1-.727-.735v-.368c0-.406.325-.735.727-.735.4 0 .726.33.726.735v.368a.731.731 0 0 1-.726.735z"/>
        <path fill="#DFDFDF" d="M11.341 15.102s-1.09 0-1.453-.735"/>
        <path fill="#32364A" d="M11.341 14.735v.069l.001-.07v.07-.07c-.011.001-.258-.005-.516-.084a1.326 1.326 0 0 1-.367-.17.727.727 0 0 1-.246-.277.361.361 0 0 0-.488-.165.37.37 0 0 0-.162.494c.123.25.31.436.504.566.292.196.604.282.845.327.241.044.414.045.43.045.2 0 .362-.165.362-.368a.365.365 0 0 0-.363-.367z"/>
        <path fill="#DFDFDF" d="M11.705 9.957s-.818 0-1.09-.552"/>
        <path fill="#32364A" d="M11.705 9.589v.143l.001-.143h-.001v.143l.001-.143c-.003 0-.181-.004-.362-.06a.903.903 0 0 1-.25-.116.453.453 0 0 1-.154-.172.361.361 0 0 0-.488-.165.37.37 0 0 0-.162.494c.1.204.253.355.408.46.236.157.48.223.669.26.188.033.322.034.338.034.2 0 .363-.165.363-.367a.365.365 0 0 0-.363-.368z"/>
        <path fill="#DFDFDF" d="M12.431 12.897s1.09 0 1.454-.735"/>
        <path fill="#32364A" d="M12.431 13.264c.02 0 .32 0 .69-.105.186-.054.39-.135.585-.266.194-.13.38-.316.504-.567a.37.37 0 0 0-.163-.493.361.361 0 0 0-.487.165.734.734 0 0 1-.257.283 1.558 1.558 0 0 1-.573.216 2.15 2.15 0 0 1-.222.029l-.062.003h-.016l.001.144v-.144.144-.144c-.2 0-.363.165-.363.368 0 .203.163.367.363.367zM14.611 21.35v-2.205a1.098 1.098 0 0 1 1.09-1.102c.2 0 .364-.165.364-.368a.365.365 0 0 0-.364-.367 1.827 1.827 0 0 0-1.816 1.837v2.206c0 .203.162.367.363.367.2 0 .363-.164.363-.367zM10.251 21.35v-2.205a1.827 1.827 0 0 0-1.816-1.838c-.201 0-.364.165-.364.368 0 .203.163.368.364.368a1.098 1.098 0 0 1 1.09 1.102v2.206c0 .203.163.367.363.367.2 0 .363-.164.363-.367z"/>
    </g>
</svg>
