<svg xmlns="http://www.w3.org/2000/svg" xmlns:xlink="http://www.w3.org/1999/xlink" width="24" height="24" viewBox="0 0 24 24">
    <defs>
        <path id="a" d="M.013 0h20.368v23.2H.013z"/>
    </defs>
    <g fill="none" fill-rule="evenodd">
        <g transform="translate(2 .4)">
            <mask id="b" fill="#fff">
                <use xlink:href="#a"/>
            </mask>
            <path fill="#E6925F" stroke="#32364A" stroke-linecap="round" stroke-linejoin="round" stroke-width=".656" d="M20.004 13.845l-9.807 8.98-9.806-8.98V6.06c0-.66.538-1.194 1.203-1.194H18.8c.665 0 1.204.534 1.204 1.194v7.786z" mask="url(#b)"/>
            <path fill="#E6925F" d="M2.653 5.987H.391V.374l4.526 5.613" mask="url(#b)"/>
            <path fill="#32364A" d="M2.653 5.613H.768V1.441l3.854 4.78c.13.161.368.188.53.058a.372.372 0 0 0 .06-.526L.684.141a.379.379 0 0 0-.672.233v5.613a.376.376 0 0 0 .378.374h2.262a.376.376 0 0 0 .378-.374.376.376 0 0 0-.378-.374z" mask="url(#b)"/>
            <path fill="#E6925F" d="M17.74 5.987h2.264V.374l-4.526 5.613" mask="url(#b)"/>
            <path fill="#32364A" d="M17.74 6.361h2.264a.376.376 0 0 0 .377-.374V.374a.379.379 0 0 0-.672-.234l-4.526 5.613a.372.372 0 0 0 .06.526c.162.13.4.103.53-.058l3.854-4.78v4.172H17.74a.376.376 0 0 0-.377.374c0 .207.168.374.377.374z" mask="url(#b)"/>
        </g>
        <path fill="#32364A" d="M7.294 18.735l-3.395-3.367a.263.263 0 0 1 0-.374l3.395-3.368a2.682 2.682 0 0 1 3.772 0 2.631 2.631 0 0 1 0 3.742L7.67 18.735a.268.268 0 0 1-.377 0zM17.426 18.735l3.395-3.367a.263.263 0 0 0 0-.374l-3.395-3.368a2.682 2.682 0 0 0-3.771 0 2.631 2.631 0 0 0 0 3.742l3.394 3.367a.268.268 0 0 0 .377 0z"/>
        <path fill="#EEE4DA" d="M17.426 13.871c0 .827-.675 1.497-1.508 1.497s-1.509-.67-1.509-1.497c0-.827.676-1.497 1.509-1.497.833 0 1.508.67 1.508 1.497zM10.311 13.871c0 .827-.675 1.497-1.508 1.497-.834 0-1.51-.67-1.51-1.497 0-.827.676-1.497 1.51-1.497.833 0 1.508.67 1.508 1.497z"/>
        <path fill="#32364A" d="M9.557 13.871a.751.751 0 0 1-.754.748.751.751 0 0 1-.755-.748c0-.413.338-.748.755-.748.416 0 .754.335.754.748zM16.723 13.871a.751.751 0 0 1-.754.748.751.751 0 0 1-.754-.748c0-.413.338-.748.754-.748.417 0 .754.335.754.748zM9.934 20.98h4.526l-2.263 1.871zM9.934 17.987v1.497c0 .206.17.374.377.374a.375.375 0 0 0 .377-.374v-1.497a.376.376 0 0 0-.377-.374.376.376 0 0 0-.377.374M13.706 17.987v1.497c0 .206.169.374.377.374a.376.376 0 0 0 .377-.374v-1.497a.376.376 0 0 0-.377-.374.376.376 0 0 0-.377.374"/>
    </g>
</svg>
