<svg xmlns="http://www.w3.org/2000/svg" xmlns:xlink="http://www.w3.org/1999/xlink" width="24" height="24" viewBox="0 0 24 24">
    <defs>
        <path id="a" d="M.024 0h23.153v20.066H.024z"/>
    </defs>
    <g fill="none" fill-rule="evenodd">
        <g transform="translate(.4 .4)">
            <mask id="b" fill="#fff">
                <use xlink:href="#a"/>
            </mask>
            <path fill="#EDEDED" stroke="#32364A" stroke-linecap="round" stroke-linejoin="round" stroke-width=".679" d="M21.248.386c1.158 2.701-1.93 7.718-1.93 7.718L17.004 4.63 21.248.386zM1.441.386c-1.157 2.701 1.93 7.718 1.93 7.718L5.686 4.63 1.441.386z" mask="url(#b)"/>
            <path fill="#D8D8D8" d="M18.464 5.383c1.142-.959 2.784-2.73 2.784-4.997l-5.418 2.37c-1.305-.98-2.732-1.598-4.23-1.598-1.55 0-3.028.661-4.372 1.705L1.568.386c0 2.427 1.884 4.288 3.019 5.189C2.04 8.864.41 13.105.41 15.05c0 1.158 5.01 4.63 11.19 4.63 6.181 0 11.192-3.472 11.192-4.63 0-1.983-1.696-6.353-4.328-9.667" mask="url(#b)"/>
            <path stroke="#32364A" stroke-linecap="round" stroke-linejoin="round" stroke-width=".679" d="M18.464 5.383c1.142-.959 2.784-2.73 2.784-4.997l-5.418 2.37c-1.305-.98-2.732-1.598-4.23-1.598-1.55 0-3.028.661-4.372 1.705L1.568.386c0 2.427 1.884 4.288 3.019 5.189C2.04 8.864.41 13.105.41 15.05c0 1.158 5.01 4.63 11.19 4.63 6.181 0 11.192-3.472 11.192-4.63 0-1.983-1.696-6.353-4.328-9.667" mask="url(#b)"/>
        </g>
        <path fill="#BFBFBF" d="M1.465 13.814c-.18.68-.27 1.269-.27 1.693-.005.004.028.135.155.305.124.17.324.385.591.614.535.461 1.331.991 2.32 1.485 1.976.99 4.72 1.84 7.735 1.84h.018c3.953 0 7.444-1.472 9.338-2.783.63-.433 1.083-.855 1.3-1.157.127-.17.16-.3.154-.304 0-.424-.09-1.012-.27-1.693-1.55 1.48-5.682 3.622-10.535 3.622-4.854 0-8.985-2.142-10.536-3.622"/>
        <path fill="#D8D8D8" stroke="#32364A" stroke-linecap="round" stroke-linejoin="round" stroke-width=".679" d="M9.321 14.312a3.676 3.676 0 0 0-1.624 2.992c-.07 2.63.75 4.935 1.974 6.25h4.66c1.224-1.315 2.044-3.62 1.974-6.25a3.683 3.683 0 0 0-1.708-3.048"/>
        <path fill="#32364A" d="M8.914 22.782a3.473 3.473 0 0 0 3.473-3.473.386.386 0 0 0-.772 0c0 .747-.302 1.42-.791 1.91a2.69 2.69 0 0 1-1.91.791.386.386 0 1 0 0 .772z"/>
        <path fill="#32364A" d="M15.088 22.01c-.747 0-1.42-.302-1.91-.791a2.69 2.69 0 0 1-.791-1.91.386.386 0 0 0-.772 0 3.473 3.473 0 0 0 3.473 3.473.386.386 0 0 0 0-.772z"/>
        <path fill="#32364A" d="M14.702 17.38c0-.853-1.21-1.158-2.701-1.158-1.492 0-2.701.305-2.701 1.158 0 .852 1.209 1.929 2.7 1.929 1.493 0 2.702-1.077 2.702-1.93zM8.528 11.398a.579.579 0 1 1-1.158 0 .579.579 0 0 1 1.158 0zM16.246 11.398a.579.579 0 1 1-1.158 0 .579.579 0 0 1 1.158 0z"/>
    </g>
</svg>
