<svg xmlns="http://www.w3.org/2000/svg" xmlns:xlink="http://www.w3.org/1999/xlink" width="24" height="24" viewBox="0 0 24 24">
    <defs>
        <path id="a" d="M.029.002h16.757v21.556H.03z"/>
        <path id="c" d="M.004.005h6.982v8.14H.004z"/>
    </defs>
    <g fill="none" fill-rule="evenodd">
        <path fill="#EDEDED" d="M6.254 9.617c0-1.368-.78-2.477-1.745-2.477-.964 0-1.746 1.109-1.746 2.477 0 1.368.782 2.477 1.746 2.477s1.745-1.109 1.745-2.477z"/>
        <path fill="#32364A" d="M6.254 9.617h.35c-.001-.753-.213-1.44-.577-1.958a2.212 2.212 0 0 0-.66-.63 1.656 1.656 0 0 0-.858-.243c-.308 0-.601.09-.857.244-.386.232-.692.601-.905 1.048a3.6 3.6 0 0 0-.333 1.539c.001.753.213 1.44.577 1.958.182.258.404.475.66.63.257.154.55.244.858.243.307 0 .6-.09.857-.244.386-.232.692-.602.905-1.048.213-.447.332-.975.333-1.54h-.699c.001.617-.178 1.168-.446 1.547-.133.19-.288.336-.448.432a.965.965 0 0 1-.502.146.964.964 0 0 1-.502-.146c-.24-.144-.468-.402-.631-.747a2.886 2.886 0 0 1-.264-1.231c0-.616.179-1.167.447-1.546.133-.19.288-.336.448-.432a.964.964 0 0 1 .502-.146c.174 0 .34.05.502.146.24.143.467.402.631.746.164.344.264.77.263 1.232h.35z"/>
        <path fill="#EDEDED" d="M21.616 9.617c0-1.368-.782-2.477-1.746-2.477s-1.745 1.109-1.745 2.477c0 1.368.78 2.477 1.745 2.477.964 0 1.746-1.109 1.746-2.477z"/>
        <path fill="#32364A" d="M21.616 9.617h.349c-.001-.753-.213-1.44-.577-1.958a2.207 2.207 0 0 0-.66-.63 1.656 1.656 0 0 0-.858-.243c-.307 0-.6.09-.857.244-.386.232-.692.601-.905 1.048a3.594 3.594 0 0 0-.333 1.539c.001.753.213 1.44.577 1.958.182.258.404.475.66.63.257.154.55.244.858.243.308 0 .601-.09.857-.244.386-.232.692-.602.905-1.048a3.6 3.6 0 0 0 .333-1.54h-.698c0 .617-.179 1.168-.447 1.547a1.51 1.51 0 0 1-.448.432.964.964 0 0 1-.502.146.964.964 0 0 1-.502-.146c-.24-.144-.467-.402-.631-.747a2.886 2.886 0 0 1-.264-1.231c0-.616.179-1.167.447-1.546.133-.19.288-.336.448-.432a.964.964 0 0 1 .502-.146c.175 0 .34.05.502.146.24.143.467.402.631.746.164.344.264.77.264 1.232h.349z"/>
        <g transform="translate(3.782 .8)">
            <mask id="b" fill="#fff">
                <use xlink:href="#a"/>
            </mask>
            <path fill="#D8D8D8" stroke="#32364A" stroke-linecap="round" stroke-linejoin="round" stroke-width=".618" d="M10.107.42l-1.7.257L6.71.419C6.032.317 5.335.326 4.677.516c-2.181.63-3.6 2.731-3.6 5.225l-.699 9.447c0 4.3 3.788 6.016 8.03 6.016 4.241 0 8.03-1.716 8.03-6.016l-.699-9.447c0-2.494-1.419-4.594-3.6-5.225-.659-.19-1.355-.2-2.032-.097" mask="url(#b)"/>
        </g>
        <path fill="#BFBFBF" d="M4.513 15.997l-.004.056c.002 1.017.225 1.861.614 2.568.39.71.952 1.285 1.65 1.742 1.392.913 3.335 1.34 5.407 1.34h.01c1.556 0 3.041-.238 4.273-.745 1.234-.507 2.208-1.273 2.793-2.337.389-.707.612-1.551.614-2.568l-.004-.056c-1.032 2.782-4.2 3.936-7.676 3.936s-6.645-1.154-7.677-3.936"/>
        <path fill="#32364A" d="M16.212 12.802H8.167c-.554 0-.964-.564-.844-1.16l.4-1.987c.088-.436.439-.746.844-.746h7.245c.405 0 .756.31.844.746l.4 1.987c.12.596-.29 1.16-.844 1.16z"/>
        <path fill="#EEE4DA" d="M10.095 10.502c0 .293-.235.53-.524.53a.527.527 0 0 1-.523-.53c0-.294.234-.531.523-.531.29 0 .524.237.524.53z"/>
        <path fill="#D8D8D8" d="M15.331 10.502c0 .293-.234.53-.523.53a.527.527 0 0 1-.524-.53c0-.294.235-.531.524-.531.289 0 .523.237.523.53z"/>
        <path fill="#F2F2F2" d="M13.375 11.387h-2.371c-1.08 0-1.956.887-1.956 1.983v2.264h6.283V13.37c0-1.096-.875-1.983-1.956-1.983z"/>
        <path fill="#32364A" d="M13.375 11.387v-.354h-2.371c-1.274 0-2.305 1.046-2.306 2.337v2.264a.354.354 0 0 0 .35.354h6.283a.354.354 0 0 0 .35-.354V13.37c0-1.291-1.032-2.337-2.306-2.337v.707c.445 0 .845.182 1.137.478.291.295.47.7.47 1.152v1.91H9.397v-1.91c0-.451.179-.857.47-1.152a1.591 1.591 0 0 1 1.137-.478h2.371v-.353z"/>
        <g transform="translate(8.695 15.275)">
            <mask id="d" fill="#fff">
                <use xlink:href="#c"/>
            </mask>
            <path fill="#BFBFBF" stroke="#32364A" stroke-linecap="round" stroke-linejoin="round" stroke-width=".618" d="M.353.36l.698 4.371c0 1.69 1.094 3.06 2.444 3.06 1.35 0 2.444-1.37 2.444-3.06L6.637.36" mask="url(#d)"/>
        </g>
        <path fill="#A9A9A9" d="M15.331 15.742c-.81-.322-1.918-.52-3.141-.52-1.224 0-2.334.198-3.144.52"/>
        <path fill="#32364A" d="M15.459 15.412c-.865-.342-2.008-.543-3.27-.544-1.261 0-2.406.202-3.27.545a.355.355 0 0 0-.198.459c.07.182.273.271.452.2.756-.301 1.83-.497 3.017-.496 1.185 0 2.26.194 3.014.495a.347.347 0 0 0 .453-.2.355.355 0 0 0-.198-.459zM14.034 12.547c-.292-.17-.735.05-.988.495-.253.444-.22.943.071 1.114.293.171.734-.05.987-.495.254-.444.222-.943-.07-1.114zM11.312 13.04c-.253-.444-.695-.665-.988-.494-.292.17-.323.67-.07 1.114.253.444.695.666.987.495.292-.171.324-.67.07-1.114zM12.539 4.006V1.529a.352.352 0 0 0-.35-.354.351.351 0 0 0-.349.354v2.477c0 .195.157.354.35.354.192 0 .349-.159.349-.354"/>
    </g>
</svg>
