<svg xmlns="http://www.w3.org/2000/svg" width="24" height="24" viewBox="0 0 24 24">
    <g fill="none" fill-rule="evenodd">
        <path fill="#32364A" stroke="#31374C" stroke-linecap="round" stroke-linejoin="round" stroke-width=".647" d="M2.065 3.214L3.566 7.33l3.315-3.286L2.73 2.555a.517.517 0 0 0-.665.66zM22.187 3.144l-1.575 4.184-3.314-3.285 4.222-1.56a.517.517 0 0 1 .667.66z"/>
        <path fill="#E6925F" stroke="#32364A" stroke-linecap="round" stroke-linejoin="round" stroke-width=".647" d="M14.675 3.277h-5.35c-3.435 0-6.311 2.385-6.653 5.515l-.966 6.103c-.24 2.199 2.163 4.079 5.213 4.079l5.069-.485 5.093.485c3.05 0 5.454-1.88 5.214-4.08l-.967-6.102c-.341-3.13-3.218-5.515-6.653-5.515z"/>
        <path fill="#E6925F" stroke="#32364A" stroke-linecap="round" stroke-linejoin="round" stroke-width=".647" d="M17.156 17.149v1.696c0 .964-.923 2.787-1.961 2.745-.16-.007-1.679-.791-3.195-.791-1.52 0-3.035.784-3.195.79-1.038.043-1.96-1.78-1.96-2.744v-1.696"/>
        <path fill="#FFA269" d="M16.42 15.477c0-2.536-1.98-2.342-4.42-2.342s-4.419-.194-4.419 2.342S9.56 20.069 12 20.069c2.44 0 4.42-2.056 4.42-4.592z"/>
        <path fill="#31374C" d="M12 15.67l2.255-1.478c.316-.207.168-.694-.21-.694h-4.09c-.378 0-.526.487-.21.694L12 15.67z"/>
        <path fill="#32364A" d="M12.15 5.6l.681-1.803a.536.536 0 0 0-.506-.724h-.65a.536.536 0 0 0-.506.724l.682 1.802a.16.16 0 0 0 .298 0zM9.422 10.03a.55.55 0 0 1-.552.548.55.55 0 0 1-.552-.547.55.55 0 0 1 .552-.548.55.55 0 0 1 .552.548zM15.683 10.03a.55.55 0 0 1-.553.548.55.55 0 0 1-.552-.547.55.55 0 0 1 .552-.548.55.55 0 0 1 .553.548z"/>
        <path fill="#54596E" d="M12 16.419h.368v-1.46a.366.366 0 0 0-.368-.365.366.366 0 0 0-.368.365v2.92a.367.367 0 0 0 .368.365.366.366 0 0 0 .368-.365v-1.46h-.736v1.46a.366.366 0 0 0 .368.365.366.366 0 0 0 .368-.365v-1.46-1.46a.367.367 0 0 0-.368-.365.366.366 0 0 0-.368.365v1.46H12z"/>
        <path fill="#32364A" d="M5.741 15.15c-.013-.004-.788-.247-1.98-.248-.896 0-2.027.137-3.245.617a.182.182 0 0 0-.103.237c.038.094.145.14.24.102a8.475 8.475 0 0 1 3.107-.59c.571 0 1.042.058 1.368.116.163.029.29.058.375.08.043.01.075.019.097.025l.03.008a.182.182 0 0 0 .111-.348zM5.704 16.057c-.004 0-.937.184-1.934.508-.5.161-1.015.358-1.444.589-.427.233-.778.49-.93.837a.185.185 0 0 0 .34.141c.08-.202.367-.446.766-.657.596-.322 1.42-.59 2.089-.774.335-.092.632-.164.845-.212.212-.049.34-.074.34-.074a.183.183 0 1 0-.072-.358zM18.37 15.497l.03-.008c.149-.043.84-.222 1.84-.222.857 0 1.94.132 3.108.591a.185.185 0 0 0 .239-.102.182.182 0 0 0-.103-.237 8.844 8.844 0 0 0-3.244-.617c-1.193 0-1.968.243-1.981.248a.182.182 0 0 0-.12.229c.031.096.135.15.232.118zM18.224 16.415l.157.033c.354.076 1.25.284 2.1.588a6.96 6.96 0 0 1 1.16.52c.326.19.552.4.623.576.04.093.147.136.24.097a.182.182 0 0 0 .1-.239c-.152-.345-.503-.603-.93-.837-.643-.345-1.482-.616-2.166-.804-.683-.188-1.209-.291-1.212-.292a.183.183 0 1 0-.072.358z"/>
        <path fill="#31374C" d="M11.632 17.788c0 1.108.907 2.007 2.025 2.007.418 0 .81-.126 1.133-.343a.363.363 0 0 0 .099-.507.37.37 0 0 0-.512-.098 1.29 1.29 0 0 1-.72.218 1.285 1.285 0 0 1-1.289-1.277.367.367 0 0 0-.368-.365.366.366 0 0 0-.368.365z"/>
        <path fill="#31374C" d="M11.637 17.788a1.285 1.285 0 0 1-1.288 1.277c-.268 0-.515-.08-.72-.218a.37.37 0 0 0-.512.098.363.363 0 0 0 .1.507 2.03 2.03 0 0 0 1.132.343 2.017 2.017 0 0 0 2.025-2.007.367.367 0 0 0-.368-.365.367.367 0 0 0-.369.365z"/>
        <path fill="#32364A" d="M7.581 3.536h1.473v3.24c0 .152-.214.19-.267.046L7.581 3.536zM16.42 3.482h-1.474v3.24c0 .153.215.19.267.047l1.206-3.287zM21.943 10.577l-.748-1.257-2.407 1.407c-.114.066-.032.266.101.249l3.054-.399zM2.108 10.577l.748-1.257 2.37 1.386c.113.065.031.265-.1.248l-3.018-.377z"/>
    </g>
</svg>
