<svg xmlns="http://www.w3.org/2000/svg" xmlns:xlink="http://www.w3.org/1999/xlink" width="24" height="24" viewBox="0 0 24 24">
    <defs>
        <path id="a" d="M.003.013h6.732v6.699H.003z"/>
    </defs>
    <g fill="none" fill-rule="evenodd">
        <g transform="translate(.4 1.2)">
            <mask id="b" fill="#fff">
                <use xlink:href="#a"/>
            </mask>
            <path fill="#32364A" d="M6.361 3.363A2.985 2.985 0 0 1 3.368 6.34 2.985 2.985 0 0 1 .374 3.363 2.985 2.985 0 0 1 3.368.386 2.985 2.985 0 0 1 6.36 3.363z" mask="url(#b)"/>
        </g>
        <path fill="#32364A" d="M23.226 4.563a2.985 2.985 0 0 1-2.994 2.977 2.985 2.985 0 0 1-2.993-2.977 2.985 2.985 0 0 1 2.993-2.977 2.985 2.985 0 0 1 2.994 2.977z"/>
        <path fill="#E6925F" stroke="#32364A" stroke-linecap="round" stroke-linejoin="round" stroke-width=".658" d="M21.239 7.907c-.226-2.317-2.25-4.088-4.673-4.088H7.434c-2.423 0-4.447 1.771-4.673 4.088l-.864 8.873c0 1.164.86 2.162 2.049 2.38l3.386.397c.144 3.514 2.178 3.235 4.668 3.235s4.524.28 4.667-3.235l3.387-.397c1.19-.218 2.05-1.216 2.05-2.38l-.865-8.873z"/>
        <path fill="#FFA269" d="M8.258 18.41c0 3.537 1.675 3.266 3.742 3.266s3.742.271 3.742-3.266-1.675-6.404-3.742-6.404-3.742 2.867-3.742 6.404z"/>
        <path fill="#32364A" d="M13.497 9.959c0-2.047.921-2.047 2.058-2.047 1.136 0 2.058.916 2.058 2.047 0 1.13-.922 2.047-2.058 2.047a2.053 2.053 0 0 1-2.058-2.047zM10.503 9.959c0-2.047-.921-2.047-2.058-2.047A2.053 2.053 0 0 0 6.387 9.96c0 1.13.922 2.047 2.058 2.047a2.053 2.053 0 0 0 2.058-2.047z"/>
        <path fill="#EEE4DA" d="M9.755 10.145a.746.746 0 0 1-.749.744.746.746 0 0 1-.748-.744c0-.411.335-.744.748-.744.414 0 .749.333.749.744zM15.742 10.145a.746.746 0 0 1-.749.744.746.746 0 0 1-.748-.744c0-.411.335-.744.748-.744.414 0 .749.333.749.744z"/>
        <path fill="#32364A" d="M9.006 19.82c1.86 0 3.368-1.499 3.368-3.349a.373.373 0 0 0-.748 0c0 .72-.293 1.37-.767 1.842a2.618 2.618 0 0 1-1.853.763.373.373 0 0 0-.374.372c0 .206.168.373.374.372z"/>
        <path fill="#32364A" d="M14.993 19.076a2.618 2.618 0 0 1-1.852-.763 2.589 2.589 0 0 1-.767-1.842.373.373 0 0 0-.748 0 3.358 3.358 0 0 0 3.367 3.35.373.373 0 0 0 0-.744z"/>
        <path fill="#32364A" d="M14.62 14.61c0-.822-1.173-1.116-2.62-1.116s-2.62.294-2.62 1.116c0 .823 1.173 1.861 2.62 1.861s2.62-1.038 2.62-1.86z"/>
    </g>
</svg>
