<svg xmlns="http://www.w3.org/2000/svg" xmlns:xlink="http://www.w3.org/1999/xlink" width="24" height="24" viewBox="0 0 24 24">
    <defs>
        <path id="a" d="M.03.002h13.939v23.145H.029z"/>
    </defs>
    <g fill="none" fill-rule="evenodd">
        <g transform="translate(5.2 .4)">
            <mask id="b" fill="#fff">
                <use xlink:href="#a"/>
            </mask>
            <path fill="#FFF" stroke="#32364A" stroke-linecap="round" stroke-linejoin="round" stroke-width=".637" d="M7.733.362H6.265C3.024.362.396 2.952.396 6.148v10.127c0 3.596 2.957 6.51 6.603 6.51 3.647 0 6.603-2.914 6.603-6.51V6.148c0-3.196-2.627-5.786-5.869-5.786" mask="url(#b)"/>
            <path fill="#FFF" stroke="#32364A" stroke-linecap="round" stroke-linejoin="round" stroke-width=".637" d="M7.55.362H6.449C3.106.362.396 3.034.396 6.329v1.447c0 3.296 2.71 5.967 6.053 5.967h1.1c3.343 0 6.053-2.671 6.053-5.967V6.329c0-3.295-2.71-5.967-6.052-5.967z" mask="url(#b)"/>
        </g>
        <path fill="#DFDFDF" d="M18.435 16.675c0 2.198-2.792 3.979-6.236 3.979s-6.236-1.781-6.236-3.979c0 .193.01.384.027.573.277 2.952 2.67 5.3 5.67 5.553a6.449 6.449 0 0 0 1.111-.003c3.006-.27 5.395-2.64 5.643-5.61a6.25 6.25 0 0 0 .021-.513"/>
        <path fill="#DFDFDF" stroke="#32364A" stroke-linecap="round" stroke-linejoin="round" stroke-width=".637" d="M12.2 7.453c0 1.298-1.068 2.35-2.385 2.35-1.317 0-2.385-1.052-2.385-2.35 0-1.299 1.068-2.351 2.385-2.351 1.317 0 2.384 1.052 2.384 2.35z"/>
        <path fill="#DFDFDF" stroke="#32364A" stroke-linecap="round" stroke-linejoin="round" stroke-width=".637" d="M16.968 7.453c0 1.298-1.068 2.35-2.384 2.35-1.317 0-2.385-1.052-2.385-2.35 0-1.299 1.068-2.351 2.385-2.351 1.316 0 2.384 1.052 2.384 2.35z"/>
        <path fill="#32364A" d="M15.134 7.633c0 .3-.247.542-.55.543a.547.547 0 0 1-.55-.543c0-.2-.165-.361-.368-.361a.364.364 0 0 0-.366.361c0 .7.574 1.266 1.284 1.266.709 0 1.283-.566 1.284-1.266 0-.2-.165-.361-.367-.361a.364.364 0 0 0-.367.361zM10.365 7.633c0 .3-.246.542-.55.543a.547.547 0 0 1-.55-.543c0-.2-.164-.361-.367-.361a.364.364 0 0 0-.367.361c0 .7.575 1.266 1.284 1.266.71 0 1.284-.566 1.284-1.266 0-.2-.164-.361-.367-.361a.364.364 0 0 0-.367.361z"/>
        <path fill="#DFDFDF" stroke="#32364A" stroke-linecap="round" stroke-linejoin="round" stroke-width=".637" d="M8.53 23.185h-3.3v-1.627c0-.899.739-1.628 1.65-1.628.912 0 1.65.729 1.65 1.628v1.627z"/>
        <path fill="#32364A" d="M5.963 21.632v1.447c0 .2.164.362.367.362a.364.364 0 0 0 .367-.362v-1.447c0-.2-.164-.361-.367-.361a.364.364 0 0 0-.367.361M7.064 21.632v1.447c0 .2.164.362.366.362a.364.364 0 0 0 .367-.362v-1.447c0-.2-.164-.361-.367-.361a.364.364 0 0 0-.366.361"/>
        <path fill="#DFDFDF" stroke="#32364A" stroke-linecap="round" stroke-linejoin="round" stroke-width=".637" d="M19.169 23.185h-3.301v-1.627a1.64 1.64 0 0 1 1.65-1.628c.912 0 1.65.729 1.65 1.628v1.627z"/>
        <path fill="#32364A" d="M16.601 21.632v1.447c0 .2.165.362.367.362a.364.364 0 0 0 .367-.362v-1.447c0-.2-.164-.361-.367-.361a.365.365 0 0 0-.367.361M17.702 21.632v1.447c0 .2.164.362.367.362a.364.364 0 0 0 .366-.362v-1.447c0-.2-.164-.361-.366-.361a.364.364 0 0 0-.367.361"/>
        <path fill="#DFDFDF" stroke="#32364A" stroke-linecap="round" stroke-linejoin="round" stroke-width=".637" d="M12.2 8.604a2.527 2.527 0 0 0-1.468 2.285c0 1.009.6 1.878 1.467 2.284a2.526 2.526 0 0 0 1.467-2.284c0-1.01-.6-1.879-1.467-2.285z"/>
        <path fill="#FFF" stroke="#32364A" stroke-linecap="round" stroke-linejoin="round" stroke-width=".637" d="M17.702 17.037h1.1v-3.979h-5.136c0 2.198 1.807 3.979 4.036 3.979zM6.697 17.037h-1.1v-3.979h5.135c0 2.198-1.807 3.979-4.035 3.979z"/>
    </g>
</svg>
