<svg xmlns="http://www.w3.org/2000/svg" xmlns:xlink="http://www.w3.org/1999/xlink" width="24" height="24" viewBox="0 0 24 24">
    <defs>
        <path id="a" d="M.034 0h18.32v23.2H.033z"/>
    </defs>
    <g fill="none" fill-rule="evenodd">
        <g transform="translate(2.8 .4)">
            <mask id="b" fill="#fff">
                <use xlink:href="#a"/>
            </mask>
            <path fill="#D8D8D8" stroke="#32364A" stroke-linecap="round" stroke-linejoin="round" stroke-width=".649" d="M2.824 12.658C1.628 15.398.77 18.907.394 22.83h17.599c-.374-3.924-1.234-7.433-2.43-10.173a1.791 1.791 0 0 0 .63-2.484l-5.436-8.918a1.821 1.821 0 0 0-3.128 0l-5.435 8.918a1.792 1.792 0 0 0 .63 2.484z" mask="url(#b)"/>
        </g>
        <path fill="#32364A" stroke="#32364A" stroke-width=".8" d="M11.994 15.123c1.925 0 3.615 1.718 4.572 4.302.145.392.706.312.75-.105a15.6 15.6 0 0 0 .083-1.617c0-5.09-2.42-9.214-5.405-9.214-2.985 0-5.406 4.125-5.406 9.214 0 .552.029 1.092.084 1.617.044.417.604.497.75.105.957-2.584 2.646-4.302 4.572-4.302z"/>
        <path fill="#32364A" d="M6.788 11.253c0-.509-.202-.921-.45-.921-.25 0-.45.412-.45.921 0 .509.2.922.45.922.248 0 .45-.413.45-.922zM18.122 11.253c0-.509-.202-.921-.45-.921-.25 0-.451.412-.451.921 0 .509.201.922.45.922s.45-.413.45-.922zM11.273 3.698a.364.364 0 0 1-.36.368c-.2 0-.36-.165-.36-.368 0-.204.16-.37.36-.37.199 0 .36.166.36.37zM13.435 3.698a.365.365 0 0 1-.36.368.364.364 0 0 1-.36-.368c0-.204.16-.37.36-.37.199 0 .36.166.36.37z"/>
        <path fill="#D8D8D8" d="M10.552 8.82L9.055 9.97 7.939 11.61l-.779 1.965-.45 2.174-.12 2.185.9-.784-.885-.161 1.065-.76-.848-1.21 1.388-.08-.942-1.711 1.483 1.158-.958-2.482.958.64-.492-1.501 1.573 1.132-.54-2.396 1.26 1.658v-2.58l.721 1.843.72-2.211M13.437 8.82l1.497 1.149 1.116 1.641.78 1.965.449 2.174.12 2.185-.9-.784.886-.161-1.065-.76.848-1.21-1.389-.08.942-1.711-1.482 1.158.957-2.482-.957.64.491-1.501-1.572 1.132.54-2.396-1.261 1.658v-2.58l-.72 1.843-.721-2.211"/>
    </g>
</svg>
