<svg xmlns="http://www.w3.org/2000/svg" xmlns:xlink="http://www.w3.org/1999/xlink" width="24" height="24" viewBox="0 0 24 24">
    <defs>
        <path id="a" d="M.039.002H2.98v4.004H.04z"/>
    </defs>
    <g fill="none" fill-rule="evenodd">
        <path fill="#32364A" d="M19.822 10.233h1.158c.986 0 1.785-.792 1.785-1.768V5.863a.366.366 0 0 0-.368-.365.366.366 0 0 0-.368.365v2.601a1.046 1.046 0 0 1-1.05 1.04h-1.157a.366.366 0 0 0-.367.364c0 .202.164.365.367.365z"/>
        <path fill="#E6925F" stroke="#32364A" stroke-linecap="round" stroke-linejoin="round" stroke-width=".641" d="M18.245 13.146H5.01v3.642c0 3.62 2.963 6.555 6.618 6.555 3.655 0 6.618-2.935 6.618-6.555v-3.642z"/>
        <path fill="#E5925F" stroke="#32364A" stroke-linecap="round" stroke-linejoin="round" stroke-width=".641" d="M12.363 2.585h-1.471c-3.25 0-5.883 2.609-5.883 5.827v5.462h13.236V8.412c0-3.218-2.634-5.827-5.882-5.827z"/>
        <path fill="#CC8154" d="M17.877 16.788c0 2.212-2.798 4.006-6.25 4.006S5.377 19 5.377 16.788a6.119 6.119 0 0 0 1.037 3.416 6.24 6.24 0 0 0 1.989 1.888 6.251 6.251 0 0 0 3.224.887 6.252 6.252 0 0 0 5.275-2.87 6.117 6.117 0 0 0 .975-3.321"/>
        <path fill="#32364A" d="M9.053 7.32a.732.732 0 0 1-.735.728.732.732 0 0 1-.735-.729c0-.402.33-.728.735-.728.406 0 .735.326.735.728zM15.671 7.32c0 .401-.329.728-.735.728a.732.732 0 0 1-.735-.729c0-.402.329-.728.735-.728.406 0 .735.326.735.728z"/>
        <path fill="#FFA269" stroke="#32364A" stroke-linecap="round" stroke-linejoin="round" stroke-width=".641" d="M11.627 7.683L9.053 9.504h5.148z"/>
        <path fill="#E6925F" stroke="#32364A" stroke-linecap="round" stroke-linejoin="round" stroke-width=".641" d="M9.053 23.343H5.745v-1.639c0-.905.74-1.639 1.654-1.639.914 0 1.654.734 1.654 1.639v1.639z"/>
        <path fill="#32364A" d="M6.48 21.78v1.456c0 .201.164.364.368.364a.366.366 0 0 0 .367-.364v-1.457a.366.366 0 0 0-.367-.364.366.366 0 0 0-.368.364M7.583 21.78v1.456c0 .201.164.364.368.364a.366.366 0 0 0 .367-.364v-1.457a.366.366 0 0 0-.367-.364.366.366 0 0 0-.368.364"/>
        <path fill="#E6925F" stroke="#32364A" stroke-linecap="round" stroke-linejoin="round" stroke-width=".641" d="M17.51 23.343H14.2v-1.639c0-.905.742-1.639 1.655-1.639.914 0 1.655.734 1.655 1.639v1.639z"/>
        <path fill="#32364A" d="M14.936 21.78v1.456c0 .201.165.364.368.364a.366.366 0 0 0 .367-.364v-1.457a.366.366 0 0 0-.367-.364.366.366 0 0 0-.368.364M16.039 21.78v1.456c0 .201.165.364.368.364a.366.366 0 0 0 .367-.364v-1.457a.366.366 0 0 0-.367-.364.366.366 0 0 0-.368.364"/>
        <path fill="#FFA269" stroke="#32364A" stroke-linecap="round" stroke-linejoin="round" stroke-width=".641" d="M12.478 10.597h-1.702a.983.983 0 0 1-.987-.978v-.115h3.676v.115c0 .54-.442.978-.987.978z"/>
        <path fill="#E6925F" stroke="#32364A" stroke-linecap="round" stroke-linejoin="round" stroke-width=".641" d="M5.01 9.87a4.528 4.528 0 0 0-2.574 4.076 4.529 4.529 0 0 0 2.574 4.077V9.87zM18.245 9.87a4.528 4.528 0 0 1 2.574 4.076 4.529 4.529 0 0 1-2.575 4.077l.001-8.153z"/>
        <g transform="translate(10.117 .4)">
            <mask id="b" fill="#fff">
                <use xlink:href="#a"/>
            </mask>
            <path fill="#E5925F" stroke="#32364A" stroke-linecap="round" stroke-linejoin="round" stroke-width=".641" d="M2.245 3.642l.368-2.185C2.613.853 2.119.364 1.51.364.9.364.407.854.407 1.457l.367 2.185" mask="url(#b)"/>
        </g>
        <path fill="#CC8154" stroke="#32364A" stroke-width=".641" d="M7.215 13.874H5.01v1.093c0 .603.494 1.092 1.103 1.092.61 0 1.103-.489 1.103-1.092v-1.093z"/>
        <path fill="#CC8154" stroke="#32364A" stroke-width=".641" d="M9.421 13.874H7.215v1.093c0 .603.494 1.092 1.103 1.092.61 0 1.103-.489 1.103-1.092v-1.093zM11.627 13.874H9.421v1.093c0 .603.494 1.092 1.103 1.092.61 0 1.103-.489 1.103-1.092v-1.093zM13.833 13.874h-2.206v1.093c0 .603.494 1.092 1.103 1.092.61 0 1.103-.489 1.103-1.092v-1.093zM16.039 13.874h-2.206v1.093c0 .603.494 1.092 1.103 1.092s1.103-.489 1.103-1.092v-1.093zM18.245 13.874H16.04v1.093c0 .603.494 1.092 1.103 1.092.61 0 1.103-.489 1.103-1.092v-1.093z"/>
        <path fill="#32364A" d="M18.352 10.233h1.157c.986 0 1.785-.792 1.785-1.768V4.042a.366.366 0 0 0-.368-.364.366.366 0 0 0-.367.364v4.422c-.001.575-.47 1.039-1.05 1.04h-1.157a.366.366 0 0 0-.368.364c0 .202.165.365.368.365z"/>
    </g>
</svg>
