<svg xmlns="http://www.w3.org/2000/svg" xmlns:xlink="http://www.w3.org/1999/xlink" width="24" height="24" viewBox="0 0 24 24">
    <defs>
        <path id="a" d="M.003.039h5.311v5.333H.004z"/>
    </defs>
    <g fill="none" fill-rule="evenodd">
        <path fill="#E6925F" stroke="#32364A" stroke-linecap="round" stroke-linejoin="round" stroke-width=".669" d="M12.926 1.204h-1.518c-3.354 0-6.074 2.729-6.074 6.095v8.762c0 3.787 3.06 6.857 6.833 6.857s6.832-3.07 6.832-6.857V7.3c0-3.366-2.719-6.095-6.073-6.095"/>
        <path fill="#CC8154" d="M18.62 16.061c0 2.315-2.89 4.19-6.453 4.19-3.564 0-6.453-1.875-6.453-4.19a6.457 6.457 0 0 0 2.127 4.806l.002.001a6.41 6.41 0 0 0 4.324 1.669 6.396 6.396 0 0 0 3.329-.927 6.49 6.49 0 0 0 3.124-5.549"/>
        <path fill="#FFA269" stroke="#32364A" stroke-linecap="round" stroke-linejoin="round" stroke-width=".669" d="M9.89 6.347a2.472 2.472 0 0 1-2.468 2.476 2.472 2.472 0 0 1-2.467-2.476A2.472 2.472 0 0 1 7.422 3.87 2.472 2.472 0 0 1 9.89 6.347zM19.379 6.347a2.472 2.472 0 0 1-2.467 2.476 2.472 2.472 0 0 1-2.468-2.476 2.472 2.472 0 0 1 2.468-2.477 2.472 2.472 0 0 1 2.467 2.477z"/>
        <path fill="#32364A" d="M7.992 6.347a.57.57 0 1 1-1.14.002.57.57 0 0 1 1.14-.002zM17.481 6.347a.57.57 0 1 1-1.139 0 .57.57 0 1 1 1.139 0z"/>
        <path fill="#FFA269" stroke="#32364A" stroke-linecap="round" stroke-linejoin="round" stroke-width=".669" d="M12.167 7.553l-1.388 2.413h2.776z"/>
        <path fill="#32364A" d="M7.612 3.49H5.714a1.52 1.52 0 0 1-1.518-1.524.38.38 0 1 0-.76 0A2.282 2.282 0 0 0 5.715 4.25h1.898a.38.38 0 0 0 0-.761zM16.722 4.251h1.898a2.282 2.282 0 0 0 2.277-2.285.38.38 0 1 0-.759 0A1.52 1.52 0 0 1 18.62 3.49h-1.898a.38.38 0 0 0 0 .761z"/>
        <path fill="#E6925F" stroke="#32364A" stroke-linecap="round" stroke-linejoin="round" stroke-width=".669" d="M8.371 22.918H4.955v-1.714c0-.947.765-1.714 1.708-1.714s1.708.767 1.708 1.714v1.714z"/>
        <path fill="#32364A" d="M5.714 21.283v1.524a.38.38 0 1 0 .76 0v-1.524a.38.38 0 1 0-.76 0M6.853 21.283v1.524a.38.38 0 1 0 .759 0v-1.524a.38.38 0 1 0-.76 0"/>
        <path fill="#E6925F" stroke="#32364A" stroke-linecap="round" stroke-linejoin="round" stroke-width=".669" d="M19.379 22.918h-3.416v-1.714c0-.947.765-1.714 1.708-1.714s1.708.767 1.708 1.714v1.714z"/>
        <path fill="#32364A" d="M16.722 21.283v1.524a.38.38 0 1 0 .759 0v-1.524a.38.38 0 1 0-.76 0M17.86 21.283v1.524a.38.38 0 1 0 .76 0v-1.524a.38.38 0 1 0-.76 0M4.955 9.585c0 3.998 3.229 7.238 7.212 7.238 3.983 0 7.212-3.24 7.212-7.238a.38.38 0 1 0-.76 0c0 1.79-.721 3.406-1.89 4.58a6.418 6.418 0 0 1-4.562 1.896 6.418 6.418 0 0 1-4.563-1.897 6.466 6.466 0 0 1-1.89-4.579.38.38 0 1 0-.76 0z"/>
        <g transform="translate(.4 8.403)">
            <mask id="b" fill="#fff">
                <use xlink:href="#a"/>
            </mask>
            <path fill="#CC8154" stroke="#32364A" stroke-linecap="round" stroke-linejoin="round" stroke-width=".669" d="M4.934 4.991V.421H.38c0 2.524 2.039 4.57 4.554 4.57z" mask="url(#b)"/>
        </g>
        <path fill="#CC8154" stroke="#32364A" stroke-linecap="round" stroke-linejoin="round" stroke-width=".669" d="M19 13.394v-4.57h4.554c0 2.524-2.04 4.57-4.555 4.57z"/>
    </g>
</svg>
