<svg xmlns="http://www.w3.org/2000/svg" width="24" height="24" viewBox="0 0 24 24">
    <g fill="none" fill-rule="evenodd">
        <path fill="#FFF" stroke="#32364A" stroke-linecap="round" stroke-linejoin="round" stroke-width=".655" d="M19.308 16.245c0-4.087-3.295-7.4-7.36-7.4-4.064 0-7.359 3.313-7.359 7.4 0 4.088 3.295 4.934 7.36 4.934 4.064 0 7.359-.846 7.359-4.934z"/>
        <path fill="#FFF" stroke="#32364A" stroke-linecap="round" stroke-linejoin="round" stroke-width=".655" d="M11.577 14.078a2.236 2.236 0 0 1-2.23 2.242 2.236 2.236 0 0 1-2.23-2.242c0-1.239.998-2.243 2.23-2.243a2.236 2.236 0 0 1 2.23 2.243zM16.78 14.078a2.236 2.236 0 0 1-2.23 2.242 2.236 2.236 0 0 1-2.23-2.242c0-1.239.999-2.243 2.23-2.243a2.236 2.236 0 0 1 2.23 2.243z"/>
        <g fill="#32364A">
            <path d="M.7 16.573c.022-.024.343-.36.905-.684a4.697 4.697 0 0 1 2.9-.607.373.373 0 1 0 .083-.743 5.444 5.444 0 0 0-3.415.738c-.649.386-1.003.771-1.02.79a.375.375 0 0 0 .022.528.37.37 0 0 0 .525-.022zM.999 19.234l-.12-.065.12.066v-.001l-.12-.065.12.066a4.31 4.31 0 0 1 .812-.991 4.692 4.692 0 0 1 2.552-1.216.373.373 0 0 0-.105-.74 5.44 5.44 0 0 0-2.98 1.434c-.632.594-.921 1.135-.935 1.16a.375.375 0 0 0 .153.505.37.37 0 0 0 .503-.153zM2.225 21.487l-.138-.027.138.028v-.001l-.138-.027.138.028c0-.007.107-.54.48-1.19a4.716 4.716 0 0 1 2.073-1.93.374.374 0 0 0 .175-.498.37.37 0 0 0-.496-.176 5.464 5.464 0 0 0-2.416 2.266c-.426.757-.541 1.36-.547 1.388a.372.372 0 1 0 .73.139zM23.847 16.067c-.017-.019-.371-.404-1.02-.79a5.443 5.443 0 0 0-3.415-.737.373.373 0 0 0 .082.742 4.7 4.7 0 0 1 2.954.638 4.66 4.66 0 0 1 .806.606l.038.038.007.009a.37.37 0 0 0 .526.022.375.375 0 0 0 .022-.528zM23.657 18.882c-.014-.025-.303-.567-.934-1.16a5.438 5.438 0 0 0-2.981-1.435.374.374 0 0 0-.105.74c1.19.171 2.028.726 2.578 1.241.275.258.475.505.604.685.065.09.112.164.142.213l.033.054.007.013v.002l.12-.066-.12.065.12-.065-.12.065a.37.37 0 0 0 .503.153.375.375 0 0 0 .153-.505zM22.505 21.348c-.005-.028-.12-.631-.545-1.388a5.467 5.467 0 0 0-2.417-2.266.37.37 0 0 0-.496.176.374.374 0 0 0 .175.498 4.714 4.714 0 0 1 2.09 1.96c.186.329.303.625.373.836.035.106.058.19.072.246l.015.062.002.013v.002l.137-.026-.136.026.136-.026-.136.026a.372.372 0 1 0 .73-.14z"/>
        </g>
        <path fill="#32364A" d="M10.09 14.078a.746.746 0 0 1-.743.747.746.746 0 0 1-.744-.747c0-.413.333-.748.744-.748.41 0 .743.335.743.748zM15.294 14.078a.746.746 0 0 1-.744.747.746.746 0 0 1-.743-.747c0-.413.333-.748.743-.748.411 0 .744.335.744.748z"/>
        <path fill="#FFF" stroke="#32364A" stroke-linecap="round" stroke-linejoin="round" stroke-width=".655" d="M5.258 6.229L7.1 2.217c-1.243-.61-3.048.32-4.095 2.143-1.078 1.877-.943 3.985.302 4.707 1.244.722 3.127-.214 4.204-2.09a5.485 5.485 0 0 0 .673-1.88L5.258 6.23z"/>
        <path fill="#32364A" d="M3.23 9.038c-.013.012-.165.155-.325.387-.156.232-.333.557-.337.963a1.2 1.2 0 0 0 .192.653c.203.316.551.567 1.065.76.516.192 1.21.333 2.16.407a.373.373 0 1 0 .057-.745c-1.205-.092-1.93-.305-2.308-.524a.973.973 0 0 1-.349-.302.444.444 0 0 1-.073-.249c-.004-.16.09-.374.206-.539.056-.082.114-.152.156-.199l.05-.053.012-.012.002-.002-.09-.094.09.095-.09-.095.09.095a.375.375 0 0 0 .017-.528.37.37 0 0 0-.525-.018z"/>
        <path fill="#FFF" stroke="#32364A" stroke-linecap="round" stroke-linejoin="round" stroke-width=".655" d="M18.584 6.229l-1.842-4.012c1.243-.61 3.048.32 4.095 2.143 1.078 1.877.942 3.985-.302 4.707s-3.127-.214-4.205-2.09a5.484 5.484 0 0 1-.672-1.88l2.926 1.132z"/>
        <path fill="#32364A" d="M20.477 9.584l.088-.095-.09.094.002.001.088-.095-.09.094c.004.003.123.12.231.282.111.162.2.368.196.523a.445.445 0 0 1-.074.249c-.082.13-.277.305-.7.463-.419.158-1.053.293-1.957.362a.373.373 0 0 0 .058.746c1.265-.1 2.078-.313 2.619-.62.269-.154.471-.337.606-.547a1.2 1.2 0 0 0 .192-.653c-.004-.406-.181-.73-.338-.963-.16-.232-.311-.375-.324-.387a.37.37 0 0 0-.525.018.375.375 0 0 0 .018.528zM7.773 17.654a5.284 5.284 0 0 0 8.564.02.375.375 0 0 0-.08-.522.37.37 0 0 0-.52.08 4.541 4.541 0 0 1-7.363-.018.37.37 0 0 0-.52-.082.375.375 0 0 0-.081.522z"/>
    </g>
</svg>
