<svg xmlns="http://www.w3.org/2000/svg" width="24" height="24" viewBox="0 0 24 24">
    <g fill="none" fill-rule="evenodd">
        <path fill="#FFF" stroke="#32364A" stroke-width=".693" d="M6.102 21.907c-.715-.639-1.568-1.79-2.316-3.2-1.274-2.4-1.757-4.64-1.08-5 .678-.362 2.26 1.292 3.534 3.693.776 1.462 1.258 2.864 1.364 3.819l.992-.454 2.65 2.785H3.702c-.659 0-.704-.223-.111-.495l2.51-1.148zM18.262 21.907c.715-.639 1.569-1.79 2.316-3.2 1.274-2.4 1.758-4.64 1.08-5-.678-.362-2.26 1.292-3.533 3.693-.776 1.462-1.259 2.864-1.365 3.819l-.992-.454-2.649 2.785h7.543c.658 0 .704-.223.11-.495l-2.51-1.148z"/>
        <path fill="#FFF" stroke="#32364A" stroke-width=".693" d="M12.109 23.562c-3.728 0-6.75-3.112-6.75-6.848 0-3.736 3.022-6.764 6.75-6.764 3.727 0 6.75 3.028 6.75 6.764s-3.023 6.848-6.75 6.848z"/>
        <path fill="#FFF" stroke="#32364A" stroke-width=".693" d="M18.685 4.662c.355-.451.57-1.036.57-1.676C19.255 1.558 18.188.4 16.873.4c-.755 0-1.428.383-1.864.979a7.502 7.502 0 0 0-2.9-.581 7.504 7.504 0 0 0-2.9.58C8.771.784 8.1.4 7.344.4 6.029.4 4.963 1.558 4.963 2.986c0 .64.214 1.225.569 1.676a7.533 7.533 0 0 0-.966 3.696c0 4.176 3.377 7.56 7.543 7.56s7.543-3.384 7.543-7.56a7.531 7.531 0 0 0-.967-3.696z"/>
        <path fill="#32364A" d="M8.933 3.185c0-1.023-.663-1.853-1.48-1.853s-1.48.83-1.48 1.853c0 1.024.663 1.854 1.48 1.854s1.48-.83 1.48-1.854zM18.28 3.185c0-1.036-.67-1.876-1.497-1.876-.827 0-1.498.84-1.498 1.876 0 1.037.67 1.877 1.498 1.877.827 0 1.497-.84 1.497-1.877zM7.468 11.747a5.744 5.744 0 0 0 4.659 2.38 5.744 5.744 0 0 0 4.642-2.357.398.398 0 0 0-.085-.556.396.396 0 0 0-.554.085 4.952 4.952 0 0 1-4.003 2.033A4.951 4.951 0 0 1 8.11 11.28a.396.396 0 1 0-.642.467z"/>
        <path fill="#FFF" d="M7.958 2.39a.397.397 0 1 1-.794.001.397.397 0 0 1 .794-.002zM17.09 2.39a.398.398 0 1 1-.796 0 .398.398 0 0 1 .795 0z"/>
    </g>
</svg>
