<?xml version="1.0" encoding="UTF-8"?>
<svg width="60px" height="60px" viewBox="0 0 60 60" version="1.1" xmlns="http://www.w3.org/2000/svg" xmlns:xlink="http://www.w3.org/1999/xlink">
    <!-- Generator: sketchtool 58 (101010) - https://sketch.com -->
    <title>93F6C277-BD08-4BCE-AC5A-511A6A52A6F0</title>
    <desc>Created with sketchtool.</desc>
    <defs>
        <polygon id="path-1" points="0.00548463357 0.0223636364 11.2256738 0.0223636364 11.2256738 11.1864545 0.00548463357 11.1864545"></polygon>
    </defs>
    <g id="2048---multuplay" stroke="none" stroke-width="1" fill="none" fill-rule="evenodd">
        <g id="2048avatars-dark" transform="translate(-20.000000, -166.000000)">
            <g id="AvatarProfile-60px-lvl10" transform="translate(20.000000, 166.000000)">
                <circle id="avatarbase" fill="#313341" cx="30" cy="30" r="30"></circle>
                <g id="AVATAR_10lvl---dark" transform="translate(10.000000, 10.000000)">
                    <g id="lvl_10" transform="translate(0.666667, 2.000000)">
                        <g id="005-polar-bear">
                            <g id="Group-4">
                                <mask id="mask-2" fill="white">
                                    <use xlink:href="#path-1"></use>
                                </mask>
                                <g id="Clip-2"></g>
                                <path d="M10.6021623,5.60436364 C10.6021623,8.34518182 8.36836249,10.5663636 5.61315682,10.5663636 C2.85731127,10.5663636 0.623785658,8.34518182 0.623785658,5.60436364 C0.623785658,2.86436364 2.85731127,0.642727273 5.61315682,0.642727273 C8.36836249,0.642727273 10.6021623,2.86436364 10.6021623,5.60436364 Z" id="Fill-1" fill="#32364A" mask="url(#mask-2)"></path>
                            </g>
                            <path d="M38.042881,5.60436364 C38.042881,8.34518182 35.8093554,10.5663636 33.0538755,10.5663636 C30.2983042,10.5663636 28.0645043,8.34518182 28.0645043,5.60436364 C28.0645043,2.86436364 30.2983042,0.642727273 33.0538755,0.642727273 C35.8093554,0.642727273 38.042881,2.86436364 38.042881,5.60436364 Z" id="Fill-5" fill="#32364A"></path>
                            <path d="M34.730985,11.179 C34.3550134,7.31709091 30.9810496,4.36436364 26.9436281,4.36436364 L11.7230386,4.36436364 C7.68561702,4.36436364 4.31201891,7.31709091 3.93568164,11.179 L2.4948684,25.9673636 C2.4948684,27.9059091 3.92818597,29.5706364 5.90987549,29.9336364 L11.5541119,30.5951818 C11.7926935,36.4524545 15.183751,35.9871818 19.3333333,35.9871818 C23.48255,35.9871818 26.8732419,36.4524545 27.1121891,30.5951818 L32.7564255,29.9336364 C34.7384807,29.5706364 36.1717983,27.9059091 36.1717983,25.9673636 L34.730985,11.179 Z" id="Fill-7" stroke="#32364A" stroke-width="1.09692671" fill="#E6925F" stroke-linecap="round" stroke-linejoin="round"></path>
                            <path d="M13.0966651,28.6836364 C13.0966651,34.5788182 15.8886178,34.1274545 19.3333333,34.1274545 C22.7780489,34.1274545 25.5700016,34.5788182 25.5700016,28.6836364 C25.5700016,22.788 22.7780489,18.0095455 19.3333333,18.0095455 C15.8886178,18.0095455 13.0966651,22.788 13.0966651,28.6836364 Z" id="Fill-9" fill="#FFA269"></path>
                            <path d="M21.8278361,14.598 C21.8278361,11.1868182 23.3636249,11.1868182 25.2582002,11.1868182 C27.1521355,11.1868182 28.68829,12.7138182 28.68829,14.598 C28.68829,16.4819091 27.1521355,18.0095455 25.2582002,18.0095455 C23.3636249,18.0095455 21.8278361,16.4819091 21.8278361,14.598 Z" id="Fill-10" fill="#32364A"></path>
                            <path d="M16.8388306,14.598 C16.8388306,11.1868182 15.3026761,11.1868182 13.4088322,11.1868182 C11.5145311,11.1868182 9.97837667,12.7138182 9.97837667,14.598 C9.97837667,16.4819091 11.5145311,18.0095455 13.4088322,18.0095455 C15.3026761,18.0095455 16.8388306,16.4819091 16.8388306,14.598 Z" id="Fill-11" fill="#32364A"></path>
                            <path d="M15.5915335,14.908 C15.5915335,15.5933636 15.0331064,16.1488182 14.3439622,16.1488182 C13.6551836,16.1488182 13.0966651,15.5933636 13.0966651,14.908 C13.0966651,14.223 13.6551836,13.6676364 14.3439622,13.6676364 C15.0331064,13.6676364 15.5915335,14.223 15.5915335,14.908 Z" id="Fill-12" fill="#EEE4DA"></path>
                            <path d="M25.5700016,14.908 C25.5700016,15.5933636 25.0114831,16.1488182 24.3223388,16.1488182 C23.6335603,16.1488182 23.0751332,15.5933636 23.0751332,14.908 C23.0751332,14.223 23.6335603,13.6676364 24.3223388,13.6676364 C25.0114831,13.6676364 25.5700016,14.223 25.5700016,14.908 Z" id="Fill-13" fill="#EEE4DA"></path>
                            <path d="M14.3439622,31.0340913 C17.4444255,31.0337273 19.9567533,28.5355455 19.957119,25.4520909 C19.957119,25.1097273 19.6779511,24.8316364 19.3333333,24.8316364 C18.9887155,24.8316364 18.7099133,25.1097273 18.7099133,25.4520909 C18.7095477,26.6530909 18.2217809,27.7343636 17.431171,28.522 C16.6388243,29.3086364 15.5515871,29.7933636 14.3439622,29.794 C13.99971,29.794 13.7205422,30.0713636 13.7205422,30.4140909 C13.7205422,30.7563636 13.99971,31.0344545 14.3439622,31.0340913 Z" id="Fill-14" fill="#32364A"></path>
                            <path d="M24.3223388,29.794 C23.1150796,29.7933636 22.0274768,29.3086364 21.2354957,28.522 C20.4448857,27.7343636 19.9574846,26.6530909 19.957119,25.4520909 C19.957119,25.1097273 19.6779511,24.8316364 19.3333333,24.8316364 C18.9887155,24.8316364 18.7099133,25.1097273 18.7099133,25.4520909 C18.710279,28.5355455 21.2222411,31.0337273 24.3223388,31.0340909 C24.6673223,31.0340909 24.9461245,30.7563636 24.9461245,30.4140909 C24.9461245,30.0713636 24.6673223,29.794 24.3223388,29.794 Z" id="Fill-15" fill="#32364A"></path>
                            <path d="M23.6989188,22.3508182 C23.6989188,20.9808182 21.7446525,20.4900909 19.3333333,20.4900909 C16.9223798,20.4900909 14.9677478,20.9808182 14.9677478,22.3508182 C14.9677478,23.7209091 16.9223798,25.4520909 19.3333333,25.4520909 C21.7446525,25.4520909 23.6989188,23.7209091 23.6989188,22.3508182 Z" id="Fill-16" fill="#32364A"></path>
                        </g>
                    </g>
                </g>
            </g>
        </g>
    </g>
</svg>