<?xml version="1.0" encoding="UTF-8"?>
<svg width="60px" height="60px" viewBox="0 0 60 60" version="1.1" xmlns="http://www.w3.org/2000/svg" xmlns:xlink="http://www.w3.org/1999/xlink">
    <!-- Generator: sketchtool 58 (101010) - https://sketch.com -->
    <title>F0C416C0-3C5A-4850-A772-130C2B9AE0E3</title>
    <desc>Created with sketchtool.</desc>
    <g id="2048---multuplay" stroke="none" stroke-width="1" fill="none" fill-rule="evenodd">
        <g id="2048avatars-dark" transform="translate(-496.000000, -166.000000)">
            <g id="AvatarProfile-60px-lvl17" transform="translate(496.000000, 166.000000)">
                <circle id="avatarbase" fill="#313341" cx="30" cy="30" r="30"></circle>
                <g id="AVATAR_17lvl---dark" transform="translate(10.000000, 10.000000)">
                    <g id="lvl_17" transform="translate(0.666667, 2.000000)">
                        <g id="monkey">
                            <path d="M38.5891452,11.5492324 C38.5891452,14.7369713 36.0027121,17.3210757 32.8127591,17.3210757 C29.6221476,17.3210757 27.0357145,14.7369713 27.0357145,11.5492324 C27.0357145,8.36224543 29.6221476,5.77814099 32.8127591,5.77814099 C36.0027121,5.77814099 38.5891452,8.36224543 38.5891452,11.5492324 Z" id="Fill-1" stroke="#32364A" stroke-width="1.12895377" fill="#D8D8D8"></path>
                            <path d="M11.6309521,11.5492324 C11.6309521,14.7369713 9.04451906,17.3210757 5.85428386,17.3210757 C2.66395458,17.3210757 0.0775214923,14.7369713 0.0775214923,11.5492324 C0.0775214923,8.36224543 2.66395458,5.77814099 5.85428386,5.77814099 C9.04451906,5.77814099 11.6309521,8.36224543 11.6309521,11.5492324 Z" id="Fill-3" stroke="#32364A" stroke-width="1.12895377" fill="#D8D8D8"></path>
                            <path d="M21.2586699,0.00620365535 L17.4079968,0.00620365535 C10.6721882,0.00620365535 5.21256772,5.4612846 5.21256772,12.1906527 L5.21256772,20.5276136 C5.21256772,28.3195927 11.5343325,34.6359478 19.3333333,34.6359478 C27.1323341,34.6359478 33.4544753,28.3195927 33.4544753,20.5276136 L33.4544753,12.1906527 C33.4544753,5.4612846 27.9941963,0.00620365535 21.2586699,0.00620365535 Z" id="Fill-7" stroke="#32364A" stroke-width="1.12895377" fill="#D8D8D8"></path>
                            <path d="M26.4594777,19.5362507 C27.9320097,18.8921984 28.9614274,17.4261619 28.9614274,15.7180888 C28.9614274,13.4155927 27.0933852,11.5492324 24.7891906,11.5492324 C22.7709035,11.5492324 21.0877275,12.9815248 20.7004023,14.8842611 C20.256159,14.8045535 19.8011906,14.7556762 19.3333333,14.7556762 C18.8654761,14.7556762 18.4102255,14.8045535 17.9662644,14.8842611 C17.5789392,12.9815248 15.8957632,11.5492324 13.8774761,11.5492324 C11.5732814,11.5492324 9.70523925,13.4155927 9.70523925,15.7180888 C9.70523925,17.4261619 10.7349392,18.8921984 12.2068127,19.5358747 C12.1381346,19.7029034 12.0814988,19.8751018 12.0244866,20.0476762 C10.58206,21.7297128 9.70523925,23.9102977 9.70523925,26.2990809 C9.70523925,31.6119478 14.0159611,35.9185065 19.3333333,35.9185065 C24.6507056,35.9185065 28.9614274,31.6119478 28.9614274,26.2990809 C28.9614274,23.9102977 28.0846067,21.7297128 26.64218,20.0476762 C26.5851679,19.8754778 26.5282498,19.7032794 26.4594777,19.5362507 Z" id="Fill-9" stroke="#32364A" stroke-width="1.12895377" fill="#BFBFBF"></path>
                            <path d="M14.8402855,15.7180888 C14.8402855,16.2493473 14.4092133,16.6796554 13.8774761,16.6796554 C13.3456448,16.6796554 12.9145726,16.2493473 12.9145726,15.7180888 C12.9145726,15.1863603 13.3456448,14.7556762 13.8774761,14.7556762 C14.4092133,14.7556762 14.8402855,15.1863603 14.8402855,15.7180888 Z" id="Fill-13" fill="#32364A"></path>
                            <path d="M25.7520941,15.7180888 C25.7520941,16.2493473 25.3210219,16.6796554 24.7891906,16.6796554 C24.2574534,16.6796554 23.8263812,16.2493473 23.8263812,15.7180888 C23.8263812,15.1863603 24.2574534,14.7556762 24.7891906,14.7556762 C25.3210219,14.7556762 25.7520941,15.1863603 25.7520941,15.7180888 Z" id="Fill-14" fill="#32364A"></path>
                            <path d="M18.6917113,21.8100783 C18.6917113,21.1018277 18.2602628,20.5276136 17.7284315,20.5276136 C17.1970706,20.5276136 16.7659984,21.1018277 16.7659984,21.8100783 C16.7659984,22.518329 17.1970706,23.0930131 17.7284315,23.0930131 C18.2602628,23.0930131 18.6917113,22.518329 18.6917113,21.8100783 Z" id="Fill-15" fill="#32364A"></path>
                            <path d="M21.9006683,21.8100783 C21.9006683,21.1018277 21.4695961,20.5276136 20.9378589,20.5276136 C20.4064039,20.5276136 19.9753317,21.1018277 19.9753317,21.8100783 C19.9753317,22.518329 20.4064039,23.0930131 20.9378589,23.0930131 C21.4695961,23.0930131 21.9006683,22.518329 21.9006683,21.8100783 Z" id="Fill-16" fill="#32364A"></path>
                            <path d="M15.4822839,21.8100783 C15.4841655,20.7478433 16.3444282,19.8883551 17.4079968,19.8860992 L21.2586699,19.8860992 C22.3222384,19.8883551 23.1825012,20.7478433 23.1843828,21.8100783 C23.1843828,22.1640627 23.4720779,22.4514987 23.8263812,22.4514987 C24.1809667,22.4514987 24.4680032,22.1640627 24.4680032,21.8100783 C24.4676269,20.0392167 23.0317859,18.6040104 21.2586699,18.6036345 L17.4079968,18.6036345 C15.635163,18.6040104 14.1990397,20.0392167 14.1982871,21.8100783 C14.1982871,22.1640627 14.4856999,22.4514987 14.8402855,22.4514987 C15.1945888,22.4514987 15.4822839,22.1640627 15.4822839,21.8100783 Z" id="Fill-17" fill="#32364A"></path>
                            <path d="M23.1329213,33.353483 L15.5341217,33.353483 C14.7965385,33.353483 14.1986634,32.7556762 14.1986634,32.0191332 L14.1986634,27.378517 C14.1986634,25.7196971 15.5444704,24.3751018 17.2044088,24.3751018 L21.4622579,24.3751018 C23.1225726,24.3751018 24.4680032,25.7200731 24.4680032,27.378517 L24.4680032,32.0191332 C24.4680032,32.7560522 23.8701281,33.353483 23.1329213,33.353483 Z" id="Fill-18" fill="#32364A"></path>
                            <path d="M16.7659984,26.7051384 L16.7659984,25.0162402 L18.6917113,25.0162402 L17.292279,26.8803446 C17.1235945,27.1053681 16.7659984,26.9860888 16.7659984,26.7051384 Z" id="Fill-19" fill="#D3D3D3"></path>
                            <path d="M21.9006683,26.7051384 L21.9006683,25.0162402 L19.9753317,25.0162402 L21.3743877,26.8803446 C21.5430722,27.1053681 21.9006683,26.9860888 21.9006683,26.7051384 Z" id="Fill-20" fill="#D3D3D3"></path>
                        </g>
                    </g>
                </g>
            </g>
        </g>
    </g>
</svg>