<?xml version="1.0" encoding="UTF-8"?>
<svg width="60px" height="60px" viewBox="0 0 60 60" version="1.1" xmlns="http://www.w3.org/2000/svg" xmlns:xlink="http://www.w3.org/1999/xlink">
    <!-- Generator: sketchtool 58 (101010) - https://sketch.com -->
    <title>A20838A2-E96D-429C-8CB2-7A5472F9DC2D</title>
    <desc>Created with sketchtool.</desc>
    <defs>
        <polygon id="path-1" points="0.0648846154 0.00353928299 23.2972564 0.00353928299 23.2972564 38.5781774 0.0648846154 38.5781774"></polygon>
    </defs>
    <g id="2048---multuplay" stroke="none" stroke-width="1" fill="none" fill-rule="evenodd">
        <g id="2048avatars-dark" transform="translate(-428.000000, -166.000000)">
            <g id="AvatarProfile-60px-lvl16" transform="translate(428.000000, 166.000000)">
                <circle id="avatarbase" fill="#313341" cx="30" cy="30" r="30"></circle>
                <g id="AVATAR_16lvl---dark" transform="translate(10.000000, 10.000000)">
                    <g id="lvl_16" transform="translate(8.666667, 0.666667)">
                        <g id="019-wild-life">
                            <g id="Group-6">
                                <mask id="mask-2" fill="white">
                                    <use xlink:href="#path-1"></use>
                                </mask>
                                <g id="Clip-2"></g>
                                <polygon id="Fill-1" stroke="#32364A" stroke-width="1.0617849" fill="#BFBFBF" stroke-linecap="round" stroke-linejoin="round" mask="url(#mask-2)" points="0.676217949 20.4946606 0.676217949 37.9754447 4.34520513 37.9754447 9.86129487 36.1670481 13.5898718 37.9754447 18.4062308 34.3586514 22.6858333 37.9754447 22.6858333 20.4946606"></polygon>
                                <path d="M17.7622308,4.82404272 L17.7951667,4.822627 L17.7951667,1.2059222 L12.9953205,3.09828833 C12.5637436,3.04811899 12.1266026,3.01423036 11.6810256,3.01423036 C10.6191795,3.01423036 9.5955641,3.17084363 8.62417949,3.44735011 L8.62417949,0.602739893 L4.65724359,5.51181388 L4.65894872,5.51181388 C2.22644872,7.50195271 0.676217949,10.5041495 0.676217949,13.8640793 L0.676217949,20.4946606 L11.6810256,24.7141053 L22.6858333,20.4946606 L22.6858333,13.8640793 C22.6858333,10.0893455 20.7287051,6.76781693 17.7622308,4.82404272 Z" id="Fill-4" stroke="#32364A" stroke-width="1.0617849" fill="#D8D8D8" stroke-linecap="round" stroke-linejoin="round" mask="url(#mask-2)"></path>
                            </g>
                            <path d="M11.0700513,13.5626209 C11.0696923,10.5659985 8.60623077,8.13796186 5.56724359,8.13760793 C2.52825641,8.13796186 0.0652435897,10.5659985 0.0648846154,13.5626209 C0.0648846154,13.8954905 0.338602564,14.1658032 0.676217949,14.1658032 C1.01383333,14.1658032 1.288,13.8954905 1.288,13.5626209 C1.288,12.3954539 1.76579487,11.3447292 2.54117949,10.5790938 C3.31773077,9.8146087 4.3834359,9.34388406 5.56724359,9.34353013 C6.75114103,9.34388406 7.81711538,9.8146087 8.59330769,10.5790938 C9.36905128,11.3447292 9.84657692,12.3954539 9.8469359,13.5626209 C9.8469359,13.8954905 10.1206538,14.1658032 10.4582692,14.1658032 C10.7958846,14.1658032 11.0700513,13.8954905 11.0700513,13.5626209 Z" id="Fill-7" fill="#32364A"></path>
                            <path d="M6.79,11.4529428 C6.78928205,11.9523356 6.37915385,12.3560793 5.87291026,12.3570526 C5.36639744,12.3560793 4.95689744,11.9523356 4.95591026,11.4529428 C4.95591026,11.1200732 4.68246154,10.8504683 4.34484615,10.8504683 C4.00723077,10.8504683 3.73315385,11.1200732 3.73315385,11.4529428 C3.73351282,12.6183402 4.69089744,13.562267 5.87291026,13.5626209 C7.05501282,13.562267 8.01275641,12.6183402 8.01275641,11.4529428 C8.01275641,11.1200732 7.73894872,10.8504683 7.40142308,10.8504683 C7.06380769,10.8504683 6.79,11.1200732 6.79,11.4529428 Z" id="Fill-8" fill="#32364A"></path>
                            <path d="M23.2972564,13.5626209 C23.2968974,10.5659985 20.8337949,8.13796186 17.7951667,8.13760793 C14.7558205,8.13796186 12.2928077,10.5659985 12.2924487,13.5626209 C12.2924487,13.8954905 12.5661667,14.1658032 12.904141,14.1658032 C13.2417564,14.1658032 13.5152051,13.8954905 13.5152051,13.5626209 C13.5155641,12.3954539 13.993359,11.3447292 14.7687436,10.5790938 C15.5452949,9.8146087 16.611359,9.34388406 17.7951667,9.34353013 C18.9787051,9.34388406 20.0446795,9.8146087 20.8212308,10.5790938 C21.5963462,11.3447292 22.074141,12.3954539 22.0745,13.5626209 C22.0745,13.8954905 22.3479487,14.1658032 22.6858333,14.1658032 C23.0234487,14.1658032 23.2972564,13.8954905 23.2972564,13.5626209 Z" id="Fill-9" fill="#32364A"></path>
                            <path d="M19.0175641,11.4529428 C19.0164872,11.9523356 18.6070769,12.3560793 18.1004744,12.3570526 C17.5943205,12.3560793 17.1844615,11.9523356 17.1834744,11.4529428 C17.1834744,11.1200732 16.9096667,10.8504683 16.5720513,10.8504683 C16.2344359,10.8504683 15.9607179,11.1200732 15.9607179,11.4529428 C15.9610769,12.6183402 16.9184615,13.562267 18.1004744,13.5626209 C19.2825769,13.562267 20.2399615,12.6183402 20.2403205,11.4529428 C20.2403205,11.1200732 19.9668718,10.8504683 19.6289872,10.8504683 C19.2913718,10.8504683 19.0175641,11.1200732 19.0175641,11.4529428 Z" id="Fill-10" fill="#32364A"></path>
                            <polygon id="Fill-11" fill="#A9A9A9" points="11.6810256 17.4810496 6.79 14.4671732 16.5720513 14.4671732"></polygon>
                            <path d="M11.6810256,17.4810496 L12.005,16.9698886 L8.92176923,15.0695591 L14.440641,15.0695591 L11.357141,16.9698886 L11.6810256,17.4810496 L12.005,16.9698886 L11.6810256,17.4810496 L12.005,17.9919451 L16.8962949,14.9783341 C17.1280128,14.8352586 17.2353462,14.5598139 17.1596026,14.3009153 C17.0845769,14.0416629 16.845141,13.8640793 16.5720513,13.8640793 L6.79,13.8640793 C6.51691026,13.8640793 6.27783333,14.0416629 6.20208974,14.3009153 C6.1270641,14.5598139 6.23439744,14.8352586 6.46611538,14.9783341 L11.357141,17.9919451 C11.5555641,18.1143158 11.8065769,18.1143158 12.005,17.9919451 L11.6810256,17.4810496 Z" id="Fill-12" fill="#32364A"></path>
                            <path d="M11.6810256,11.8642075 C9.97167949,12.666386 8.78715385,13.6666758 8.78715385,15.6571686 C8.78715385,17.6476613 9.97167949,21.5007902 11.6810256,22.3029687 C13.3907308,21.5007902 14.5752564,17.6476613 14.5752564,15.6571686 C14.5752564,13.6666758 13.3907308,12.666386 11.6810256,11.8642075 Z" id="Fill-13" stroke="#32364A" stroke-width="1.0617849" fill="#F2F2F2" stroke-linecap="round" stroke-linejoin="round"></path>
                            <path d="M4.95591026,37.1071701 L4.95591026,31.6820686 C4.95591026,31.3492876 4.68246154,31.0793288 4.34484615,31.0793288 C4.00723077,31.0793288 3.73315385,31.3492876 3.73315385,31.6820686 L3.73315385,37.1071701 C3.73315385,37.4400397 4.00723077,37.7099985 4.34484615,37.7099985 C4.68246154,37.7099985 4.95591026,37.4400397 4.95591026,37.1071701" id="Fill-15" fill="#32364A"></path>
                            <path d="M10.4582692,35.9016018 L10.4582692,34.0932052 C10.4582692,33.7604241 10.1844615,33.4904653 9.8469359,33.4904653 C9.50932051,33.4904653 9.23551282,33.7604241 9.23551282,34.0932052 L9.23551282,35.9016018 C9.23551282,36.2344714 9.50932051,36.5043417 9.8469359,36.5043417 C10.1844615,36.5043417 10.4582692,36.2344714 10.4582692,35.9016018" id="Fill-16" fill="#32364A"></path>
                            <path d="M19.0175641,34.0932052 L19.0175641,25.0514874 C19.0175641,24.7186178 18.7437564,24.448659 18.4062308,24.448659 C18.0686154,24.448659 17.7951667,24.7186178 17.7951667,25.0514874 L17.7951667,34.0932052 C17.7951667,34.4260748 18.0686154,34.6960336 18.4062308,34.6960336 C18.7437564,34.6960336 19.0175641,34.4260748 19.0175641,34.0932052" id="Fill-17" fill="#32364A"></path>
                        </g>
                    </g>
                </g>
            </g>
        </g>
    </g>
</svg>