<?xml version="1.0" encoding="UTF-8"?>
<svg width="60px" height="60px" viewBox="0 0 60 60" version="1.1" xmlns="http://www.w3.org/2000/svg" xmlns:xlink="http://www.w3.org/1999/xlink">
    <!-- Generator: sketchtool 58 (101010) - https://sketch.com -->
    <title>CD087760-1ADF-4A98-A5A8-FD2B64FB4C1A</title>
    <desc>Created with sketchtool.</desc>
    <defs>
        <polygon id="path-1" points="0.0565789474 0.00353928299 22.7645614 0.00353928299 22.7645614 38.5781846 0.0565789474 38.5781846"></polygon>
    </defs>
    <g id="2048---multuplay" stroke="none" stroke-width="1" fill="none" fill-rule="evenodd">
        <g id="2048avatars-dark" transform="translate(-564.000000, -166.000000)">
            <g id="AvatarProfile-60px-lvl18" transform="translate(564.000000, 166.000000)">
                <circle id="avatarbase" fill="#313341" cx="30" cy="30" r="30"></circle>
                <g id="AVATAR_18lvl---dark" transform="translate(10.000000, 10.000000)">
                    <g id="lvl_18" transform="translate(2.000000, 0.666667)">
                        <g id="013-owl">
                            <g id="Group-4" transform="translate(6.929825, 0.000000)">
                                <mask id="mask-2" fill="white">
                                    <use xlink:href="#path-1"></use>
                                </mask>
                                <g id="Clip-2"></g>
                                <path d="M12.6058772,0.602739893 L10.2151754,0.602739893 C4.93421053,0.602739893 0.65377193,4.92075362 0.65377193,10.247286 L0.65377193,27.1252418 C0.65377193,33.1175133 5.46973684,37.9754447 11.4103509,37.9754447 C17.3513158,37.9754447 22.1672807,33.1175133 22.1672807,27.1252418 L22.1672807,10.247286 C22.1672807,4.92075362 17.8868421,0.602739893 12.6058772,0.602739893" id="Fill-1" fill="#D8D8D8" mask="url(#mask-2)"></path>
                                <path d="M12.6058772,0.602739893 L12.6058772,0 L10.2151754,0 C4.60385965,0.000707856598 0.0565789474,4.58761861 0.0565789474,10.247286 L0.0565789474,27.1252418 C0.0565789474,33.4507368 5.13947368,38.5781846 11.4103509,38.5781846 C17.6815789,38.5774767 22.7645614,33.4507368 22.7645614,27.1252418 L22.7645614,10.247286 C22.7645614,4.58761861 18.2168421,0.000707856598 12.6058772,0 L12.6058772,1.20556827 C15.0832456,1.2059222 17.3200877,2.21691838 18.9442982,3.85419069 C20.5671053,5.49208238 21.5690351,7.74837529 21.569386,10.247286 L21.569386,27.1252418 C21.5690351,29.9570221 20.4331579,32.5151274 18.5937719,34.3711274 C16.7540351,36.226508 14.2180702,37.3722624 11.4103509,37.3726163 C8.60333333,37.3722624 6.06736842,36.226508 4.2272807,34.3711274 C2.38763158,32.5151274 1.25201754,29.9570221 1.25175439,27.1252418 L1.25175439,10.247286 C1.25201754,7.74837529 2.25394737,5.49208238 3.87710526,3.85383677 C5.50096491,2.21691838 7.73780702,1.2059222 10.2151754,1.20556827 L12.6058772,1.20556827 L12.6058772,0.602739893 Z" id="Fill-3" fill="#32364A" mask="url(#mask-2)"></path>
                            </g>
                            <path d="M28.4992105,27.1252418 C28.4992105,30.7876034 23.9507895,33.7559115 18.3401754,33.7559115 C12.7299123,33.7559115 8.18157895,30.7876034 8.18157895,27.1252418 C8.18157895,27.4128085 8.19315789,27.6972784 8.21614035,27.9793593 C8.62078947,32.9281617 12.5116667,36.8797712 17.4057895,37.329791 C17.7135088,37.3581053 18.0252632,37.3726163 18.3401754,37.3726163 C18.6362281,37.3726163 18.9292105,37.3597864 19.2191228,37.334923 C21.0975439,37.1724699 22.83,36.4946972 24.2766667,35.4419375 C24.7203509,35.1190664 25.1373684,34.7606255 25.5235965,34.3711274 C25.9399123,33.9511915 26.3202632,33.4953318 26.6591228,33.0083265 C27.6477193,31.5884546 28.2887719,29.9034905 28.4559649,28.0809367 C28.4844737,27.7661175 28.4992105,27.447405 28.4992105,27.1252418" id="Fill-5" fill="#BFBFBF"></path>
                            <path d="M14.755,11.7543127 C14.755,13.9179649 13.0157018,15.6723875 10.8703509,15.6723875 C8.725,15.6723875 6.98640351,13.9179649 6.98640351,11.7543127 C6.98640351,9.59030664 8.725,7.8361495 10.8703509,7.8361495 C13.0157018,7.8361495 14.755,9.59030664 14.755,11.7543127 Z" id="Fill-7" stroke="#32364A" stroke-width="1.0617849" fill="#F2F2F2"></path>
                            <path d="M29.694386,11.7543127 C29.694386,13.9179649 27.9557018,15.6723875 25.8103509,15.6723875 C23.665,15.6723875 21.9257018,13.9179649 21.9257018,11.7543127 C21.9257018,9.59030664 23.665,7.8361495 25.8103509,7.8361495 C27.9557018,7.8361495 29.694386,9.59030664 29.694386,11.7543127 Z" id="Fill-9" stroke="#32364A" stroke-width="1.0617849" fill="#F2F2F2"></path>
                            <path d="M11.7671053,11.7543127 C11.7671053,12.2537056 11.3654386,12.6584226 10.8703509,12.6584226 C10.3751754,12.6584226 9.97429825,12.2537056 9.97429825,11.7543127 C9.97429825,11.2548314 10.3751754,10.8501144 10.8703509,10.8501144 C11.3654386,10.8501144 11.7671053,11.2548314 11.7671053,11.7543127 Z" id="Fill-11" fill="#32364A"></path>
                            <path d="M26.7064035,11.7543127 C26.7064035,12.2537056 26.3055263,12.6584226 25.8103509,12.6584226 C25.3152632,12.6584226 24.9136842,12.2537056 24.9136842,11.7543127 C24.9136842,11.2548314 25.3152632,10.8501144 25.8103509,10.8501144 C26.3055263,10.8501144 26.7064035,11.2548314 26.7064035,11.7543127 Z" id="Fill-12" fill="#32364A"></path>
                            <polygon id="Fill-13" stroke="#32364A" stroke-width="1.0617849" fill="#D8D8D8" stroke-linecap="round" stroke-linejoin="round" points="18.3401754 13.663225 14.9599123 17.4806957 21.7200877 17.4806957"></polygon>
                            <path d="M12.3642982,37.9754447 L6.98640351,37.9754447 L6.98640351,35.2628497 C6.98640351,33.7649367 8.1904386,32.5503432 9.67552632,32.5503432 C11.1605263,32.5503432 12.3642982,33.7649367 12.3642982,35.2628497 L12.3642982,37.9754447 Z" id="Fill-15" stroke="#32364A" stroke-width="1.0617849" fill="#FFFFFF" stroke-linecap="round" stroke-linejoin="round"></path>
                            <path d="M8.18157895,35.387344 L8.18157895,37.7984805 C8.18157895,38.1316156 8.44877193,38.4012204 8.77877193,38.4012204 C9.10912281,38.4012204 9.37640351,38.1316156 9.37640351,37.7984805 L9.37640351,35.387344 C9.37640351,35.0544744 9.10912281,34.7845156 8.77877193,34.7845156 C8.44877193,34.7845156 8.18157895,35.0544744 8.18157895,35.387344" id="Fill-17" fill="#32364A"></path>
                            <path d="M9.97429825,35.387344 L9.97429825,37.7984805 C9.97429825,38.1316156 10.2415789,38.4012204 10.5715789,38.4012204 C10.9014912,38.4012204 11.1691228,38.1316156 11.1691228,37.7984805 L11.1691228,35.387344 C11.1691228,35.0544744 10.9014912,34.7845156 10.5715789,34.7845156 C10.2415789,34.7845156 9.97429825,35.0544744 9.97429825,35.387344" id="Fill-18" fill="#32364A"></path>
                            <path d="M29.694386,37.9754447 L24.3164035,37.9754447 L24.3164035,35.2628497 C24.3164035,33.7649367 25.5201754,32.5503432 27.0051754,32.5503432 C28.4902632,32.5503432 29.694386,33.7649367 29.694386,35.2628497 L29.694386,37.9754447 Z" id="Fill-19" stroke="#32364A" stroke-width="1.0617849" fill="#FFFFFF" stroke-linecap="round" stroke-linejoin="round"></path>
                            <path d="M25.5112281,35.387344 L25.5112281,37.7984805 C25.5112281,38.1316156 25.7792105,38.4012204 26.1092105,38.4012204 C26.4391228,38.4012204 26.7064035,38.1316156 26.7064035,37.7984805 L26.7064035,35.387344 C26.7064035,35.0544744 26.4391228,34.7845156 26.1092105,34.7845156 C25.7792105,34.7845156 25.5112281,35.0544744 25.5112281,35.387344" id="Fill-21" fill="#32364A"></path>
                            <path d="M27.304386,35.387344 L27.304386,37.7984805 C27.304386,38.1316156 27.5715789,38.4012204 27.9019298,38.4012204 C28.2319298,38.4012204 28.4992105,38.1316156 28.4992105,37.7984805 L28.4992105,35.387344 C28.4992105,35.0544744 28.2319298,34.7845156 27.9019298,34.7845156 C27.5715789,34.7845156 27.304386,35.0544744 27.304386,35.387344" id="Fill-22" fill="#32364A"></path>
                            <path d="M6.98640351,14.4668192 C6.98640351,20.7922258 12.0689474,25.9194081 18.3401754,25.919762 C24.6114035,25.9194081 29.6940351,20.7922258 29.694386,14.4668192 C29.694386,14.1339497 29.4271053,13.8640793 29.0971053,13.8640793 C28.7671053,13.8640793 28.4992105,14.1339497 28.4992105,14.4668192 C28.4988596,17.2985995 27.3629825,19.8566163 25.5235965,21.7127048 C23.6835088,23.5679969 21.1475439,24.7138398 18.3401754,24.7141053 C15.5331579,24.7138398 12.9968421,23.5679969 11.1568421,21.7127048 C9.31745614,19.8566163 8.18184211,17.2985995 8.18157895,14.4668192 C8.18157895,14.1339497 7.91359649,13.8640793 7.58359649,13.8640793 C7.25359649,13.8640793 6.98640351,14.1339497 6.98640351,14.4668192 Z" id="Fill-23" fill="#32364A"></path>
                            <path d="M7.58359649,28.3308986 L7.58359649,15.6723875 L0.412894737,15.6723875 L0.412894737,21.0974889 C0.412894737,25.0922777 3.62359649,28.3308986 7.58359649,28.3308986 Z" id="Fill-24" stroke="#32364A" stroke-width="1.0617849" fill="#EDEDED" stroke-linecap="round" stroke-linejoin="round"></path>
                            <path d="M29.0971053,28.3308986 L29.0971053,15.6723875 L36.267807,15.6723875 L36.267807,21.0974889 C36.267807,25.0922777 33.057193,28.3308986 29.0971053,28.3308986 Z" id="Fill-26" stroke="#32364A" stroke-width="1.0617849" fill="#EDEDED" stroke-linecap="round" stroke-linejoin="round"></path>
                            <polygon id="Fill-28" stroke="#32364A" stroke-width="1.0617849" fill="#D8D8D8" stroke-linecap="round" stroke-linejoin="round" points="18.3401754 13.8640793 33.2799123 4.21953318 18.3401754 6.37141724 3.40087719 4.21953318"></polygon>
                            <path d="M0.676052632,19.2890923 L4.26122807,19.2890923 C4.59157895,19.2890923 4.85885965,19.0194874 4.85885965,18.6863524 C4.85885965,18.3534828 4.59157895,18.083524 4.26122807,18.083524 L0.676052632,18.083524 C0.346052632,18.083524 0.0781578947,18.3534828 0.0781578947,18.6863524 C0.0781578947,19.0194874 0.346052632,19.2890923 0.676052632,19.2890923" id="Fill-30" fill="#32364A"></path>
                            <path d="M0.676052632,21.7002288 L4.26122807,21.7002288 C4.59157895,21.7002288 4.85885965,21.43027 4.85885965,21.0974889 C4.85885965,20.7646194 4.59157895,20.4946606 4.26122807,20.4946606 L0.676052632,20.4946606 C0.346052632,20.4946606 0.0781578947,20.7646194 0.0781578947,21.0974889 C0.0781578947,21.43027 0.346052632,21.7002288 0.676052632,21.7002288" id="Fill-31" fill="#32364A"></path>
                            <path d="M32.4194737,19.2890923 L36.0046491,19.2890923 C36.3346491,19.2890923 36.6026316,19.0194874 36.6026316,18.6863524 C36.6026316,18.3534828 36.3346491,18.083524 36.0046491,18.083524 L32.4194737,18.083524 C32.0891228,18.083524 31.8219298,18.3534828 31.8219298,18.6863524 C31.8219298,19.0194874 32.0891228,19.2890923 32.4194737,19.2890923" id="Fill-32" fill="#32364A"></path>
                            <path d="M32.4194737,21.7002288 L36.0046491,21.7002288 C36.3346491,21.7002288 36.6026316,21.43027 36.6026316,21.0974889 C36.6026316,20.7646194 36.3346491,20.4946606 36.0046491,20.4946606 L32.4194737,20.4946606 C32.0891228,20.4946606 31.8219298,20.7646194 31.8219298,21.0974889 C31.8219298,21.43027 32.0891228,21.7002288 32.4194737,21.7002288" id="Fill-33" fill="#32364A"></path>
                        </g>
                    </g>
                </g>
            </g>
        </g>
    </g>
</svg>