<?xml version="1.0" encoding="UTF-8"?>
<svg width="60px" height="60px" viewBox="0 0 60 60" version="1.1" xmlns="http://www.w3.org/2000/svg" xmlns:xlink="http://www.w3.org/1999/xlink">
    <!-- Generator: sketchtool 58 (101010) - https://sketch.com -->
    <title>6522A587-1D63-4849-96B9-791C2DB6D630</title>
    <desc>Created with sketchtool.</desc>
    <g id="2048---multuplay" stroke="none" stroke-width="1" fill="none" fill-rule="evenodd">
        <g id="2048avatars-dark" transform="translate(-496.000000, -98.000000)">
            <g id="AvatarProfile-60px-lvl8" transform="translate(496.000000, 98.000000)">
                <circle id="avatarbase" fill="#313341" cx="30" cy="30" r="30"></circle>
                <g id="AVATAR_8lvl----dark" transform="translate(10.000000, 10.000000)">
                    <g id="lvl_08" transform="translate(0.666667, 3.333333)">
                        <g id="00_дог">
                            <path d="M19.6654576,33.9052092 C11.4152376,33.9052092 4.72717045,27.21549 4.72717045,18.9636218 L4.72717045,2.02908883 L34.6037448,2.02908883 L34.6037448,18.9636218 C34.6037448,27.21549 27.915288,33.9052092 19.6654576,33.9052092" id="Fill-1" stroke="#32364A" stroke-width="1.16876574" fill="#E6925F"></path>
                            <path d="M5.44742233,20.2396447 C5.75139882,23.6745215 7.26943073,26.7558567 9.57189924,29.0596734 C12.1571117,31.6439656 15.7212628,33.2407966 19.6654576,33.2415759 C23.6092628,33.2407966 27.1738035,31.6439656 29.759016,29.0596734 C32.0611923,26.7558567 33.5796138,23.6741318 33.8835903,20.2396447 C31.9454845,26.2428367 26.3120336,30.5848997 19.6654576,30.5848997 C13.018492,30.5848997 7.38543073,26.2428367 5.44742233,20.2396447" id="Fill-3" fill="#FFA269"></path>
                            <path d="M19.9971923,24.5942751 L23.6435466,20.4371175 C24.0335248,19.9926819 23.7173736,19.2958281 23.1264652,19.2958281 L16.868309,19.2958281 C16.2771083,19.2958281 15.9613468,19.9926819 16.3513249,20.4371175 L19.9971923,24.5942751 Z" id="Fill-5" fill="#32364A"></path>
                            <path d="M27.9643762,5.34978797 L27.9643762,3.78530086 C27.9643762,1.71510029 29.6418472,0.0369226361 31.7115365,0.0369226361 L38.5871906,0.0369226361 L38.5871906,10.6622636 L33.2755399,5.34978797" id="Fill-6" stroke="#32364A" stroke-width="1.16876574" fill="#E6925F" stroke-linecap="round" stroke-linejoin="round"></path>
                            <path d="M10.7022905,5.34978797 L10.7022905,3.78530086 C10.7022905,1.71510029 9.02481948,0.0369226361 6.95513014,0.0369226361 L0.0794760705,0.0369226361 L0.0794760705,10.6622636 L5.39112678,5.34978797" id="Fill-10" stroke="#32364A" stroke-width="1.16876574" fill="#E6925F" stroke-linecap="round" stroke-linejoin="round"></path>
                            <path d="M19.9971923,30.5848997 C18.5305861,30.5848997 17.3416591,29.3956791 17.3416591,27.9287106 L17.3416591,25.936447 L22.6528228,25.936447 L22.6528228,27.9287106 C22.6528228,29.3956791 21.4638959,30.5848997 19.9971923,30.5848997 Z" id="Fill-12" fill="#32364A"></path>
                            <path d="M12.0301058,23.9442808 C12.0301058,26.1446361 13.8136423,27.9287106 16.0138438,27.9287106 C18.2136558,27.9287106 19.9971923,26.1446361 19.9971923,23.9442808" id="Fill-13" fill="#FFA269"></path>
                            <path d="M11.3661495,23.9442808 C11.3669286,26.511914 13.4468447,28.5923438 16.0138438,28.5927335 C18.5804534,28.5923438 20.660759,26.511914 20.6611486,23.9442808 C20.6611486,23.5771003 20.3639899,23.2798682 19.9971923,23.2798682 C19.630492,23.2798682 19.3333333,23.5771003 19.3333333,23.9442808 C19.3329437,24.8629628 18.9627372,25.6888023 18.3609202,26.2923266 C17.7582267,26.894 16.9322989,27.2642006 16.0138438,27.2645903 C15.0949992,27.2642006 14.269461,26.894 13.6663778,26.2923266 C13.0645609,25.6888023 12.6943543,24.8629628 12.6943543,23.9442808 C12.6943543,23.5771003 12.396806,23.2798682 12.0301058,23.2798682 C11.6636977,23.2798682 11.3661495,23.5771003 11.3661495,23.9442808 Z" id="Fill-14" fill="#32364A"></path>
                            <path d="M19.9971923,23.9442808 C19.9971923,26.1446361 21.7808262,27.9287106 23.9806381,27.9287106 C26.1808396,27.9287106 27.9643762,26.1446361 27.9643762,23.9442808" id="Fill-15" fill="#FFA269"></path>
                            <path d="M19.3333333,23.9442808 C19.3337229,26.511914 21.413639,28.5923438 23.9806381,28.5927335 C26.5475399,28.5923438 28.6275533,26.511914 28.6283325,23.9442808 C28.6283325,23.5771003 28.3311738,23.2798682 27.9643762,23.2798682 C27.5976759,23.2798682 27.3001276,23.5771003 27.3001276,23.9442808 C27.299738,24.8629628 26.9299211,25.6888023 26.3280067,26.2923266 C25.7254106,26.894 24.8993854,27.2642006 23.9806381,27.2645903 C23.062183,27.2642006 22.2362552,26.894 21.6331721,26.2923266 C21.0317448,25.6888023 20.6615382,24.8629628 20.6611486,23.9442808 C20.6611486,23.5771003 20.3639899,23.2798682 19.9971923,23.2798682 C19.630492,23.2798682 19.3333333,23.5771003 19.3333333,23.9442808 Z" id="Fill-16" fill="#32364A"></path>
                            <path d="M18.0055181,13.9829628 C18.0055181,16.1837077 16.2219815,17.9673926 14.0221696,17.9673926 C11.8219681,17.9673926 10.0383342,16.1837077 10.0383342,13.9829628 C10.0383342,11.7822178 11.8219681,9.99863037 14.0221696,9.99863037 C16.2219815,9.99863037 18.0055181,11.7822178 18.0055181,13.9829628 Z" id="Fill-17" fill="#FFA269"></path>
                            <path d="M14.7640437,12.8813238 C14.1560907,12.4710831 13.3308447,12.6308539 12.9207053,13.2390544 C12.5105659,13.8471576 12.6703946,14.6728997 13.2783476,15.0831404 C13.885911,15.4933811 14.711157,15.3332206 15.1212964,14.7250201 C15.5322149,14.1176963 15.3716071,13.2919542 14.7640437,12.8813238 Z" id="Fill-18" fill="#32364A"></path>
                            <path d="M26.7141864,12.8813238 C26.1062334,12.4710831 25.2809874,12.6312436 24.870848,13.2390544 C24.4604165,13.8471576 24.6205374,14.6728997 25.2281008,15.0831404 C25.8361511,15.4933811 26.6616893,15.3336103 27.0718287,14.7254097 C27.4823577,14.1176963 27.3218472,13.2919542 26.7141864,12.8813238 Z" id="Fill-19" fill="#32364A"></path>
                        </g>
                    </g>
                </g>
            </g>
        </g>
    </g>
</svg>