<?xml version="1.0" encoding="UTF-8"?>
<svg width="60px" height="60px" viewBox="0 0 60 60" version="1.1" xmlns="http://www.w3.org/2000/svg" xmlns:xlink="http://www.w3.org/1999/xlink">
    <!-- Generator: sketchtool 58 (101010) - https://sketch.com -->
    <title>5704FA1E-76D6-4400-AAED-10B9D0E976F0</title>
    <desc>Created with sketchtool.</desc>
    <defs>
        <polygon id="path-1" points="0.0401756098 0 38.6291317 0 38.6291317 33.4439317 0.0401756098 33.4439317"></polygon>
    </defs>
    <g id="2048---multuplay" stroke="none" stroke-width="1" fill="none" fill-rule="evenodd">
        <g id="2048avatars-dark" transform="translate(-224.000000, -166.000000)">
            <g id="AvatarProfile-60px-lvl13" transform="translate(224.000000, 166.000000)">
                <circle id="avatarbase" fill="#313341" cx="30" cy="30" r="30"></circle>
                <g id="AVATAR_13lvl-dark" transform="translate(10.000000, 10.000000)">
                    <g id="lvl_13" transform="translate(0.666667, 0.666667)">
                        <g id="010-bear-1">
                            <g id="Group-10">
                                <mask id="mask-2" fill="white">
                                    <use xlink:href="#path-1"></use>
                                </mask>
                                <g id="Clip-2"></g>
                                <path d="M35.4137626,0.643564228 C37.3434179,5.14568455 32.1980163,13.5064553 32.1980163,13.5064553 L28.3390829,7.7182439 L35.4137626,0.643564228 Z" id="Fill-1" stroke="#32364A" stroke-width="1.13170732" fill="#EDEDED" stroke-linecap="round" stroke-linejoin="round" mask="url(#mask-2)"></path>
                                <path d="M2.40233171,0.643564228 C0.473053659,5.14568455 5.61798374,13.5064553 5.61798374,13.5064553 L9.47729431,7.7182439 L2.40233171,0.643564228 Z" id="Fill-4" stroke="#32364A" stroke-width="1.13170732" fill="#EDEDED" stroke-linecap="round" stroke-linejoin="round" mask="url(#mask-2)"></path>
                                <path d="M30.7734797,8.97226992 C32.6765398,7.37411057 35.4137626,4.42035447 35.4137626,0.643564228 L26.3829268,4.5946374 C24.207974,2.96082927 21.8295967,1.93003252 19.3348423,1.93003252 C16.7490797,1.93003252 14.2862959,3.0318439 12.047213,4.77146667 L2.61301789,0.643564228 C2.61301789,4.68894634 5.75284553,7.78973008 7.64458862,9.2916 C3.40134634,14.7730244 0.683362602,21.8431772 0.683362602,25.0836325 C0.683362602,27.0125333 9.03375935,32.801122 19.3348423,32.801122 C29.6358309,32.801122 37.9862276,27.0129106 37.9862276,25.0836325 C37.9862276,21.7791415 35.1606374,14.494813 30.7734797,8.97226992" id="Fill-6" fill="#D8D8D8" mask="url(#mask-2)"></path>
                                <path d="M30.7734797,8.97226992 C32.6765398,7.37411057 35.4137626,4.42035447 35.4137626,0.643564228 L26.3829268,4.5946374 C24.207974,2.96082927 21.8295967,1.93003252 19.3348423,1.93003252 C16.7490797,1.93003252 14.2862959,3.0318439 12.047213,4.77146667 L2.61301789,0.643564228 C2.61301789,4.68894634 5.75284553,7.78973008 7.64458862,9.2916 C3.40134634,14.7730244 0.683362602,21.8431772 0.683362602,25.0836325 C0.683362602,27.0125333 9.03375935,32.801122 19.3348423,32.801122 C29.6358309,32.801122 37.9862276,27.0129106 37.9862276,25.0836325 C37.9862276,21.7791415 35.1606374,14.494813 30.7734797,8.97226992" id="Fill-8" stroke="#32364A" stroke-width="1.13170732" stroke-linecap="round" stroke-linejoin="round" mask="url(#mask-2)"></path>
                            </g>
                            <path d="M1.77527154,22.3564065 C1.47650081,23.4910374 1.32551722,24.4716618 1.32654959,25.1775642 C1.31702439,25.1849203 1.37115772,25.4029626 1.58335285,25.6858894 C1.78932358,25.9714569 2.12412033,26.3276618 2.56916423,26.7104618 C3.45962927,27.4788911 4.78731057,28.3619057 6.43403902,29.1849398 C9.72853333,30.8338374 14.3007252,32.2521496 19.3267317,32.2521496 L19.3565333,32.2521496 C25.9456163,32.2521496 31.7641008,29.7990797 34.9204325,27.6141301 C35.9715057,26.8909691 36.7256,26.1887447 37.0862374,25.6855122 C37.2988098,25.4029626 37.3529431,25.1849203 37.3434179,25.1775642 C37.3444501,24.4712846 37.1930894,23.4910374 36.8943187,22.3567837 C34.3104423,24.8239057 27.4240033,28.3932163 19.3348423,28.3932163 C11.2452098,28.3932163 4.35924228,24.8235285 1.77527154,22.3564065" id="Fill-11" fill="#BFBFBF"></path>
                            <path d="M14.868748,23.1870797 C13.2537073,24.2967187 12.2174407,26.044735 12.1614211,28.1732878 C12.0454211,32.5568618 13.4110146,36.3988195 15.4515772,38.5897106 L23.2183902,38.5897106 C25.2589528,36.3988195 26.6253008,32.5568618 26.5089236,28.1732878 C26.4503577,25.984 25.3561854,24.1968455 23.6619252,23.0935252" id="Fill-13" stroke="#32364A" stroke-width="1.13170732" fill="#D8D8D8" stroke-linecap="round" stroke-linejoin="round"></path>
                            <path d="M14.1894407,37.3032423 C17.3863252,37.302865 19.9772748,34.7119154 19.9780293,31.5146537 C19.9780293,31.1594862 19.6899154,30.8718439 19.3348423,30.8718439 C18.9796748,30.8718439 18.6919382,31.1594862 18.6919382,31.5146537 C18.691561,32.7598146 18.1887057,33.8812423 17.3727447,34.698335 C16.5564065,35.5139187 15.4346016,36.0163967 14.1894407,36.016774 C13.8342732,36.016774 13.5462537,36.3045106 13.5462537,36.659678 C13.5466309,37.0151285 13.8342732,37.3032423 14.1894407,37.3032423 Z" id="Fill-15" fill="#32364A"></path>
                            <path d="M24.4801496,36.016774 C23.2349886,36.0163967 22.113278,35.5139187 21.2968455,34.698335 C20.4808846,33.8816195 19.9784065,32.7601919 19.9780293,31.5150309 C19.9780293,31.1598634 19.6899154,30.8718439 19.3348423,30.8718439 C18.9796748,30.8718439 18.6919382,31.1598634 18.6919382,31.5150309 C18.6919382,34.7119154 21.283265,37.302865 24.4801496,37.3032423 C24.8353171,37.3032423 25.1234309,37.0151285 25.1234309,36.6600553 C25.1230537,36.3048878 24.8353171,36.016774 24.4801496,36.016774 Z" id="Fill-16" fill="#32364A"></path>
                            <path d="M23.8369626,28.2992846 C23.8369626,26.878426 21.8214862,26.3696293 19.3348423,26.3696293 C16.8481041,26.3696293 14.8330049,26.878426 14.8330049,28.2992846 C14.8330049,29.7198602 16.8481041,31.5150309 19.3348423,31.5150309 C21.8214862,31.5150309 23.8369626,29.7198602 23.8369626,28.2992846 Z" id="Fill-17" fill="#32364A"></path>
                            <path d="M13.5466309,18.3301691 C13.5466309,18.8629203 13.1145073,19.2950439 12.5817561,19.2950439 C12.048722,19.2950439 11.6173528,18.8629203 11.6173528,18.3301691 C11.6173528,17.7975122 12.048722,17.3653886 12.5817561,17.3653886 C13.1145073,17.3653886 13.5466309,17.7975122 13.5466309,18.3301691 Z" id="Fill-18" fill="#32364A"></path>
                            <path d="M26.4094276,18.3301691 C26.4094276,18.8629203 25.9773041,19.2950439 25.4450244,19.2950439 C24.9118959,19.2950439 24.4801496,18.8629203 24.4801496,18.3301691 C24.4801496,17.7975122 24.9118959,17.3653886 25.4450244,17.3653886 C25.9773041,17.3653886 26.4094276,17.7975122 26.4094276,18.3301691 Z" id="Fill-19" fill="#32364A"></path>
                        </g>
                    </g>
                </g>
            </g>
        </g>
    </g>
</svg>