<?xml version="1.0" encoding="UTF-8"?>
<svg width="60px" height="60px" viewBox="0 0 60 60" version="1.1" xmlns="http://www.w3.org/2000/svg" xmlns:xlink="http://www.w3.org/1999/xlink">
    <!-- Generator: sketchtool 58 (101010) - https://sketch.com -->
    <title>431A14AD-1CEC-4F0F-9B66-084606596F5D</title>
    <desc>Created with sketchtool.</desc>
    <defs>
        <polygon id="path-1" points="0.0945021716 0 29.3289125 0 29.3289125 38.6607932 0.0945021716 38.6607932"></polygon>
    </defs>
    <g id="2048---multuplay" stroke="none" stroke-width="1" fill="none" fill-rule="evenodd">
        <g id="2048avatars-dark" transform="translate(-428.000000, -98.000000)">
            <g id="AvatarProfile-60px-lvl7" transform="translate(428.000000, 98.000000)">
                <circle id="avatarbase" fill="#313341" cx="30" cy="30" r="30"></circle>
                <g id="AVATAR_7lvl---dark" transform="translate(10.000000, 10.000000)">
                    <g id="lvl_07" transform="translate(2.000000, 0.666667)">
                        <g id="009-cat">
                            <g id="Group-4" transform="translate(3.317073, 0.000000)">
                                <mask id="mask-2" fill="white">
                                    <use xlink:href="#path-1"></use>
                                </mask>
                                <g id="Clip-2"></g>
                                <path d="M27.1139512,0.990747679 L21.6425366,9.35615865 L7.78126829,9.35615865 L2.30946341,0.990747679 C1.78731707,0.350643038 0.758731707,0.723115612 0.758731707,1.55244219 L0.758731707,23.90853 C0.758731707,31.6912 7.00536585,38.0001316 14.7119024,38.0001316 C22.4176585,38.0001316 28.6645854,31.6912 28.6645854,23.90853 L28.6645854,1.55244219 C28.6645854,0.723115612 27.6357073,0.350643038 27.1139512,0.990747679 Z" id="Fill-1" stroke="#32364A" stroke-width="1.17700658" fill="#E6925F" stroke-linecap="round" stroke-linejoin="round" mask="url(#mask-2)"></path>
                            </g>
                            <path d="M14.0423415,17.6669468 C14.0423415,18.2194397 13.596,18.6667983 13.0453659,18.6667983 C12.4954146,18.6667983 12.0491707,18.2194397 12.0491707,17.6669468 C12.0491707,17.1143561 12.4954146,16.6666059 13.0453659,16.6666059 C13.596,16.6666059 14.0423415,17.1143561 14.0423415,17.6669468 Z" id="Fill-5" fill="#32364A"></path>
                            <path d="M24.0083902,17.6669468 C24.0083902,18.2194397 23.5625366,18.6667983 23.0118049,18.6667983 C22.4614634,18.6667983 22.0152195,18.2194397 22.0152195,17.6669468 C22.0152195,17.1143561 22.4614634,16.6666059 23.0118049,16.6666059 C23.5625366,16.6666059 24.0083902,17.1143561 24.0083902,17.6669468 Z" id="Fill-6" fill="#32364A"></path>
                            <path d="M21.155122,29.3334143 L14.902439,29.3334143 C13.6931707,29.3334143 12.7130732,28.3499105 12.7130732,27.1370498 L12.7130732,22.8627679 C12.7130732,21.6502008 13.6931707,20.666697 14.902439,20.666697 L21.155122,20.666697 C22.3636098,20.666697 23.3440976,21.6498093 23.3440976,22.8627679 L23.3440976,27.1370498 C23.3440976,28.3499105 22.3639024,29.3334143 21.155122,29.3334143 Z" id="Fill-7" fill="#FFA269"></path>
                            <path d="M18.3666341,23.6948354 L20.8806829,21.6084996 C21.2629268,21.2907477 21.0396098,20.666697 20.5430244,20.666697 L15.5148293,20.666697 C15.0179512,20.666697 14.7938537,21.2907477 15.1767805,21.6084996 L17.6913171,23.6948354 C17.8868293,23.8577249 18.1707317,23.8577249 18.3666341,23.6948354 Z" id="Fill-8" fill="#32364A"></path>
                            <path d="M18.6931707,26.6666869 L18.6931707,23.9999595 C18.6931707,23.6320878 18.396,23.3334245 18.0289756,23.3334245 C17.661561,23.3334245 17.3642927,23.6320878 17.3642927,23.9999595 L17.3642927,26.6666869 C17.3642927,27.0349502 17.661561,27.3332219 18.0289756,27.3332219 C18.396,27.3332219 18.6931707,27.0349502 18.6931707,26.6666869" id="Fill-9" fill="#32364A"></path>
                            <path d="M17.3642927,27.0001013 C17.3646829,28.657384 18.7027317,29.9995578 20.3540488,29.9999494 C22.0057561,29.9995578 23.3437073,28.657384 23.3440976,27.0001013 C23.3440976,26.6319359 23.0465366,26.3336641 22.6795122,26.3336641 C22.312878,26.3336641 22.0152195,26.6319359 22.0152195,27.0001013 C22.0137561,27.9205637 21.2713171,28.6650194 20.3540488,28.6669772 C19.4370732,28.6650194 18.695122,27.9205637 18.6931707,27.0001013 C18.6931707,26.6319359 18.396,26.3336641 18.0289756,26.3336641 C17.661561,26.3336641 17.3642927,26.6319359 17.3642927,27.0001013 Z" id="Fill-10" fill="#32364A"></path>
                            <path d="M12.7133659,27.0001013 C12.7133659,28.657384 14.0518049,29.9995578 15.703122,29.9999494 C17.3548293,29.9995578 18.692878,28.657384 18.6931707,27.0001013 C18.6931707,26.6319359 18.396,26.3336641 18.0289756,26.3336641 C17.661561,26.3336641 17.3642927,26.6319359 17.3642927,27.0001013 C17.3628293,27.9205637 16.6207805,28.6650194 15.703122,28.6669772 C14.7858537,28.6650194 14.0438049,27.9205637 14.0423415,27.0001013 C14.0423415,26.6319359 13.7446829,26.3336641 13.3776585,26.3336641 C13.0106341,26.3336641 12.7133659,26.6319359 12.7133659,27.0001013 Z" id="Fill-11" fill="#32364A"></path>
                            <path d="M22.6211707,25.331757 L35.669561,23.9980017 C35.8520976,23.9793046 35.9851707,23.8160236 35.966439,23.6328709 C35.9478049,23.4501097 35.7850732,23.3162937 35.6021463,23.3349907 L22.5537561,24.6683544 C22.3712195,24.6870515 22.2385366,24.8507241 22.2572683,25.0338768 C22.2755122,25.2170295 22.4386341,25.3505519 22.6211707,25.331757" id="Fill-12" fill="#32364A"></path>
                            <path d="M23.1265366,23.3131612 L33.9786341,19.31307 C34.1509268,19.2496371 34.2397073,19.0580658 34.1760976,18.8851916 C34.1127805,18.7119257 33.9222439,18.6236287 33.7500488,18.6870616 L22.8974634,22.6868591 C22.7252683,22.7506835 22.6367805,22.9422549 22.7000976,23.1151291 C22.7633171,23.2879055 22.9542439,23.3763004 23.1265366,23.3131612" id="Fill-13" fill="#32364A"></path>
                            <path d="M13.5034146,24.6683544 L0.455414634,23.3349907 C0.272878049,23.3162937 0.109756098,23.4501097 0.0911219512,23.6328709 C0.0723902439,23.8160236 0.205365854,23.9793046 0.388,23.9980017 L13.4363902,25.331757 C13.6189268,25.3505519 13.7820488,25.2170295 13.8002927,25.0338768 C13.8190244,24.8507241 13.6859512,24.6870515 13.5034146,24.6683544" id="Fill-14" fill="#32364A"></path>
                            <path d="M13.1604878,22.6872506 L2.30790244,18.6874532 C2.13570732,18.6236287 1.94478049,18.7123173 1.88146341,18.8851916 C1.8182439,19.0580658 1.9062439,19.2496371 2.07892683,19.31307 L12.9310244,23.3131612 C13.1033171,23.376692 13.2942439,23.2879055 13.3574634,23.1151291 C13.4206829,22.9422549 13.3322927,22.7506835 13.1604878,22.6872506" id="Fill-15" fill="#32364A"></path>
                        </g>
                    </g>
                </g>
            </g>
        </g>
    </g>
</svg>