<?xml version="1.0" encoding="UTF-8"?>
<svg width="60px" height="60px" viewBox="0 0 60 60" version="1.1" xmlns="http://www.w3.org/2000/svg" xmlns:xlink="http://www.w3.org/1999/xlink">
    <!-- Generator: sketchtool 58 (101010) - https://sketch.com -->
    <title>5827B5FE-9130-4E2A-9A19-E00536CE34A0</title>
    <desc>Created with sketchtool.</desc>
    <defs>
        <polygon id="path-1" points="0.0579268293 0 37.963761 0 37.963761 38.661156 0.0579268293 38.661156"></polygon>
    </defs>
    <g id="2048---multuplay" stroke="none" stroke-width="1" fill="none" fill-rule="evenodd">
        <g id="2048avatars-dark" transform="translate(-360.000000, -166.000000)">
            <g id="AvatarProfile-60px-lvl15" transform="translate(360.000000, 166.000000)">
                <circle id="avatarbase" fill="#313341" cx="30" cy="30" r="30"></circle>
                <g id="AVATAR_15lvl---dark" transform="translate(10.000000, 10.000000)">
                    <g id="lvl_15" transform="translate(1.333333, 0.666667)">
                        <g id="006-lion">
                            <g id="Group-4">
                                <mask id="mask-2" fill="white">
                                    <use xlink:href="#path-1"></use>
                                </mask>
                                <g id="Clip-2"></g>
                                <path d="M0.689653659,13.6393222 L0.689653659,19.9705527 C0.689653659,21.6283515 1.21609268,23.2442692 2.19361951,24.5899794 L6.53016098,30.555943 C7.29006829,31.6021473 8.29697561,32.4473951 9.46274146,33.0196801 L15.4719317,37.2201108 C17.7016976,38.3147173 20.3196195,38.3147173 22.5498488,37.2201108 L28.559039,33.0196801 C29.7248049,32.4473951 30.7316195,31.6021473 31.4915268,30.555943 L35.828439,24.5899794 C36.8063366,23.2442692 37.3320341,21.6283515 37.3320341,19.9705527 L37.3320341,13.6393222 C37.3320341,11.6944165 36.6086439,9.81802692 35.300239,8.36862391 L32.0610634,4.78199208 C30.9386732,3.53850515 29.4481463,2.67929691 27.8027463,2.32661283 L20.6961902,0.80437688 C19.5853854,0.566498812 18.4363024,0.566498812 17.325961,0.80437688 L10.2194049,2.32661283 C8.57428293,2.67929691 7.08338537,3.53850515 5.96099512,4.78199208 L2.72181951,8.36862391 C1.4130439,9.81802692 0.689653659,11.6944165 0.689653659,13.6393222" id="Fill-1" stroke="#32364A" stroke-width="1.1041047" fill="#D8D8D8" stroke-linecap="round" stroke-linejoin="round" mask="url(#mask-2)"></path>
                            </g>
                            <path d="M7.61742439,5.30045606 C7.31981951,6.58591607 7.75274146,7.98581473 8.85770732,8.8709232 C9.9630439,9.75566429 11.4347561,9.88158353 12.6411171,9.32335075 C12.938722,8.03752336 12.5057073,6.63790024 11.4003707,5.75288361 C10.2954049,4.86814252 8.82332195,4.7418559 7.61742439,5.30045606 Z" id="Fill-7" stroke="#32364A" stroke-width="1.1041047" fill="#D8D8D8"></path>
                            <path d="M30.3308585,5.30045606 C30.6280927,6.58591607 30.195078,7.98581473 29.0901122,8.8709232 C27.9847756,9.75566429 26.5127854,9.88158353 25.3071659,9.32335075 C25.0091902,8.03752336 25.4422049,6.63790024 26.5471707,5.75288361 C27.6527854,4.86814252 29.1244976,4.7418559 30.3308585,5.30045606 Z" id="Fill-9" stroke="#32364A" stroke-width="1.1041047" fill="#D8D8D8"></path>
                            <path d="M21.5281122,30.8178844 L16.4932049,30.8178844 C13.2601463,30.8178844 10.5527854,27.7428282 10.2309902,23.7045954 L9.32186341,12.2899382 C9.09562439,9.4535867 11.3580146,7.02796516 14.2286829,7.02796516 L18.9992585,7.65434679 L23.7927268,7.02796516 C26.6637659,7.02796516 28.9257854,9.4535867 28.6994537,12.2899382 L27.7900488,23.7045954 C27.4685317,27.7428282 24.7611707,30.8178844 21.5281122,30.8178844 Z" id="Fill-11" stroke="#32364A" stroke-width="1.1041047" fill="#BFBFBF"></path>
                            <path d="M24.0649366,28.9397498 L24.0649366,30.8967791 C24.0649366,32.1625843 22.8941659,33.0767158 21.7178341,32.7283484 L19.0108439,31.9286556 L16.3034829,32.7283484 C15.1272439,33.0767158 13.9567512,32.1625843 13.9567512,30.8967791 L13.9567512,28.9397498" id="Fill-13" fill="#BFBFBF"></path>
                            <path d="M23.432839,28.9397498 L23.432839,30.8967791 C23.4320976,31.272057 23.2873268,31.5885542 23.0628488,31.8177989 C22.8368878,32.0463088 22.5382634,32.1772795 22.2272195,32.1769121 C22.1211902,32.1769121 22.0110829,32.1618496 21.8974537,32.1284181 L21.8984732,32.1284181 L19.1911122,31.3280823 C19.0731268,31.2932732 18.9481902,31.2932732 18.8302049,31.3280823 L16.1228439,32.1284181 C16.0102341,32.1618496 15.9008683,32.1769121 15.7937268,32.1769121 C15.4827756,32.1772795 15.1844293,32.0463088 14.958561,31.8177989 C14.7340829,31.5885542 14.5888488,31.272057 14.5881073,30.8967791 L14.5881073,28.9397498 C14.5881073,28.5942296 14.3050537,28.3140111 13.9563805,28.3140111 C13.6073366,28.3140111 13.3246537,28.5942296 13.3246537,28.9397498 L13.3246537,30.8967791 C13.3250244,32.3124751 14.4476927,33.4260934 15.7937268,33.4286682 C16.021078,33.4290325 16.2538976,33.3967031 16.4838439,33.3285542 L19.0104732,32.5815804 L21.5368244,33.3285542 L21.5379366,33.3289216 C21.7664,33.3959683 21.9987561,33.4290325 22.2268488,33.4286682 C23.5733463,33.4260934 24.6960146,32.3128424 24.6963854,30.8967791 L24.6963854,28.9397498 C24.6963854,28.5942296 24.413239,28.3140111 24.0646585,28.3140111 C23.7159854,28.3140111 23.432839,28.5942296 23.432839,28.9397498 Z" id="Fill-14" fill="#32364A"></path>
                            <path d="M25.3281122,23.753365 C25.3281122,21.2344291 22.4998927,21.4274869 19.0108439,21.4274869 C15.5215171,21.4274869 12.6928341,21.2347965 12.6928341,23.753365 C12.6928341,26.2719335 15.5215171,28.3140111 19.0108439,28.3140111 C22.4998927,28.3140111 25.3281122,26.2719335 25.3281122,23.753365 Z" id="Fill-15" fill="#D8D8D8"></path>
                            <path d="M22.8202976,16.893384 L21.5567512,21.9017736 C21.4716683,22.2368234 21.6780732,22.5769248 22.0161805,22.6608709 C22.3546585,22.7445416 22.6975854,22.5407379 22.7822976,22.2055962 L24.046122,17.1972067 C24.1304634,16.861422 23.9248927,16.5213207 23.586322,16.4377419 C23.2478439,16.3537957 22.9050098,16.5575075 22.8202976,16.893384" id="Fill-16" fill="#D8D8D8"></path>
                            <path d="M13.9755659,17.1968393 L15.2387415,22.2053207 C15.3238244,22.5407379 15.6670293,22.7445416 16.0052293,22.6608709 C16.3437073,22.5769248 16.5493707,22.2368234 16.4646585,21.9014062 L15.2014829,16.8930166 C15.1167707,16.5571401 14.7734732,16.3537957 14.4353659,16.4377419 C14.0965171,16.5213207 13.8908537,16.861422 13.9755659,17.1968393" id="Fill-17" fill="#D8D8D8"></path>
                            <path d="M19.0108439,26.6113001 L22.9509805,22.5238385 C23.3488683,22.1112716 23.0537659,21.4274869 22.4777415,21.4274869 L15.5432049,21.4274869 C14.9675512,21.4274869 14.6721707,22.1112716 15.0700585,22.5238385 L19.0108439,26.6113001 Z" id="Fill-18" fill="#32364A"></path>
                            <path d="M15.8520244,12.9755598 C15.8520244,13.4943911 15.427722,13.9144893 14.9042488,13.9144893 C14.3806829,13.9144893 13.9567512,13.4943911 13.9567512,12.9755598 C13.9567512,12.4571876 14.3806829,12.0363547 14.9042488,12.0363547 C15.427722,12.0363547 15.8520244,12.4571876 15.8520244,12.9755598 Z" id="Fill-19" fill="#32364A"></path>
                            <path d="M24.0649366,12.9755598 C24.0649366,13.4943911 23.6402634,13.9144893 23.117161,13.9144893 C22.5935951,13.9144893 22.1696634,13.4943911 22.1696634,12.9755598 C22.1696634,12.4571876 22.5935951,12.0363547 23.117161,12.0363547 C23.6402634,12.0363547 24.0649366,12.4571876 24.0649366,12.9755598 Z" id="Fill-20" fill="#32364A"></path>
                            <path d="M19.0108439,27.0616152 L19.6422927,27.0616152 C19.6422927,26.3702074 19.6422927,25.8108725 19.6422927,25.8094949 C19.6422927,25.6448171 19.5749122,25.4837213 19.4572976,25.366711 C19.3395902,25.2505273 19.1770244,25.1833888 19.0108439,25.1833888 C18.8442927,25.1833888 18.6813561,25.2505273 18.5641122,25.366711 C18.4464049,25.4837213 18.3787463,25.6448171 18.3787463,25.8094949 L18.3787463,28.3140111 C18.3787463,28.4786888 18.4464049,28.640152 18.5641122,28.7564276 C18.6817268,28.873346 18.8442927,28.9397498 19.0108439,28.9397498 C19.1770244,28.9397498 19.3395902,28.8729786 19.4572976,28.7564276 C19.5749122,28.640152 19.6422927,28.4786888 19.6422927,28.3140111 C19.6422927,28.3136437 19.6422927,27.7529311 19.6422927,27.0616152 L18.3787463,27.0616152 L18.3787463,28.3140111 C18.3787463,28.4786888 18.4464049,28.640152 18.5641122,28.7564276 C18.6817268,28.873346 18.8442927,28.9397498 19.0108439,28.9397498 C19.1770244,28.9397498 19.3395902,28.8729786 19.4572976,28.7564276 C19.5749122,28.640152 19.6422927,28.4786888 19.6422927,28.3140111 C19.6422927,28.3136437 19.6422927,27.7529311 19.6422927,27.0616152 C19.6422927,26.3702074 19.6422927,25.8108725 19.6422927,25.8094949 C19.6422927,25.6448171 19.5749122,25.4837213 19.4572976,25.366711 C19.3395902,25.2505273 19.1770244,25.1833888 19.0108439,25.1833888 C18.8442927,25.1833888 18.6813561,25.2505273 18.5641122,25.366711 C18.4464049,25.4837213 18.3787463,25.6448171 18.3787463,25.8094949 L18.3787463,27.0616152 L19.0108439,27.0616152 Z" id="Fill-21" fill="#54596E"></path>
                            <path d="M15.8520244,31.443899 C17.945361,31.4435313 19.641922,29.7627712 19.6422927,27.6879968 C19.6422927,27.3417419 19.3595171,27.0616152 19.0108439,27.0616152 C18.6618927,27.0616152 18.3787463,27.3417419 18.3787463,27.6879968 C18.3783756,28.3811496 18.0970829,29.0032146 17.6383951,29.4581219 C17.1792439,29.9123864 16.5515024,30.1915028 15.8520244,30.1918702 C15.5027024,30.1918702 15.2202976,30.4723642 15.2202976,30.8178844 C15.2202976,31.163772 15.5027024,31.444266 15.8520244,31.443899 Z" id="Fill-22" fill="#32364A"></path>
                            <path d="M22.1696634,30.1918702 C21.4698146,30.1915028 20.8420732,29.9127538 20.3826439,29.4581219 C19.9243268,29.0032146 19.6426634,28.3811496 19.6422927,27.6879968 C19.6422927,27.3417419 19.3595171,27.0616152 19.0108439,27.0616152 C18.6618927,27.0616152 18.3787463,27.3417419 18.3787463,27.6879968 C18.3791171,29.7627712 20.0755854,31.4435313 22.1696634,31.4438987 C22.5183366,31.4438987 22.8011122,31.163772 22.8011122,30.8178844 C22.8011122,30.4723642 22.5183366,30.1921457 22.1696634,30.1918702 Z" id="Fill-23" fill="#32364A"></path>
                        </g>
                    </g>
                </g>
            </g>
        </g>
    </g>
</svg>