<?xml version="1.0" encoding="UTF-8"?>
<svg width="60px" height="60px" viewBox="0 0 60 60" version="1.1" xmlns="http://www.w3.org/2000/svg" xmlns:xlink="http://www.w3.org/1999/xlink">
    <!-- Generator: sketchtool 58 (101010) - https://sketch.com -->
    <title>CD5134DB-4E52-4F96-92F6-FBBEA3D59AA7</title>
    <desc>Created with sketchtool.</desc>
    <defs>
        <polygon id="path-1" points="0.077804238 0 28.0875816 0 28.0875816 8.804043 0.077804238 8.804043"></polygon>
        <polygon id="path-3" points="0.0699191257 0.0326670025 11.8622077 0.0326670025 11.8622077 5.3121864 0.0699191257 5.3121864"></polygon>
    </defs>
    <g id="2048---multuplay" stroke="none" stroke-width="1" fill="none" fill-rule="evenodd">
        <g id="2048avatars-dark" transform="translate(-292.000000, -166.000000)">
            <g id="AvatarProfile-60px-lvl14" transform="translate(292.000000, 166.000000)">
                <circle id="avatarbase" fill="#313341" cx="30" cy="30" r="30"></circle>
                <g id="AVATAR_14lvl---dark" transform="translate(10.000000, 10.000000)">
                    <g id="lvl_14" transform="translate(5.333333, 0.666667)">
                        <g id="011-lioness">
                            <g id="Group-6" transform="translate(0.577049, 0.000000)">
                                <mask id="mask-2" fill="white">
                                    <use xlink:href="#path-1"></use>
                                </mask>
                                <g id="Clip-2"></g>
                                <path d="M0.879519126,1.18550831 C0.40162623,3.24210504 1.09697049,5.48036448 2.87101202,6.89587128 C4.64457268,8.31071335 7.00681967,8.51250806 8.9427235,7.61919849 C9.42061639,5.56307657 8.72527213,3.32481713 6.9516153,1.90959521 C5.17766995,0.494088413 2.81532678,0.292293703 0.879519126,1.18550831 Z" id="Fill-1" stroke="#32364A" stroke-width="1.14098361" fill="#EDEDED" stroke-linecap="round" stroke-linejoin="round" mask="url(#mask-2)"></path>
                                <path d="M27.285482,1.18550831 C27.7633749,3.24210504 27.0679344,5.48036448 25.2939891,6.89587128 C23.5207169,8.31071335 21.1584699,8.51250806 19.2225661,7.61919849 C18.7446732,5.56307657 19.4401137,3.32481713 21.2132896,1.90959521 C22.9873311,0.494088413 25.3495781,0.292293703 27.285482,1.18550831 Z" id="Fill-4" stroke="#32364A" stroke-width="1.14098361" fill="#EDEDED" stroke-linecap="round" stroke-linejoin="round" mask="url(#mask-2)"></path>
                            </g>
                            <path d="M17.7036765,35.0025033 L11.9252984,35.0025033 C8.21506448,35.0025033 5.10852022,30.8218866 4.73882404,25.3323108 L3.6956153,9.81339547 C3.43603934,5.9573597 6.03160656,2.66046146 9.32703825,2.66046146 L14.8015038,3.51170277 L20.3019366,2.66046146 C23.5969836,2.66046146 26.192647,5.9573597 25.9333596,9.81339547 L24.8897661,25.3323108 C24.5200699,30.8218866 21.4135257,35.0025033 17.7036765,35.0025033 Z" id="Fill-7" stroke="#32364A" stroke-width="1.14098361" fill="#D8D8D8" stroke-linecap="round" stroke-linejoin="round"></path>
                            <g id="Group-12" transform="translate(8.848087, 32.382116)">
                                <mask id="mask-4" fill="white">
                                    <use xlink:href="#path-3"></use>
                                </mask>
                                <g id="Clip-10"></g>
                                <path d="M11.2069683,0.679549622 L11.2069683,2.70195995 C11.2069683,4.00920982 9.99314536,4.95398892 8.77335956,4.59455693 L5.96620765,3.76734106 L3.15876721,4.59417708 C1.93926995,4.95360907 0.725062295,4.00920982 0.725062295,2.70195995 L0.725062295,0.679549622" id="Fill-9" fill="#D3D3D3" mask="url(#mask-4)"></path>
                                <path d="M10.5518251,0.679549622 L10.5518251,2.70195995 C10.5510557,3.08997557 10.4004459,3.41674055 10.1678951,3.65348136 C9.93342077,3.88936751 9.62383388,4.02440378 9.30155191,4.02440378 C9.19143169,4.02402393 9.07727213,4.00845013 8.95965027,3.97435869 L8.96080437,3.97464358 L6.15326776,3.14780756 C6.03083716,3.11153199 5.90119344,3.11153199 5.77876284,3.14780756 L2.9713224,3.97464358 C2.85485464,4.00882997 2.74175301,4.02402393 2.63057486,4.02440378 C2.30781202,4.02440378 1.99860984,3.88936751 1.76423169,3.65348136 C1.53129617,3.41645567 1.38097486,3.08997557 1.38030164,2.70195995 L1.38030164,0.679549622 C1.38030164,0.322396725 1.08687213,0.0330468514 0.725062295,0.0330468514 C0.363637158,0.0330468514 0.0699191257,0.322396725 0.0699191257,0.679549622 L0.0699191257,2.70195995 C0.0702076503,4.16456801 1.23450055,5.31532015 2.63057486,5.3178873 C2.8664918,5.31826398 3.10760219,5.28445743 3.34621202,5.21399547 L5.96620765,4.44242746 L8.58620328,5.21399547 L8.58697268,5.21399547 C8.82442842,5.2837927 9.06486557,5.3178873 9.30155191,5.3178873 C10.6975301,5.3149403 11.861823,4.16456801 11.8622077,2.7015801 L11.8622077,0.679549622 C11.8622077,0.322016877 11.5683934,0.0326670025 11.2069683,0.0326670025 C10.8452546,0.0326670025 10.5518251,0.322396725 10.5518251,0.679549622 Z" id="Fill-11" fill="#32364A" mask="url(#mask-4)"></path>
                            </g>
                            <path d="M8.26315191,25.4806418 C8.26315191,28.0831763 11.1961005,27.8836607 14.8142951,27.8836607 C18.4321049,27.8836607 21.3650536,28.0828914 21.3650536,25.4806418 C21.3650536,22.8781073 18.4321049,20.7685217 14.8142951,20.7685217 C11.1961005,20.7685217 8.26315191,22.8781073 8.26315191,25.4806418 Z" id="Fill-13" fill="#BFBFBF"></path>
                            <path d="M14.8142951,27.2062952 L17.5737443,24.5058547 C18.0046077,24.0844123 17.7021377,23.3591859 17.0958514,23.3591859 L12.5324503,23.3591859 C11.9268372,23.3591859 11.6239825,24.0840325 12.0549421,24.5058547 L14.8142951,27.2062952 Z" id="Fill-14" fill="#32364A"></path>
                            <path d="M11.5387716,12.0397846 C11.5387716,12.5754665 11.0983869,13.0098237 10.5563454,13.0098237 C10.0134383,13.0098237 9.57314973,12.5754665 9.57314973,12.0397846 C9.57314973,11.5038179 10.0134383,11.0693657 10.5563454,11.0693657 C11.0983869,11.0693657 11.5387716,11.5038179 11.5387716,12.0397846 Z" id="Fill-15" fill="#32364A"></path>
                            <path d="M20.0550557,12.0397846 C20.0550557,12.5754665 19.6151519,13.0098237 19.072341,13.0098237 C18.5298186,13.0098237 18.0895301,12.5754665 18.0895301,12.0397846 C18.0895301,11.5038179 18.5298186,11.0693657 19.072341,11.0693657 C19.6151519,11.0693657 20.0550557,11.5038179 20.0550557,12.0397846 Z" id="Fill-16" fill="#32364A"></path>
                            <path d="M14.8142951,27.8869844 L15.4695344,27.8869844 C15.4695344,27.1729635 15.4695344,26.5950234 15.4695344,26.593504 C15.4695344,26.4232368 15.3992306,26.256673 15.2775694,26.136166 C15.1554273,26.015564 14.9867366,25.9469063 14.8142951,25.9469063 C14.6418536,25.9469063 14.4731628,26.015564 14.3511169,26.136166 C14.2289749,26.256673 14.1591519,26.4232368 14.1591519,26.593504 L14.1591519,29.8278222 C14.1591519,29.9980894 14.2289749,30.1645582 14.3511169,30.2851602 C14.4731628,30.4053824 14.6418536,30.4747048 14.8142951,30.4747048 C14.9867366,30.4747048 15.155812,30.4053824 15.2775694,30.2851602 C15.3992306,30.1645582 15.4695344,29.9980894 15.4695344,29.8278222 C15.4695344,29.8278222 15.4695344,28.6014801 15.4695344,27.8869844 L14.1591519,27.8869844 L14.1591519,29.8278222 C14.1591519,29.9980894 14.2289749,30.1645582 14.3511169,30.2851602 C14.4731628,30.4053824 14.6418536,30.4747048 14.8142951,30.4747048 C14.9867366,30.4747048 15.155812,30.4053824 15.2775694,30.2851602 C15.3992306,30.1645582 15.4695344,29.9980894 15.4695344,29.8278222 C15.4695344,29.8278222 15.4695344,28.6014801 15.4695344,27.8869844 C15.4695344,27.1729635 15.4695344,26.5950234 15.4695344,26.593504 C15.4695344,26.4232368 15.3992306,26.256673 15.2775694,26.136166 C15.1554273,26.015564 14.9867366,25.9469063 14.8142951,25.9469063 C14.6418536,25.9469063 14.4731628,26.015564 14.3511169,26.136166 C14.2289749,26.256673 14.1591519,26.4232368 14.1591519,26.593504 L14.1591519,27.8869844 L14.8142951,27.8869844 Z" id="Fill-17" fill="#54596E"></path>
                            <path d="M11.5387716,33.7086431 C13.709823,33.7082632 15.468765,31.9714992 15.4695344,29.8278222 C15.4695344,29.4705743 15.1757202,29.1812244 14.8142951,29.1812244 C14.4524852,29.1812244 14.1591519,29.4705743 14.1591519,29.8278222 C14.1587672,30.5441222 13.8668765,31.1869214 13.3915803,31.6572693 C12.9152262,32.1265725 12.2645071,32.4147829 11.5387716,32.4151627 C11.1769617,32.4151627 10.8835322,32.7045126 10.8835322,33.0616655 C10.8835322,33.4192932 11.1769617,33.7086431 11.5387716,33.7086431 Z" id="Fill-18" fill="#32364A"></path>
                            <path d="M18.0895301,32.4151627 C17.3644678,32.4147829 16.7129792,32.1265725 16.2370098,31.6572693 C15.7618098,31.1869214 15.4699191,30.5437423 15.4695344,29.8278222 C15.4695344,29.4705743 15.1757202,29.1812244 14.8142951,29.1812244 C14.4524852,29.1812244 14.1591519,29.4705743 14.1591519,29.8278222 C14.1595366,31.9714992 15.9188634,33.7082632 18.0895301,33.7086431 C18.4513399,33.7086431 18.7442885,33.4189134 18.7442885,33.0616655 C18.7442885,32.7045126 18.4513399,32.4151627 18.0895301,32.4151627 Z" id="Fill-19" fill="#32364A"></path>
                            <path d="M7.83979016,23.1307068 C7.83074973,23.1217804 7.1429071,22.4422307 6.13268634,21.7563186 C5.12092678,21.0734453 3.79179016,20.3682559 2.44043716,20.3631243 C2.17028197,20.3627481 1.89945355,20.3919965 1.63237596,20.45847 C1.45656831,20.5014879 1.35019891,20.677263 1.39453552,20.8504741 C1.43887213,21.0241599 1.61621858,21.129473 1.79202623,21.0860753 C2.00159126,21.0337511 2.2179847,21.0096307 2.44043716,21.0096307 C3.55019891,21.0041229 4.80499235,21.6358116 5.76145137,22.2894365 C6.24049836,22.6147771 6.64693333,22.9415421 6.9320918,23.185595 C7.07452678,23.3083811 7.18714754,23.4097058 7.26274098,23.4801678 L7.34910601,23.5613605 L7.37613115,23.5881398 C7.50462077,23.7142496 7.71168525,23.7142496 7.83979016,23.5881398 C7.96789508,23.461935 7.96789508,23.2568166 7.83979016,23.1307068 Z" id="Fill-20" fill="#32364A"></path>
                            <path d="M7.72966995,24.9995632 C7.70302951,24.9894972 6.59547978,24.5540005 4.88837596,24.5536204 C3.6087694,24.5533358 1.9903388,24.7999526 0.255440437,25.6572715 C0.0935781421,25.7369448 0.028179235,25.9313325 0.10896612,26.0912489 C0.190137705,26.2511652 0.386911475,26.3160244 0.548869945,26.2358763 C2.18268852,25.4290773 3.6929224,25.2009781 4.88837596,25.2005982 C5.6851847,25.2005982 6.34157814,25.3029675 6.79494645,25.4039123 C7.02230383,25.4547171 7.19849617,25.5051421 7.31602186,25.5418924 L7.4478776,25.5860499 L7.47951913,25.5975403 L7.48663607,25.6001043 C7.65455738,25.6664829 7.84498361,25.58567 7.91230601,25.4202458 C7.97953224,25.254062 7.89759126,25.0659418 7.72966995,24.9995632 Z" id="Fill-21" fill="#32364A"></path>
                            <path d="M9.16633005,25.9562126 C9.15728962,25.9587766 7.83671257,26.2841171 6.41890273,26.8602529 C5.70961311,27.1492229 4.97589508,27.4997285 4.36278033,27.9132889 C3.75274317,28.3291285 3.24667104,28.8035597 3.03931803,29.4019166 C2.98180546,29.5714242 3.07499891,29.7547013 3.24667104,29.8111088 C3.41834317,29.8675164 3.60396066,29.7762577 3.66060765,29.6066552 C3.78121093,29.2345932 4.17572022,28.8198932 4.7324765,28.4470715 C5.5635235,27.8844204 6.72021858,27.4106539 7.66128962,27.0868327 C8.13206557,26.9243524 8.5501377,26.7982426 8.84924153,26.7129665 C8.99869727,26.6703285 9.11824262,26.6376615 9.20085683,26.6157252 C9.28279781,26.5942637 9.32559563,26.5838179 9.32559563,26.5838179 C9.50101858,26.5400403 9.60738798,26.3646451 9.56372459,26.191434 C9.51977268,26.018128 9.3421377,25.9131947 9.16633005,25.9562126 Z" id="Fill-22" fill="#32364A"></path>
                            <path d="M21.9245027,23.5881398 L21.9519126,23.5613605 C22.0957902,23.4233804 22.7912306,22.7742186 23.7224918,22.1674101 C24.6523104,21.5579426 25.8207388,21.0051675 26.8605814,21.0096307 C27.0830339,21.0096307 27.2997158,21.0333713 27.509377,21.0856955 C27.6844153,21.129473 27.8625311,21.0237801 27.9064831,20.8504741 C27.950435,20.677263 27.8441617,20.5018678 27.6690273,20.45847 C27.401565,20.3919965 27.1311213,20.3627481 26.8609661,20.3631243 C25.5096131,20.3682559 24.1804765,21.0734453 23.1683322,21.7563186 C22.1582077,22.4422307 21.4702689,23.1217804 21.4612284,23.1307068 C21.3331235,23.2568166 21.3331235,23.4615552 21.4609399,23.5881398 C21.5890448,23.7142496 21.7963978,23.7142496 21.9245027,23.5881398 Z" id="Fill-23" fill="#32364A"></path>
                            <path d="M21.8143825,25.6001043 L21.8215956,25.5971605 C21.9188284,25.5604101 22.9189508,25.1998385 24.4122579,25.2002184 C25.6080962,25.2005982 27.1183301,25.4290773 28.7521486,26.2354965 C28.9141071,26.3156446 29.1105923,26.2507854 29.1916678,26.0912489 C29.2724546,25.9313325 29.2071519,25.7373247 29.0455781,25.6572715 C27.3102951,24.7999526 25.6918645,24.5533358 24.4126426,24.5536204 C22.7055388,24.5536204 21.5979891,24.9891174 21.5713486,24.9995632 C21.4034273,25.065562 21.3214863,25.2536821 21.3888087,25.419866 C21.4556503,25.58567 21.6464612,25.6664829 21.8143825,25.6001043 Z" id="Fill-25" fill="#32364A"></path>
                            <path d="M19.975423,26.5838179 C19.9758077,26.5838179 20.0528437,26.6028103 20.1947978,26.641365 C20.6911563,26.7752617 21.9530667,27.1421008 23.1450579,27.6774028 C23.7409574,27.9441516 24.3186798,28.2542033 24.7687781,28.5888501 C25.2210885,28.9222625 25.5336568,29.2814096 25.6404109,29.6063703 C25.6970579,29.7758778 25.8826754,29.8671365 26.0543475,29.8111088 C26.2260197,29.7543214 26.3188284,29.5714242 26.2617005,29.4019166 C26.0543475,28.8035597 25.5483716,28.3291285 24.9382383,27.9132889 C24.0189027,27.2938504 22.8261421,26.8120121 21.8557377,26.4763207 C20.8861027,26.1420537 20.1411322,25.9581118 20.1344,25.9562126 C19.9588809,25.9128149 19.7808612,26.018128 19.737294,26.191434 C19.6933421,26.3646451 19.8,26.5404202 19.975423,26.5838179 Z" id="Fill-27" fill="#32364A"></path>
                        </g>
                    </g>
                </g>
            </g>
        </g>
    </g>
</svg>