<?xml version="1.0" encoding="UTF-8"?>
<svg width="60px" height="60px" viewBox="0 0 60 60" version="1.1" xmlns="http://www.w3.org/2000/svg" xmlns:xlink="http://www.w3.org/1999/xlink">
    <!-- Generator: sketchtool 58 (101010) - https://sketch.com -->
    <title>98CF9F9A-CF0A-4800-95AA-A02CB7D3B527</title>
    <desc>Created with sketchtool.</desc>
    <defs>
        <polygon id="path-1" points="0.0719111111 0.00359689922 9.73715556 0.00359689922 9.73715556 29.4042915 0.0719111111 29.4042915"></polygon>
    </defs>
    <g id="2048---multuplay" stroke="none" stroke-width="1" fill="none" fill-rule="evenodd">
        <g id="2048avatars-dark" transform="translate(-156.000000, -166.000000)">
            <g id="AvatarProfile-60px-lvl12" transform="translate(156.000000, 166.000000)">
                <circle id="avatarbase" fill="#313341" cx="30" cy="30" r="30"></circle>
                <g id="AVATAR_12lvl---dark" transform="translate(10.000000, 10.000000)">
                    <g id="lvl_12" transform="translate(4.666667, 0.666667)">
                        <g id="012-rhinoceros">
                            <path d="M30.2784889,4.20180775 C29.4375111,2.46972093 27.3677333,1.75591628 25.6555556,2.60703256 C23.9433778,3.45778915 21.1708444,6.57836899 22.0118222,8.31045581 C22.8531556,10.0429023 26.9892444,9.72988217 28.7017778,8.87876589 C30.4135111,8.0280093 31.1194667,5.93416434 30.2784889,4.20180775 Z" id="Fill-1" stroke="#32364A" stroke-width="1.07906977" fill="#FFA269" stroke-linecap="round" stroke-linejoin="round"></path>
                            <path d="M0.411466667,4.20180775 C1.25244444,2.46972093 3.32222222,1.75591628 5.03404444,2.60703256 C6.74622222,3.45778915 9.51911111,6.57836899 8.67813333,8.31045581 C7.8368,10.0429023 3.70035556,9.72988217 1.98853333,8.87876589 C0.276,8.0280093 -0.429866667,5.93416434 0.411466667,4.20180775 Z" id="Fill-3" stroke="#32364A" stroke-width="1.07906977" fill="#FFA269" stroke-linecap="round" stroke-linejoin="round"></path>
                            <path d="M20.7062222,38.5936496 L10.1868444,38.5936496 C7.40657778,38.5936496 5.15244444,36.3128558 5.15244444,33.4999907 L5.15244444,15.3148775 C5.15244444,9.56307597 9.76106667,4.90077519 15.4464889,4.90077519 C21.1319111,4.90077519 25.7413333,9.56307597 25.7413333,15.3148775 L25.7413333,33.4999907 C25.7413333,36.3132155 23.4868444,38.5936496 20.7062222,38.5936496 Z" id="Fill-5" stroke="#32364A" stroke-width="1.07906977" fill="#E6925F" stroke-linecap="round" stroke-linejoin="round"></path>
                            <path d="M19.9885333,36.755814 L10.9048889,36.755814 C8.73128889,36.755814 6.96906667,34.972831 6.96906667,32.7739566 L6.96906667,30.9361209 C6.96906667,28.7368868 8.73128889,26.9542636 10.9048889,26.9542636 L19.9885333,26.9542636 C22.1621333,26.9542636 23.9242667,28.7368868 23.9242667,30.9361209 L23.9242667,32.7739566 C23.9242667,34.9731907 22.1621333,36.755814 19.9885333,36.755814 Z" id="Fill-7" fill="#FFA269"></path>
                            <g id="Group-11" transform="translate(10.577778, 0.000000)">
                                <mask id="mask-2" fill="white">
                                    <use xlink:href="#path-1"></use>
                                </mask>
                                <g id="Clip-9"></g>
                                <path d="M4.90453333,0.612282171 L0.723644444,25.1122822 C0.395466667,27.0347442 1.85866667,28.7920992 3.78684444,28.7920992 L6.02222222,28.7920992 C7.95066667,28.7920992 9.41351111,27.0347442 9.08542222,25.1122822 L4.90453333,0.612282171 Z" id="Fill-8" stroke="#32364A" stroke-width="1.07906977" fill="#FFA269" stroke-linecap="round" stroke-linejoin="round" mask="url(#mask-2)"></path>
                            </g>
                            <path d="M10.6020444,18.071631 C10.6020444,18.5787938 10.1954667,18.9905488 9.69377778,18.9905488 C9.192,18.9905488 8.78577778,18.5787938 8.78577778,18.071631 C8.78577778,17.5640186 9.192,17.1527132 9.69377778,17.1527132 C10.1954667,17.1527132 10.6020444,17.5640186 10.6020444,18.071631 Z" id="Fill-12" fill="#32364A"></path>
                            <path d="M22.1076444,18.071631 C22.1076444,18.5787938 21.7014222,18.9905488 21.1996444,18.9905488 C20.6979556,18.9905488 20.2909333,18.5787938 20.2909333,18.071631 C20.2909333,17.5640186 20.6979556,17.1527132 21.1996444,17.1527132 C21.7014222,17.1527132 22.1076444,17.5640186 22.1076444,18.071631 Z" id="Fill-13" fill="#32364A"></path>
                            <path d="M21.5024,33.6928744 C20.8333333,33.6928744 20.2909333,33.1441674 20.2909333,32.4675907 L20.2909333,31.8550388 C20.2909333,31.1785519 20.8333333,30.629845 21.5024,30.629845 C22.1712,30.629845 22.7135111,31.1785519 22.7135111,31.8550388 L22.7135111,32.4675907 C22.7135111,33.1441674 22.1712,33.6928744 21.5024,33.6928744 Z" id="Fill-14" fill="#32364A"></path>
                            <path d="M9.39093333,33.6928744 C8.72222222,33.6928744 8.17982222,33.1441674 8.17982222,32.4675907 L8.17982222,31.8550388 C8.17982222,31.1785519 8.72222222,30.629845 9.39093333,30.629845 C10.0597333,30.629845 10.6020444,31.1785519 10.6020444,31.8550388 L10.6020444,32.4675907 C10.6020444,33.1441674 10.0597333,33.6928744 9.39093333,33.6928744 Z" id="Fill-15" fill="#32364A"></path>
                            <path d="M14.2353778,24.503876 C14.2353778,24.503876 12.4187556,24.503876 11.8135111,23.2783225" id="Fill-16" fill="#DFDFDF"></path>
                            <path d="M14.2353778,23.891324 L14.2353778,24.0065147 L14.2368,23.891324 L14.2353778,23.891324 L14.2353778,24.0065147 L14.2368,23.891324 C14.2180444,23.8919535 13.8065778,23.8814326 13.376,23.7493364 C13.1610667,23.6840527 12.9437333,23.5891845 12.7656,23.4651814 C12.5864889,23.3404589 12.4486222,23.1937054 12.3548444,23.0046884 C12.2052444,22.7019194 11.8416889,22.579355 11.5424,22.7306946 C11.2430222,22.882124 11.1218667,23.2502667 11.2715556,23.552676 C11.4774222,23.9699163 11.7874667,24.2794295 12.1111111,24.4965023 C12.5989333,24.8231907 13.1187556,24.9665271 13.5204444,25.0416124 C13.9222222,25.1157984 14.2096889,25.1161581 14.2351111,25.1164279 C14.5694222,25.1164279 14.8406226,24.8418047 14.8406226,24.503876 C14.8409778,24.1655876 14.5697778,23.891324 14.2353778,23.891324 Z" id="Fill-17" fill="#32364A"></path>
                            <path d="M14.8413333,15.9275194 C14.8413333,15.9275194 13.4788444,15.9275194 13.0246222,15.0082419" id="Fill-18" fill="#DFDFDF"></path>
                            <path d="M14.8413333,15.3148775 L14.8413333,15.5538016 L14.8437333,15.3148775 L14.8413333,15.3148775 L14.8413333,15.5538016 L14.8437333,15.3148775 C14.8385778,15.3155969 14.5409778,15.3078636 14.2402667,15.2147938 C14.0899556,15.1691132 13.9409778,15.1034698 13.8246222,15.022 C13.7065778,14.9401705 13.6232889,14.849169 13.5659556,14.7346078 C13.4163556,14.4318388 13.0528,14.3092744 12.7535111,14.460614 C12.4544889,14.6120434 12.3333333,14.9798264 12.4830222,15.2825953 C12.6510222,15.6236713 12.9041778,15.8748248 13.1639111,16.0493643 C13.5559111,16.3117581 13.9639111,16.4224527 14.2777778,16.4818016 C14.5916444,16.5390822 14.8156444,16.5398016 14.8409778,16.5398016 C15.1753778,16.5398016 15.4464889,16.2658078 15.4464889,15.9275194 C15.4464889,15.589231 15.1757333,15.3152372 14.8413333,15.3148775 Z" id="Fill-19" fill="#32364A"></path>
                            <path d="M16.0520889,20.8282946 C16.0520889,20.8282946 17.8690667,20.8282946 18.4746667,19.6031008" id="Fill-20" fill="#DFDFDF"></path>
                            <path d="M16.0520889,21.4405767 C16.0864889,21.4398574 16.5854222,21.4412062 17.2027556,21.2642388 C17.5111111,21.174676 17.8517333,21.0397922 18.1763556,20.8212806 C18.5,20.6034884 18.8100444,20.2946946 19.016,19.8770946 C19.1656,19.5739659 19.0444444,19.2065426 18.7448,19.0551132 C18.4458667,18.9041333 18.0823111,19.0266977 17.9326222,19.3294667 C17.8357333,19.5240589 17.692,19.674769 17.5045333,19.8015597 C17.2256889,19.9915659 16.8513778,20.1068465 16.5503111,20.1612496 C16.4,20.188676 16.2690667,20.2027039 16.1792,20.2093581 L16.0767111,20.2150233 L16.0537778,20.2156527 L16.0503111,20.2156527 L16.0520889,20.4549364 L16.0520889,20.2156527 L16.0503111,20.2156527 L16.0520889,20.4549364 L16.0520889,20.2156527 C15.7176889,20.2156527 15.4464889,20.4896465 15.4464889,20.8282946 C15.4464889,21.1665829 15.7176889,21.4405767 16.0520889,21.4405767 Z" id="Fill-21" fill="#32364A"></path>
                            <path d="M19.6857778,34.9179783 L19.6857778,31.2424868 C19.6874667,30.2276217 20.4992889,29.4064496 21.5024,29.4042915 C21.8364444,29.4042915 22.1076444,29.1302977 22.1076444,28.7920992 C22.1076444,28.4538109 21.8364444,28.1794574 21.5024,28.1794574 C19.8298667,28.1794574 18.4750222,29.5504155 18.4746667,31.2424868 L18.4746667,34.9179783 C18.4746667,35.2562667 18.7455111,35.5306202 19.0798222,35.5306202 C19.4142222,35.5306202 19.6857778,35.2562667 19.6857778,34.9179783 Z" id="Fill-22" fill="#32364A"></path>
                            <path d="M12.4187556,34.9179783 L12.4187556,31.2424868 C12.4184,29.5504155 11.0635556,28.1794574 9.39093333,28.1790977 C9.05662222,28.1790977 8.78577778,28.4534512 8.78577778,28.7920992 C8.78577778,29.1302977 9.05662222,29.4046512 9.39093333,29.4046512 C10.3941333,29.4064496 11.2058667,30.2276217 11.2076444,31.2424868 L11.2076444,34.9179783 C11.2076444,35.2562667 11.4792,35.5306202 11.8135111,35.5306202 C12.1479111,35.5306202 12.4187556,35.2562667 12.4187556,34.9179783 Z" id="Fill-23" fill="#32364A"></path>
                        </g>
                    </g>
                </g>
            </g>
        </g>
    </g>
</svg>