<?xml version="1.0" encoding="UTF-8"?>
<svg width="60px" height="60px" viewBox="0 0 60 60" version="1.1" xmlns="http://www.w3.org/2000/svg" xmlns:xlink="http://www.w3.org/1999/xlink">
    <!-- Generator: sketchtool 58 (101010) - https://sketch.com -->
    <title>BC2A5E87-03FB-4F2D-B441-B0E4D2BD3747</title>
    <desc>Created with sketchtool.</desc>
    <g id="2048---multuplay" stroke="none" stroke-width="1" fill="none" fill-rule="evenodd">
        <g id="2048avatars-dark" transform="translate(-156.000000, -234.000000)">
            <g id="AvatarProfile-60px-lvl21" transform="translate(156.000000, 234.000000)">
                <circle id="avatarbase" fill="#313341" cx="30" cy="30" r="30"></circle>
                <g id="AVATAR_21lvl---dark" transform="translate(10.000000, 10.000000)">
                    <g id="lvl_21" transform="translate(1.333333, 0.666667)">
                        <g id="007-bear">
                            <g id="Group-8" stroke="#32364A" stroke-linecap="round" stroke-linejoin="round" stroke-width="1.13447433">
                                <path d="M34.8344385,0.644759576 C36.7680554,5.15571312 31.6123423,13.5335224 31.6123423,13.5335224 L27.7457702,7.73380603 L34.8344385,0.644759576 Z" id="Fill-1" fill="#FFC973"></path>
                                <path d="M1.75742135,0.644759576 C-0.176195599,5.15571312 4.97951752,13.5335224 4.97951752,13.5335224 L8.84599511,7.73380603 L1.75742135,0.644759576 Z" id="Fill-4" fill="#FFC973"></path>
                                <path d="M30.1849845,8.99014181 C32.0916577,7.3888313 34.8344385,4.42898778 34.8344385,0.644759576 L25.7859658,4.60398044 C23.606357,2.96655583 21.2232991,1.93361695 18.7235795,1.93361695 C16.1325346,1.93361695 13.6649584,3.03783863 11.4214409,4.7808639 L1.9682445,0.644759576 C1.9682445,4.69814181 5.11423635,7.80537245 7.00984841,9.31025265 C2.75821679,14.8020538 0.035005705,21.8862787 0.035005705,25.1331443 C0.035005705,27.0667612 8.40175387,32.8668557 18.7235795,32.8668557 C29.0449324,32.8668557 37.4120587,27.0667612 37.4120587,25.1331443 C37.4120587,21.8227482 34.5806944,14.524013 30.1849845,8.99014181" id="Fill-6" fill="#FFBF58"></path>
                            </g>
                            <path d="M1.12882804,22.3065069 C0.829326813,23.4436284 0.67835209,24.4258941 0.679387123,25.1331443 C0.669838631,25.1405183 0.724104319,25.3594719 0.936440098,25.6427123 C1.14291443,25.9285998 1.47890791,26.2856756 1.92466178,26.6694116 C2.81654768,27.4393415 4.14671883,28.3242315 5.7967172,29.1484271 C9.09784841,30.8010725 13.6793284,32.2220962 18.7154491,32.2220962 L18.7453236,32.2220962 C25.347586,32.2220962 31.1776496,29.7640685 34.3402804,27.5749112 C35.3935452,26.8503602 36.1491051,26.1464189 36.5106243,25.6423341 C36.7233382,25.3594719 36.7776039,25.1405183 36.7680554,25.1331443 C36.7694735,24.4255159 36.6173594,23.4436284 36.3178582,22.3068851 C33.7290823,24.7789992 26.8288313,28.3556186 18.7235795,28.3556186 C10.6174768,28.3556186 3.71798207,24.778621 1.12882804,22.3065069" id="Fill-9" fill="#E6AC4F"></path>
                            <path d="M36.8337604,21.7625265 C36.6878859,21.9357229 36.5154458,22.1181842 36.3178582,22.3068851 C36.6173594,23.443912 36.7690954,24.4258941 36.7680554,25.1331443 C36.7772258,25.1405183 36.7233382,25.3594719 36.5106243,25.6423341 C36.148727,26.1464189 35.3931671,26.8503602 34.3402804,27.5749112 C31.1776496,29.7640685 25.347586,32.2220962 18.7453236,32.2220962 C18.7379495,32.2220962 18.7309535,32.2220962 18.7235795,32.2220962 C18.7213105,32.2220962 18.7176235,32.2220962 18.7154491,32.2220962 C13.6793284,32.2220962 9.09784841,30.8010725 5.79633904,29.1484271 C4.14671883,28.3238533 2.81654768,27.4393415 1.92428362,26.6694116 C1.47890791,26.2852975 1.14291443,25.9285998 0.936440098,25.6423341 C0.723726161,25.3594719 0.669460473,25.1405183 0.679008965,25.1331443 C0.678347188,24.4255159 0.829326813,23.4432502 1.12882804,22.3061288 C0.931618582,22.117806 0.7599348,21.9361011 0.613682152,21.7625265 C0.240345558,23.093454 0.035005705,24.2563847 0.035005705,25.1331443 C0.035005705,27.0667612 8.40175387,32.8668557 18.7235795,32.8668557 C29.0449324,32.8668557 37.4120587,27.0667612 37.4120587,25.1331443 C37.4120587,24.2560065 37.2082315,23.093454 36.8337604,21.7625265" id="Fill-10" fill="#32364A"></path>
                            <path d="M14.2484564,16.7892747 C12.6301288,17.9004923 11.5917066,19.6524042 11.5359283,21.7851214 C11.4196447,26.1775224 12.7878207,30.027361 14.832238,32.2220962 L22.6148264,32.2220962 C24.6596218,30.027361 26.0285542,26.1775224 25.9118924,21.7851214 C25.8531834,19.5918044 24.7570921,17.8011312 23.0590676,16.6954914" id="Fill-11" fill="#FFC973"></path>
                            <path d="M13.8831557,16.257868 C12.1087433,17.470621 10.9483651,19.4319381 10.8915469,21.7681043 C10.8867253,21.9475403 10.8845509,22.1266927 10.8845509,22.3047107 C10.8896561,26.6180766 12.2519707,30.3870839 14.3606748,32.6612323 C14.4832926,32.7926422 14.652802,32.8668557 14.832238,32.8668557 L22.6148264,32.8668557 C22.7938843,32.8668557 22.96415,32.7926422 23.0863896,32.6612323 C25.1950937,30.3870839 26.5577865,26.6176985 26.5628916,22.3043325 C26.5628916,22.1266927 26.560339,21.9475403 26.5558957,21.7681043 C26.4968085,19.3650986 25.2711035,17.3598207 23.4106601,16.155198 C23.1121989,15.9609193 22.7134311,16.0455322 22.5191524,16.3438989 C22.3244955,16.6415094 22.4091084,17.041128 22.7074751,17.2354067 C24.2429861,18.2424417 25.2098419,19.8186047 25.2674165,21.8024222 C25.2718598,21.9701353 25.2741288,22.1377539 25.2741288,22.3043325 C25.2792339,26.3422103 23.9616365,29.8409291 22.1428851,31.7830546 L22.6144482,32.2220962 L22.6144482,31.5780929 L14.832238,31.5780929 L14.832238,32.2220962 L15.3035175,31.7830546 C13.4850497,29.8409291 12.1682086,26.3422103 12.1733138,22.3047107 C12.1733138,22.1377539 12.1755827,21.9705134 12.1800261,21.802044 C12.2354262,19.8732486 13.1516088,18.3307416 14.6132844,17.319925 C14.906546,17.1186504 14.9811377,16.7172355 14.7794849,16.4236903 C14.5778321,16.1308068 14.1767954,16.0565933 13.8831557,16.257868 Z" id="Fill-12" fill="#32364A"></path>
                            <polygon id="Fill-13" fill="#32364A" points="23.8789144 35.4445705 13.5677718 35.4445705 13.5677718 30.2892355 18.7235795 27.0667612 23.8789144 30.2892355"></polygon>
                            <path d="M19.8280848,35.4445705 C20.6416919,35.4445705 21.3011997,34.7849682 21.3011997,33.9714556 C21.3011997,33.1578484 20.6416919,32.4983407 19.8280848,32.4983407 C19.3856398,32.4983407 18.9934898,32.6973464 18.7238631,33.0061125 C18.4535746,32.6973464 18.0614246,32.4983407 17.6193578,32.4983407 C16.8053725,32.4983407 16.1458647,33.1578484 16.1458647,33.9714556 C16.1458647,34.7849682 16.8053725,35.4445705 17.6193578,35.4445705 L19.8280848,35.4445705 Z" id="Fill-14" fill="#FF9999"></path>
                            <polygon id="Fill-15" fill="#FFC25F" points="14.8566292 33.5113317 14.8566292 29.6443814 17.4347221 29.6443814"></polygon>
                            <polygon id="Fill-16" fill="#FFC25F" points="22.590057 33.5113317 22.590057 29.6443814 20.0123423 29.6443814"></polygon>
                            <path d="M13.5677718,30.2892355 C16.4151133,30.2892355 18.7235795,27.9807694 18.7235795,25.1331443" id="Fill-17" fill="#FFC25F"></path>
                            <path d="M13.5677718,30.9332388 C16.7714328,30.9328606 19.3672046,28.3370888 19.3679609,25.1331443 C19.3679609,24.7774866 19.0791426,24.4886683 18.7235795,24.4886683 C18.3675436,24.4886683 18.0787253,24.7774866 18.0787253,25.1331443 C18.0787253,26.3809715 17.5750187,27.5047628 16.7578191,28.323097 C15.9393904,29.1402967 14.8153154,29.6440033 13.5677718,29.6440033 C13.2122086,29.6440033 12.9233904,29.9328215 12.9233904,30.2888574 C12.9233904,30.6447987 13.2122086,30.9332388 13.5677718,30.9332388 Z" id="Fill-18" fill="#32364A"></path>
                            <path d="M23.8789144,29.6443814 C22.6314654,29.6440033 21.507674,29.1402967 20.6893399,28.3234751 C19.8716675,27.5047628 19.368339,26.3809715 19.3679609,25.1331443 C19.3679609,24.7774866 19.0791426,24.4890465 18.7235795,24.4890465 C18.3675436,24.4890465 18.0787253,24.7774866 18.0787253,25.1331443 C18.0791035,28.3370888 20.6756316,30.9328606 23.8789144,30.9332388 C24.2348557,30.9332388 24.523674,30.6447987 24.523674,30.2892355 C24.523674,29.9328215 24.2348557,29.6443814 23.8789144,29.6443814 Z" id="Fill-20" fill="#32364A"></path>
                            <path d="M23.2348166,21.9110481 C23.2348166,20.4877555 21.2151687,19.9777148 18.7235795,19.9777148 C16.2318957,19.9777148 14.2126259,20.4877555 14.2126259,21.9110481 C14.2126259,23.3350024 16.2318957,25.1331443 18.7235795,25.1331443 C21.2151687,25.1331443 23.2348166,23.3350024 23.2348166,21.9110481 Z" id="Fill-21" fill="#32364A"></path>
                            <path d="M12.9233904,14.5003782 C12.9233904,15.0339593 12.4909666,15.4668557 11.9569128,15.4668557 C11.4229535,15.4668557 10.9905297,15.0339593 10.9905297,14.5003782 C10.9905297,13.9663244 11.4229535,13.5335224 11.9569128,13.5335224 C12.4909666,13.5335224 12.9233904,13.9663244 12.9233904,14.5003782 Z" id="Fill-22" fill="#32364A"></path>
                            <path d="M26.4569128,14.5003782 C26.4569128,15.0339593 26.0241108,15.4668557 25.4901516,15.4668557 C24.9560978,15.4668557 24.523674,15.0339593 24.523674,14.5003782 C24.523674,13.9663244 24.9560978,13.5335224 25.4901516,13.5335224 C26.0241108,13.5335224 26.4569128,13.9663244 26.4569128,14.5003782 Z" id="Fill-23" fill="#32364A"></path>
                            <path d="M10.0573301,12.8211671 L13.9241858,14.7544059 C14.0154165,14.7998794 14.1103341,14.8223798 14.2126259,14.8223798 L15.5014833,14.8223798 C15.8570465,14.8223798 16.1458647,14.5339397 16.1458647,14.1776202 C16.1458647,13.8219625 15.8570465,13.5335224 15.5014833,13.5335224 L14.3643619,13.5335224 L10.6341157,11.6678794 C10.315423,11.509053 9.92837816,11.6380049 9.76964629,11.9563195 C9.61006357,12.2750122 9.7392991,12.662057 10.0573301,12.8211671 Z" id="Fill-24" fill="#32364A"></path>
                            <path d="M26.8129487,11.6682575 L23.0823244,13.5335224 L21.9456756,13.5335224 C21.5896398,13.5335224 21.3011997,13.8223407 21.3011997,14.1779984 C21.3011997,14.5339397 21.5896398,14.8223798 21.9456756,14.8223798 L23.2348166,14.8223798 C23.3364466,14.8223798 23.4316479,14.7998794 23.5228786,14.7544059 L27.3894507,12.8211671 C27.7077653,12.662057 27.8366227,12.2750122 27.6777963,11.9563195 C27.5186862,11.6380049 27.1312632,11.509053 26.8129487,11.6682575 Z" id="Fill-25" fill="#32364A"></path>
                            <g id="Group-29" transform="translate(13.514262, 34.790546)" fill="#E6AC4F" stroke="#32364A" stroke-linecap="round" stroke-linejoin="round" stroke-width="1.15310228">
                                <path d="M9.83211084,0.661776691 L0.661776691,0.661776691 C0.661776691,2.12377261 1.83476998,3.30888346 3.28172116,3.30888346 L7.211782,3.30888346 C8.65873318,3.30888346 9.83211084,2.12377261 9.83211084,0.661776691 Z" id="Fill-26"></path>
                            </g>
                        </g>
                    </g>
                </g>
            </g>
        </g>
    </g>
</svg>