<svg xmlns="http://www.w3.org/2000/svg" xmlns:xlink="http://www.w3.org/1999/xlink" width="60" height="60" viewBox="0 0 60 60">
    <defs>
        <path id="a" d="M.05.004H23.28v38.574H.05z"/>
    </defs>
    <g fill="none" fill-rule="evenodd">
        <circle cx="30" cy="30" r="30" fill="#313341"/>
        <g transform="translate(18.667 10.667)">
            <mask id="b" fill="#fff">
                <use xlink:href="#a"/>
            </mask>
            <path fill="#FFF" stroke="#32364A" stroke-linecap="round" stroke-linejoin="round" stroke-width="1.062" d="M12.888.603h-2.446C5.04.603.66 4.92.66 10.247v16.878c0 5.993 4.928 10.85 11.006 10.85 6.077 0 11.004-4.857 11.004-10.85V10.247c0-5.326-4.379-9.644-9.782-9.644" mask="url(#b)"/>
            <path fill="#FFF" stroke="#32364A" stroke-linecap="round" stroke-linejoin="round" stroke-width="1.062" d="M12.583.603h-1.835C5.178.603.66 5.056.66 10.549v2.41c0 5.494 4.517 9.947 10.088 9.947h1.835c5.57 0 10.087-4.453 10.087-9.946v-2.411c0-5.493-4.516-9.946-10.087-9.946z" mask="url(#b)"/>
        </g>
        <path fill="#DFDFDF" d="M40.725 37.792c0 3.662-4.653 6.63-10.393 6.63-5.74 0-10.393-2.968-10.393-6.63 0 .322.015.64.044.955.462 4.92 4.45 8.832 9.45 9.255a10.748 10.748 0 0 0 1.853-.005c5.008-.45 8.99-4.402 9.404-9.351.023-.282.035-.567.035-.854"/>
        <path fill="#DFDFDF" stroke="#32364A" stroke-linecap="round" stroke-linejoin="round" stroke-width="1.062" d="M30.332 22.421c0 2.164-1.779 3.918-3.974 3.918-2.195 0-3.974-1.754-3.974-3.918s1.78-3.918 3.974-3.918c2.195 0 3.974 1.754 3.974 3.918z"/>
        <path fill="#DFDFDF" stroke="#32364A" stroke-linecap="round" stroke-linejoin="round" stroke-width="1.062" d="M38.28 22.421c0 2.164-1.78 3.918-3.974 3.918-2.195 0-3.974-1.754-3.974-3.918s1.78-3.918 3.974-3.918c2.195 0 3.974 1.754 3.974 3.918z"/>
        <path fill="#32364A" d="M35.223 22.722a.912.912 0 0 1-.917.905.912.912 0 0 1-.917-.905.607.607 0 0 0-.612-.602.607.607 0 0 0-.61.602c0 1.165.957 2.11 2.139 2.11s2.14-.944 2.14-2.11a.607.607 0 0 0-.612-.602.607.607 0 0 0-.61.602zM27.275 22.722c0 .5-.41.903-.917.905a.912.912 0 0 1-.917-.905.607.607 0 0 0-.611-.602.607.607 0 0 0-.612.602c0 1.165.958 2.11 2.14 2.11 1.182 0 2.14-.944 2.14-2.11a.607.607 0 0 0-.611-.602.607.607 0 0 0-.612.602z"/>
        <path fill="#DFDFDF" stroke="#32364A" stroke-linecap="round" stroke-linejoin="round" stroke-width="1.062" d="M24.218 48.642h-5.502V45.93c0-1.498 1.232-2.713 2.751-2.713 1.52 0 2.751 1.215 2.751 2.713v2.712z"/>
        <path fill="#32364A" d="M19.939 46.054v2.411c0 .333.273.603.611.603.338 0 .611-.27.611-.603v-2.411a.607.607 0 0 0-.61-.603.607.607 0 0 0-.612.603M21.773 46.054v2.411c0 .333.273.603.611.603.338 0 .612-.27.612-.603v-2.411a.607.607 0 0 0-.612-.603.607.607 0 0 0-.611.603"/>
        <path fill="#DFDFDF" stroke="#32364A" stroke-linecap="round" stroke-linejoin="round" stroke-width="1.062" d="M41.948 48.642h-5.502V45.93c0-1.498 1.232-2.713 2.75-2.713 1.52 0 2.752 1.215 2.752 2.713v2.712z"/>
        <path fill="#32364A" d="M37.668 46.054v2.411c0 .333.275.603.612.603.338 0 .611-.27.611-.603v-2.411a.607.607 0 0 0-.61-.603.608.608 0 0 0-.613.603M39.503 46.054v2.411c0 .333.273.603.611.603.338 0 .611-.27.611-.603v-2.411a.607.607 0 0 0-.61-.603.607.607 0 0 0-.612.603"/>
        <path fill="#DFDFDF" stroke="#32364A" stroke-linecap="round" stroke-linejoin="round" stroke-width="1.062" d="M30.332 24.34c-1.444.677-2.445 2.125-2.445 3.808 0 1.682 1 3.13 2.445 3.808 1.445-.678 2.445-2.126 2.445-3.808 0-1.683-1-3.13-2.445-3.808z"/>
        <path fill="#FFF" stroke="#32364A" stroke-linecap="round" stroke-linejoin="round" stroke-width="1.062" d="M39.503 38.395h1.834v-6.63h-8.56c0 3.661 3.012 6.63 6.726 6.63zM21.161 38.395h-1.834v-6.63h8.56c0 3.661-3.012 6.63-6.726 6.63z"/>
    </g>
</svg>
