<?xml version="1.0" encoding="UTF-8"?>
<svg width="60px" height="60px" viewBox="0 0 60 60" version="1.1" xmlns="http://www.w3.org/2000/svg" xmlns:xlink="http://www.w3.org/1999/xlink">
    <!-- Generator: sketchtool 58 (101010) - https://sketch.com -->
    <title>D6A32A42-3FEF-4334-9E96-35685C82EF1D</title>
    <desc>Created with sketchtool.</desc>
    <g id="2048---multuplay" stroke="none" stroke-width="1" fill="none" fill-rule="evenodd">
        <g id="2048avatars-dark" transform="translate(-88.000000, -166.000000)">
            <g id="AvatarProfile-60px-lvl11" transform="translate(88.000000, 166.000000)">
                <circle id="avatarbase" fill="#313341" cx="30" cy="30" r="30"></circle>
                <g id="AVATAR_11lvl---dark" transform="translate(10.000000, 10.000000)">
                    <g id="lvl_11" transform="translate(0.666667, 4.000000)">
                        <g id="022-mammal-1">
                            <path d="M2.77563721,1.35692479 L5.27701085,8.2144624 L10.8008589,2.73916435 L3.8832124,0.259030641 C3.19368682,0.0122116992 2.52664186,0.67378273 2.77563721,1.35692479 Z" id="Fill-1" stroke="#31374C" stroke-width="1.07906977" fill="#32364A" stroke-linecap="round" stroke-linejoin="round"></path>
                            <path d="M36.3117767,1.23953203 L33.6864899,8.21410585 L28.1626419,2.73916435 L35.1993457,0.136824513 C35.8934574,-0.119799443 36.5703938,0.551576602 36.3117767,1.23953203 Z" id="Fill-3" stroke="#31374C" stroke-width="1.07906977" fill="#32364A" stroke-linecap="round" stroke-linejoin="round"></path>
                            <path d="M23.7915101,1.46237326 L14.8755163,1.46237326 C9.14997209,1.46237326 4.35593488,5.43589972 3.78654574,10.6535933 L2.17603411,20.8245125 C1.7756093,24.4895376 5.78138605,27.6229526 10.8655132,27.6229526 L19.3129209,26.8143955 L27.8011535,27.6229526 C32.886,27.6229526 36.8910574,24.4891811 36.4909922,20.8245125 L34.8804806,10.6535933 C34.3110016,5.43589972 29.5170543,1.46237326 23.7915101,1.46237326 Z" id="Fill-5" stroke="#32364A" stroke-width="1.07906977" fill="#E6925F" stroke-linecap="round" stroke-linejoin="round"></path>
                            <path d="M27.925876,24.5811699 L27.925876,27.407688 C27.925876,29.0142841 26.3880217,32.0536602 24.658093,31.9829749 C24.3929116,31.9721894 21.8599752,30.6650028 19.3333333,30.6650028 C16.8007566,30.6650028 14.2748341,31.9721894 14.0089333,31.9829749 C12.2790047,32.0536602 10.7411504,29.0142841 10.7411504,27.407688 L10.7411504,24.5811699" id="Fill-7" stroke="#32364A" stroke-width="1.07906977" fill="#E6925F" stroke-linecap="round" stroke-linejoin="round"></path>
                            <path d="M26.698524,21.7949415 C26.698524,17.5679109 23.4008868,17.8913872 19.3333333,17.8913872 C15.2654202,17.8913872 11.9685023,17.5679109 11.9685023,21.7949415 C11.9685023,26.0216156 15.2654202,29.4481114 19.3333333,29.4481114 C23.4008868,29.4481114 26.698524,26.0216156 26.698524,21.7949415 Z" id="Fill-9" fill="#FFA269"></path>
                            <path d="M19.3333333,22.1155655 L23.0921829,19.6535265 C23.6186791,19.3088357 23.3721116,18.4972479 22.7415752,18.4972479 L15.9250915,18.4972479 C15.2941953,18.4972479 15.048707,19.3088357 15.574124,19.6535265 L19.3333333,22.1155655 Z" id="Fill-10" fill="#31374C"></path>
                            <path d="M19.5824186,5.33214485 L20.7183194,2.32869081 C20.9392589,1.74440111 20.504124,1.12187187 19.8746667,1.12187187 L18.7927194,1.12187187 C18.1636217,1.12187187 17.7277674,1.74440111 17.9489767,2.32869081 L19.0853271,5.33214485 C19.1717426,5.55988858 19.4960031,5.55988858 19.5824186,5.33214485 Z" id="Fill-11" fill="#32364A"></path>
                            <path d="M15.0374667,12.7176379 C15.0374667,13.2217939 14.6250822,13.6302173 14.1167504,13.6302173 C13.6081488,13.6302173 13.196124,13.2217939 13.196124,12.7176379 C13.196124,12.2137493 13.6081488,11.8050585 14.1167504,11.8050585 C14.6250822,11.8050585 15.0374667,12.2137493 15.0374667,12.7176379 Z" id="Fill-12" fill="#32364A"></path>
                            <path d="M25.471262,12.7176379 C25.471262,13.2217939 25.0588775,13.6302173 24.550276,13.6302173 C24.0423039,13.6302173 23.6299194,13.2217939 23.6299194,12.7176379 C23.6299194,12.2137493 24.0423039,11.8050585 24.550276,11.8050585 C25.0588775,11.8050585 25.471262,12.2137493 25.471262,12.7176379 Z" id="Fill-13" fill="#32364A"></path>
                            <g id="Group-19" transform="translate(0.000000, 20.233983)">
                                <path d="M19.3333333,3.13056267 L19.947324,3.13056267 C19.947324,2.45856267 19.947324,0.69918663 19.947324,0.696690808 C19.947324,0.536601671 19.8820403,0.379899721 19.7678388,0.266339833 C19.6533674,0.153582173 19.4952837,0.0887799443 19.333693,0.0887799443 C19.1721023,0.0887799443 19.0136589,0.153582173 18.8995473,0.266339833 C18.784986,0.379899721 18.7197023,0.536601671 18.7197023,0.696690808 L18.7197023,5.56372145 C18.7197023,5.72389972 18.7853457,5.88060167 18.8995473,5.99407242 C19.0136589,6.10727577 19.1717426,6.17198886 19.333693,6.17198886 C19.4952837,6.17198886 19.6533674,6.10727577 19.7678388,5.99407242 C19.8820403,5.88060167 19.947324,5.72389972 19.947324,5.56372145 C19.947324,5.56372145 19.947324,3.80220613 19.947324,3.13056267 L18.7197023,3.13056267 L18.7197023,5.56372145 C18.7197023,5.72389972 18.784986,5.88060167 18.8991876,5.99407242 C19.0136589,6.10727577 19.1717426,6.17198886 19.3333333,6.17198886 C19.4952837,6.17198886 19.6533674,6.10727577 19.7674791,5.99407242 C19.8820403,5.88060167 19.947324,5.72389972 19.947324,5.56372145 C19.947324,5.56372145 19.947324,3.80220613 19.947324,3.13056267 C19.947324,2.45856267 19.947324,0.69918663 19.947324,0.696690808 C19.947324,0.536601671 19.8816806,0.379899721 19.7674791,0.266339833 C19.6533674,0.153582173 19.4952837,0.0887799443 19.3333333,0.0887799443 C19.1717426,0.0887799443 19.0136589,0.153582173 18.8991876,0.266339833 C18.784986,0.379899721 18.7197023,0.536601671 18.7197023,0.696690808 L18.7197023,3.13056267 L19.3333333,3.13056267 Z" id="Fill-14" fill="#54596E"></path>
                                <path d="M8.9016062,1.01535376 C8.87984496,1.00866852 7.58900775,0.603721448 5.60010233,0.603454039 C4.10864806,0.603454039 2.22351318,0.831465181 0.193872868,1.63093036 C0.0361488372,1.69288022 -0.0407348837,1.86981616 0.0217612403,2.02580501 C0.0843472868,2.18206128 0.262753488,2.25836212 0.420477519,2.19641226 C2.36577054,1.43037326 4.17123411,1.21207799 5.60010233,1.21207799 C6.55202171,1.21207799 7.33677519,1.30923677 7.88017674,1.40594986 C8.15165271,1.45435097 8.36315039,1.50239554 8.50576744,1.537961 C8.57707597,1.55569916 8.63075969,1.57067409 8.66591938,1.58038997 L8.71582636,1.59509749 C8.87705736,1.64590529 9.04988837,1.55748189 9.10114419,1.39730362 C9.1524,1.23748189 9.0631969,1.06651811 8.9016062,1.01535376 Z" id="Fill-16" fill="#32364A"></path>
                                <path d="M8.83982946,2.52782173 C8.83308527,2.52924791 7.27913488,2.83462953 5.61628837,3.37363788 C4.78414574,3.64345404 3.92529612,3.97076323 3.21014264,4.35547632 C2.49885581,4.74446797 1.914,5.17410585 1.66113798,5.75037326 C1.59540465,5.90529248 1.66887132,6.08356546 1.82515659,6.1486351 C1.98144186,6.21379387 2.16164651,6.14070195 2.22737984,5.98605014 C2.36046512,5.64973816 2.83849302,5.24300836 3.50346977,4.89029526 C4.49648372,4.35413928 5.86924031,3.90667409 6.9848186,3.60066852 C7.54296744,3.44708635 8.03790078,3.32764345 8.39264496,3.24724234 C8.74738915,3.16639554 8.95888682,3.12503621 8.9596062,3.12467967 C9.12569302,3.09161003 9.23395969,2.9317883 9.20086822,2.76706407 C9.16750698,2.60198329 9.00627597,2.49510864 8.83982946,2.52782173 Z" id="Fill-17" fill="#32364A"></path>
                                <path d="M29.9512,1.59509749 L30.0007473,1.58038997 C30.2483938,1.51006128 31.4001209,1.21172145 33.0665643,1.21172145 C34.4957922,1.21207799 36.3012558,1.43037326 38.2465488,2.19605571 C38.4035535,2.25800557 38.5820496,2.18179387 38.6449054,2.02580501 C38.7074016,1.87008357 38.6305178,1.69323677 38.4727938,1.63093036 C36.4435132,0.831465181 34.5582884,0.603454039 33.0665643,0.603454039 C31.0780186,0.603454039 29.7871814,1.00831198 29.7650605,1.01535376 C29.6034698,1.06616156 29.5142667,1.23712535 29.5655225,1.39730362 C29.617138,1.55748189 29.7896093,1.64626184 29.9512,1.59509749 Z" id="Fill-18" fill="#32364A"></path>
                            </g>
                            <path d="M29.7074202,23.358663 C29.7077798,23.358663 29.8004899,23.3771142 29.9690946,23.4133036 C30.5585364,23.5404123 32.0524186,23.8861727 33.4686977,24.3927354 C34.1764775,24.645883 34.8642946,24.9401226 35.4031101,25.2590529 C35.9447132,25.5755766 36.3220279,25.926507 36.4400062,26.2193203 C36.5057395,26.3743287 36.6852248,26.4470641 36.8415101,26.382351 C36.9977953,26.3171922 37.0716217,26.1389192 37.0058884,25.984 C36.7530264,25.4077326 36.1685302,24.9780947 35.4568837,24.5891031 C34.3851876,24.0129248 32.9860837,23.5623398 31.846586,23.2482228 C30.7078078,22.9349081 29.8321426,22.7625181 29.8271969,22.7614485 C29.6607504,22.7287354 29.4991597,22.8359666 29.4661581,23.0006908 C29.4330667,23.1657716 29.5409736,23.3259499 29.7074202,23.358663 Z" id="Fill-20" fill="#32364A"></path>
                            <path d="M18.7197023,25.6459053 C18.720062,27.4940613 20.2311194,28.9916435 22.095662,28.9920005 C22.7922016,28.9923565 23.4452186,28.7810139 23.9833147,28.419922 C24.2639628,28.2315766 24.3373395,27.8533705 24.147693,27.5748189 C23.9580465,27.2969805 23.5765953,27.223532 23.2954977,27.412234 C22.9523535,27.6414039 22.5421271,27.7747521 22.095662,27.7751086 C20.909045,27.7729694 19.9494822,26.8217047 19.947324,25.6459053 C19.947324,25.3098607 19.6726109,25.0376379 19.3333333,25.0376379 C18.9943256,25.0376379 18.7197023,25.3098607 18.7197023,25.6459053 Z" id="Fill-21" fill="#31374C"></path>
                            <path d="M18.7291442,25.6459053 C18.727076,26.8217047 17.7674233,27.7729694 16.5812558,27.7751086 C16.134431,27.7747521 15.7241147,27.6414039 15.3809705,27.4118774 C15.1003225,27.223532 14.7185116,27.2969805 14.5287752,27.5748189 C14.338769,27.8533705 14.4125054,28.2315766 14.6935132,28.4202786 C15.2313395,28.7810139 15.8843566,28.9923565 16.5812558,28.9920005 C18.4460682,28.9916435 19.9564961,27.4940613 19.9568558,25.6459053 C19.9568558,25.3098607 19.6821426,25.0376379 19.3431349,25.0376379 C19.0038574,25.0376379 18.7291442,25.3098607 18.7291442,25.6459053 Z" id="Fill-22" fill="#31374C"></path>
                            <path d="M11.9685023,1.89272423 L14.423386,1.89272423 L14.423386,7.29243454 C14.423386,7.5473649 14.0658543,7.60967131 13.9783597,7.37051811 L11.9685023,1.89272423 Z" id="Fill-23" fill="#32364A"></path>
                            <path d="M26.698524,1.80358774 L24.2435504,1.80358774 L24.2435504,7.20329805 C24.2435504,7.45822841 24.6011721,7.52053482 24.6886667,7.28138162 L26.698524,1.80358774 Z" id="Fill-24" fill="#32364A"></path>
                            <path d="M35.9046977,13.6287911 L34.6577426,11.5331031 L30.6466605,13.8777493 C30.457014,13.9889025 30.5926171,14.3213816 30.8149953,14.2925014 L35.9046977,13.6287911 Z" id="Fill-25" fill="#32364A"></path>
                            <path d="M2.84658605,13.6287911 L4.09390078,11.5331031 L8.04491473,13.8429861 C8.23141395,13.9519109 8.09509147,14.2844791 7.8755907,14.2569359 L2.84658605,13.6287911 Z" id="Fill-26" fill="#32364A"></path>
                        </g>
                    </g>
                </g>
            </g>
        </g>
    </g>
</svg>