<?xml version="1.0" encoding="UTF-8"?>
<svg width="60px" height="60px" viewBox="0 0 60 60" version="1.1" xmlns="http://www.w3.org/2000/svg" xmlns:xlink="http://www.w3.org/1999/xlink">
    <!-- Generator: sketchtool 58 (101010) - https://sketch.com -->
    <title>9ACAE7F8-F6F0-4A63-85AF-9A551302E0C4</title>
    <desc>Created with sketchtool.</desc>
    <defs>
        <polygon id="path-1" points="0.022298103 0 33.9683035 0 33.9683035 38.6666667 0.022298103 38.6666667"></polygon>
    </defs>
    <g id="2048---multuplay" stroke="none" stroke-width="1" fill="none" fill-rule="evenodd">
        <g id="2048avatars-dark" transform="translate(-564.000000, -98.000000)">
            <g id="AvatarProfile-60px-lvl9" transform="translate(564.000000, 98.000000)">
                <circle id="avatarbase" fill="#313341" cx="30" cy="30" r="30"></circle>
                <g id="AVATAR_9lvl---dark" transform="translate(10.000000, 10.000000)">
                    <g id="lvl_09" transform="translate(3.333333, 0.666667)">
                        <g id="018-mammal">
                            <g id="Group-8">
                                <mask id="mask-2" fill="white">
                                    <use xlink:href="#path-1"></use>
                                </mask>
                                <g id="Clip-2"></g>
                                <path d="M33.3395339,23.0754988 L16.9953008,38.042881 L0.651067751,23.0754988 L0.651067751,10.0976675 C0.651067751,8.99854689 1.54879675,8.10765957 2.65623848,8.10765957 L31.3339946,8.10765957 C32.441897,8.10765957 33.3395339,8.99854689 33.3395339,10.0976675 L33.3395339,23.0754988 Z" id="Fill-1" stroke="#32364A" stroke-width="1.09290867" fill="#E6925F" stroke-linecap="round" stroke-linejoin="round" mask="url(#mask-2)"></path>
                                <polyline id="Fill-4" fill="#E6925F" mask="url(#mask-2)" points="4.42239566 9.97874232 0.651067751 9.97874232 0.651067751 0.623785658 8.1944607 9.97874232"></polyline>
                                <path d="M4.42239566,9.35495666 L1.27956098,9.35495666 L1.27956098,2.40162963 L7.7038103,10.3683341 C7.92052575,10.6371726 8.31608672,10.6811411 8.58707317,10.4657778 C8.85852033,10.2508716 8.9023794,9.85808038 8.68538753,9.58915051 L1.14208672,0.234559496 C0.974666667,0.0271489362 0.695756098,-0.0524696612 0.442737127,0.0353758865 C0.18999458,0.123221434 0.022298103,0.358146572 0.022298103,0.623785658 L0.022298103,9.97874232 C0.022298103,10.1430071 0.0896531165,10.3033412 0.206211382,10.4193412 C0.323598916,10.5357983 0.485582656,10.6021623 0.651067751,10.6021623 L4.42239566,10.6021623 C4.76976694,10.6021623 5.05116531,10.3229945 5.05116531,9.97874232 C5.05116531,9.63449015 4.76976694,9.3553223 4.42239566,9.35495666 Z" id="Fill-5" fill="#32364A" mask="url(#mask-2)"></path>
                                <polyline id="Fill-6" fill="#E6925F" mask="url(#mask-2)" points="29.5678374 9.97874232 33.3395339 9.97874232 33.3395339 0.623785658 25.7962331 9.97874232"></polyline>
                                <path d="M29.5678374,10.6021623 L33.3395339,10.6021623 C33.5051111,10.6021623 33.6670949,10.5357983 33.7843902,10.4197069 C33.9010407,10.3033412 33.9683035,10.1430071 33.9683035,9.97874232 L33.9683035,0.623785658 C33.9683035,0.358146572 33.800607,0.123221434 33.5479566,0.0353758865 C33.2953062,-0.0524696612 33.015935,0.0267832939 32.848607,0.234193853 L25.3053062,9.58915051 C25.0882222,9.85808038 25.1321734,10.2505059 25.4035285,10.4657778 C25.674607,10.6811411 26.070168,10.6371726 26.2871599,10.3683341 L32.7111328,2.40162963 L32.7111328,9.35495666 L29.5678374,9.35495666 C29.2205583,9.35495666 28.9394363,9.63449015 28.9394363,9.97874232 C28.9394363,10.3229945 29.2205583,10.6021623 29.5678374,10.6021623 Z" id="Fill-7" fill="#32364A" mask="url(#mask-2)"></path>
                            </g>
                            <path d="M8.82323035,30.5590071 L3.16522493,24.9461245 C2.99209214,24.7740898 2.99209214,24.4944649 3.16522493,24.3227045 L8.82323035,18.7095477 C10.5587967,16.9877384 13.3734255,16.9877384 15.1092683,18.7095477 C16.8452033,20.4317226 16.8452033,23.2239496 15.1092683,24.9461245 L9.45163144,30.5590071 C9.27813008,30.7314074 8.99673171,30.7314074 8.82323035,30.5590071 Z" id="Fill-9" fill="#32364A"></path>
                            <path d="M25.710542,30.5590071 L31.368271,24.9461245 C31.5416802,24.7740898 31.5416802,24.4944649 31.368271,24.3227045 L25.710542,18.7095477 C23.974607,16.9877384 21.1603469,16.9877384 19.4244119,18.7095477 C17.6885691,20.4317226 17.6885691,23.2239496 19.4244119,24.9461245 L25.0817724,30.5590071 C25.2556423,30.7314074 25.5374092,30.7314074 25.710542,30.5590071 Z" id="Fill-10" fill="#32364A"></path>
                            <path d="M25.710542,22.4516217 C25.710542,23.8292703 24.5850407,24.9461245 23.196477,24.9461245 C21.8075447,24.9461245 20.6816748,23.8292703 20.6816748,22.4516217 C20.6816748,21.073699 21.8075447,19.957119 23.196477,19.957119 C24.5850407,19.957119 25.710542,21.073699 25.710542,22.4516217 Z" id="Fill-11" fill="#EEE4DA"></path>
                            <path d="M13.8520976,22.4516217 C13.8520976,23.8292703 12.7262276,24.9461245 11.337664,24.9461245 C9.94910027,24.9461245 8.82323035,23.8292703 8.82323035,22.4516217 C8.82323035,21.073699 9.94910027,19.957119 11.337664,19.957119 C12.7262276,19.957119 13.8520976,21.073699 13.8520976,22.4516217 Z" id="Fill-12" fill="#EEE4DA"></path>
                            <path d="M12.5948347,22.4516217 C12.5948347,23.140766 12.0319458,23.6989188 11.337664,23.6989188 C10.6433821,23.6989188 10.0804011,23.140766 10.0804011,22.4516217 C10.0804011,21.7628432 10.6433821,21.2044161 11.337664,21.2044161 C12.0319458,21.2044161 12.5948347,21.7628432 12.5948347,22.4516217 Z" id="Fill-13" fill="#32364A"></path>
                            <path d="M24.5386016,22.4516217 C24.5386016,23.140766 23.9760813,23.6989188 23.2814309,23.6989188 C22.5875176,23.6989188 22.024168,23.140766 22.024168,22.4516217 C22.024168,21.7628432 22.5875176,21.2044161 23.2814309,21.2044161 C23.9760813,21.2044161 24.5386016,21.7628432 24.5386016,22.4516217 Z" id="Fill-14" fill="#32364A"></path>
                            <polygon id="Fill-15" fill="#32364A" points="13.2233279 34.3007155 20.7673659 34.3007155 16.9953008 37.4190954"></polygon>
                            <path d="M13.2233279,29.31171 L13.2233279,31.8065784 C13.2233279,32.1508306 13.5050949,32.4299984 13.8520976,32.4299984 C14.1993767,32.4299984 14.4804986,32.1508306 14.4804986,31.8065784 L14.4804986,29.31171 C14.4804986,28.9675493 14.1993767,28.6879243 13.8520976,28.6879243 C13.5050949,28.6879243 13.2233279,28.9675493 13.2233279,29.31171" id="Fill-16" fill="#32364A"></path>
                            <path d="M19.5097344,29.31171 L19.5097344,31.8065784 C19.5097344,32.1508306 19.7912249,32.4299984 20.1385041,32.4299984 C20.4855068,32.4299984 20.7673659,32.1508306 20.7673659,31.8065784 L20.7673659,29.31171 C20.7673659,28.9675493 20.4855068,28.6879243 20.1385041,28.6879243 C19.7912249,28.6879243 19.5097344,28.9675493 19.5097344,29.31171" id="Fill-17" fill="#32364A"></path>
                        </g>
                    </g>
                </g>
            </g>
        </g>
    </g>
</svg>