<svg xmlns="http://www.w3.org/2000/svg" width="60" height="60" viewBox="0 0 60 60">
    <g fill="none" fill-rule="evenodd">
        <circle cx="30" cy="30" r="30" fill="#313341"/>
        <path fill="#FFF" stroke="#32364A" stroke-width="1.155" d="M20.17 46.511c-1.191-1.064-2.614-2.983-3.86-5.332-2.123-4.002-2.929-7.733-1.799-8.335 1.13-.602 3.766 2.154 5.889 6.156 1.293 2.437 2.097 4.774 2.273 6.365l1.654-.757 4.415 4.643H16.171c-1.097 0-1.173-.373-.184-.825l4.183-1.915zM40.437 46.511c1.192-1.064 2.615-2.983 3.86-5.332 2.123-4.002 2.93-7.733 1.8-8.335-1.13-.602-3.766 2.154-5.89 6.156-1.292 2.437-2.097 4.774-2.273 6.365l-1.654-.757-4.415 4.643h12.572c1.097 0 1.173-.373.184-.825l-4.184-1.915z"/>
        <path fill="#FFF" stroke="#32364A" stroke-width="1.155" d="M30.181 49.27c-6.213 0-11.248-5.187-11.248-11.413s5.035-11.274 11.248-11.274c6.213 0 11.25 5.048 11.25 11.274 0 6.226-5.037 11.413-11.25 11.413z"/>
        <path fill="#FFF" stroke="#32364A" stroke-width="1.155" d="M41.142 17.77c.591-.752.95-1.726.95-2.793 0-2.38-1.778-4.31-3.97-4.31-1.26 0-2.38.638-3.107 1.631a12.503 12.503 0 0 0-4.834-.968c-1.713 0-3.345.346-4.834.968-.727-.993-1.847-1.631-3.106-1.631-2.193 0-3.97 1.93-3.97 4.31 0 1.067.358 2.041.949 2.793a12.556 12.556 0 0 0-1.61 6.16c0 6.96 5.628 12.6 12.571 12.6 6.944 0 12.572-5.64 12.572-12.6 0-2.239-.589-4.338-1.61-6.16z"/>
        <path fill="#32364A" d="M24.888 15.31c0-1.707-1.105-3.09-2.466-3.09-1.363 0-2.467 1.383-2.467 3.09 0 1.706 1.104 3.089 2.467 3.089 1.361 0 2.466-1.383 2.466-3.09zM40.467 15.31c0-1.728-1.117-3.128-2.496-3.128-1.378 0-2.496 1.4-2.496 3.127 0 1.727 1.118 3.127 2.496 3.127 1.379 0 2.496-1.4 2.496-3.127zM22.447 29.58a9.573 9.573 0 0 0 7.764 3.966 9.573 9.573 0 0 0 7.738-3.93.664.664 0 0 0-.142-.926.66.66 0 0 0-.924.142 8.253 8.253 0 0 1-6.672 3.388 8.252 8.252 0 0 1-6.694-3.42.66.66 0 0 0-.925-.147.664.664 0 0 0-.145.926z"/>
        <path fill="#FFF" d="M23.263 13.982a.662.662 0 1 1-1.323 0 .662.662 0 1 1 1.323 0zM38.482 13.982a.663.663 0 1 1-1.325.002.663.663 0 0 1 1.325-.002z"/>
    </g>
</svg>
