<?xml version="1.0" encoding="UTF-8"?>
<svg width="60px" height="60px" viewBox="0 0 60 60" version="1.1" xmlns="http://www.w3.org/2000/svg" xmlns:xlink="http://www.w3.org/1999/xlink">
    <!-- Generator: sketchtool 58 (101010) - https://sketch.com -->
    <title>37BE96DF-BC52-43FF-9F79-41447401DA35</title>
    <desc>Created with sketchtool.</desc>
    <defs>
        <polygon id="path-1" points="0.0482743822 0.0034587156 27.9773384 0.0034587156 27.9773384 35.9304346 0.0482743822 35.9304346"></polygon>
        <polygon id="path-3" points="0.00611599603 0.00824280984 11.6435261 0.00824280984 11.6435261 13.5754587 0.00611599603 13.5754587"></polygon>
    </defs>
    <g id="2048---multuplay" stroke="none" stroke-width="1" fill="none" fill-rule="evenodd">
        <g id="2048avatars-dark" transform="translate(-20.000000, -234.000000)">
            <g id="AvatarProfile-60px-lvl19" transform="translate(20.000000, 234.000000)">
                <circle id="avatarbase" fill="#313341" cx="30" cy="30" r="30"></circle>
                <g id="AVATAR_19lvl---dark" transform="translate(10.000000, 10.000000)">
                    <g id="lvl_19" transform="translate(4.000000, 1.333333)">
                        <g id="008-gorilla">
                            <path d="M6.42416014,14.6947856 C6.42416014,12.4145408 5.12184334,10.5659438 3.51495039,10.5659438 C1.90839861,10.5659438 0.605399478,12.4145408 0.605399478,14.6947856 C0.605399478,16.9753761 1.90839861,18.8239732 3.51495039,18.8239732 C5.12184334,18.8239732 6.42416014,16.9753761 6.42416014,14.6947856 Z" id="Fill-1" fill="#EDEDED"></path>
                            <path d="M6.42416014,14.6947856 L7.00593386,14.6947856 C7.00491036,13.4406553 6.65205918,12.2953016 6.0457215,11.4320062 C5.74182768,11.0010502 5.37200348,10.6396144 4.94392515,10.3825454 C4.51678503,10.125217 4.02738207,9.97519518 3.51495039,9.97588454 C3.00217755,9.97519518 2.51311575,10.125217 2.08597563,10.3825454 C1.44364491,10.7693163 0.933516101,11.3857459 0.578362054,12.1294562 C0.224231506,12.8752417 0.0239669278,13.7541014 0.0236257615,14.6947856 C0.0249904265,15.9492617 0.378182768,17.0942695 0.984520453,17.9579972 C1.28807311,18.3889532 1.6578973,18.7500431 2.08597563,19.0070257 C2.51311575,19.2644406 3.00217755,19.4147218 3.51495039,19.4140324 C4.02738207,19.4147218 4.51644386,19.2644406 4.94358399,19.0070257 C5.58625587,18.6203413 6.09664056,18.0039117 6.45119756,17.2601149 C6.80601044,16.5143294 7.00559269,15.6354697 7.00593386,14.6947856 L5.84247171,14.6947856 C5.84383638,15.7212459 5.54531593,16.6403131 5.09847346,17.271961 C4.87594778,17.5880876 4.61870844,17.8316677 4.35123412,17.9917197 C4.08196867,18.1528959 3.8057946,18.2335704 3.51495039,18.2342622 C3.22410618,18.2335704 2.94759095,18.1528959 2.67866667,17.9917197 C2.2771993,17.7522901 1.89910183,17.3212477 1.62616884,16.7474468 C1.35332115,16.1742511 1.1870879,15.464955 1.18742907,14.6947856 C1.1860644,13.6683252 1.48424369,12.749258 1.93142733,12.1176966 C2.15361184,11.8014835 2.41085117,11.5583358 2.67866667,11.3978514 C2.94759095,11.2367617 3.22410618,11.1560872 3.51495039,11.1553954 C3.8057946,11.1560872 4.08196867,11.2367617 4.35123412,11.3978514 C4.75270148,11.6373674 5.13079896,12.0683234 5.40339077,12.6422108 C5.67657963,13.2154064 5.84281288,13.9250484 5.84247171,14.6947856 L6.42416014,14.6947856 Z" id="Fill-2" fill="#32364A"></path>
                            <path d="M32.0259565,14.6947856 C32.0259565,12.4145408 30.7232985,10.5659438 29.1167467,10.5659438 C27.5098538,10.5659438 26.207537,12.4145408 26.207537,14.6947856 C26.207537,16.9753761 27.5098538,18.8239732 29.1167467,18.8239732 C30.7232985,18.8239732 32.0259565,16.9753761 32.0259565,14.6947856 Z" id="Fill-3" fill="#EDEDED"></path>
                            <path d="M32.0259565,14.6947856 L32.6077302,14.6947856 C32.6063655,13.4406553 32.2538555,12.2953016 31.6471767,11.4320062 C31.343624,11.0010502 30.974141,10.6396144 30.5457215,10.3825454 C30.1185814,10.125217 29.6295196,9.97519518 29.1170879,9.97588454 C28.6043151,9.97519518 28.1152533,10.125217 27.6881131,10.3825454 C27.0454413,10.7693163 26.5349713,11.3857459 26.1804996,12.1294562 C25.8256867,12.8752417 25.6261044,13.7541014 25.6257633,14.6947856 C25.6267868,15.9492617 25.9796379,17.0942695 26.5859756,17.9579972 C26.8898695,18.3889532 27.2593525,18.7500431 27.687772,19.0070257 C28.1152533,19.2644406 28.6043151,19.4147218 29.1167467,19.4140324 C29.6291784,19.4147218 30.1185814,19.2644406 30.5457215,19.0070257 C31.1880522,18.6203413 31.698181,18.0039117 32.0533351,17.2601149 C32.4074656,16.5143294 32.607389,15.6354697 32.6077302,14.6947856 L31.4442681,14.6947856 C31.4452916,15.7212459 31.1471123,16.6403131 30.7002698,17.271961 C30.4777441,17.5880876 30.2205048,17.8316677 29.9526893,17.9917197 C29.6834238,18.1528959 29.4075909,18.2335704 29.1167467,18.2342622 C28.8255614,18.2335704 28.5496432,18.1528959 28.280463,17.9917197 C27.8786545,17.7522901 27.5008982,17.3212477 27.2279652,16.7474468 C26.9551175,16.1742511 26.7885431,15.464955 26.7888842,14.6947856 C26.7878607,13.6683252 27.08604,12.749258 27.5328825,12.1176966 C27.7554082,11.8014835 28.0126475,11.5583358 28.280463,11.3978514 C28.5496432,11.2367617 28.8255614,11.1560872 29.1167467,11.1553954 C29.4075909,11.1560872 29.6834238,11.2367617 29.9526893,11.3978514 C30.3544978,11.6373674 30.7322541,12.0683234 31.0051871,12.6422108 C31.2780348,13.2154064 31.4446092,13.9250484 31.4442681,14.6947856 L32.0259565,14.6947856 Z" id="Fill-4" fill="#32364A"></path>
                            <g id="Group-8" transform="translate(2.302872, 0.000000)">
                                <mask id="mask-2" fill="white">
                                    <use xlink:href="#path-1"></use>
                                </mask>
                                <g id="Clip-6"></g>
                                <path d="M16.8444003,0.698833486 L14.0131471,1.12780069 L11.1815527,0.698833486 C10.0527189,0.527627064 8.89198607,0.542758945 7.79488077,0.859923165 C4.15932811,1.91137271 1.79376675,5.41202523 1.79376675,9.56819083 L0.630389904,25.312783 C0.630389904,32.4801929 6.94324456,35.3407236 14.0128059,35.3407236 C21.0823673,35.3407236 27.3955631,32.4801929 27.3955631,25.312783 L26.2318451,9.56819083 C26.2318451,5.41202523 23.8666249,1.91137271 20.2307311,0.859923165 C19.1336258,0.542758945 17.972893,0.527627064 16.8444003,0.698833486" id="Fill-5" stroke="#32364A" stroke-width="1.02976501" fill="#D8D8D8" stroke-linecap="round" stroke-linejoin="round" mask="url(#mask-2)"></path>
                            </g>
                            <path d="M3.52160313,25.3280014 L3.51460923,25.4219055 C3.51895909,27.1161573 3.89040383,28.5239411 4.53810792,29.7020661 C5.18947955,30.8849468 6.12529852,31.8431839 7.28910183,32.605139 C9.60826458,34.1274927 12.8466997,34.8374806 16.2999843,34.8374806 L16.3160191,34.8374806 C18.9093943,34.8377399 21.3851523,34.4411982 23.4385466,33.5971851 C25.4951819,32.7514427 27.1180244,31.4743119 28.0935892,29.7024119 C28.7409521,28.5239411 29.112738,27.1165032 29.1167467,25.4222514 L29.110094,25.3286931 C27.390275,29.9655337 22.10851,31.8880608 16.3160191,31.8880608 C10.5231871,31.8880608 5.24108094,29.9644961 3.52160313,25.3280014" id="Fill-9" fill="#BFBFBF"></path>
                            <path d="M23.0207032,20.0038275 L9.61099391,20.0038275 C8.68907746,20.0038275 8.00503916,19.0627975 8.20462141,18.0707514 L8.87202785,14.7590312 C9.01855875,14.0320956 9.60331767,13.5153635 10.2783151,13.5153635 L22.3533821,13.5153635 C23.0280383,13.5153635 23.6127972,14.0320956 23.7596693,14.7590312 L24.4270757,18.0707514 C24.6265727,19.0627975 23.9422785,20.0038275 23.0207032,20.0038275 Z" id="Fill-11" fill="#32364A"></path>
                            <path d="M12.8246945,16.1694954 C12.8246945,16.6582119 12.4338886,17.0544078 11.9518207,17.0544078 C11.4697528,17.0544078 11.0792028,16.6582119 11.0792028,16.1694954 C11.0792028,15.6807789 11.4697528,15.2849289 11.9518207,15.2849289 C12.4338886,15.2849289 12.8246945,15.6807789 12.8246945,16.1694954 Z" id="Fill-12" fill="#EEE4DA"></path>
                            <path d="M21.5524091,16.1694954 C21.5524091,16.6582119 21.1616031,17.0544078 20.6798764,17.0544078 C20.1978085,17.0544078 19.8070026,16.6582119 19.8070026,16.1694954 C19.8070026,15.6807789 20.1978085,15.2849289 20.6798764,15.2849289 C21.1616031,15.2849289 21.5524091,15.6807789 21.5524091,16.1694954 Z" id="Fill-13" fill="#D8D8D8"></path>
                            <path d="M18.292054,17.6442053 L14.3396432,17.6442053 C12.5388825,17.6442053 11.0792028,19.1239303 11.0792028,20.949181 L11.0792028,24.723072 L21.5524091,24.723072 L21.5524091,20.949181 C21.5524091,19.1239303 20.0928146,17.6442053 18.292054,17.6442053 Z" id="Fill-14" fill="#F2F2F2"></path>
                            <path d="M18.292054,17.6442053 L18.292054,17.0544078 L14.3396432,17.0544078 C12.2169922,17.0544078 10.4975144,18.7979463 10.4971732,20.949181 L10.4971732,24.723072 C10.4971732,24.8800977 10.5578155,25.0283901 10.6677563,25.1398472 C10.777356,25.2516502 10.923631,25.312783 11.0792028,25.312783 L21.5524091,25.312783 C21.7080661,25.312783 21.854,25.2516502 21.9639408,25.1398472 C22.0738816,25.0283901 22.1345239,24.8800977 22.1345239,24.723072 L22.1345239,20.949181 C22.1338416,18.7979463 20.414705,17.0544078 18.292054,17.0544078 L18.292054,18.2339163 C19.0333229,18.234608 19.6997058,18.5372456 20.1861236,19.0293344 C20.671859,19.5224608 20.9703795,20.1980344 20.9703795,20.9495268 L20.9703795,24.1330151 L11.6609765,24.1330151 L11.6609765,20.9495268 C11.6613177,20.1980344 11.9598381,19.5224608 12.4455735,19.0293344 C12.9319913,18.5372456 13.5980331,18.234608 14.3396432,18.2339163 L18.292054,18.2339163 L18.292054,17.6442053 Z" id="Fill-15" fill="#32364A"></path>
                            <g id="Group-19" transform="translate(10.490862, 24.124541)">
                                <mask id="mask-4" fill="white">
                                    <use xlink:href="#path-3"></use>
                                </mask>
                                <g id="Clip-17"></g>
                                <path d="M0.588341166,0.598530734 L1.75180331,7.88509335 C1.75180331,10.7021307 3.57559269,12.9860936 5.82481636,12.9860936 C8.0743812,12.9860936 9.89817058,10.7021307 9.89817058,7.88509335 L11.0615474,0.598530734" id="Fill-16" stroke="#32364A" stroke-width="1.02976501" fill="#BFBFBF" stroke-linecap="round" stroke-linejoin="round" mask="url(#mask-4)"></path>
                            </g>
                            <path d="M21.5524091,24.9027523 C20.2030966,24.3670837 18.354658,24.036344 16.3163603,24.036344 C14.2760157,24.036344 12.4268947,24.3674296 11.0768999,24.9037899" id="Fill-20" fill="#A9A9A9"></path>
                            <path d="M21.7646997,24.3538541 C20.32404,23.7830796 18.4176884,23.4476706 16.3163603,23.446633 C14.2127293,23.4480165 12.3056101,23.7837713 10.8643534,24.3548917 C10.5651506,24.4734392 10.4175962,24.8159385 10.5352132,25.1192679 C10.6524891,25.4225972 10.9899878,25.5721867 11.2891053,25.4532933 C12.5481793,24.9513472 14.3389608,24.6251039 16.3163603,24.6264874 C18.2917128,24.6251039 20.081812,24.950742 21.3405448,25.4522557 C21.6394064,25.5711491 21.9769051,25.4215596 22.094181,25.1182303 C22.2114569,24.8149009 22.0639025,24.4724016 21.7646997,24.3538541 Z" id="Fill-21" fill="#32364A"></path>
                            <path d="M19.3895004,19.5785784 C18.9027415,19.2938397 18.1657372,19.6629711 17.7439704,20.4037415 C17.3222037,21.1440796 17.3751697,21.9753819 17.8622698,22.2607259 C18.3493699,22.5454647 19.0856919,22.1763333 19.5074587,21.4355628 C19.9295666,20.6952248 19.8766005,19.8640089 19.3895004,19.5785784 Z" id="Fill-22" fill="#32364A"></path>
                            <path d="M14.8530983,20.401061 C14.4312463,19.6602906 13.6943272,19.2911592 13.2072272,19.5758979 C12.7204682,19.861242 12.6675022,20.6925443 13.0896101,21.4328823 C13.5110357,22.1736528 14.2476989,22.5427842 14.734799,22.2580454 C15.221899,21.9726149 15.2745239,21.1413991 14.8530983,20.401061 Z" id="Fill-23" fill="#32364A"></path>
                            <path d="M16.8977076,5.34311032 L16.8977076,1.21426858 C16.8977076,0.888025229 16.6371419,0.624211697 16.315678,0.624211697 C15.99447,0.624211697 15.7339896,0.888025229 15.7339896,1.21426858 L15.7339896,5.34311032 C15.7339896,5.6690078 15.99447,5.9331672 16.315678,5.9331672 C16.6371419,5.9331672 16.8977076,5.6690078 16.8977076,5.34311032" id="Fill-24" fill="#32364A"></path>
                        </g>
                    </g>
                </g>
            </g>
        </g>
    </g>
</svg>