<?xml version="1.0" encoding="UTF-8"?>
<svg width="60px" height="60px" viewBox="0 0 60 60" version="1.1" xmlns="http://www.w3.org/2000/svg" xmlns:xlink="http://www.w3.org/1999/xlink">
    <!-- Generator: sketchtool 58 (101010) - https://sketch.com -->
    <title>7D4B863F-F2BD-4ADA-BFBB-E81C9B76D986</title>
    <desc>Created with sketchtool.</desc>
    <defs>
        <polygon id="path-1" points="0.057055908 0 30.5888942 0 30.5888942 38.6666667 0.057055908 38.6666667"></polygon>
    </defs>
    <g id="2048---multuplay" stroke="none" stroke-width="1" fill="none" fill-rule="evenodd">
        <g id="2048avatars-dark" transform="translate(-88.000000, -234.000000)">
            <g id="AvatarProfile-60px-lvl20" transform="translate(88.000000, 234.000000)">
                <circle id="avatarbase" fill="#313341" cx="30" cy="30" r="30"></circle>
                <g id="AVATAR_20lvl---dark" transform="translate(10.000000, 10.000000)">
                    <g id="lvl_20" transform="translate(4.666667, 0.666667)">
                        <g id="004-shark">
                            <g id="Group-4">
                                <mask id="mask-2" fill="white">
                                    <use xlink:href="#path-1"></use>
                                </mask>
                                <g id="Clip-2"></g>
                                <path d="M4.70733333,21.0964973 C2.71355939,25.6630396 1.28086207,31.5113504 0.657482759,38.0523263 L29.9882107,38.0523263 C29.3648314,31.5109899 27.9321341,25.6630396 25.9380077,21.0964973 C27.2997663,20.3227133 27.909751,18.4696876 26.9875479,16.9568205 L17.9291609,2.09412898 C16.726728,0.121137529 13.9185249,0.121137529 12.7158276,2.09412898 L3.65744061,16.9568205 C2.73594253,18.4696876 3.3459272,20.3227133 4.70733333,21.0964973 Z" id="Fill-1" stroke="#32364A" stroke-width="1.08158508" fill="#D8D8D8" stroke-linecap="round" stroke-linejoin="round" mask="url(#mask-2)"></path>
                            </g>
                            <path d="M15.3226705,24.5384615 C18.5319195,24.5384615 21.3480536,27.4008765 22.9431609,31.7085594 C23.1852337,32.361296 24.1194215,32.22754 24.1920345,31.532892 C24.2832414,30.6582502 24.3314444,29.7576503 24.3314444,28.8380326 C24.3314444,20.3565128 20.2981609,13.4810567 15.3226705,13.4810567 C10.3475326,13.4810567 6.31416092,20.3565128 6.31416092,28.8380326 C6.31416092,29.7576503 6.361659,30.6582502 6.45321839,31.532892 C6.52627203,32.22754 7.46045977,32.361296 7.70244444,31.7085594 C9.29763985,27.4008765 12.113069,24.5384615 15.3226705,24.5384615 Z" id="Fill-5" stroke="#32364A" stroke-width="1.33333333" fill="#32364A"></path>
                            <path d="M6.64708812,18.0884289 C6.64708812,17.2401958 6.31072414,16.5525781 5.89628352,16.5525781 C5.48149042,16.5525781 5.14521456,17.2401958 5.14521456,18.0884289 C5.14521456,18.9365719 5.48149042,19.6241896 5.89628352,19.6241896 C6.31072414,19.6241896 6.64708812,18.9365719 6.64708812,18.0884289 Z" id="Fill-7" fill="#32364A"></path>
                            <path d="M25.5359042,18.0884289 C25.5359042,17.2401958 25.1999808,16.5525781 24.7855402,16.5525781 C24.3707471,16.5525781 24.0343831,17.2401958 24.0343831,18.0884289 C24.0343831,18.9365719 24.3707471,19.6241896 24.7855402,19.6241896 C25.1999808,19.6241896 25.5359042,18.9365719 25.5359042,18.0884289 Z" id="Fill-8" fill="#32364A"></path>
                            <path d="M14.1216475,5.49598446 C14.1216475,5.83497125 13.8527854,6.10996426 13.5210038,6.10996426 C13.1891341,6.10996426 12.920272,5.83497125 12.920272,5.49598446 C12.920272,5.15654701 13.1891341,4.881554 13.5210038,4.881554 C13.8527854,4.881554 14.1216475,5.15654701 14.1216475,5.49598446 Z" id="Fill-9" fill="#32364A"></path>
                            <path d="M17.725069,5.49598446 C17.725069,5.83497125 17.4558544,6.10996426 17.1243372,6.10996426 C16.7928199,6.10996426 16.524046,5.83497125 16.524046,5.49598446 C16.524046,5.15654701 16.7928199,4.881554 17.1243372,4.881554 C17.4558544,4.881554 17.725069,5.15654701 17.725069,5.49598446 Z" id="Fill-10" fill="#32364A"></path>
                            <polyline id="Fill-11" fill="#D8D8D8" points="12.920272 14.0341974 10.4246398 15.9477918 8.56542912 18.6841119 7.26703065 21.958791 6.51763602 25.5823714 6.3175977 29.2232572 7.81541762 27.9169728 6.34103831 27.6476581 8.11591571 26.3812121 6.70278161 24.3659487 9.01635249 24.2311111 7.44671264 21.3799627 9.91758238 23.3096908 8.32212261 19.1737995 9.91758238 20.2385299 9.09830651 17.7377249 11.719249 19.6241896 10.8184598 15.6312479 12.920272 18.3957793 12.920272 14.0954872 14.1216475 17.1673691 15.3226705 13.4814172"></polyline>
                            <polyline id="Fill-12" fill="#D8D8D8" points="17.7281533 14.0341974 20.2241379 15.9477918 22.0833487 18.6841119 23.3820996 21.958791 24.1311418 25.5823714 24.3314444 29.2232572 22.8330077 27.9169728 24.3077395 27.6476581 22.5328621 26.3812121 23.9462605 24.3659487 21.6320728 24.2311111 23.2024176 21.3799627 20.7315479 23.3096908 22.3266552 19.1737995 20.7315479 20.2385299 21.5504713 17.7377249 18.9295287 19.6241896 19.830318 15.6312479 17.7281533 18.3957793 17.7281533 14.0954872 16.5271303 17.1673691 15.3261073 13.4814172"></polyline>
                        </g>
                    </g>
                </g>
            </g>
        </g>
    </g>
</svg>