<svg width="20" height="20" viewBox="0 0 20 20" fill="none" xmlns="http://www.w3.org/2000/svg">
<rect width="20" height="20" rx="2" fill="#8E7966"/>
<g clip-path="url(#clip0)">
<path fill-rule="evenodd" clip-rule="evenodd" d="M6.8425 7.95699H13.2015V13.139C13.2015 13.4465 12.952 13.6965 12.6445 13.6965H12.0075V15.2745C12.009 15.4654 11.9346 15.649 11.8007 15.785C11.6668 15.9211 11.4844 15.9984 11.2935 16C11.1989 15.9993 11.1054 15.98 11.0182 15.9432C10.9311 15.9064 10.8521 15.8528 10.7857 15.7854C10.7193 15.718 10.6668 15.6382 10.6312 15.5506C10.5957 15.4629 10.5778 15.3691 10.5785 15.2745V13.6965H9.466V15.2745C9.46672 15.3691 9.4488 15.4629 9.41326 15.5506C9.37771 15.6382 9.32524 15.718 9.25884 15.7854C9.19243 15.8528 9.11341 15.9064 9.02627 15.9432C8.93913 15.98 8.84559 15.9993 8.751 16C8.65645 15.9993 8.56296 15.9799 8.47588 15.9431C8.3888 15.9062 8.30984 15.8526 8.24349 15.7852C8.17714 15.7179 8.12471 15.6381 8.0892 15.5504C8.05368 15.4628 8.03577 15.369 8.0365 15.2745V13.6965H7.4C7.0925 13.6965 6.8425 13.4465 6.8425 13.139V7.95699ZM5.5965 7.91449C5.198 7.91449 4.875 8.24249 4.875 8.64749V11.511C4.875 11.915 5.198 12.2435 5.5965 12.2435C5.995 12.2435 6.318 11.915 6.318 11.511V8.64749C6.318 8.24249 5.995 7.91449 5.5965 7.91449ZM13.2015 7.43449H6.8425C6.921 6.52949 7.509 5.74999 8.355 5.29849L7.75 4.40999C7.7294 4.38154 7.71471 4.34924 7.70682 4.31501C7.69893 4.28078 7.69799 4.24531 7.70405 4.21071C7.71012 4.1761 7.72307 4.14307 7.74213 4.11357C7.7612 4.08406 7.78599 4.05868 7.81504 4.03893C7.8441 4.01919 7.87682 4.00547 7.91127 3.9986C7.94572 3.99173 7.9812 3.99184 8.01561 3.99894C8.05001 4.00603 8.08264 4.01995 8.11157 4.03989C8.1405 4.05982 8.16513 4.08536 8.184 4.11499L8.843 5.08299C9.60689 4.81832 10.4376 4.81832 11.2015 5.08299L11.8605 4.11499C11.8799 4.08653 11.9047 4.06216 11.9334 4.04327C11.9622 4.02439 11.9945 4.01136 12.0283 4.00493C12.0621 3.9985 12.0969 3.99879 12.1306 4.00579C12.1643 4.0128 12.1963 4.02637 12.2247 4.04574C12.2532 4.06511 12.2776 4.0899 12.2965 4.11868C12.3154 4.14747 12.3284 4.1797 12.3348 4.21352C12.3412 4.24735 12.3409 4.28211 12.3339 4.31582C12.3269 4.34953 12.3134 4.38153 12.294 4.40999L11.69 5.29799C12.536 5.74899 13.123 6.52849 13.2015 7.43499V7.43449ZM9.0325 6.20399C9.03257 6.11077 8.9956 6.02133 8.92972 5.95537C8.86385 5.8894 8.77447 5.85231 8.68125 5.85224C8.58803 5.85217 8.49859 5.88914 8.43263 5.95501C8.36666 6.02089 8.32957 6.11027 8.3295 6.20349C8.3295 6.29671 8.36653 6.38612 8.43245 6.45204C8.49837 6.51796 8.58778 6.55499 8.681 6.55499C8.77422 6.55499 8.86363 6.51796 8.92955 6.45204C8.99547 6.38612 9.0325 6.29671 9.0325 6.20349V6.20399ZM11.7595 6.20399C11.7595 6.15776 11.7504 6.11199 11.7327 6.06928C11.715 6.02658 11.6891 5.98777 11.6564 5.95509C11.6237 5.9224 11.5849 5.89647 11.5422 5.87878C11.4995 5.86109 11.4537 5.85199 11.4075 5.85199C11.3613 5.85199 11.3155 5.86109 11.2728 5.87878C11.2301 5.89647 11.1913 5.9224 11.1586 5.95509C11.1259 5.98777 11.1 6.02658 11.0823 6.06928C11.0646 6.11199 11.0555 6.15776 11.0555 6.20399C11.0555 6.29735 11.0926 6.38688 11.1586 6.45289C11.2246 6.5189 11.3141 6.55599 11.4075 6.55599C11.5009 6.55599 11.5904 6.5189 11.6564 6.45289C11.7224 6.38688 11.7595 6.29735 11.7595 6.20399ZM14.4485 7.91399C14.05 7.91399 13.7265 8.24199 13.7265 8.64699V11.5115C13.7265 11.9165 14.05 12.2445 14.4485 12.2445C14.847 12.2445 15.169 11.916 15.169 11.5115V8.64649C15.169 8.24199 14.847 7.91349 14.4485 7.91349V7.91399Z" fill="#FAF8EF"/>
</g>
<defs>
<clipPath id="clip0">
<rect width="12" height="12" fill="white" transform="translate(4 4)"/>
</clipPath>
</defs>
</svg>
