<svg xmlns="http://www.w3.org/2000/svg" width="20" height="20" viewBox="0 0 20 20">
    <path fill="#8E7966" fill-rule="evenodd" d="M11.156 19.522l8.356-8.424c.326-.328.488-.72.488-1.178 0-.448-.162-.837-.488-1.165l-.962-.97a1.521 1.521 0 0 0-1.156-.492 1.52 1.52 0 0 0-1.155.492l-3.775 3.791V1.514c0-.448-.16-.813-.48-1.094-.321-.28-.71-.42-1.162-.42H9.178c-.454 0-.84.14-1.161.42-.321.281-.482.646-.482 1.094v10.062L3.774 7.785a1.584 1.584 0 0 0-1.168-.492c-.454 0-.843.164-1.168.492l-.963.97A1.652 1.652 0 0 0 0 9.92c0 .449.159.841.475 1.177l8.357 8.425A1.58 1.58 0 0 0 10 20c.47 0 .855-.16 1.156-.478z"/>
</svg>
