<svg xmlns="http://www.w3.org/2000/svg" width="18" height="18" viewBox="0 0 18 18">
    <g fill="none" fill-rule="evenodd" transform="translate(2 2)">
        <circle cx="7" cy="7" r="8" fill="#76C47D" stroke="#818A91" stroke-width="2"/>
        <path fill="#FAF7EE" d="M6.158 4.091l-2.925 2.71a.498.498 0 0 0 0 .752l.337.312a.556.556 0 0 0 .404.159.555.555 0 0 0 .405-.159L5.7 6.646v2.93a.43.43 0 0 0 .168.351.63.63 0 0 0 .407.136h.575a.63.63 0 0 0 .407-.136.43.43 0 0 0 .168-.351v-2.93l1.317 1.22a.58.58 0 0 0 .408.158.58.58 0 0 0 .41-.159l.336-.312a.51.51 0 0 0 0-.753L6.971 4.091a.579.579 0 0 0-.409-.153c-.164 0-.299.05-.404.153z"/>
    </g>
</svg>
