<svg xmlns="http://www.w3.org/2000/svg" width="20" height="20" viewBox="0 0 20 20">
    <path fill="#8E7966" fill-rule="evenodd" d="M19.522 11.156l-8.424 8.356c-.328.326-.72.488-1.178.488-.448 0-.837-.162-1.165-.488l-.97-.962a1.521 1.521 0 0 1-.492-1.156c0-.462.164-.847.492-1.155l3.791-3.775H1.514c-.448 0-.813-.16-1.094-.48-.28-.321-.42-.71-.42-1.162V9.178c0-.454.14-.84.42-1.161.281-.321.646-.482 1.094-.482h10.062L7.785 3.774a1.584 1.584 0 0 1-.492-1.168c0-.454.164-.843.492-1.168l.97-.963A1.652 1.652 0 0 1 9.92 0c.449 0 .841.159 1.177.475l8.425 8.357c.318.316.478.706.478 1.168 0 .47-.16.855-.478 1.156z"/>
</svg>
