<svg width="20" height="20" viewBox="0 0 20 20" fill="none" xmlns="http://www.w3.org/2000/svg">
<mask id="path-2-outside-1" maskUnits="userSpaceOnUse" x="4" y="7.33331" width="12" height="7" fill="black">
<rect fill="white" x="4" y="7.33331" width="12" height="7"/>
<path d="M15 9.16407C15.0003 9.27077 14.9768 9.3762 14.931 9.4726C14.8853 9.56901 14.8186 9.65394 14.7357 9.72116L10.4504 13.1708C10.3226 13.2759 10.1623 13.3333 9.99685 13.3333C9.83142 13.3333 9.67112 13.2759 9.54332 13.1708L5.25801 9.59975C5.11216 9.47851 5.02043 9.30431 5.00302 9.11545C4.98561 8.92659 5.04393 8.73855 5.16516 8.5927C5.28639 8.44684 5.4606 8.35512 5.64946 8.33771C5.83832 8.32029 6.02636 8.37862 6.17221 8.49985L10.0004 11.6924L13.8286 8.60698C13.9335 8.51965 14.0611 8.46417 14.1965 8.44711C14.3319 8.43006 14.4693 8.45214 14.5925 8.51074C14.7158 8.56935 14.8196 8.66203 14.8918 8.77781C14.964 8.89359 15.0015 9.02763 15 9.16407Z"/>
</mask>
<path d="M15 9.16407C15.0003 9.27077 14.9768 9.3762 14.931 9.4726C14.8853 9.56901 14.8186 9.65394 14.7357 9.72116L10.4504 13.1708C10.3226 13.2759 10.1623 13.3333 9.99685 13.3333C9.83142 13.3333 9.67112 13.2759 9.54332 13.1708L5.25801 9.59975C5.11216 9.47851 5.02043 9.30431 5.00302 9.11545C4.98561 8.92659 5.04393 8.73855 5.16516 8.5927C5.28639 8.44684 5.4606 8.35512 5.64946 8.33771C5.83832 8.32029 6.02636 8.37862 6.17221 8.49985L10.0004 11.6924L13.8286 8.60698C13.9335 8.51965 14.0611 8.46417 14.1965 8.44711C14.3319 8.43006 14.4693 8.45214 14.5925 8.51074C14.7158 8.56935 14.8196 8.66203 14.8918 8.77781C14.964 8.89359 15.0015 9.02763 15 9.16407Z" fill="#8E7966"/>
<path d="M15 9.16407C15.0003 9.27077 14.9768 9.3762 14.931 9.4726C14.8853 9.56901 14.8186 9.65394 14.7357 9.72116L10.4504 13.1708C10.3226 13.2759 10.1623 13.3333 9.99685 13.3333C9.83142 13.3333 9.67112 13.2759 9.54332 13.1708L5.25801 9.59975C5.11216 9.47851 5.02043 9.30431 5.00302 9.11545C4.98561 8.92659 5.04393 8.73855 5.16516 8.5927C5.28639 8.44684 5.4606 8.35512 5.64946 8.33771C5.83832 8.32029 6.02636 8.37862 6.17221 8.49985L10.0004 11.6924L13.8286 8.60698C13.9335 8.51965 14.0611 8.46417 14.1965 8.44711C14.3319 8.43006 14.4693 8.45214 14.5925 8.51074C14.7158 8.56935 14.8196 8.66203 14.8918 8.77781C14.964 8.89359 15.0015 9.02763 15 9.16407Z" stroke="#8E7966" stroke-width="0.8" mask="url(#path-2-outside-1)"/>
<rect x="1.25" y="1.25" width="17.5" height="17.5" rx="4.75" stroke="#8E7966" stroke-width="2.5"/>
</svg>
