<svg xmlns="http://www.w3.org/2000/svg" width="20" height="20" viewBox="0 0 20 20">
    <path fill="#8E7966" fill-rule="evenodd" d="M6.485 8.12l4.938-5.076c.242-.248.375-.584.375-.936 0-.353-.133-.686-.375-.935l-.768-.788A1.258 1.258 0 0 0 9.748 0c-.344 0-.666.136-.908.384L.374 9.066c-.242.249-.375.58-.374.933 0 .354.132.686.374.934l8.466 8.683c.242.248.564.384.908.384.343 0 .665-.136.907-.384l.768-.788c.242-.248.375-.578.375-.93 0-.353-.133-.666-.375-.914L6.43 11.88h12.269c.707 0 1.302-.626 1.302-1.351V9.414c0-.726-.612-1.302-1.32-1.302L6.485 8.12z"/>
</svg>
