<svg xmlns="http://www.w3.org/2000/svg" width="20" height="20" viewBox="0 0 20 20">
    <path fill="#8E7966" fill-rule="evenodd" d="M.478 11.156l8.424 8.356c.328.326.72.488 1.178.488.448 0 .837-.162 1.165-.488l.97-.962c.328-.309.492-.694.492-1.156a1.52 1.52 0 0 0-.492-1.155l-3.791-3.775h10.062c.448 0 .813-.16 1.094-.48.28-.321.42-.71.42-1.162V9.178c0-.454-.14-.84-.42-1.161-.281-.321-.646-.482-1.094-.482H8.424l3.791-3.761c.328-.325.492-.714.492-1.168 0-.454-.164-.843-.492-1.168l-.97-.963A1.652 1.652 0 0 0 10.08 0c-.449 0-.841.159-1.177.475L.478 8.832A1.58 1.58 0 0 0 0 10c0 .47.16.855.478 1.156z"/>
</svg>
