<svg xmlns="http://www.w3.org/2000/svg" width="20" height="22" viewBox="0 0 20 22">
    <path fill="#FAF7EE" fill-rule="evenodd" d="M17.071 5.869C18.96 7.654 20 10.026 20 12.55c0 2.524-1.04 4.897-2.929 6.681C15.182 21.017 12.671 22 10 22c-2.671 0-5.182-.983-7.071-2.768C1.04 17.448 0 15.075 0 12.551c0-2.525 1.04-4.897 2.929-6.682.204-.193.415-.375.633-.55L2.79 4.279l-.805.532a.706.706 0 0 1-.39.117.694.694 0 0 1-.56-.275.622.622 0 0 1 .168-.897l1.363-.902L3.93 1.95a.707.707 0 0 1 .95.158.622.622 0 0 1-.168.897l-.805.533.754 1.018a10.307 10.307 0 0 1 4.657-1.434V1.29H7.5c-.377 0-.682-.289-.682-.645C6.818.29 7.123 0 7.5 0h5c.377 0 .682.289.682.644 0 .356-.305.645-.682.645h-1.819v1.834a10.31 10.31 0 0 1 4.658 1.434l.754-1.018-.805-.533a.622.622 0 0 1-.168-.897.707.707 0 0 1 .95-.158l1.364.902 1.363.902a.622.622 0 0 1 .168.897.694.694 0 0 1-.56.275.706.706 0 0 1-.39-.117l-.805-.532-.772 1.042c.218.174.43.356.633.549zm-1.29 12.15c1.5-1.418 2.352-3.297 2.399-5.29.05-2.13-.802-4.132-2.397-5.64-1.595-1.508-3.714-2.313-5.967-2.266-2.108.044-4.095.85-5.596 2.268-1.501 1.419-2.353 3.298-2.4 5.29-.05 2.13.802 4.133 2.397 5.641 1.551 1.467 3.598 2.268 5.78 2.268.062 0 .124 0 .187-.002 2.108-.044 4.095-.85 5.596-2.268zM9.845 6.113c1.877-.04 3.643.631 4.973 1.888s2.039 2.926 1.998 4.7c-.04 1.66-.75 3.225-2.001 4.408a6.976 6.976 0 0 1-4.662 1.891c-1.878.04-3.643-.631-4.973-1.888s-2.039-2.927-1.998-4.7c.04-1.66.75-3.225 2.001-4.408a6.977 6.977 0 0 1 4.662-1.891zm4.018 7.083c.376 0 .681-.289.681-.644 0-.356-.305-.645-.681-.645H11.18a1.38 1.38 0 0 0-1.18-.644c-.752 0-1.364.578-1.364 1.289 0 .71.612 1.288 1.364 1.288.504 0 .944-.26 1.18-.644h2.684z"/>
</svg>
