<svg xmlns="http://www.w3.org/2000/svg" width="52" height="41" viewBox="0 0 52 41">
    <g fill="none" fill-rule="evenodd">
        <path fill="#EEE4DA" d="M46.64 16.816a1.078 1.078 0 0 1 1.501 1.503c-6.19 7.925-5.026 17.024-5.026 17.024.024.127.034.253.034.39 0 2.232-3.125 3.12-5.849 3.641-3 .576-6.953.896-11.15.906h-.244c-4.197-.01-8.15-.33-11.15-.906-2.725-.522-5.85-1.406-5.85-3.64 0-.138.011-.264.036-.391 0 0 1.163-9.097-5.028-17.024a1.076 1.076 0 0 1 1.5-1.503c2.708 1.944 6.51 4.528 8.224 4.528.338 0 .448-.102.527-.199.7-.863.51-3.89-.565-8.994a1.076 1.076 0 0 1 1.946-.823c3.697 5.517 5.39 6.677 6.158 6.677 1.088 0 2.195-3.136 3.297-9.32a1.07 1.07 0 0 1 .996-.88v-.008l.03.003c.01 0 .021-.003.032-.003v.008c.494.027.908.387.997.88 1.099 6.184 2.206 9.32 3.294 9.32.768 0 2.46-1.16 6.16-6.677a1.077 1.077 0 0 1 1.311-.393c.474.202.74.71.635 1.216-1.075 5.103-1.266 8.13-.564 8.994.077.097.187.199.526.199 1.714 0 5.516-2.584 8.222-4.528zm-20.49 20.38c6.672-.02 11.083-.796 13.028-1.463-1.947-.67-6.356-1.447-13.03-1.465h-.242c-6.671.018-11.083.795-13.03 1.465 1.947.667 6.359 1.444 13.03 1.463h.008c.04 0 .075.003.113.003.038 0 .075-.003.113-.003h.01zm3.133-33.96a3.256 3.256 0 1 1-6.508 0 3.256 3.256 0 0 1 6.508 0zm-14.28 3.935c0 1.5-1.214 2.716-2.711 2.716a2.713 2.713 0 0 1-2.71-2.716 2.713 2.713 0 0 1 2.71-2.714 2.713 2.713 0 0 1 2.71 2.714zm27.247 0a2.712 2.712 0 1 1-5.422 0 2.712 2.712 0 0 1 5.422 0zM3.656 14.904a1.828 1.828 0 1 1-3.656 0 1.828 1.828 0 0 1 3.656 0zm48.344 0a1.829 1.829 0 1 1-3.657 0 1.829 1.829 0 0 1 3.657 0z"/>
    </g>
</svg>
