<svg width="20" height="20" viewBox="0 0 20 20" fill="none" xmlns="http://www.w3.org/2000/svg">
<rect width="20" height="20" rx="2" fill="#8E7966"/>
<g clip-path="url(#clip0)">
<path d="M14.1587 6.24599C13.3937 5.90099 12.5737 5.64599 11.7162 5.50099C11.7086 5.49952 11.7007 5.50047 11.6936 5.50369C11.6865 5.50692 11.6806 5.51226 11.6767 5.51899C11.5717 5.70349 11.4547 5.94399 11.3727 6.13399C10.4633 5.99811 9.53869 5.99811 8.62924 6.13399C8.53791 5.92342 8.43491 5.7181 8.32074 5.51899C8.31687 5.51218 8.31102 5.50671 8.30396 5.50332C8.2969 5.49992 8.28898 5.49876 8.28124 5.49999C7.42424 5.64499 6.60424 5.89999 5.83874 6.24549C5.83215 6.24825 5.82657 6.25296 5.82274 6.25899C4.26674 8.54649 3.84024 10.7775 4.04974 12.9805C4.05032 12.9859 4.052 12.9911 4.05466 12.9958C4.05733 13.0006 4.06093 13.0047 4.06524 13.008C4.97344 13.6692 5.98641 14.1729 7.06174 14.498C7.06924 14.5003 7.07725 14.5003 7.08475 14.498C7.09224 14.4956 7.09886 14.4911 7.10374 14.485C7.33474 14.175 7.54074 13.8475 7.71674 13.5035C7.72724 13.4835 7.71724 13.4595 7.69624 13.4515C7.37324 13.3299 7.06028 13.1831 6.76024 13.0125C6.75485 13.0094 6.75031 13.005 6.74702 12.9998C6.74373 12.9945 6.7418 12.9885 6.74141 12.9823C6.74101 12.9761 6.74216 12.9699 6.74475 12.9643C6.74734 12.9586 6.75129 12.9537 6.75624 12.95C6.81924 12.9035 6.88224 12.855 6.94224 12.8065C6.94764 12.8021 6.95415 12.7993 6.96103 12.7985C6.96792 12.7976 6.97491 12.7986 6.98124 12.8015C8.94474 13.6835 11.0712 13.6835 13.0117 12.8015C13.0181 12.7985 13.0252 12.7973 13.0321 12.7981C13.0391 12.7989 13.0457 12.8016 13.0512 12.806C13.1112 12.855 13.1737 12.9035 13.2372 12.95C13.2422 12.9536 13.2463 12.9585 13.2489 12.9641C13.2516 12.9697 13.2528 12.9759 13.2525 12.982C13.2522 12.9882 13.2504 12.9943 13.2472 12.9996C13.244 13.0049 13.2396 13.0093 13.2342 13.0125C12.9352 13.1845 12.6242 13.33 12.2977 13.451C12.2927 13.4528 12.2882 13.4557 12.2843 13.4594C12.2805 13.4631 12.2775 13.4676 12.2756 13.4726C12.2737 13.4776 12.2728 13.4829 12.2731 13.4882C12.2734 13.4935 12.2748 13.4988 12.2772 13.5035C12.4572 13.847 12.6632 14.174 12.8897 14.4845C12.8944 14.4909 12.901 14.4956 12.9085 14.4981C12.916 14.5006 12.9242 14.5008 12.9317 14.4985C14.0089 14.1743 15.0235 13.6704 15.9327 13.008C15.9372 13.0049 15.9409 13.0009 15.9437 12.9962C15.9464 12.9916 15.9481 12.9864 15.9487 12.981C16.1987 10.434 15.5297 8.22099 14.1742 6.25999C14.1709 6.25361 14.1654 6.24865 14.1587 6.24599ZM8.01024 11.639C7.41924 11.639 6.93174 11.1045 6.93174 10.449C6.93174 9.79299 7.40974 9.25899 8.01024 9.25899C8.61524 9.25899 9.09824 9.79749 9.08874 10.449C9.08874 11.105 8.61074 11.639 8.01024 11.639ZM11.9977 11.639C11.4062 11.639 10.9192 11.1045 10.9192 10.449C10.9192 9.79299 11.3967 9.25899 11.9977 9.25899C12.6027 9.25899 13.0857 9.79749 13.0762 10.449C13.0762 11.105 12.6032 11.639 11.9977 11.639Z" fill="#FAF8EF"/>
</g>
<defs>
<clipPath id="clip0">
<rect width="12" height="12" fill="white" transform="translate(4 4)"/>
</clipPath>
</defs>
</svg>
