<svg xmlns="http://www.w3.org/2000/svg" width="52" height="52" viewBox="0 0 52 52">
    <g fill="none" fill-rule="evenodd">
        <path d="M0 0h52v52H0z"/>
        <path fill="#8E7966" d="M8.822 48.13c.217.347.331.748.329 1.157.004.6-.237 1.177-.667 1.598l-.46.457a2.292 2.292 0 0 1-3.213 0L.678 47.258A2.25 2.25 0 0 1 .67 44.07l.008-.008.46-.449a2.293 2.293 0 0 1 2.78-.285l1.291-1.295.615.613.615.605 2.452 2.418.607.604.623.605-1.3 1.252zm3.725-3.67l-1.222 1.2-.615-.605-.615-.613-2.443-2.409-.615-.613-.615-.605 1.213-1.2.624.604.615.614 2.443 2.409.615.613.615.605zm30.642 3.67l-1.308-1.252.624-.605.606-.604 2.452-2.418.615-.605.615-.613 1.3 1.295a2.293 2.293 0 0 1 2.78.285l.46.45.008.007c.88.882.877 2.31-.008 3.188l-4.132 4.084a2.292 2.292 0 0 1-3.215 0l-.459-.457c-.43-.421-.67-.997-.667-1.598-.002-.409.112-.81.33-1.157zm-3.725-3.67l.615-.605.615-.613 2.443-2.41.616-.613.623-.604 1.213 1.2-.615.605-.615.613-2.443 2.41-.615.612-.615.605-1.222-1.2zm-4.912-17.54l-7.39-8.342 7.72-8.636a.867.867 0 0 1 .71-.293c2.11.06 4.215-.233 6.229-.864A12.294 12.294 0 0 0 50.259.771a.874.874 0 0 1 1.732.242c0 .656.512 16.805-9.148 21.503a120.83 120.83 0 0 0-8.29 4.404zm-15.958 11.4l1.048.95.008.007c.881.883.878 2.31-.008 3.188l-.459.457a2.318 2.318 0 0 1-3.214 0l-.866-.863-1.213 1.2-1.239-1.217-2.443-2.41-.615-.604-.615-.613 1.221-1.2-.866-.821-.008-.008a2.249 2.249 0 0 1 .008-3.187l.46-.45a2.301 2.301 0 0 1 3.213 0l.867.864 3.941-4.482a106.2 106.2 0 0 1 6.706 4.318 66.655 66.655 0 0 0-5.926 4.87zM9.168 22.515C-.492 17.818.011 1.669.011 1.013A.877.877 0 1 1 1.744.737a12.294 12.294 0 0 0 8.447 8.048c2.013.631 4.118.923 6.229.864.27-.018.532.09.71.293l21.121 23.654.867-.864a2.3 2.3 0 0 1 3.214 0l.459.45.008.007c.88.882.877 2.31-.008 3.188l-.866.82 1.247 1.131-.615.613-.615.605-2.443 2.41-1.24 1.217-1.212-1.2-.866.863a2.318 2.318 0 0 1-3.214 0l-.46-.458-.007-.007a2.249 2.249 0 0 1 .007-3.188l.919-.864c-2.149-1.986-9.946-8.851-24.258-15.803z"/>
    </g>
</svg>
