<svg xmlns="http://www.w3.org/2000/svg" width="16" height="16" viewBox="0 0 16 16">
    <path fill="#8E7966" fill-rule="evenodd" d="M13.881 6.036l-.076-.028-.298-.724.033-.074c.901-2.085.839-2.147.69-2.298l-1.202-1.196a.313.313 0 0 0-.21-.085c-.067 0-.272 0-2.046.821l-.07.032-.733-.301-.029-.075C9.105 0 9.02 0 8.813 0H7.116c-.207 0-.301 0-1.074 2.112l-.03.077-.727.303-.07-.03c-1.201-.517-1.902-.778-2.084-.778a.317.317 0 0 0-.21.084L1.716 2.966c-.152.154-.215.22.733 2.26l.035.075-.299.725-.073.027C0 6.887 0 6.97 0 7.186v1.697c0 .218 0 .308 2.119 1.084l.075.026.297.722-.03.074c-.902 2.086-.845 2.141-.692 2.298l1.2 1.197c.05.05.137.085.21.085.069 0 .273 0 2.048-.82l.07-.034.733.302.029.075C6.894 16 6.979 16 7.187 16h1.697c.213 0 .301 0 1.076-2.114l.028-.077.73-.3.07.029c1.198.518 1.9.78 2.081.78.073 0 .16-.034.21-.084l1.205-1.203c.152-.154.215-.218-.735-2.257l-.035-.075.297-.722.072-.028C16 9.111 16 9.03 16 8.811V7.116c0-.218 0-.308-2.119-1.08zM8 10.752A2.753 2.753 0 0 1 5.25 8 2.752 2.752 0 0 1 8 5.25 2.753 2.753 0 0 1 10.748 8 2.753 2.753 0 0 1 8 10.752z"/>
</svg>
