<svg xmlns="http://www.w3.org/2000/svg" width="45" height="68" viewBox="0 0 45 68">
    <g fill="none" fill-rule="evenodd">
        <path d="M-8 0h60v60H-8z"/>
        <path fill="#8E7966" d="M22.5 29.344c-6.578 0-11.912-6.569-11.912-14.672C10.588 6.569 12.338 0 22.5 0c10.16 0 11.913 6.57 11.913 14.672 0 8.103-5.335 14.672-11.913 14.672zm22.475 21.81c.014.902.022 1.059.025.978v1.097S41.686 60 22.5 60 .003 53.229.003 53.229c0-.787-.001-1.239-.002-1.483.003.13.013.072.034-1.05C.287 36.95 2.216 32.987 15.977 30.47c0 0 1.959 2.53 6.524 2.53 4.564 0 6.523-2.53 6.523-2.53 13.912 2.546 15.73 6.568 15.951 20.684z"/>
        <g transform="translate(8 40)">
            <circle cx="14" cy="14" r="12.5" fill="#EEE4DA" stroke="#8E7966" stroke-width="3"/>
            <path fill="#8E7966" d="M12.5 13v-3a1.5 1.5 0 0 1 3 0v3h3a1.5 1.5 0 0 1 0 3h-3v3a1.5 1.5 0 0 1-3 0v-3h-3a1.5 1.5 0 0 1 0-3h3z"/>
        </g>
    </g>
</svg>
