<svg xmlns="http://www.w3.org/2000/svg" width="100" height="100" viewBox="0 0 100 100">
    <path fill="#C67A4B" fill-rule="evenodd" d="M99.667 59.481l-6.578-8.808c-.413-.566-.44-1.347-.027-1.913l6.44-8.889a1.633 1.633 0 0 0-.578-2.397l-9.825-5.145a1.6 1.6 0 0 1-.853-1.724l1.843-10.749c.166-.97-.577-1.885-1.596-1.912l-11.12-.458c-.714-.026-1.347-.512-1.54-1.185L72.75 5.796c-.276-.944-1.35-1.455-2.285-1.052l-10.239 4.31c-.66.27-1.43.109-1.925-.403L50.87.542A1.72 1.72 0 0 0 48.34.57l-7.322 8.215c-.468.54-1.237.701-1.899.432L28.826 5.068a1.69 1.69 0 0 0-2.258 1.077l-2.944 10.506a1.698 1.698 0 0 1-1.513 1.212l-11.12.62a1.667 1.667 0 0 0-1.569 1.939l2.01 10.721c.137.701-.221 1.4-.826 1.724l-9.743 5.28c-.88.485-1.129 1.616-.551 2.398l6.578 8.808c.413.566.441 1.347.028 1.913l-6.44 8.889a1.633 1.633 0 0 0 .577 2.398l9.826 5.145a1.6 1.6 0 0 1 .853 1.725L9.89 80.17a1.652 1.652 0 0 0 1.597 1.912l11.119.458c.716.028 1.35.512 1.542 1.185l3.11 10.48c.274.943 1.348 1.454 2.284 1.05l10.239-4.31a1.766 1.766 0 0 1 1.925.404l7.432 8.109a1.72 1.72 0 0 0 2.532-.028l7.32-8.215c.468-.54 1.238-.701 1.9-.432l10.292 4.149a1.69 1.69 0 0 0 2.258-1.077l2.944-10.506a1.7 1.7 0 0 1 1.514-1.213l11.119-.62a1.667 1.667 0 0 0 1.57-1.938l-2.01-10.722c-.138-.7.22-1.4.825-1.723l9.743-5.28c.88-.431 1.13-1.563.523-2.372zm-49.65 20.124c-16.65 0-30.22-13.281-30.22-29.578 0-16.297 13.57-29.578 30.22-29.578 16.652 0 30.22 13.281 30.22 29.578 0 16.324-13.568 29.578-30.22 29.578zm17.918-36.932l-11.395-.808-4.294-10.345c-.798-1.938-3.632-1.938-4.43 0l-4.294 10.345-11.394.808c-2.147.162-3 2.774-1.376 4.12l8.724 7.22-2.724 10.856c-.523 2.048 1.761 3.664 3.577 2.56l9.688-5.9 9.688 5.9c1.817 1.104 4.101-.512 3.578-2.56l-2.725-10.855 8.725-7.22c1.651-1.347.798-3.96-1.348-4.121z"/>
</svg>
