<svg xmlns="http://www.w3.org/2000/svg" width="28" height="28" viewBox="0 0 28 28">
    <path fill="#FFF" fill-rule="evenodd" d="M24 0H4a4 4 0 0 0-4 4v20a4 4 0 0 0 4 4h20a4 4 0 0 0 4-4V4a4 4 0 0 0-4-4zm-3.032 10.86l.008.444c0 4.554-3.469 9.808-9.81 9.808a9.688 9.688 0 0 1-5.28-1.555c.265.035.54.052.82.052a6.922 6.922 0 0 0 4.281-1.478 3.453 3.453 0 0 1-3.22-2.393 3.482 3.482 0 0 0 1.555-.06 3.447 3.447 0 0 1-2.76-3.374v-.044c.462.258.99.411 1.555.429A3.442 3.442 0 0 1 7.06 8.09a9.772 9.772 0 0 0 7.1 3.598 3.305 3.305 0 0 1-.086-.787 3.444 3.444 0 0 1 3.443-3.443c.991 0 1.888.42 2.52 1.085a6.944 6.944 0 0 0 2.187-.83 3.43 3.43 0 0 1-1.52 1.906 6.942 6.942 0 0 0 1.982-.547 7.097 7.097 0 0 1-1.717 1.787z"/>
</svg>
