<svg xmlns="http://www.w3.org/2000/svg" width="24" height="22" viewBox="0 0 24 22">
    <path fill="#8E7966" fill-rule="evenodd" d="M23.596 4.067c-.27-.267-.596-.4-.98-.4h-4.154V2.291c0-.63-.226-1.17-.678-1.619A2.23 2.23 0 0 0 16.154 0H7.846c-.634 0-1.178.224-1.63.673a2.2 2.2 0 0 0-.678 1.619v1.374H1.385c-.385 0-.712.134-.981.401A1.324 1.324 0 0 0 0 5.042v1.833c0 .678.2 1.36.598 2.048.4.688.938 1.308 1.616 1.862.677.554 1.51 1.02 2.495 1.397.986.377 2.022.59 3.109.637.403.516.86.97 1.37 1.361.365.324.617.67.757 1.038.139.368.21.795.21 1.282 0 .515-.148.95-.441 1.303-.293.354-.762.53-1.406.53-.721 0-1.363.217-1.926.652-.562.435-.844.982-.844 1.64v.917c0 .134.043.244.13.33A.453.453 0 0 0 6 22h12a.452.452 0 0 0 .332-.129.445.445 0 0 0 .13-.33v-.916c0-.658-.282-1.205-.845-1.64a3.06 3.06 0 0 0-1.925-.652c-.644 0-1.113-.176-1.406-.53-.293-.353-.44-.788-.44-1.303 0-.487.07-.914.21-1.282.139-.368.392-.714.756-1.038.51-.392.967-.845 1.37-1.361a9.812 9.812 0 0 0 3.109-.637c.985-.377 1.818-.843 2.495-1.397a6.846 6.846 0 0 0 1.616-1.862c.398-.687.598-1.37.598-2.048V5.042c0-.383-.135-.707-.404-.975zM3.21 9.195c-.91-.801-1.364-1.576-1.364-2.32V5.5h3.692c0 1.996.356 3.766 1.068 5.313-1.356-.276-2.488-.816-3.396-1.618zm18.944-2.32c0 .745-.454 1.519-1.363 2.32-.909.803-2.041 1.342-3.397 1.62.712-1.548 1.068-3.32 1.068-5.315h3.692v1.375z"/>
</svg>
