<svg xmlns="http://www.w3.org/2000/svg" width="28" height="28" viewBox="0 0 28 28">
    <path fill="#FFF" fill-rule="evenodd" d="M24 0H4a4 4 0 0 0-4 4v20a4 4 0 0 0 4 4h20a4 4 0 0 0 4-4V4a4 4 0 0 0-4-4zm-3.509 15.995c.597.629 1.228 1.22 1.764 1.916.237.307.46.624.631.98.242.51.023 1.068-.399 1.099l-2.621-.001c-.677.06-1.216-.235-1.67-.735-.363-.398-.7-.824-1.05-1.235a2.546 2.546 0 0 0-.47-.454c-.358-.251-.67-.175-.874.228-.208.41-.257.866-.276 1.322-.029.667-.215.842-.835.874-1.326.066-2.584-.152-3.752-.872-1.031-.636-1.83-1.535-2.525-2.552-1.354-1.982-2.391-4.158-3.323-6.397-.21-.505-.056-.775.457-.785a66.61 66.61 0 0 1 2.569-.001c.348.006.578.221.711.576.463 1.228 1.03 2.397 1.74 3.482.19.288.384.576.658.78.303.225.535.151.679-.216.09-.233.13-.481.15-.73.068-.854.076-1.708-.041-2.56-.073-.531-.352-.875-.843-.976-.25-.051-.213-.15-.092-.306.212-.266.41-.432.805-.432h2.963c.467.098.572.326.636.833l.002 3.555c-.006.197.091.778.417.907.262.094.436-.134.593-.313.71-.813 1.216-1.774 1.668-2.769.2-.437.373-.891.542-1.346.124-.336.317-.502.668-.496l2.853.004c.084 0 .17 0 .253.015.48.09.612.313.463.82-.233.794-.69 1.457-1.134 2.122-.476.71-.984 1.397-1.457 2.112-.432.655-.398.984.14 1.55z"/>
</svg>
