<svg xmlns="http://www.w3.org/2000/svg" width="20" height="20" viewBox="0 0 20 20">
    <path fill="#717070" fill-rule="evenodd" d="M19.778 5.761c.185.23.254.505.208.827l-.88 5.006a.941.941 0 0 1-.36.643 1.094 1.094 0 0 1-.706.253H6.206l-.255 1.424h11.232c.293 0 .548.103.764.31.217.207.325.463.325.77 0 .306-.108.562-.325.769a1.07 1.07 0 0 1-.764.31H4.653c-.324 0-.602-.13-.834-.39a1.109 1.109 0 0 1-.255-.896l.58-3.124-.88-8.773L.76 2.11a1.022 1.022 0 0 1-.637-.529A1.132 1.132 0 0 1 .043.755C.135.464.317.253.587.123s.545-.157.823-.08l3.197 1.01a.98.98 0 0 1 .498.344c.131.169.212.36.243.575l.186 1.745 13.502 1.608c.325.046.572.191.742.436zM6.298 16.67c.464 0 .857.16 1.182.482.324.322.486.712.486 1.171 0 .46-.162.854-.486 1.183-.325.33-.718.494-1.182.494-.463 0-.857-.165-1.181-.494a1.625 1.625 0 0 1-.487-1.183c0-.459.162-.85.487-1.17a1.616 1.616 0 0 1 1.181-.483zm8.892 0c.464 0 .858.16 1.182.482.324.322.487.712.487 1.171 0 .46-.163.854-.487 1.183-.324.33-.718.494-1.182.494-.463 0-.857-.165-1.181-.494a1.625 1.625 0 0 1-.487-1.183c0-.459.162-.85.487-1.17a1.616 1.616 0 0 1 1.181-.483z"/>
</svg>
