<svg xmlns="http://www.w3.org/2000/svg" width="48" height="48" viewBox="0 0 48 48">
    <path fill="#D9534F" fill-rule="evenodd" d="M24 0C10.766 0 0 10.766 0 24s10.766 24 24 24 24-10.766 24-24S37.234 0 24 0zM11.782 19.345c0-.765.311-1.516.852-2.057a2.932 2.932 0 0 1 2.057-.852c.765 0 1.516.312 2.057.852.542.541.852 1.292.852 2.057 0 .766-.31 1.516-.852 2.057a2.93 2.93 0 0 1-2.057.852c-.765 0-1.516-.31-2.057-.852a2.93 2.93 0 0 1-.852-2.057zm21.166 13.603a2.183 2.183 0 0 1-3.086 0A8.236 8.236 0 0 0 24 30.52a8.237 8.237 0 0 0-5.863 2.428c-.426.426-.984.64-1.542.64a2.182 2.182 0 0 1-1.543-3.725A12.573 12.573 0 0 1 24 26.155c3.38 0 6.558 1.316 8.948 3.706a2.183 2.183 0 0 1 0 3.086zm2.418-11.546a2.931 2.931 0 0 1-2.057.852 2.93 2.93 0 0 1-2.057-.852 2.924 2.924 0 0 1-.852-2.057c0-.765.31-1.516.852-2.057a2.931 2.931 0 0 1 2.057-.852c.765 0 1.516.312 2.057.852.542.541.852 1.292.852 2.057 0 .766-.31 1.516-.852 2.057z"/>
</svg>
