<svg xmlns="http://www.w3.org/2000/svg" width="26" height="26" viewBox="0 0 26 26">
    <path fill="#A6A6A6" fill-rule="evenodd" d="M25.913 15.465l-1.71-2.29a.425.425 0 0 1-.007-.497l1.674-2.311a.425.425 0 0 0-.15-.624l-2.554-1.337a.416.416 0 0 1-.222-.449l.48-2.794a.43.43 0 0 0-.416-.498l-2.89-.119a.435.435 0 0 1-.402-.308l-.8-2.731a.439.439 0 0 0-.595-.273l-2.662 1.12a.459.459 0 0 1-.5-.105L13.225.141a.447.447 0 0 0-.658.007l-1.903 2.136a.436.436 0 0 1-.494.112L7.495 1.318a.44.44 0 0 0-.587.28l-.766 2.731a.442.442 0 0 1-.393.315l-2.891.162a.433.433 0 0 0-.408.504l.522 2.787a.42.42 0 0 1-.215.448L.224 9.918a.425.425 0 0 0-.143.624l1.71 2.29c.108.147.115.35.008.497L.124 15.64a.425.425 0 0 0 .15.624L2.83 17.6a.416.416 0 0 1 .222.449l-.48 2.794a.43.43 0 0 0 .415.497l2.891.12c.187.007.351.132.401.308l.809 2.724c.071.245.35.378.594.273l2.662-1.12a.46.46 0 0 1 .5.105l1.933 2.108c.178.19.479.19.658-.007l1.903-2.136a.436.436 0 0 1 .494-.112l2.676 1.078a.44.44 0 0 0 .587-.28l.766-2.731a.442.442 0 0 1 .393-.316l2.891-.16a.433.433 0 0 0 .408-.505l-.522-2.788a.42.42 0 0 1 .214-.447l2.534-1.373a.408.408 0 0 0 .135-.617zm-12.909 5.232c-4.329 0-7.857-3.453-7.857-7.69s3.528-7.69 7.857-7.69c4.33 0 7.857 3.453 7.857 7.69 0 4.244-3.527 7.69-7.857 7.69zm4.659-9.602l-2.963-.21-1.116-2.69c-.207-.504-.944-.504-1.152 0l-1.116 2.69-2.963.21c-.558.042-.78.721-.358 1.071l2.269 1.878-.709 2.822c-.135.532.459.953.93.665l2.52-1.533 2.518 1.533c.473.288 1.067-.133.93-.665l-.708-2.822 2.268-1.878c.43-.35.208-1.029-.35-1.071z"/>
</svg>
