<svg xmlns="http://www.w3.org/2000/svg" width="12" height="12" viewBox="0 0 12 12">
    <path fill="#76C47D" fill-rule="evenodd" d="M11.74 5.439a.922.922 0 0 0 .217-.922.863.863 0 0 0-.694-.61l-2.906-.441a.384.384 0 0 1-.286-.217L6.772.5A.853.853 0 0 0 6 0a.855.855 0 0 0-.772.501L3.93 3.249a.381.381 0 0 1-.286.217l-2.905.44a.864.864 0 0 0-.696.611c-.1.329-.018.681.218.922l2.103 2.138a.41.41 0 0 1 .109.351l-.496 3.02a.912.912 0 0 0 .187.728.844.844 0 0 0 1.062.219l2.598-1.426a.373.373 0 0 1 .354 0l2.6 1.426c.125.07.26.105.4.105a.848.848 0 0 0 .66-.324.91.91 0 0 0 .188-.728l-.497-3.02a.41.41 0 0 1 .11-.351l2.102-2.138z"/>
</svg>
