<svg xmlns="http://www.w3.org/2000/svg" width="60" height="47" viewBox="0 0 60 47">
    <path fill="#FFB950" fill-rule="evenodd" d="M53.815 19.635c-3.122 2.267-7.508 5.28-9.487 5.28-.39 0-.517-.118-.607-.231-.81-1.007-.589-4.538.65-10.49a1.266 1.266 0 0 0-.73-1.418 1.235 1.235 0 0 0-1.514.459c-4.268 6.434-6.222 7.786-7.108 7.786-1.256 0-2.533-3.657-3.8-10.87a1.24 1.24 0 0 0-1.15-1.025v-.01c-.013 0-.026.004-.038.004l-.034-.003v.009a1.239 1.239 0 0 0-1.15 1.026c-1.272 7.212-2.548 10.87-3.804 10.87-.886 0-2.84-1.353-7.105-7.787-.329-.5-.965-.69-1.514-.459a1.26 1.26 0 0 0-.732 1.418c1.24 5.952 1.46 9.483.652 10.49-.09.113-.217.232-.608.232-1.978 0-6.364-3.014-9.49-5.281a1.233 1.233 0 0 0-1.6.135 1.264 1.264 0 0 0-.13 1.618c7.143 9.245 5.801 19.854 5.801 19.854-.028.148-.04.295-.04.455 0 2.606 3.605 3.638 6.749 4.246 3.462.672 8.023 1.045 12.865 1.057H30.174c4.842-.012 9.402-.385 12.865-1.057 3.143-.608 6.749-1.643 6.749-4.246 0-.16-.012-.307-.04-.455 0 0-1.343-10.612 5.8-19.854a1.267 1.267 0 0 0-.13-1.618 1.236 1.236 0 0 0-1.603-.135zM30.174 43.403h-.013c-.044 0-.086.004-.13.004-.044 0-.084-.004-.13-.004h-.01c-7.697-.022-12.787-.929-15.035-1.706 2.248-.78 7.338-1.687 15.035-1.709h.28c7.7.022 12.787.928 15.035 1.71-2.244.776-7.335 1.683-15.032 1.705zm3.614-39.605c0 2.098-1.683 3.798-3.757 3.798-2.071 0-3.755-1.7-3.755-3.798S27.96 0 30.031 0c2.074 0 3.757 1.7 3.757 3.798zM17.311 8.386c0 1.75-1.401 3.168-3.128 3.168s-3.128-1.418-3.128-3.168c0-1.747 1.401-3.164 3.128-3.164s3.128 1.417 3.128 3.164zm31.439 0c0 1.75-1.399 3.168-3.129 3.168-1.726 0-3.128-1.418-3.128-3.168 0-1.747 1.402-3.164 3.128-3.164 1.73 0 3.129 1.417 3.129 3.164zm-44.531 9.02a2.12 2.12 0 0 1-2.111 2.132A2.12 2.12 0 0 1 0 17.405a2.12 2.12 0 0 1 2.108-2.132 2.12 2.12 0 0 1 2.11 2.132zm55.781 0c0 1.179-.946 2.132-2.112 2.132-1.162 0-2.108-.953-2.108-2.133 0-1.179.946-2.132 2.108-2.132 1.166 0 2.112.953 2.112 2.132z"/>
</svg>
