<svg xmlns="http://www.w3.org/2000/svg" width="20" height="20" viewBox="0 0 20 20">
    <path fill="#717070" fill-rule="evenodd" d="M16 0c2.21 0 4 1.79 4 4v12c0 2.21-1.79 4-4 4H4c-2.21 0-4-1.79-4-4V4c0-2.21 1.79-4 4-4h12zm-6 7c-2.293 0-4.372 1.228-5.906 3.221-.125.164-.125.392 0 .555C5.628 12.772 7.707 14 10 14c2.293 0 4.372-1.228 5.906-3.221.125-.164.125-.392 0-.555C14.372 8.228 12.293 7 10 7zm2.519 3.66c-.081 1.228-1.1 2.225-2.355 2.305-1.521.093-2.778-1.134-2.683-2.626.079-1.23 1.098-2.227 2.355-2.304 1.521-.093 2.778 1.134 2.683 2.626zm-2.47-1.49l-.135.002c-.677.043-1.227.579-1.269 1.242-.054.802.623 1.462 1.443 1.412.675-.04 1.225-.577 1.27-1.242.053-.802-.624-1.463-1.444-1.412z"/>
</svg>
