<svg xmlns="http://www.w3.org/2000/svg" width="56" height="48" viewBox="0 0 56 48">
    <g fill="none" fill-rule="evenodd">
        <path fill="#8E7966" d="M53.69.303C53.315.103 52.872 0 52.376 0c-3.274 0-8.495 4.422-11 6.735-4.014-1.761-8.65-2.69-13.45-2.69-4.801 0-9.438.929-13.452 2.69C11.97 4.423 6.75 0 3.475 0c-.496 0-.938.102-1.314.303C.611 1.136-.11 3.81.014 8.248c.113 4.03.936 9.115 2.319 14.33.017 6.764 1.483 12.275 4.357 16.382 4.197 5.996 11.341 9.037 21.236 9.037 9.894 0 17.039-3.04 21.235-9.037 2.875-4.107 4.34-9.618 4.357-16.382 1.383-5.215 2.206-10.3 2.319-14.33.124-4.44-.598-7.112-2.147-7.945z"/>
        <path fill="#FAF8EF" d="M32.594 36.775c-1.951 0-3.561-1.504-3.749-3.424l2.588-1.593a.91.91 0 0 0 .432-.776c0-1.532-1.236-2.779-2.756-2.779h-2.367c-1.52 0-2.756 1.247-2.756 2.78 0 .316.163.61.431.775l2.589 1.593c-.188 1.92-1.798 3.424-3.75 3.424-.497 0-.9.406-.9.908s.403.909.9.909a5.558 5.558 0 0 0 4.67-2.56 5.557 5.557 0 0 0 4.668 2.56c.497 0 .9-.407.9-.909a.905.905 0 0 0-.9-.908zm-5.852-6.755h2.367c.368 0 .687.21.846.518l-2.03 1.25-2.03-1.25a.955.955 0 0 1 .847-.518zM16.799 15.045c-3.38 0-6.13 2.773-6.13 6.182 0 3.409 2.75 6.182 6.13 6.182s6.13-2.773 6.13-6.182c0-3.409-2.75-6.182-6.13-6.182z"/>
        <path fill="#8E7966" d="M16.799 18.36c-.498 0-.901.407-.901.91v3.915c0 .502.403.908.9.908.499 0 .902-.406.902-.908v-3.916a.904.904 0 0 0-.901-.908z"/>
        <path fill="#FAF8EF" d="M39.052 15.045c-3.38 0-6.13 2.773-6.13 6.182 0 3.409 2.75 6.182 6.13 6.182s6.13-2.773 6.13-6.182c0-3.409-2.75-6.182-6.13-6.182z"/>
        <path fill="#8E7966" d="M39.052 18.36c-.497 0-.9.407-.9.91v3.915c0 .502.403.908.9.908s.9-.406.9-.908v-3.916a.904.904 0 0 0-.9-.908z"/>
    </g>
</svg>
