<svg xmlns="http://www.w3.org/2000/svg" width="80" height="80" viewBox="0 0 80 80">
    <g fill="#8E7966" fill-rule="evenodd">
        <path d="M79.734 47.585l-5.263-7.047c-.33-.452-.351-1.077-.021-1.53l5.151-7.11a1.306 1.306 0 0 0-.462-1.92l-7.86-4.115a1.28 1.28 0 0 1-.683-1.38l1.475-8.598a1.32 1.32 0 0 0-1.277-1.53L61.9 13.99a1.337 1.337 0 0 1-1.233-.948L58.2 4.636c-.22-.754-1.08-1.163-1.828-.84l-8.191 3.448a1.412 1.412 0 0 1-1.54-.323L40.696.434a1.376 1.376 0 0 0-2.025.022l-5.857 6.572a1.34 1.34 0 0 1-1.52.345l-8.233-3.319a1.351 1.351 0 0 0-1.806.862l-2.356 8.405a1.359 1.359 0 0 1-1.21.97l-8.896.495a1.333 1.333 0 0 0-1.255 1.551l1.607 8.577c.11.561-.177 1.121-.66 1.38L.69 30.518c-.704.388-.903 1.293-.44 1.918l5.262 7.047c.33.452.353 1.077.023 1.53l-5.153 7.11a1.307 1.307 0 0 0 .462 1.92l7.861 4.115c.506.26.792.82.683 1.38l-1.476 8.598a1.321 1.321 0 0 0 1.277 1.53l8.895.366c.573.022 1.08.41 1.233.948l2.488 8.384c.22.754 1.08 1.163 1.827.84l8.192-3.448a1.413 1.413 0 0 1 1.54.323l5.945 6.487c.55.582 1.476.582 2.026-.022l5.857-6.572a1.34 1.34 0 0 1 1.519-.345l8.234 3.318a1.352 1.352 0 0 0 1.806-.861l2.356-8.405a1.36 1.36 0 0 1 1.21-.97l8.895-.496a1.333 1.333 0 0 0 1.256-1.55l-1.607-8.578c-.111-.56.176-1.12.66-1.379l7.794-4.224c.704-.345.903-1.25.419-1.897zm-39.72 16.099c-13.32 0-24.176-10.625-24.176-23.662 0-13.038 10.855-23.663 24.176-23.663 13.32 0 24.175 10.625 24.175 23.663 0 13.059-10.854 23.662-24.175 23.662z"/>
        <path d="M40 37.172l7.778-7.779a1 1 0 0 1 1.414 0l1.415 1.415a1 1 0 0 1 0 1.414L42.828 40l7.779 7.778a1 1 0 0 1 0 1.414l-1.415 1.415a1 1 0 0 1-1.414 0L40 42.828l-7.778 7.779a1 1 0 0 1-1.414 0l-1.415-1.415a1 1 0 0 1 0-1.414L37.172 40l-7.779-7.778a1 1 0 0 1 0-1.414l1.415-1.415a1 1 0 0 1 1.414 0L40 37.172z"/>
    </g>
</svg>
