<svg xmlns="http://www.w3.org/2000/svg" width="20" height="20" viewBox="0 0 20 20">
    <g fill="none" fill-rule="evenodd">
        <rect width="20" height="20" fill="#8E7966" rx="2"/>
        <path fill="#FAF8EF" d="M5.152 7.923a3.33 3.33 0 0 1-.784-.777C4.123 6.816 4 6.509 4 6.226c0-.35.093-.642.278-.876.185-.233.45-.35.794-.35h9.856c.29 0 .542.105.754.316.212.212.318.465.318.762 0 .355-.11.693-.328 1.017-.219.323-.491.599-.817.828-1.679 1.172-2.723 1.902-3.134 2.19-.044.03-.14.1-.285.205-.145.105-.265.19-.361.255a7.12 7.12 0 0 1-.348.22c-.137.08-.265.14-.385.181-.121.04-.233.06-.335.06h-.014c-.102 0-.214-.02-.335-.06-.12-.04-.249-.1-.385-.181a6.744 6.744 0 0 1-.348-.22c-.096-.065-.216-.15-.362-.255a29.31 29.31 0 0 0-.284-.206c-.406-.287-.99-.697-1.755-1.23-.763-.531-1.22-.85-1.372-.959zM15.33 9.161c.255-.176.478-.37.67-.587v5.348c0 .297-.105.55-.315.762-.21.21-.462.316-.757.316H5.072c-.295 0-.548-.105-.757-.316A1.04 1.04 0 0 1 4 13.922V8.574c.196.22.422.416.676.587 1.616 1.104 2.726 1.879 3.328 2.323.255.189.462.336.62.441.158.106.37.214.633.324.263.11.508.165.736.165h.014c.228 0 .473-.055.736-.165.264-.11.475-.218.633-.324.158-.105.365-.252.62-.44.758-.553 1.87-1.328 3.334-2.324z"/>
    </g>
</svg>
