<svg xmlns="http://www.w3.org/2000/svg" width="22" height="24" viewBox="0 0 22 24">
    <path fill="#76C47D" fill-rule="evenodd" stroke="#76C47D" stroke-width=".4" d="M20.032 11.745c-.8-.76-1.931-.85-2.714-.85-.402 0-.789.027-1.154.054a.568.568 0 0 1-.132-.03c-.078-.024-.171-.053-.273-.06-.375-.076-.663-.153-.935-.366-.552-.486-1.038-1.092-1.509-1.678l-.338-.418c-.615-.734-1.371-1.708-1.746-2.755-.198-.525-.279-1.078-.252-1.747.003-.127.013-.252.018-.37.03-.489.058-.947-.104-1.42C10.665 1.401 10.103 1 9.354 1c-.503 0-1.035.19-1.436.506-1.011.693-1.658 2.007-1.74 3.516-.042.85.22 1.578.474 2.283.219.613.43 1.193.426 1.817-.003.95-.833 1.214-2.009 1.483-.129.03-.255.06-.354.087-.135.023-.273.044-.41.068-.882.145-1.881.31-2.603.991-.546.533-.807 1.418-.663 2.25.105.6.405 1.095.837 1.388-.273 1.022.233 2.209 1.217 2.845-.096.462-.006.983.255 1.471.291.545.753.974 1.271 1.175 0 .936.648 1.75 1.665 2.037.284.056.59.083.938.083.516 0 1.034-.06 1.533-.115l.524-.057c.294-.06.6-.098.909-.136.639-.083 1.295-.166 1.889-.417.483-.213.908-.519 1.316-.814.135-.098.267-.193.402-.284a4.11 4.11 0 0 0 .404-.347c.238-.219.48-.447.717-.491.21-.04.411-.063.606-.083.216-.024.426-.045.633-.086h.102c.218 0 .456.012.704.027.282.017.576.035.867.035.714 0 1.61-.092 2.189-.793.852-.998.974-2.52.98-4.011v-.065c.012-1.096.021-2.753-.965-3.618zm-3.242 5.997c-.219.79-.65 1.117-1.562 1.2-.285 0-.632 0-.96.198-.347.094-.626.355-.878.586-.096.092-.192.18-.282.249l-.369.272c-.377.284-.77.577-1.118.746-.213.053-.456.106-.695.16l-.469.103c-.977.175-1.99.267-2.944.35-.321 0-.654 0-.987-.086a.538.538 0 0 1-.413-.252c-.12-.195-.133-.488-.034-.746a.54.54 0 0 0-.039-.524c-.159-.24-.473-.346-.716-.346h-.033l-.03.01a.48.48 0 0 1-.087.007c-.198 0-.402-.163-.545-.435-.18-.343-.205-.76-.072-.947.15-.174.173-.429.066-.663a.617.617 0 0 0-.472-.364c-.464-.157-.764-.444-.893-.847-.093-.34-.069-.73.09-.917.153-.25.19-.539.096-.773-.078-.19-.237-.329-.474-.394-.44-.08-.573-.432-.606-.719-.071-.527.336-.926.72-1.116.59-.325 1.31-.44 2.01-.553.374-.063.758-.125 1.124-.216 1.253-.32 2.15-1.288 2.237-2.404.06-.82-.202-1.575-.456-2.303-.216-.616-.417-1.2-.435-1.812-.018-.592.156-1.246.49-1.87.32-.492.857-1.022 1.282-1.022.024 0 .045.003.063.003.264.039.255.533.225.991l-.006.116c-.039.755-.054 1.392.12 2.128.243 1.001.821 1.815 1.376 2.6.12.171.243.343.366.52.525.743 1.19 1.554 1.913 2.33.138.163.288.344.471.465a.33.33 0 0 0 .177.16c.45.34.932.539 1.541.636.444.083.824.151 1.016.474.387.672.396 1.598.406 2.342l.003.174c.011.787.005 1.694-.217 2.49zm2.828-2.607l-.003.29c.006 1.143-.066 2.312-.63 3.12-.191.287-.569.308-1.088.308h-.054c.29-.586.405-1.268.476-1.886.12-1.122.109-2.223-.038-3.268-.063-.459-.162-.959-.384-1.406.42.047.851.16 1.178.435.558.462.55 1.631.543 2.407z"/>
</svg>
