<svg xmlns="http://www.w3.org/2000/svg" width="60" height="60" viewBox="0 0 60 60">
    <g fill="none" fill-rule="evenodd">
        <circle cx="30" cy="30" r="30" fill="#8E7966"/>
        <path fill="#ECE7DC" d="M30 29.672c-3.29 0-5.956-3.284-5.956-7.336 0-4.051.875-7.336 5.956-7.336s5.957 3.285 5.957 7.336c0 4.052-2.667 7.336-5.957 7.336zm11.238 10.905c.007.451.01.53.012.49v.547S39.594 45 30 45c-9.593 0-11.25-3.386-11.25-3.386v-.741c.002.065.007.036.017-.525.127-6.873 1.091-8.854 7.971-10.113 0 0 .98 1.265 3.262 1.265 2.283 0 3.262-1.265 3.262-1.265 6.956 1.273 7.865 3.284 7.976 10.342z"/>
    </g>
</svg>
