<svg xmlns="http://www.w3.org/2000/svg" width="12" height="12" viewBox="0 0 12 12">
    <path fill="#D9534F" fill-rule="evenodd" d="M10.8 2.64c0 .72-.54 1.38-1.2 1.5V1.8h1.2v.84zM7.2 6L6 5.34 4.8 6l.3-1.2-.9-1.2h1.26L6 2.4l.54 1.2H7.8l-.9 1.2.3 1.2zm-6-3.36V1.8h1.2v2.34c-.66-.18-1.2-.78-1.2-1.5zM11.4.6H9.6V0H2.4v.6H.6c-.36 0-.6.24-.6.6v1.44c0 1.38 1.02 2.52 2.4 2.7v.06c0 1.74 1.2 3.18 2.82 3.54L4.8 10.2H3.42c-.24 0-.48.18-.54.42L2.4 12h7.2l-.48-1.38a.576.576 0 0 0-.54-.42H7.2l-.42-1.26C8.4 8.58 9.6 7.14 9.6 5.4v-.06c1.38-.18 2.4-1.32 2.4-2.7V1.2c0-.36-.24-.6-.6-.6z"/>
</svg>
