<svg xmlns="http://www.w3.org/2000/svg" width="24" height="24" viewBox="0 0 24 24">
    <path fill="#76C47D" fill-rule="evenodd" d="M2 0h20a2 2 0 0 1 2 2v20a2 2 0 0 1-2 2H2a2 2 0 0 1-2-2V2a2 2 0 0 1 2-2zm5.491 9.843h1.235L9.297 8H5l2.457 8h2.457l2.457-8H10.44l-1.76 5.722-1.189-3.88zM19 9.225c0-.168-.032-.327-.097-.475a1.252 1.252 0 0 0-.652-.653A1.173 1.173 0 0 0 17.777 8H15.31v1.843h1.851v.927H19V9.225zm0 3.078c0-.168-.032-.326-.097-.475a1.325 1.325 0 0 0-.263-.395 1.204 1.204 0 0 0-.863-.366h-3.074V8h-.617c-.168 0-.326.032-.475.097-.148.065-.28.153-.394.264a1.205 1.205 0 0 0-.366.864v2.46a1.205 1.205 0 0 0 .366.876c.114.11.246.198.394.263.149.065.307.097.475.097h3.074v1.225h-2.457v-.607H12.85v1.225c0 .168.033.326.098.475a1.273 1.273 0 0 0 .662.664c.149.065.307.097.475.097h3.691a1.204 1.204 0 0 0 .863-.366c.11-.115.198-.246.263-.395.065-.149.097-.307.097-.475v-2.46z"/>
</svg>
