<svg width="16" height="16" viewBox="0 0 16 16" fill="none" xmlns="http://www.w3.org/2000/svg">
<path d="M15.6062 2.29537C16.1313 1.77027 16.1313 0.91892 15.6062 0.393823C15.0811 -0.131274 14.2297 -0.131274 13.7046 0.393823L8 6.09846L2.29537 0.393823C1.77027 -0.131274 0.91892 -0.131274 0.393823 0.393823C-0.131274 0.91892 -0.131274 1.77027 0.393823 2.29537L6.09846 8L0.393823 13.7046C-0.131274 14.2297 -0.131274 15.0811 0.393823 15.6062C0.91892 16.1313 1.77027 16.1313 2.29537 15.6062L8 9.90154L13.7046 15.6062C14.2297 16.1313 15.0811 16.1313 15.6062 15.6062C16.1313 15.0811 16.1313 14.2297 15.6062 13.7046L9.90154 8L15.6062 2.29537Z" fill="#E5E5E5"/>
</svg>
