<svg xmlns="http://www.w3.org/2000/svg" width="20" height="20" viewBox="0 0 20 20">
    <path fill="#FFF" fill-rule="evenodd" d="M2.004 16.167l.236.235.237.233.943.93.233.232.24.233-.5.481c.083.134.127.288.127.446.001.23-.092.452-.257.614l-.177.176c-.342.337-.893.337-1.236 0L.26 18.176c-.34-.338-.34-.887-.002-1.226l.003-.003.176-.173c.29-.274.73-.32 1.07-.11l.497-.497zm15.993 0l.5.498c.34-.21.78-.165 1.07.11l.176.172c.342.342.34.891 0 1.229l-1.589 1.571c-.343.337-.894.337-1.236 0l-.177-.176c-.165-.162-.258-.383-.256-.614-.001-.158.043-.312.126-.446l-.503-.481.24-.233.233-.232.943-.93.237-.233.236-.235zm-15.06-.93l.24.232.236.236.94.927.236.235.237.233-.47.462-.237-.233-.236-.236-.94-.926-.236-.236-.237-.233.466-.461zm14.13 0l.467.461-.236.233-.237.236-.94.926-.236.236-.237.233-.47-.462.237-.233.237-.235.94-.927.236-.236.24-.232zM6.853 11.204c.99.588 1.849 1.15 2.579 1.661-.795.58-1.556 1.206-2.28 1.873l.404.366c.342.342.34.89 0 1.229l-.177.176c-.345.332-.891.332-1.236 0l-.333-.333-.467.462-.476-.468-.94-.927-.236-.232-.237-.236.47-.462-.333-.315c-.342-.343-.34-.892 0-1.23l.176-.172c.344-.336.893-.336 1.236 0l.334.332zM.284.004c.184-.03.357.096.387.28.491 1.51 1.712 2.674 3.248 3.095.775.243 1.585.355 2.396.332.104-.007.205.035.273.113l8.124 9.097.333-.332c.344-.335.893-.335 1.236 0l.177.173.003.003c.339.34.338.888-.003 1.226l-.333.315.48.436-.237.235-.237.233-.94.927-.476.468-.466-.462-.333.332c-.345.332-.892.332-1.237 0l-.176-.176-.003-.003c-.339-.339-.338-.888.003-1.226l.353-.332c-.826-.764-3.825-3.404-9.33-6.078C-.189 6.853.004.642.004.39-.026.206.1.034.284.004zm19.358.004l.068.003c.184.026.312.195.287.379 0 .252.196 6.463-3.519 8.27-1.19.571-2.236 1.143-3.189 1.694l-2.842-3.209 2.969-3.321c.068-.078.17-.12.273-.113.812.023 1.621-.09 2.396-.332 1.532-.42 2.75-1.577 3.245-3.082.026-.184.196-.312.38-.286z"/>
</svg>
