<svg xmlns="http://www.w3.org/2000/svg" width="20" height="20" viewBox="0 0 20 20">
    <path fill="#D1C3B7" fill-rule="evenodd" d="M.063 9.485a.825.825 0 0 0 .181.271l2.5 2.5a.828.828 0 0 0 .588.244.832.832 0 0 0 .59-1.422L2.844 10H7.5a.833.833 0 1 0 0-1.667H2.844l1.078-1.077a.832.832 0 1 0-1.179-1.179l-2.499 2.5a.834.834 0 0 0-.18.908zm5.77 2.182a.833.833 0 0 0-.834.833v5c0 .46.373.833.834.833h4.166v.834a.834.834 0 0 0 .997.816l8.334-1.666c.39-.078.67-.42.67-.817V.833c0-.016-.01-.031-.012-.048 0-.024.007-.047.003-.072-.01-.07-.04-.132-.066-.195-.01-.024-.012-.048-.023-.07a.826.826 0 0 0-.222-.264c-.007-.005-.01-.014-.016-.019-.017-.013-.04-.014-.058-.026a.838.838 0 0 0-.354-.123C19.223.012 19.197 0 19.167 0H5.833a.833.833 0 0 0-.834.833v5a.833.833 0 1 0 1.667 0V1.667h6.822l-2.894.868a.834.834 0 0 0-.595.798v13.334H6.666V12.5a.833.833 0 0 0-.833-.833z"/>
</svg>
