<svg xmlns="http://www.w3.org/2000/svg" width="40" height="38" viewBox="0 0 40 38">
    <g fill="none" fill-rule="evenodd">
        <path d="M8 3h32v32H8z"/>
        <path fill="#8E7966" d="M31.315 18.293c-2.54 0-4.6-2.502-4.6-5.59 0-3.086.677-5.589 4.6-5.589 3.922 0 4.598 2.503 4.598 5.59 0 3.087-2.059 5.589-4.598 5.589zm8.675 8.309c.006.343.009.403.01.372v.418s-1.279 2.58-8.685 2.58c-7.407 0-8.686-2.58-8.686-2.58v-.565c0 .05.005.027.013-.4.097-5.236.842-6.746 6.154-7.705 0 0 .756.964 2.519.964 1.762 0 2.518-.964 2.518-.964 5.37.97 6.072 2.502 6.157 7.88zM8.915 18.293c-2.54 0-4.6-2.502-4.6-5.59 0-3.086.677-5.589 4.6-5.589 3.922 0 4.598 2.503 4.598 5.59 0 3.087-2.059 5.589-4.598 5.589zm8.675 8.309c.006.343.009.403.01.372v.418s-1.279 2.58-8.685 2.58c-7.407 0-8.686-2.58-8.686-2.58v-.565c0 .05.005.027.013-.4.097-5.236.842-6.746 6.154-7.705 0 0 .756.964 2.519.964 1.762 0 2.518-.964 2.518-.964 5.37.97 6.072 2.502 6.157 7.88z"/>
        <path stroke="#EEE4DA" stroke-width="4.267" d="M20.153 18.65c-3.51 0-6.354-3.503-6.354-7.825C13.8 6.504 14.733 3 20.153 3s6.353 3.504 6.353 7.825c0 4.322-2.845 7.825-6.353 7.825zm11.986 11.632c.008.481.013.837.013 1.107 0 0-1.766 3.611-12 3.611C9.92 35 8.154 31.389 8.154 31.389c0-.42.006-.753.017-1.352.136-7.33 1.164-9.443 8.503-10.787 0 0 1.045 1.35 3.48 1.35 2.434 0 3.479-1.35 3.479-1.35 7.42 1.358 8.39 3.504 8.507 11.032z"/>
        <path fill="#8E7966" d="M20.153 18.65c-3.51 0-6.354-3.503-6.354-7.825C13.8 6.504 14.733 3 20.153 3s6.353 3.504 6.353 7.825c0 4.322-2.845 7.825-6.353 7.825zm11.986 11.632c.008.481.012.565.013.522v.585S30.386 35 20.152 35C9.92 35 8.154 31.389 8.154 31.389v-.791c.001.07.006.038.017-.56.136-7.33 1.164-9.444 8.503-10.788 0 0 1.045 1.35 3.48 1.35 2.434 0 3.479-1.35 3.479-1.35 7.42 1.358 8.39 3.504 8.507 11.032z"/>
    </g>
</svg>
