<svg xmlns="http://www.w3.org/2000/svg" width="25" height="20" viewBox="0 0 25 20">
    <path fill="#7E6757" fill-rule="evenodd" d="M8.984 0c1.761 0 3.187 1.535 3.187 3.432v3.81c0 .593-.283 1.114-.713 1.426v3.67c0 .066.034.124.087.153.484.253 2.845 1.535 5.037 3.475.396.348.625.877.625 1.427V20H0v-2.607c0-.55.229-1.079.626-1.427 2.192-1.933 4.552-3.222 5.036-3.475.053-.03.087-.087.087-.152V8.668c-.43-.305-.713-.833-.713-1.427V3.432C5.036 1.535 6.462 0 8.223 0zm9.104 0c1.472 0 2.67 1.289 2.67 2.875v3.193c0 .507-.243.941-.6 1.202v3.078c0 .058.028.108.075.13.403.21 2.387 1.289 4.222 2.918.336.29.525.731.545 1.195V20h-6.522v-3.222c-.135-.74-.498-1.412-1.05-1.898-1.566-1.39-3.227-2.462-4.276-3.084 1.05-.724 1.91-1.188 2.159-1.318.047-.029.074-.072.074-.13V7.27c-.363-.26-.599-.702-.599-1.202V2.875c0-1.586 1.197-2.875 2.67-2.875z"/>
</svg>
