<svg xmlns="http://www.w3.org/2000/svg" width="11" height="11" viewBox="0 0 11 11">
    <path fill="#76C47D" fill-rule="evenodd" d="M5.5 11a5.5 5.5 0 1 1 0-11 5.5 5.5 0 0 1 0 11zm-.424-8.808l-3.064 3.08a.59.59 0 0 0-.179.432c0 .163.06.306.18.426l.352.354c.113.12.255.18.424.18.17 0 .31-.06.424-.18l1.383-1.386V8.43c0 .164.06.297.177.4.117.102.26.153.426.153H5.8a.627.627 0 0 0 .426-.153.506.506 0 0 0 .177-.4V5.098l1.379 1.386c.119.12.262.18.428.18.167 0 .31-.06.428-.18l.354-.354a.603.603 0 0 0 .174-.426.608.608 0 0 0-.174-.431L5.928 2.192a.58.58 0 0 0-.428-.175.556.556 0 0 0-.424.175z"/>
</svg>
