<svg xmlns="http://www.w3.org/2000/svg" width="11" height="11" viewBox="0 0 11 11">
    <path fill="#D9534F" fill-rule="evenodd" d="M5.5 0a5.5 5.5 0 1 0 0 11 5.5 5.5 0 0 0 0-11zm-.424 8.808l-3.064-3.08a.59.59 0 0 1-.179-.432c0-.163.06-.306.18-.426l.352-.354a.558.558 0 0 1 .424-.18c.17 0 .31.06.424.18l1.383 1.386V2.57c0-.164.06-.297.177-.4a.627.627 0 0 1 .426-.153H5.8c.167 0 .309.051.426.153a.506.506 0 0 1 .177.4v3.332l1.379-1.386a.582.582 0 0 1 .428-.18c.167 0 .31.06.428.18l.354.354a.603.603 0 0 1 .174.426.608.608 0 0 1-.174.431L5.928 8.808a.58.58 0 0 1-.428.175.556.556 0 0 1-.424-.175z"/>
</svg>
