<svg xmlns="http://www.w3.org/2000/svg" width="20" height="18" viewBox="0 0 20 18">
    <path fill="#FAF7EE" fill-rule="evenodd" d="M19.772 4.722A.714.714 0 0 1 20 5.25a.714.714 0 0 1-.228.527l-4.616 4.5a.723.723 0 0 1-.54.223.858.858 0 0 1-.3-.058c-.313-.133-.47-.364-.47-.692V7.5h-1.923c-2.588 0-4.343.511-5.264 1.535-.954 1.07-1.25 2.918-.89 5.543.024.18-.056.313-.24.398a.673.673 0 0 1-.145.024.38.38 0 0 1-.312-.153 9.073 9.073 0 0 1-.252-.363c-.089-.133-.247-.4-.475-.803-.228-.401-.427-.79-.595-1.166a9.138 9.138 0 0 1-.463-1.335 5.489 5.489 0 0 1-.21-1.43c0-.382.014-.738.042-1.067.028-.327.084-.679.168-1.054s.197-.719.337-1.031c.14-.313.329-.631.565-.956a4.61 4.61 0 0 1 .823-.866 6.41 6.41 0 0 1 1.136-.722 7.98 7.98 0 0 1 1.496-.568 13.06 13.06 0 0 1 1.917-.357A20.178 20.178 0 0 1 11.923 3h1.923V.75c0-.328.157-.558.47-.692a.861.861 0 0 1 .3-.058.75.75 0 0 1 .54.223l4.616 4.5zM16.67 11.25c.168.07.252.184.252.34v3.035c0 .93-.338 1.724-1.015 2.385-.677.66-1.493.99-2.446.99h-10c-.954 0-1.77-.33-2.446-.99C.339 16.35 0 15.554 0 14.625v-9.75c0-.93.339-1.724 1.016-2.385A3.377 3.377 0 0 1 3.46 1.5h3.065c.105 0 .195.037.271.111a.358.358 0 0 1 .114.264c0 .21-.105.336-.313.374A8.156 8.156 0 0 0 5 2.953.572.572 0 0 1 4.807 3H3.461c-.529 0-.982.184-1.358.551a1.783 1.783 0 0 0-.565 1.324v9.75c0 .516.189.957.565 1.324.376.368.83.55 1.358.55h10c.53 0 .982-.182 1.358-.55.377-.367.565-.808.565-1.324v-2.508c0-.149.072-.262.217-.34.224-.1.44-.246.649-.433.128-.125.268-.157.42-.094z"/>
</svg>
