<svg xmlns="http://www.w3.org/2000/svg" width="20" height="24" viewBox="0 0 20 24">
    <path fill="#717070" d="M13 0v2h-2v2.048c1.713.172 3.351.785 4.756 1.78l1.537-1.537 1.414 1.414L17.27 7.14c3.741 3.96 3.623 10.184-.267 13.998-3.889 3.815-10.117 3.815-14.006 0-3.89-3.814-4.008-10.038-.267-13.998L1.293 5.705 2.707 4.29l1.537 1.536C5.65 4.833 7.287 4.22 9 4.048V2H7V0h6zm-3 5.997c-4.418 0-8 3.58-8 7.997 0 4.416 3.582 7.996 8 7.996 4.416-.005 7.995-3.582 8-7.996 0-4.417-3.582-7.997-8-7.997zm0 2c3.314 0 6 2.685 6 5.997s-2.686 5.997-6 5.997-6-2.685-6-5.997h6z"/>
</svg>
