<svg width="20" height="20" viewBox="0 0 20 20" fill="none" xmlns="http://www.w3.org/2000/svg">
<rect width="20" height="20" rx="2" fill="#8E7966"/>
<path fill-rule="evenodd" clip-rule="evenodd" d="M4 10C4 11.5913 4.63214 13.1174 5.75736 14.2426C6.88258 15.3679 8.4087 16 10 16C11.5913 16 13.1174 15.3679 14.2426 14.2426C15.3679 13.1174 16 11.5913 16 10C16 8.4087 15.3679 6.88258 14.2426 5.75736C13.1174 4.63214 11.5913 4 10 4C8.4087 4 6.88258 4.63214 5.75736 5.75736C4.63214 6.88258 4 8.4087 4 10ZM14.9448 10.5143C14.8686 11.2465 14.631 11.9501 14.2525 12.5752C14.2348 12.5649 14.2171 12.5547 14.1994 12.5447C13.6865 12.2511 13.09 12.0209 12.4407 11.863C12.5036 11.4339 12.5446 10.9819 12.5619 10.5143H14.9448ZM14.9448 9.48571C14.869 8.75658 14.633 8.05591 14.2573 7.43281C14.2381 7.44406 14.2188 7.45521 14.1994 7.46627C13.687 7.75966 13.0909 7.98973 12.4423 8.14762C12.5042 8.57351 12.5447 9.02193 12.5619 9.48571H14.9448ZM11.5319 9.48571C11.5148 9.08193 11.4779 8.69466 11.425 8.33027C11.0611 8.37373 10.687 8.3961 10.3072 8.3961C9.71435 8.3961 9.13588 8.34146 8.5888 8.23755C8.52857 8.62873 8.48668 9.0475 8.46804 9.48571H11.5319ZM8.46804 10.5143C8.48685 10.9565 8.52933 11.3789 8.59045 11.7731C9.13704 11.6694 9.71494 11.6148 10.3072 11.6148C10.6865 11.6148 11.06 11.6372 11.4235 11.6805C11.4771 11.313 11.5146 10.922 11.5319 10.5143H8.46804ZM7.43805 10.5143C7.45771 11.0433 7.50761 11.5524 7.58513 12.0308C6.95618 12.2377 6.39398 12.517 5.93226 12.8581C5.44599 12.166 5.14308 11.3593 5.05523 10.5143H7.43805ZM7.43805 9.48571C7.45756 8.96051 7.50689 8.455 7.58345 7.97961C6.95288 7.77202 6.38946 7.49158 5.92721 7.1491C5.44389 7.83957 5.14278 8.64366 5.05523 9.48571H7.43805ZM12.2419 12.8729C12.7545 13.0011 13.2231 13.1799 13.6256 13.4015C13.5895 13.44 13.5527 13.4779 13.5153 13.5153C12.9325 14.0982 12.2198 14.5213 11.4453 14.7567C11.7801 14.2782 12.0503 13.6316 12.2419 12.8729ZM10.3072 12.6427C9.78493 12.6427 9.2777 12.6904 8.80151 12.7795C9.10712 13.9063 9.57047 14.6286 9.99999 14.6286C10.4405 14.6286 10.9166 13.8688 11.2217 12.6921C10.9242 12.6596 10.6183 12.6427 10.3072 12.6427ZM7.80274 13.0426C7.34919 13.2007 6.9452 13.4014 6.61063 13.6369C7.16891 14.1573 7.83508 14.538 8.55464 14.7567C8.24509 14.3142 7.99083 13.7281 7.80274 13.0426ZM13.6323 6.60571C13.5941 6.56478 13.5551 6.52442 13.5153 6.48467C12.9325 5.90184 12.2198 5.47866 11.4453 5.2433C11.7817 5.72401 12.0527 6.37426 12.2445 7.1374C12.7589 7.00849 13.229 6.82865 13.6323 6.60571ZM11.2244 7.31853C10.9195 6.13577 10.4418 5.37143 9.99999 5.37143C9.56915 5.37143 9.10426 6.09815 8.79869 7.23089C9.2757 7.32035 9.7839 7.36822 10.3072 7.36822C10.6192 7.36822 10.9261 7.35126 11.2244 7.31853ZM7.80001 6.96742C7.98836 6.27756 8.24359 5.68792 8.55464 5.24331C7.83221 5.46285 7.16359 5.84579 6.60395 6.3693C6.93915 6.60641 7.34454 6.80841 7.80001 6.96742Z" fill="#FAF8EF"/>
</svg>
