<svg xmlns="http://www.w3.org/2000/svg" xmlns:xlink="http://www.w3.org/1999/xlink" width="34" height="34" viewBox="0 0 34 34">
    <defs>
        <path id="a" d="M.004 15.892V.018h7.531v15.874z"/>
    </defs>
    <g fill="none" fill-rule="evenodd">
        <g transform="translate(0 9.164)">
            <mask id="b" fill="#fff">
                <use xlink:href="#a"/>
            </mask>
            <path fill="#F0B529" d="M7.535 11.383L6.352 15.8l-4.326.091A16.924 16.924 0 0 1 0 7.836C0 5.016.686 2.359 1.9.018h.002l3.85.706L7.44 4.552a10.105 10.105 0 0 0-.546 3.284c0 1.248.226 2.443.641 3.547" mask="url(#b)"/>
        </g>
        <path fill="#5E7CB0" d="M33.703 13.824c.195 1.029.297 2.09.297 3.176 0 1.217-.128 2.404-.372 3.55a16.996 16.996 0 0 1-5.985 9.707h-.001l-4.85-.248-.687-4.286a10.132 10.132 0 0 0 4.359-5.174h-9.09v-6.725h16.329"/>
        <path fill="#2FA948" d="M27.642 30.256v.001A16.928 16.928 0 0 1 17 34c-6.474 0-12.103-3.619-14.974-8.944l5.51-4.51A10.108 10.108 0 0 0 17 27.107c1.862 0 3.607-.504 5.105-1.383l5.537 4.533"/>
        <path fill="#DC4139" d="M27.851 3.914l-5.507 4.509A10.048 10.048 0 0 0 17 6.894c-4.431 0-8.196 2.853-9.56 6.822L1.902 9.182H1.9C4.73 3.727 10.43 0 17 0c4.125 0 7.907 1.47 10.851 3.914"/>
    </g>
</svg>
