<svg xmlns="http://www.w3.org/2000/svg" width="18" height="17" viewBox="0 0 18 17">
    <path fill="#FAF8EF" fill-rule="evenodd" d="M17.81 4.897c.158.195.218.43.178.703l-.755 4.255a.798.798 0 0 1-.307.547.942.942 0 0 1-.606.215H5.32l-.219 1.21h10.485c.252 0 .47.088.656.263a.865.865 0 0 1 .278.654c0 .26-.093.479-.278.654a.922.922 0 0 1-.656.264H3.988a.928.928 0 0 1-.714-.332.937.937 0 0 1-.219-.761l.497-2.655-.755-7.457-2.145-.664a.875.875 0 0 1-.546-.449.955.955 0 0 1-.07-.703.862.862 0 0 1 .468-.537.985.985 0 0 1 .704-.068l2.74.86a.84.84 0 0 1 .428.292c.112.143.182.306.208.488l.159 1.484 12.43 1.366c.279.039.49.163.636.37zM5.397 14.169c.398 0 .735.137 1.013.41.278.274.417.605.417.996 0 .39-.139.726-.417 1.005-.278.28-.615.42-1.013.42-.397 0-.734-.14-1.012-.42a1.376 1.376 0 0 1-.417-1.005c0-.39.139-.722.417-.996.278-.273.615-.41 1.012-.41zm8.48 0c.397 0 .734.137 1.012.41.278.274.417.605.417.996 0 .39-.139.726-.417 1.005-.278.28-.615.42-1.013.42-.397 0-.734-.14-1.012-.42a1.376 1.376 0 0 1-.417-1.005c0-.39.139-.722.417-.996a1.39 1.39 0 0 1 1.012-.41z"/>
</svg>
