<svg xmlns="http://www.w3.org/2000/svg" width="10" height="10" viewBox="0 0 10 10">
    <path fill="#bbad9f" fill-rule="evenodd" d="M5 10A5 5 0 1 1 5 0a5 5 0 0 1 0 10zm.346-6.224H4.018V3.01a.153.153 0 0 0-.089-.138.158.158 0 0 0-.165.019L2.202 4.115a.152.152 0 0 0 0 .24l1.562 1.224a.16.16 0 0 0 .165.018.153.153 0 0 0 .089-.138v-.765h1.361c.409 0 .781.288.822.686a.772.772 0 0 1-.777.845h-1.25a.155.155 0 0 0-.156.153v.612c0 .084.07.153.156.153h1.25c1.004 0 1.811-.85 1.71-1.854-.088-.874-.891-1.513-1.788-1.513z"/>
</svg>
